<?xml version="1.0" encoding="UTF-8" standalone="no"?>
<!-- Created with Inkscape (http://www.inkscape.org/) -->

<svg
   width="198.20163mm"
   height="140.25681mm"
   viewBox="0 0 702.28924 496.97292"
   id="svg2"
   version="1.1"
   inkscape:version="0.92.5 (2060ec1f9f, 2020-04-08)"
   sodipodi:docname="wi-all.svg"
   inkscape:export-filename="/home/fred/Dropbox/svg/entremet/wienerbrød/2.png"
   inkscape:export-xdpi="90"
   inkscape:export-ydpi="90"
   xmlns:inkscape="http://www.inkscape.org/namespaces/inkscape"
   xmlns:sodipodi="http://sodipodi.sourceforge.net/DTD/sodipodi-0.dtd"
   xmlns="http://www.w3.org/2000/svg"
   xmlns:svg="http://www.w3.org/2000/svg"
   xmlns:rdf="http://www.w3.org/1999/02/22-rdf-syntax-ns#"
   xmlns:cc="http://creativecommons.org/ns#"
   xmlns:dc="http://purl.org/dc/elements/1.1/">
  <defs
     id="defs4">
    <linearGradient
       id="linearGradient56905"
       inkscape:swatch="solid">
      <stop
         style="stop-color:#923c3c;stop-opacity:1;"
         offset="0"
         id="stop56903" />
    </linearGradient>
  </defs>
  <sodipodi:namedview
     id="base"
     pagecolor="#ffffff"
     bordercolor="#666666"
     borderopacity="1.0"
     inkscape:pageopacity="1"
     inkscape:pageshadow="2"
     inkscape:zoom="0.125"
     inkscape:cx="2429.4412"
     inkscape:cy="7952.729"
     inkscape:document-units="mm"
     inkscape:current-layer="layer1"
     showgrid="true"
     inkscape:window-width="1880"
     inkscape:window-height="1016"
     inkscape:window-x="40"
     inkscape:window-y="27"
     inkscape:window-maximized="1"
     showguides="false"
     inkscape:guide-bbox="true"
     inkscape:lockguides="true"
     inkscape:snap-global="true"
     inkscape:snap-bbox="true"
     inkscape:snap-nodes="true"
     objecttolerance="10000"
     guidetolerance="10000"
     inkscape:pagecheckerboard="false"
     inkscape:showpageshadow="2"
     inkscape:deskcolor="#d1d1d1">
    <inkscape:grid
       type="xygrid"
       id="grid5214"
       units="mm"
       spacingx="17.716535"
       spacingy="17.716535"
       originx="0"
       originy="0"
       empspacing="10"
       dotted="false" />
    <sodipodi:guide
       position="4400.8516,360.91373"
       orientation="1,0"
       id="guide61746"
       inkscape:locked="true" />
    <sodipodi:guide
       position="4560.3004,431.77987"
       orientation="0,1"
       id="guide61750"
       inkscape:locked="true" />
    <sodipodi:guide
       position="3515.8827,1049.9747"
       orientation="0,1"
       id="guide4470"
       inkscape:locked="true" />
    <sodipodi:guide
       position="-1826.6213,1657.4896"
       orientation="1,0"
       id="guide5403"
       inkscape:locked="true" />
    <sodipodi:guide
       position="-5788.3546,-908.91513"
       orientation="1,0"
       id="guide8722"
       inkscape:locked="true" />
  </sodipodi:namedview>
  <metadata
     id="metadata7">
    <rdf:RDF>
      <cc:Work
         rdf:about="">
        <dc:format>image/svg+xml</dc:format>
        <dc:type
           rdf:resource="http://purl.org/dc/dcmitype/StillImage" />
        <dc:title />
      </cc:Work>
    </rdf:RDF>
  </metadata>
  <g
     inkscape:label="layer1"
     inkscape:groupmode="layer"
     id="layer1"
     transform="translate(-2497.8267,5799.9114)">
    <path
       inkscape:connector-curvature="0"
       style="fill:#c87137;fill-opacity:1;stroke:#000000;stroke-width:1.28209;stroke-miterlimit:4;stroke-dasharray:none;stroke-opacity:1"
       d="m 3065.7109,-5382.0614 c 4.4941,2.3862 8.9881,4.7723 13.482,7.1584 -4.2945,4.1712 -8.5445,8.3652 -12.7503,12.5822 -4.5258,-2.4026 -9.0517,-4.8052 -13.5778,-7.2079 4.2377,-4.2005 8.5198,-8.378 12.8461,-12.5327 z m -24.5387,-13.0293 c 4.4944,2.3865 8.9889,4.7728 13.4832,7.1591 -4.3527,4.1412 -8.6608,8.3053 -12.9247,12.4923 -4.5261,-2.4028 -9.0525,-4.8056 -13.5788,-7.2085 4.2957,-4.1705 8.6358,-8.3181 13.0203,-12.4429 z m -24.541,-13.0302 c 4.495,2.3866 8.9898,4.7731 13.4844,7.1596 -4.4106,4.1113 -8.7769,8.2454 -13.0989,12.4024 -4.5265,-2.4029 -9.0531,-4.8059 -13.5799,-7.209 4.3538,-4.1406 8.752,-8.2582 13.1944,-12.353 z m -24.5428,-13.0314 c 4.4952,2.3869 8.9904,4.7736 13.4855,7.1603 -4.4688,4.0813 -8.8931,8.1854 -13.2731,12.3125 -4.527,-2.4031 -9.054,-4.8063 -13.5811,-7.2096 4.4118,-4.1106 8.8681,-8.1983 13.3687,-12.2632 z m -22.3296,-13.1446 c 3.5719,2.3666 7.2131,4.7291 10.9216,7.0874 0.1167,0.062 0.233,0.1238 0.3495,0.1856 -4.5268,4.0514 -9.0091,8.1256 -13.4472,12.2227 -4.5273,-2.4033 -9.0547,-4.8067 -13.5822,-7.2102 1.3242,-1.209 2.6526,-2.4159 3.9847,-3.6209 3.8201,-2.9064 7.7444,-5.7949 11.7736,-8.6646 z m -19.2841,-13.3076 c 3.3946,2.4449 6.8659,4.8856 10.4118,7.3222 -5.9354,4.06 -11.657,8.1589 -17.167,12.2943 -3.8014,-2.4576 -7.5304,-4.92 -11.1848,-7.3869 5.7654,-4.115 11.7446,-8.1924 17.94,-12.2296 z m -17.761,-13.3887 c 3.1091,2.4593 6.2983,4.9148 9.566,7.3663 -6.4119,4.0177 -12.6058,8.0765 -18.5839,12.1741 -3.5312,-2.4744 -6.9862,-4.9534 -10.3632,-7.4367 6.2415,-4.0753 12.7011,-8.1107 19.3811,-12.1037 z m -16.1649,-13.4656 c 2.81,2.473 5.7039,4.9424 8.6799,7.408 -6.9033,3.9719 -13.5843,7.9873 -20.045,12.0435 -3.2477,-2.4904 -6.4156,-4.9852 -9.5019,-7.4841 6.7325,-4.0321 13.6873,-8.022 20.867,-11.9674 z m -14.4963,-13.5381 c 2.4977,2.4859 5.083,4.9684 7.7541,7.4473 -7.4096,3.9227 -14.5923,7.891 -21.5508,11.9025 -2.951,-2.5057 -5.8183,-5.0155 -8.6005,-7.5292 7.2383,-3.9854 14.7032,-7.9264 22.3972,-11.8206 z m -12.788,-13.6279 c 2.1801,2.5034 4.453,5.0038 6.8145,7.5012 -1.5,0.7352 -2.9924,1.4719 -4.4769,2.2099 -6.3567,3.1512 -12.5621,6.3336 -18.6173,9.5457 -2.6406,-2.5201 -5.1944,-5.0441 -7.659,-7.5719 0.6832,-0.3464 1.368,-0.6925 2.0548,-1.0383 7.1136,-3.5806 14.4074,-7.1308 21.8839,-10.6466 z m -10.9523,-13.6949 c 1.8271,2.5128 3.7551,5.0233 5.7797,7.5311 -8.4373,3.8331 -16.6511,7.7099 -24.6448,11.625 -2.3151,-2.533 -4.5386,-5.0698 -6.6657,-7.6102 8.2845,-3.8915 16.7935,-7.7418 25.5308,-11.5459 z m -8.9481,-13.7411 c 1.4457,2.5203 3.0001,5.0388 4.659,7.5552 -8.99,3.7784 -17.7482,7.6054 -26.2778,11.4757 -1.9665,-2.5459 -3.8332,-5.0951 -5.5958,-7.6472 8.8375,-3.8424 17.9078,-7.6387 27.2146,-11.3837 z m -6.7863,-13.7768 c 1.0354,2.5258 2.1874,5.0504 3.4518,7.5734 -9.5737,3.7159 -18.907,7.4853 -28.0037,11.303 -1.5889,-2.5569 -3.0703,-5.1164 -4.4396,-7.6785 9.4212,-3.7854 19.0839,-7.5198 28.9915,-11.1979 z m -4.4681,-13.8017 c 0.5965,2.5293 1.3175,5.058 2.1586,7.5857 -10.1883,3.6455 -20.1277,7.3495 -29.8222,11.1067 -1.1829,-2.5659 -2.25,-5.1339 -3.1975,-7.7038 10.0362,-3.7206 20.3219,-7.3853 30.8611,-10.9886 z m -2.0185,-13.8345 c 0.059,0.8602 0.1261,1.7202 0.2011,2.5802 0.1443,1.677 0.3458,3.3539 0.6038,5.0305 -10.8338,3.5673 -21.4104,7.1979 -31.7336,10.8867 -0.7479,-2.5729 -1.3723,-5.1474 -1.8689,-7.7233 8.078,-2.7587 16.3035,-5.4825 24.6782,-8.1693 2.6984,-0.8703 5.4049,-1.7385 8.1194,-2.6048 z m -0.278,-13.9228 c -0.071,2.5507 -0.076,5.101 -0.014,7.651 -9.442,2.9551 -18.7934,5.9334 -28.0488,8.9362 -1.8133,0.5884 -3.6197,1.1786 -5.419,1.7704 -0.064,-0.5846 -0.1221,-1.1692 -0.173,-1.7539 -0.1726,-1.9906 -0.3028,-3.9812 -0.3917,-5.9718 11.219,-3.5775 22.5706,-7.1206 34.046,-10.6319 z m 1.0184,-13.9295 c -0.2996,2.5516 -0.5388,5.103 -0.7145,7.6542 -11.6202,3.4928 -23.1213,7.0168 -34.4948,10.5742 0,-2.5744 0.06,-5.1487 0.1886,-7.7228 11.5546,-3.5335 23.2313,-7.0346 35.0207,-10.5056 z m 2.2251,-13.9325 c -0.5125,2.5518 -0.9688,5.1036 -1.3665,7.6554 -11.9229,3.4536 -23.7374,6.9364 -35.4351,10.4507 0.2324,-2.5738 0.5275,-5.1474 0.8824,-7.7207 11.8647,-3.4915 23.8408,-6.9526 35.9192,-10.3854 z m 3.3414,-13.9323 c -0.7087,2.5515 -1.3658,5.1031 -1.9688,7.6549 -12.2001,3.4164 -24.3026,6.8602 -36.299,10.3334 0.4519,-2.5727 0.9615,-5.1449 1.5267,-7.7167 12.1496,-3.4515 24.3996,-6.8747 36.7411,-10.2716 z m 4.3682,-13.9283 c -0.8885,2.5504 -1.73,5.1012 -2.5218,7.6523 -12.4518,3.3813 -24.8169,6.7879 -37.0863,10.2223 0.6545,-2.5708 1.3625,-5.1411 2.1216,-7.7106 12.4088,-3.4139 24.9072,-6.8011 37.4865,-10.164 z m 5.3129,-13.9201 c -1.057,2.548 -2.0674,5.097 -3.0333,7.6468 -0.01,0 -0.018,0 -0.027,0.01 -12.6691,3.3459 -25.2624,6.7154 -37.7708,10.1106 0.8409,-2.5684 1.7309,-5.136 2.6673,-7.7028 3.5,-0.9352 7.0062,-1.8686 10.5181,-2.8001 9.1737,-2.4331 18.3885,-4.854 27.6453,-7.2615 z m 6.2517,-13.9003 c -1.2356,2.5436 -2.4198,5.0885 -3.5553,7.6346 -12.9031,3.3124 -25.7238,6.6516 -38.4643,10.0148 1.011,-2.5657 2.0682,-5.1308 3.174,-7.6952 12.865,-3.3445 25.8128,-6.6635 38.8456,-9.9542 z m 7.2704,-13.8736 c -1.4302,2.5382 -2.8049,5.078 -4.1262,7.6192 -13.1432,3.2719 -26.1992,6.5735 -39.1701,9.9017 1.1871,-2.5632 2.425,-5.1256 3.7158,-7.687 13.1051,-3.3071 26.2979,-6.5861 39.5805,-9.8339 z m 8.3772,-13.8408 c -1.6411,2.5316 -3.222,5.0651 -4.7453,7.6005 -13.4007,3.227 -26.7095,6.4865 -39.9287,9.7753 1.3796,-2.5596 2.8141,-5.1182 4.3062,-7.6755 13.3628,-3.2654 26.8179,-6.4998 40.3678,-9.7003 z m 9.5722,-13.8023 c -1.8679,2.524 -3.6713,5.0502 -5.4127,7.5786 -13.6759,3.1777 -27.255,6.3907 -40.7396,9.6358 1.5881,-2.555 3.2355,-5.1087 4.945,-7.6608 13.6379,-3.2192 27.3728,-6.4048 41.2073,-9.5536 z m 10.8562,-13.7574 c -0.4937,0.5878 -0.9836,1.1759 -1.4698,1.7643 -1.5929,1.9281 -3.1457,3.8577 -4.6593,5.7887 -13.9686,3.1241 -27.8354,6.2862 -41.603,9.4832 1.8127,-2.5494 3.6893,-5.0971 5.6322,-7.6429 11.5773,-2.6335 23.2253,-5.2418 34.9448,-7.8231 2.3821,-0.5247 4.7671,-1.0481 7.1551,-1.5702 z m 12.3224,-13.6783 c -2.4193,2.4951 -4.7399,4.9963 -6.9774,7.5027 -10.8801,2.3271 -21.6907,4.6848 -32.4391,7.065 -3.3695,0.7462 -6.7332,1.4945 -10.0908,2.2451 0.6783,-0.84 1.3642,-1.6798 2.0577,-2.5194 1.4054,-1.7018 2.8426,-3.403 4.3163,-5.1032 14.2509,-3.1135 28.6231,-6.1831 43.1333,-9.1902 z m 14.2839,-13.5561 c -2.8301,2.4694 -5.5332,4.9468 -8.1248,7.4312 -14.7153,2.9604 -29.2783,5.9911 -43.7051,9.0735 2.3449,-2.5352 4.7843,-5.0675 7.3335,-7.5961 14.6728,-3.0371 29.4995,-6.0128 44.4964,-8.9086 z m 16.8273,-13.3612 c -3.3877,2.4112 -6.5625,4.8466 -9.6015,7.2996 -6.4769,1.2039 -12.9239,2.4282 -19.3436,3.6652 -8.6836,1.6724 -17.3084,3.3712 -25.8776,5.0928 2.181,-2.0073 4.4397,-4.0119 6.7839,-6.013 0.5994,-0.5124 1.2039,-1.0247 1.8141,-1.537 15.1995,-2.9343 30.5964,-5.8024 46.2247,-8.5076 z m 21.0659,-12.8784 c -0.9074,0.472 -1.8022,0.9477 -2.6879,1.4266 -3.39,1.8368 -6.5679,3.6954 -9.5723,5.5726 -16.059,2.5661 -31.8326,5.3364 -47.3549,8.2146 3.266,-2.505 6.731,-5.0033 10.472,-7.4884 13.6553,-2.3542 27.5396,-4.5939 41.6742,-6.6595 2.4861,-0.3627 4.976,-0.7186 7.4689,-1.0659 z m 28.3362,-11.0005 c -5.1612,1.2356 -9.6167,2.8177 -14.2214,4.5695 -0.8602,0.3346 -1.7031,0.6726 -2.5301,1.0139 -12.8322,1.4186 -25.5267,3.1739 -37.9931,5.0543 -4.3361,0.654 -8.6468,1.3229 -12.9327,2.0053 1.5164,-0.8784 3.0761,-1.7544 4.6825,-2.6277 2.8898,-1.5723 5.9567,-3.1424 9.3016,-4.6976 6.9513,-0.9587 13.997,-1.8594 21.1238,-2.6702 10.9722,-1.2482 22.1138,-2.2997 32.5694,-2.6475 z m 17.8288,0.368 c -1.8249,-0.5026 -3.585,-0.9409 -5.368,-1.2886 -1.8726,-0.3473 -3.2574,-0.6021 -4.2453,-0.6819 0,0 0,0 0,0 -0.4831,-0.029 -0.5409,-0.054 0.019,-0.016 0.2419,0 0.4127,-3e-4 0.5281,0 0.076,-0.2459 -0.2927,-0.4865 -0.9819,-0.7069 -3.7699,-0.952 -12.3295,-0.848 -21.1202,-0.4028 0,0 0,0 0,0 -8.669,0.4566 -17.436,1.2521 -25.9614,2.1852 4.1366,-1.4455 8.8518,-2.8663 14.4848,-4.1923 3.4057,-0.84 7.576,-1.6638 12.632,-2.345 4.1639,-0.096 8.2802,-0.095 12.1013,0.044 4.1319,0.1508 7.7937,0.4924 10.4229,0.9563 0,0 0,0 0,0 2.7397,0.4786 4.4439,1.08 5.4789,1.6721 0,0 0,0 0,0 1.4372,0.7617 1.8728,1.5687 2.188,2.3754 0.2801,0.7916 0.1083,1.5887 -0.1782,2.3999 z m 26.6227,11.3588 c -2.735,-1.5728 -5.6443,-3.1156 -8.8051,-4.6203 -1.5133,-0.7098 -3.0327,-1.4035 -4.5895,-2.0758 1.9026,-2.0684 3.3126,-4.1458 3.232,-6.3197 0,0 0,0 0,0 -0.037,-1.1781 -0.458,-2.3775 -1.94,-3.6163 0,0 0,0 0,0 -0.9104,-0.7659 -2.2709,-1.5497 -4.4653,-2.3315 3.3178,0.4414 6.2335,0.9419 8.7865,1.4658 4.155,0.8434 7.697,1.7503 10.803,2.6682 0,0 0,0 0,0 2.7282,0.8054 5.2339,1.6298 7.5602,2.4661 -0.4125,2.2325 -1.9985,4.3526 -3.8914,6.4365 -1.8553,2.0153 -4.1367,3.9837 -6.6904,5.927 z m 19.0988,13.0401 c -3.0661,-2.4381 -6.3242,-4.8552 -9.8529,-7.2452 0.4451,-0.2919 0.8864,-0.5842 1.3235,-0.8772 5.4673,-3.6814 10.4329,-7.4121 13.8741,-11.3387 4.9361,2.4418 9.2469,4.9188 13.1757,7.4051 -1.1034,0.8418 -2.2486,1.6771 -3.4245,2.5076 -4.5928,3.2458 -9.6856,6.4176 -15.0959,9.5484 z m 15.1641,13.4641 c -2.5205,-2.4846 -5.169,-4.961 -7.9672,-7.4277 1.0574,-0.5734 2.1071,-1.148 3.1484,-1.7239 6.0765,-3.359 11.8835,-6.756 17.1961,-10.2312 3.4338,2.5043 6.6045,5.019 9.5906,7.5378 -0.911,0.5266 -1.8298,1.0519 -2.7557,1.5759 -6.1297,3.4689 -12.553,6.8878 -19.2122,10.2691 z m 12.6172,13.6407 c -2.125,-2.5106 -4.339,-5.0153 -6.6636,-7.5126 7.9719,-3.8733 15.6776,-7.7897 23.0286,-11.768 2.7264,2.5267 5.307,5.0586 7.7636,7.5943 -7.7739,3.9428 -15.846,7.832 -24.1286,11.6863 z m 10.8271,13.7555 c -1.067,-1.4549 -2.157,-2.9088 -3.2706,-4.3617 -0.8207,-1.0696 -1.6526,-2.1385 -2.4974,-3.2065 8.4846,-3.8418 16.8052,-7.7117 24.8733,-11.6285 2.2669,2.5412 4.4271,5.0853 6.5021,7.631 -4.8822,2.2703 -9.8315,4.5274 -14.8299,6.7751 -3.5643,1.6022 -7.1574,3.1989 -10.7775,4.7906 z m 9.4634,13.8134 c -1.6204,-2.5344 -3.2995,-5.0665 -5.0427,-7.5961 8.8622,-3.8102 17.5794,-7.648 26.1305,-11.5182 1.9504,2.5481 3.8279,5.0982 5.6379,7.6499 -8.7632,3.85 -17.6788,7.6698 -26.7257,11.4644 z m 8.2977,13.8588 c -1.4252,-2.5418 -2.8991,-5.0818 -4.4269,-7.6198 9.1853,-3.7826 18.2507,-7.5887 27.1748,-11.4231 1.7033,2.5542 3.3436,5.1099 4.9267,7.6667 -9.1045,3.8166 -18.3364,7.607 -27.6746,11.3762 z m 7.3293,13.8944 c -1.1611,-2.3407 -2.358,-4.6805 -3.5913,-7.0195 -0.1087,-0.2061 -0.2178,-0.4123 -0.3271,-0.6185 9.4505,-3.7592 18.8059,-7.5377 28.0451,-11.3405 1.4927,2.5586 2.9325,5.1181 4.325,7.6784 -3.155,1.2728 -6.3215,2.5431 -9.4988,3.8111 -6.2767,2.505 -12.5947,5.0012 -18.9529,7.489 z m 6.483,13.9156 c -1.1119,-2.5503 -2.2649,-5.0997 -3.4595,-7.6482 9.6777,-3.7367 19.2661,-7.4925 28.7616,-11.2681 1.3192,2.5614 2.5952,5.1235 3.8291,7.6865 -9.6208,3.7626 -19.3324,7.5056 -29.1312,11.2298 z m 5.6694,13.9325 c -0.9655,-2.5532 -1.9705,-5.1056 -3.0159,-7.6572 9.8958,-3.714 19.7064,-7.4467 29.4281,-11.1986 1.1651,2.5642 2.2885,5.1292 3.3709,7.6949 -9.8421,3.7391 -19.7711,7.4591 -29.7831,11.1609 z m 4.8831,13.9471 c -0.824,-2.5556 -1.6862,-5.1107 -2.5874,-7.665 10.1054,-3.6917 20.1294,-7.4015 30.0684,-11.1302 1.016,2.5668 1.9918,5.1342 2.9281,7.7021 -10.0548,3.716 -20.1924,7.4135 -30.4091,11.0931 z m 4.1244,13.9596 c -0.6877,-2.5577 -1.4121,-5.1149 -2.174,-7.6715 10.3061,-3.6697 20.5348,-7.3572 30.6825,-11.0629 0.8722,2.5689 1.7052,5.1382 2.5003,7.7082 -10.2587,3.6932 -20.5962,7.3684 -31.0088,11.0262 z m 3.3933,13.9699 c -0.5563,-2.5594 -1.1479,-5.1184 -1.7757,-7.6769 10.4982,-3.6481 20.9229,-7.3135 31.2705,-10.9966 0.7332,2.5706 1.4288,5.1416 2.0876,7.7129 -10.4538,3.6709 -20.9825,7.3242 -31.5824,10.9606 z m 2.6892,13.9784 c -0.1375,-0.8188 -0.2784,-1.6376 -0.4224,-2.4564 -0.3074,-1.7418 -0.6304,-3.4835 -0.9696,-5.2251 10.6814,-3.6268 21.2933,-7.2704 31.8323,-10.9314 0.5993,2.5719 1.1623,5.1441 1.69,7.7166 -8.1825,2.806 -16.407,5.6019 -24.6718,8.3881 -2.4826,0.8369 -4.9689,1.673 -7.4585,2.5082 z m 2,13.9828 c -0.2996,-2.5608 -0.6375,-5.1218 -1.011,-7.6828 8.9412,-2.9689 17.8339,-5.9499 26.6817,-8.9412 1.8978,-0.6417 3.7935,-1.2839 5.6869,-1.9265 0.1151,0.6289 0.228,1.2578 0.3388,1.8868 0.3429,1.9437 0.6673,3.8878 0.9718,5.8321 -10.8174,3.6279 -21.7048,7.2395 -32.6682,10.8316 z m 1.2346,13.9807 c -0.1497,-2.5602 -0.343,-5.1207 -0.5773,-7.6813 11.0548,-3.58 22.0297,-7.1808 32.9305,-10.7992 0.3439,2.5742 0.6508,5.149 0.9174,7.7241 -11.0096,3.6057 -22.0978,7.1923 -33.2706,10.7564 z m 0.3627,13.9759 c 0.019,-2.5591 -0.01,-5.1186 -0.085,-7.6783 11.2751,-3.5501 22.4618,-7.1241 33.5661,-10.7184 0.1988,2.5757 0.355,5.1518 0.4657,7.7281 -11.2265,3.5794 -22.5402,7.1367 -33.9469,10.6686 z m -0.6162,13.9682 c 0.209,-2.5574 0.3634,-5.1154 0.4661,-7.6738 11.5202,-3.516 22.9435,-7.0587 34.2758,-10.6249 0.034,2.5767 0.019,5.1536 -0.044,7.7305 -11.4682,3.5489 -23.0321,7.0727 -34.6973,10.5682 z m -1.7013,13.9579 c 0.4174,-2.5553 0.7751,-5.1112 1.0756,-7.6677 11.7898,-3.4778 23.4744,-6.9851 35.0595,-10.5189 -0.1502,2.5772 -0.3538,5.1543 -0.6135,7.7316 -11.7345,3.514 -23.5731,7.0001 -35.5216,10.455 z m -2.8936,13.9445 c 0.095,-0.3736 0.1878,-0.7473 0.2794,-1.1209 0.5349,-2.1792 1.0224,-4.3588 1.4644,-6.539 12.0842,-3.4352 24.0547,-6.903 35.9171,-10.4001 -0.354,2.5771 -0.7666,5.154 -1.2409,7.7308 -10.7535,3.1076 -21.597,6.1904 -32.5347,9.2463 -1.2937,0.3613 -2.5889,0.7223 -3.8853,1.0829 z m -4.213,13.9254 c 0.8991,-2.5486 1.7269,-5.0984 2.4854,-7.6491 8.6628,-2.3646 17.2658,-4.747 25.8083,-7.1464 3.6929,-1.0372 7.3749,-2.0774 11.0465,-3.1206 -0.2412,1.0764 -0.4936,2.1528 -0.7573,3.2291 -0.3677,1.5002 -0.7587,3.0003 -1.1731,4.5003 -12.3456,3.4318 -24.8159,6.8282 -37.4098,10.1867 z m -5.6266,13.9023 c 1.164,-2.5436 2.2537,-5.0888 3.2707,-7.6353 12.7487,-3.3342 25.3733,-6.7075 37.8729,-10.1174 -0.8273,2.5753 -1.7258,5.1498 -2.6974,7.7235 -12.69,3.3818 -25.5058,6.7257 -38.4462,10.0292 z m -7.1082,13.8705 c 1.4417,-2.5369 2.8055,-5.0759 4.0931,-7.6167 13.0997,-3.2772 26.0745,-6.5961 38.9229,-9.9539 -1.0926,2.5719 -2.2598,5.1427 -3.5033,7.7122 -13.0444,3.3274 -26.2157,6.6144 -39.5127,9.8584 z m -8.657,13.8301 c 1.7314,-2.5288 3.3816,-5.06 4.9525,-7.5934 13.4606,-3.2158 26.7953,-6.4757 40.0027,-9.7772 -1.3702,2.567 -2.8185,5.1325 -4.3464,7.6962 -13.4089,3.2686 -26.9454,6.4942 -40.6088,9.6744 z m -10.2739,13.7808 c 2.0339,-2.5189 3.983,-5.0408 5.8491,-7.5653 13.8317,-3.1499 27.5365,-6.3465 41.1126,-9.5871 -1.6602,2.5605 -3.4018,5.119 -5.2266,7.6753 -13.7832,3.2054 -27.6952,6.3653 -41.7351,9.4771 z m -11.9581,13.7228 c 2.3484,-2.5075 4.6088,-5.0184 6.783,-7.5323 14.2127,-3.0796 28.2971,-6.2084 42.2522,-9.3838 -1.9627,2.5524 -4.0101,5.1024 -6.1441,7.6497 -14.1674,3.1377 -28.4649,6.2274 -42.8911,9.2664 z m -13.7018,13.6571 c 2.6752,-2.4935 5.2553,-4.9916 7.747,-7.494 8.4888,-1.7475 16.9345,-3.5128 25.3367,-5.2941 6.0507,-1.2828 12.0786,-2.5744 18.0837,-3.8747 -1.3197,1.4735 -2.6691,2.946 -4.0483,4.4175 -1.0001,1.0677 -2.0156,2.1348 -3.0467,3.2015 -14.5586,3.0661 -29.2505,6.0837 -44.0724,9.0438 z m -15.59,13.5619 c 3.0428,-2.4733 5.9787,-4.953 8.8141,-7.438 15.0104,-2.9192 29.8887,-5.8997 44.6314,-8.9327 -2.6035,2.5322 -5.3018,5.0612 -8.1018,7.5862 -14.9776,2.9885 -30.0933,5.9196 -45.3437,8.7845 z m -17.7181,13.4373 c 3.4546,-2.4478 6.79,-4.9034 10.013,-7.3659 15.4555,-2.8171 30.7741,-5.7043 45.9524,-8.6527 -2.971,2.518 -6.049,5.0313 -9.2404,7.5393 -15.4333,2.8955 -31.0094,5.725 -46.725,8.4793 z m -20.086,13.2833 c 3.9102,-2.417 7.6892,-4.8431 11.3436,-7.2776 15.9372,-2.6997 31.7328,-5.4783 47.3833,-8.3269 -3.3823,2.4984 -6.8837,4.9909 -10.5108,7.4764 -15.9255,2.7872 -31.9987,5.4995 -48.2161,8.1281 z m -22.6919,13.098 c 1.8399,-0.9924 3.6541,-1.9871 5.4444,-2.9839 2.5006,-1.3924 4.9535,-2.7883 7.3599,-4.1875 16.4556,-2.5669 32.7647,-5.2215 48.9241,-7.955 -3.8376,2.4735 -7.8064,4.9395 -11.9129,7.3971 -11.4938,1.8607 -23.0621,3.6806 -34.7036,5.4565 -5.0241,0.7664 -10.0616,1.5243 -15.1119,2.2728 z m -25.6834,12.828 c 5.0249,-2.3171 9.8591,-4.6541 14.5262,-7.0075 15.2091,-2.1453 30.3035,-4.3851 45.266,-6.6958 1.7762,-0.2742 3.5507,-0.5495 5.3234,-0.8257 -0.6369,0.3589 -1.2771,0.7175 -1.9203,1.076 -3.7367,2.0826 -7.5847,4.1594 -11.5587,6.2282 -17.049,2.5227 -34.2691,4.942 -51.6366,7.2248 z m -29.4672,12.4316 c 4.0864,-1.5727 8.0551,-3.163 11.931,-4.7659 1.611,-0.6671 3.2031,-1.3363 4.7772,-2.0073 17.6832,-2.1735 35.216,-4.4984 52.5748,-6.9415 -4.9579,2.4049 -10.108,4.7962 -15.4745,7.1704 -8.7059,1.1416 -17.4544,2.2504 -26.2429,3.3226 -9.1489,1.1161 -18.3437,2.1948 -27.5656,3.2217 z m -34.3858,11.74 c 6.886,-2.0582 13.4055,-4.1749 19.6299,-6.337 18.4382,-1.8352 36.7918,-3.9189 54.9174,-6.1432 -5.7312,2.3442 -11.7168,4.6736 -18.0277,6.9753 -18.6832,2.0716 -37.5707,3.9424 -56.5196,5.5049 z m -41.4545,10.2742 c 8.4839,-1.6188 16.3267,-3.428 23.7834,-5.3521 9.5879,-0.6179 19.2735,-1.3587 28.9024,-2.1658 9.7237,-0.8151 19.4189,-1.707 29.0672,-2.662 -4.7942,1.5633 -9.7742,3.108 -14.964,4.6298 -2.254,0.665 -4.5586,1.3283 -6.9211,1.9879 -19.9559,1.6471 -40.33,2.9877 -59.8679,3.5622 z m -47.7475,5.1782 c 1.8753,0.026 3.6751,0.014 5.3528,-0.046 0,0 0,0 0,0 5.0312,-0.1294 10.3792,-0.5589 15.8699,-1.1211 0,0 0,0 0,0 1.6091,-0.168 3.2035,-0.3509 4.7854,-0.5469 7.4152,0.1586 15.4784,0.09 23.6976,-0.1174 12.3141,-0.3123 24.8783,-0.9133 37.4223,-1.7038 -7.4305,1.7 -15.4347,3.3293 -24.1581,4.8449 -1.7979,0.3126 -3.645,0.6205 -5.5439,0.9222 -9.0583,0.261 -18.1527,0.3719 -26.7815,0.2424 0,0 0,0 0,0 -9.1793,-0.1355 -17.9313,-0.5616 -24.4777,-1.3749 0,0 0,0 0,0 -2.3711,-0.3127 -4.4134,-0.6882 -6.1668,-1.0992 z m -47.0761,-5.9432 c 6.3854,1.3801 13.1344,2.6242 20.441,3.6647 1.7703,0.251 3.5359,0.4894 5.2973,0.7103 2.2013,1.2184 5.029,2.4122 9.1797,3.5143 4.8664,1.301 11.7336,2.4969 21.1925,3.1876 0,0 0,0 0,0 5.2746,0.394 11.0068,0.6571 16.8864,0.8062 -4.9321,0.366 -10.1848,0.6504 -15.7276,0.8241 0,0 0,0 0,0 -10.267,0.276 -20.232,0.048 -29.2023,-0.5522 0,0 0,0 0,0 -1.5129,-0.101 -2.9994,-0.209 -4.4595,-0.3236 -6.9363,-1.5765 -11.4606,-3.262 -14.7965,-4.9387 -4.5858,-2.3105 -7.2439,-4.605 -8.811,-6.8927 z m -39.2648,-10.7403 c 4.7957,1.5695 9.7915,3.1062 15.0265,4.6033 1.8537,0.5229 3.718,1.0411 5.5995,1.5523 0.8742,4.0981 3.1017,8.2656 10.9748,12.5505 -10.9224,-1.824 -20.4949,-3.8644 -29.0922,-5.9909 -1.4012,-2.0369 -2.0831,-4.0355 -2.4747,-6.0006 -0.4597,-2.2685 -0.4359,-4.504 -0.034,-6.7146 z m -32.2646,-12.0415 c 5.4576,2.2756 11.1053,4.523 17.039,6.7252 -1.8037,4.1378 -2.6121,8.3498 -1.7381,12.6898 -7.4401,-2.2079 -14.3868,-4.4677 -20.9358,-6.7621 0.8168,-4.3128 2.924,-8.5125 5.6349,-12.6529 z m -27.6694,-12.6369 c 4.7154,2.3509 9.6071,4.684 14.7032,6.9955 -1.7624,2.1653 -3.3532,4.3484 -4.7482,6.5519 -1.263,1.9937 -2.3811,4.0043 -3.2805,6.0377 -3.9188,-1.5384 -7.6996,-3.0856 -11.3693,-4.6368 -1.9175,-0.8089 -3.8066,-1.6202 -5.6688,-2.4335 2.8186,-4.2419 6.3285,-8.4073 10.3636,-12.5148 z m -24.1571,-12.991 c 0.5695,0.3289 1.1416,0.6575 1.7161,0.986 3.6245,2.0721 7.346,4.1355 11.1824,6.1879 -4.5101,4.0935 -8.575,8.2392 -12.0286,12.4561 -5.0767,-2.4017 -9.9449,-4.8182 -14.6325,-7.2461 3.721,-3.7723 7.8593,-7.4924 12.2932,-11.1738 0.4862,-0.4038 0.9761,-0.8072 1.4694,-1.2101 z m -21.4562,-13.2144 c 3.7035,2.436 7.5273,4.8638 11.478,7.2827 -3.6967,2.8053 -7.2289,5.6331 -10.5845,8.4849 -1.4987,1.2741 -2.961,2.553 -4.3819,3.8376 -1.8846,-1.0445 -3.7404,-2.0904 -5.5693,-3.1375 -2.4501,-1.4027 -4.8556,-2.8081 -7.2177,-4.2162 5.0784,-4.1321 10.5157,-8.2143 16.2754,-12.2515 z m -19.0649,-13.3774 c 3.2872,2.4634 6.6829,4.9199 10.1934,7.3688 -6.0789,4.0199 -11.8533,8.0833 -17.2865,12.1951 -3.9117,-2.4718 -7.6959,-4.951 -11.3592,-7.4368 5.8435,-4.0873 12.0063,-8.1281 18.4523,-12.1271 z m -16.9118,-13.5129 c 2.9147,2.4855 5.9259,4.9658 9.04,7.4398 -6.7283,3.9821 -13.1912,8.0045 -19.3526,12.0719 -3.4699,-2.4963 -6.8245,-4.9987 -10.0701,-7.5064 6.5266,-4.0433 13.3329,-8.0436 20.3827,-12.0053 z m -14.9963,-13.6214 c 2.5856,2.503 5.2557,5.0019 8.0168,7.496 -7.2948,3.9454 -14.3643,7.9276 -21.1717,11.9516 -3.0718,-2.5159 -6.0401,-5.0365 -8.9116,-7.561 7.1274,-4.0004 14.4951,-7.961 22.0665,-11.8866 z m -13.3136,-13.7013 c 0.8838,0.9692 1.7794,1.9379 2.687,2.9062 1.4486,1.5445 2.9256,3.088 4.4324,4.6301 -7.7796,3.9095 -15.3734,7.8526 -22.7446,11.8339 -2.7172,-2.5304 -5.3429,-5.0641 -7.8839,-7.6004 5.5171,-2.8562 11.1388,-5.6935 16.8511,-8.5135 2.2047,-1.0881 4.4239,-2.1735 6.658,-3.2563 z m -11.7338,-13.7595 c 2.0066,2.5251 4.0905,5.0477 6.2534,7.5672 -7.1613,3.3719 -14.1833,6.7695 -21.06,10.1934 -1.0202,0.5077 -2.0375,1.016 -3.0518,1.5248 -0.4302,-0.4541 -0.8578,-0.9082 -1.283,-1.3624 -1.9551,-2.0871 -3.8554,-4.1762 -5.7016,-6.2671 8.0965,-3.9196 16.3805,-7.8046 24.843,-11.6559 z m -10.1943,-13.8126 c 1.7292,2.5342 3.5333,5.0661 5.4137,7.5955 -8.6544,3.8343 -17.1346,7.7023 -25.4312,11.6043 -2.1174,-2.5504 -4.1554,-5.1033 -6.1158,-7.6586 8.5358,-3.8808 17.25,-7.7276 26.1333,-11.5412 z m -8.7045,-13.8579 c 1.4608,2.5418 2.9941,5.0816 4.6013,7.6194 -9.0668,3.7966 -17.9685,7.626 -26.6964,11.4893 -1.8338,-2.559 -3.5908,-5.12 -5.2726,-7.6831 8.9568,-3.8417 18.0823,-7.65 27.3677,-11.4256 z m -7.2644,-13.8958 c 1.2015,2.5481 2.4732,5.0945 3.816,7.6393 -9.4604,3.7584 -18.7651,7.5492 -27.9053,11.3733 -1.5593,-2.566 -3.0444,-5.1339 -4.4568,-7.7033 9.3591,-3.8025 18.8773,-7.5719 28.5461,-11.3093 z m -5.874,-13.9259 c 0.9515,2.5528 1.9706,5.1045 3.0584,7.6549 -9.8354,3.72 -19.5245,7.4719 -29.0586,11.2566 -1.2939,-2.5719 -2.5162,-5.1451 -3.6681,-7.7195 9.7425,-3.7629 19.6349,-7.4932 29.6683,-11.192 z m -4.533,-13.9487 c 0.1295,0.466 0.2613,0.9321 0.3952,1.3981 0.6004,2.09 1.2443,4.1795 1.9326,6.2684 -10.1916,3.6813 -20.2466,7.394 -30.1558,11.139 -1.0375,-2.5762 -2.0058,-5.1534 -2.9065,-7.7314 8.7761,-3.2327 17.6583,-6.4413 26.6405,-9.6263 1.3624,-0.4831 2.7271,-0.9657 4.094,-1.4478 z m -3.2719,-13.9668 c 0.4907,2.5594 1.0391,5.1181 1.6485,7.676 -7.6199,2.6386 -15.1756,5.2923 -22.6631,7.9623 -2.8528,1.0173 -5.6954,2.0371 -8.5275,3.0592 -0.3018,-0.9849 -0.594,-1.9699 -0.8763,-2.955 -0.4572,-1.5943 -0.8896,-3.1888 -1.2984,-4.7833 10.4498,-3.6825 21.0253,-7.3346 31.7168,-10.9592 z m -2.1222,-13.9806 c 0.2899,2.5616 0.6324,5.1227 1.0302,7.6832 -10.8227,3.6093 -21.5351,7.2451 -32.127,10.9102 -0.561,-2.58 -1.062,-5.1603 -1.5061,-7.7407 10.7572,-3.6446 21.6283,-7.2612 32.6029,-10.8527 z m -1.0811,-13.9914 c 0.1093,2.5633 0.2655,5.1263 0.4717,7.6888 -11.0925,3.5775 -22.0869,7.179 -32.973,10.8075 -0.353,-2.5805 -0.6513,-5.1611 -0.8983,-7.7416 11.0352,-3.6095 22.1718,-7.1935 33.3996,-10.7547 z m -0.1483,-13.999 c -0.052,2.5644 -0.062,5.1286 -0.028,7.6925 -11.3323,3.5485 -22.5789,7.1187 -33.7294,10.7133 -0.1646,-2.5804 -0.2803,-5.1607 -0.35,-7.7408 11.283,-3.5772 22.6554,-7.1313 34.1069,-10.665 z m 0.676,-14.0037 c -0.1926,2.565 -0.3494,5.1299 -0.4669,7.6947 -11.5424,3.5223 -23.0111,7.0638 -34.3962,10.6275 0,-2.5799 0.051,-5.1594 0.1385,-7.7385 11.5014,-3.5477 23.0795,-7.0746 34.7246,-10.5837 z m 1.3919,-14.005 c -0.043,0.3522 -0.086,0.7044 -0.1279,1.0567 -0.2635,2.2127 -0.5037,4.4255 -0.7192,6.6383 -11.7226,3.4989 -23.3837,7.0145 -34.9734,10.5498 0.1521,-2.5785 0.3424,-5.1566 0.5676,-7.7342 10.5298,-3.1716 21.112,-6.3283 31.7393,-9.4723 1.1706,-0.3463 2.3418,-0.6924 3.5136,-1.0383 z m 2.0549,-14.0012 c -0.4386,2.5639 -0.8426,5.128 -1.2125,7.6924 -8.2205,2.4043 -16.4109,4.817 -24.5718,7.2374 -3.6387,1.0792 -7.2724,2.1599 -10.9002,3.2423 0.1197,-1.0999 0.2455,-2.1997 0.3771,-3.2993 0.1759,-1.4768 0.363,-2.9537 0.5611,-4.4304 11.8526,-3.498 23.7677,-6.9791 35.7463,-10.4424 z m 2.7427,-13.996 c -0.567,2.5627 -1.098,5.1259 -1.5937,7.6894 -12.0557,3.4523 -24.0476,6.9228 -35.9761,10.4105 0.4016,-2.5765 0.8377,-5.1529 1.3091,-7.7292 12.0227,-3.4748 24.1095,-6.9321 36.2607,-10.3707 z m 3.4577,-13.9889 c -0.7003,2.5613 -1.3634,5.1231 -1.9898,7.6852 -12.231,3.4271 -24.3967,6.8731 -36.4979,10.3372 0.5295,-2.576 1.0949,-5.1518 1.6966,-7.7273 12.1981,-3.4506 24.4617,-6.8826 36.7911,-10.2951 z m 4.1991,-13.9798 c -0.8386,2.5595 -1.6385,5.1195 -2.4005,7.68 -12.4115,3.4003 -24.7564,6.8206 -37.0351,10.2596 0.6622,-2.575 1.3615,-5.1499 2.0988,-7.7243 12.3786,-3.4248 24.824,-6.8302 37.3368,-10.2153 z m 4.9672,-13.9689 c -0.9816,2.5573 -1.9235,5.1153 -2.8258,7.6738 -12.5972,3.3722 -25.1261,6.7652 -37.5879,10.178 0.7997,-2.5739 1.6381,-5.1473 2.5157,-7.7203 12.5643,-3.3978 25.1969,-6.7752 37.898,-10.1315 z m 5.7624,-13.9559 c -1.1298,2.5547 -2.2183,5.1102 -3.2661,7.6664 -12.7879,3.3428 -25.5064,6.7072 -38.1562,10.0923 0.9423,-2.5723 1.9244,-5.144 2.9472,-7.7153 12.7554,-3.3692 25.5801,-6.7173 38.4751,-10.0434 z m 6.6016,-13.9386 c -1.2942,2.5506 -2.5383,5.1026 -3.7379,7.6558 -3.6616,0.9337 -7.3174,1.8693 -10.9674,2.8068 -9.294,2.3872 -18.5517,4.7857 -27.7733,7.1954 1.0831,-2.5546 2.2067,-5.1085 3.3719,-7.6619 0.01,-0.016 0.014,-0.032 0.022,-0.047 12.9514,-3.3398 25.977,-6.6581 39.0851,-9.9489 z m 7.5942,-13.9121 c -1.4937,2.5451 -2.9276,5.0919 -4.3071,7.6402 -13.2181,3.2721 -26.3474,6.5742 -39.3966,9.9004 1.2479,-2.5691 2.5437,-5.138 3.8926,-7.7064 13.18,-3.3072 26.4476,-6.5873 39.8111,-9.8342 z m 8.7797,-13.8777 c -1.7283,2.5381 -3.3873,5.0783 -4.9823,7.6204 -13.4924,3.2245 -26.8827,6.4846 -40.1794,9.7744 1.44,-2.5675 2.9378,-5.1343 4.4984,-7.7002 13.4504,-3.2662 27.0022,-6.4998 40.6633,-9.6946 z m 10.1767,-13.8305 c -2.0194,2.5262 -3.9411,5.0569 -5.7852,7.5909 -7.1981,1.6516 -14.3637,3.3156 -21.5003,4.9887 -6.5536,1.5366 -13.0817,3.0819 -19.5853,4.6352 1.105,-1.6991 2.2393,-3.3977 3.4049,-5.0959 0.5927,-0.8642 1.1931,-1.7286 1.802,-2.593 13.7597,-3.2173 27.6391,-6.4005 41.6639,-9.5259 z m 12.1206,-13.742 c -2.4431,2.5064 -4.751,5.0191 -6.9445,7.5372 -14.2375,3.0825 -28.3089,6.2329 -42.2398,9.4274 1.9404,-2.5624 3.9718,-5.1247 6.1149,-7.6857 14.1819,-3.1572 28.5298,-6.2581 43.0694,-9.2789 z m 14.8627,-13.5973 c -3.0602,2.4677 -5.8921,4.9511 -8.5698,7.4453 -0.7457,0.149 -1.4908,0.2982 -2.2353,0.4477 -14.0562,2.8221 -27.9216,5.7244 -41.6187,8.6865 2.3399,-2.5582 4.8082,-5.1142 7.4252,-7.667 3.3537,-0.6961 6.7184,-1.3881 10.0944,-2.0757 11.481,-2.3393 23.1066,-4.6321 34.9042,-6.8368 z m 19.5275,-13.2394 c -4.259,2.3579 -8.0154,4.7666 -11.4975,7.204 -1.7441,0.3027 -3.4843,0.6079 -5.2208,0.9153 -13.9367,2.4666 -27.6018,5.0723 -41.0369,7.7536 2.9072,-2.5535 6.0248,-5.1072 9.4268,-7.656 2.6166,-0.4881 5.2437,-0.9722 7.8811,-1.4519 13.1625,-2.3928 26.6374,-4.7043 40.4473,-6.765 z m 30.5344,-11.5252 c -0.5493,0.1108 -1.0974,0.2256 -1.6453,0.3439 0,0 0,0 0,0 -3.009,0.659 -5.718,1.4208 -8.3135,2.2374 0,0 0,0 0,0 -3.3063,1.0415 -6.2559,2.1435 -8.9754,3.2869 -7.0329,0.8254 -14.0137,1.7816 -20.8704,2.7841 -10.2229,1.495 -20.2302,3.1228 -30.0306,4.8205 3.3129,-2.1141 6.9496,-4.2299 11.0401,-6.335 0.8334,-0.4343 1.695,-0.871 2.5899,-1.3097 11.5518,-1.7279 23.7335,-3.3608 36.2373,-4.5385 0,0 0,0 0,0 5.6584,-0.5335 11.4124,-0.9715 16.9838,-1.1938 0,0 0,0 0,0 1.0101,-0.04 2.0072,-0.072 2.9841,-0.096 z m 40.1003,3.1946 c -2.8353,-0.8917 -5.8731,-1.7275 -9.2483,-2.4778 -4.3978,-0.9161 -8.6246,-1.7307 -12.9426,-2.0115 -0.2476,-0.1027 -0.5221,-0.2032 -0.8266,-0.3015 -1.344,-0.5003 -3.5854,-0.9746 -6.6335,-1.2912 -3.268,-0.3418 -7.4913,-0.4906 -11.8532,-0.4563 -5.4285,0.036 -11.1302,0.3053 -16.4663,0.6808 0,0 0,0 -2e-4,0 -6.5972,0.4574 -13.0659,1.0823 -19.128,1.7546 -1.2173,0.1337 -2.4295,0.2706 -3.6364,0.4103 0.6299,-0.2106 1.2724,-0.4209 1.9281,-0.6308 0,0 0,0 0,0 3.2767,-1.0509 7.1922,-2.1283 11.9332,-3.1839 0,0 0,0 0,0 3.8042,-0.8657 8.6723,-1.7285 14.7299,-2.5091 3.391,-0.4411 7.297,-0.8074 11.6719,-1.0778 2.336,0.01 4.6882,0.039 7.0281,0.101 6.8379,0.2107 12.6045,0.7292 17.2089,1.4237 10.5221,1.762 13.6708,3.7769 15.1509,5.6268 0,0 0,0 0,0 1.0959,1.3486 1.3187,2.655 1.0841,3.9427 z m 28.2084,12.3259 c -0.8434,-0.4687 -1.7001,-0.9362 -2.5704,-1.4027 -3.5528,-1.902 -7.305,-3.7752 -11.4636,-5.5923 0.8774,-1.1284 1.6013,-2.2707 2.122,-3.4325 1.1985,-2.6776 1.5287,-5.4661 -2.2757,-8.551 0,0 0,0 0,0 -0.4476,-0.4364 -1.0573,-0.8819 -1.8748,-1.3332 1.5237,0.3077 2.8905,0.6203 4.1032,0.9334 9.4329,2.1693 16.3876,4.457 21.9179,6.6329 0,0.01 0,0.012 -0.01,0.019 -0.9686,3.8644 -4.1214,7.4673 -7.9737,10.9826 0,0 0,0 0,0 -0.6399,0.5839 -1.3,1.1652 -1.9792,1.7441 z m 20.5074,13.2388 c -3.3133,-2.461 -6.8223,-4.9062 -10.6052,-7.3288 4.1317,-2.9645 7.8582,-5.9816 11.0288,-9.0762 1.1467,-1.1186 2.208,-2.2513 3.1398,-3.4034 1.8689,0.9241 3.6457,1.847 5.3501,2.7663 2.9389,1.5816 5.7244,3.1694 8.3761,4.7617 -4.992,4.207 -10.8819,8.2794 -17.2896,12.2804 z m 16.559,13.5487 c -1.7396,-1.5533 -3.5263,-3.1042 -5.3638,-4.6524 -1.1161,-0.9393 -2.2467,-1.8775 -3.3959,-2.8143 6.8433,-3.9797 13.3601,-8.0095 19.1701,-12.1525 3.6962,2.5303 7.1224,5.0663 10.3571,7.6008 -3.6068,2.2412 -7.3572,4.4562 -11.1873,6.655 -3.1288,1.7985 -6.3242,3.5859 -9.5802,5.3634 z m 14.1427,13.6795 c -2.4036,-2.5148 -4.9003,-5.025 -7.5056,-7.5297 7.5366,-3.9311 14.8081,-7.9061 21.748,-11.9388 2.9892,2.5347 5.8441,5.0736 8.5798,7.6155 -7.3397,3.9983 -14.969,7.9448 -22.8222,11.853 z m 12.2919,13.7699 c -0.2604,-0.3113 -0.522,-0.6225 -0.7846,-0.9337 -1.8697,-2.2162 -3.7908,-4.4301 -5.7737,-6.6412 8.0741,-3.8917 15.9585,-7.8169 23.5875,-11.789 2.5512,2.5465 4.9963,5.0952 7.3506,7.6453 -7.2288,3.592 -14.635,7.15 -22.169,10.684 -0.7357,0.3451 -1.4727,0.69 -2.2108,1.0346 z m 10.9063,13.8249 c -1.882,-2.5359 -3.8258,-5.0698 -5.8342,-7.6015 5.7649,-2.6299 11.461,-5.2728 17.0853,-7.9295 2.6301,-1.2424 5.2443,-2.488 7.8402,-3.7374 0.9774,1.1254 1.9399,2.2508 2.8883,3.3763 1.2025,1.4262 2.3838,2.8529 3.5444,4.2803 -8.3595,3.8991 -16.871,7.769 -25.524,11.6118 z m 9.6736,13.8652 c -1.6642,-2.5428 -3.3861,-5.0838 -5.1679,-7.6229 8.8042,-3.8292 17.4726,-7.6847 25.9947,-11.5687 1.9697,2.5564 3.8753,5.1146 5.7194,7.6742 -8.7125,3.866 -17.5646,7.7044 -26.5462,11.5174 z m 8.53,13.8994 c -1.4631,-2.5485 -2.979,-5.0955 -4.5505,-7.641 9.1206,-3.8 18.1173,-7.6247 26.9799,-11.4762 1.7445,2.562 3.4294,5.1254 5.057,7.69 -9.0378,3.8343 -18.2036,7.6426 -27.4864,11.4272 z m 7.4749,13.9278 c -1.2779,-2.5531 -2.6043,-5.1051 -3.9818,-7.6558 9.4098,-3.7723 18.7077,-7.5675 27.8836,-11.388 1.5355,2.5665 3.0159,5.134 4.4437,7.7025 -9.3364,3.804 -18.7885,7.5837 -28.3455,11.3413 z m 6.5088,13.9503 c -1.109,-2.5567 -2.2622,-5.1126 -3.462,-7.6674 9.6717,-3.746 19.2439,-7.5133 28.7057,-11.304 1.343,2.5698 2.6351,5.1404 3.8792,7.7117 -9.6077,3.7751 -19.3188,7.5277 -29.1229,11.2597 z m 5.6218,13.967 c -0.9491,-2.5593 -1.9437,-5.118 -2.9813,-7.6758 0.5493,-0.2064 1.0984,-0.4128 1.6472,-0.6193 9.348,-3.5168 18.6173,-7.0512 27.7993,-10.6052 1.1664,2.5722 2.2867,5.1448 3.3632,7.7178 -2.1881,0.8323 -4.3807,1.6637 -6.5776,2.494 -7.6935,2.9083 -15.4432,5.8049 -23.2508,8.6885 z m 4.7168,13.9803 c -0.7762,-2.5615 -1.6018,-5.1226 -2.4748,-7.683 10.1469,-3.6947 20.1952,-7.4119 30.149,-11.1489 1.0064,2.5745 1.9683,5.1501 2.8834,7.7268 -10.0865,3.7237 -20.2711,7.4263 -30.5576,11.1051 z m 3.7297,13.9909 c -0.5877,-2.5632 -1.2291,-5.1261 -1.9221,-7.6884 10.4054,-3.6651 20.7059,-7.3549 30.9054,-11.0669 0.8368,2.5783 1.6249,5.1577 2.3619,7.7379 -10.3427,3.6969 -20.7898,7.3702 -31.3452,11.0174 z m 2.6592,13.9988 c -0.3839,-2.5644 -0.8259,-5.1286 -1.3235,-7.6923 10.6825,-3.632 21.2541,-7.291 31.7183,-10.9746 0.6519,2.5817 1.2508,5.1642 1.7943,7.7476 -10.6177,3.6665 -21.3461,7.3072 -32.1891,10.9193 z m 1.5047,14.0039 c -0.1648,-2.5651 -0.3918,-5.1301 -0.6788,-7.6949 10.9787,-3.5953 21.8401,-7.2201 32.588,-10.8718 0.4515,2.5846 0.8458,5.17 1.1807,7.7558 -10.9117,3.6328 -21.9404,7.2373 -33.0899,10.8109 z m 0.2667,14.0063 c 0.07,-2.5653 0.073,-5.1307 0.012,-7.6959 11.2937,-3.5551 22.4638,-7.1423 33.5142,-10.7587 0.2359,2.587 0.4102,5.1745 0.5211,7.7625 -11.2246,3.5955 -22.5722,7.1603 -34.0472,10.6921 z m -1.5661,13.9792 c 0.5194,-2.5587 0.9137,-5.1182 1.1775,-7.6783 5.5407,-1.6469 11.0281,-3.3086 16.4599,-4.9856 6.075,-1.8709 12.1144,-3.751 18.1187,-5.64 0,1.892 -0.028,3.7842 -0.095,5.6767 -0.028,0.7022 -0.062,1.4043 -0.1078,2.1063 -11.6114,3.5743 -23.4696,7.0795 -35.5532,10.5209 z m -4.0446,13.9606 c 0.9561,-2.5548 1.7972,-5.1108 2.5178,-7.6681 12.353,-3.403 24.4922,-6.868 36.3958,-10.4002 -0.3855,2.6057 -0.9002,5.2098 -1.5388,7.8118 -12.244,3.482 -24.7093,6.8992 -37.3748,10.2565 z m -6.3273,13.9342 c 1.3557,-2.549 2.6066,-5.0999 3.7471,-7.6523 12.9084,-3.3208 25.6281,-6.6996 38.1375,-10.1414 -0.8376,2.5987 -1.7946,5.1952 -2.8652,7.7893 -12.8174,3.3939 -25.8311,6.727 -39.0194,10.0044 z m -8.4083,13.898 c 1.7181,-2.5415 3.3419,-5.0853 4.8654,-7.6312 13.4048,-3.2428 26.6461,-6.5394 39.7028,-9.8949 -1.2532,2.5899 -2.6153,5.1771 -4.0809,7.7613 -13.3322,3.3099 -26.8351,6.5632 -40.4873,9.7648 z m -10.2879,13.8519 c 2.0441,-2.5321 4.0036,-5.0671 5.8733,-7.6046 13.8421,-3.1689 27.5463,-6.3875 41.0911,-9.661 -1.6315,2.5793 -3.362,5.1553 -5.1855,7.7279 -13.788,3.2301 -27.7214,6.4077 -41.7789,9.5377 z m -11.9725,13.7934 c 2.3396,-2.5206 4.5995,-5.0441 6.7775,-7.5704 0.9283,-0.2023 1.856,-0.4047 2.7834,-0.6074 13.2785,-2.9024 26.4574,-5.8449 39.519,-8.8318 -1.9729,2.5668 -4.0345,5.1299 -6.1793,7.6891 -3.0109,0.6695 -6.0272,1.3369 -9.0488,2.0021 -11.2181,2.4734 -22.5033,4.9125 -33.8518,7.3184 z m -13.5517,13.7331 c 2.622,-2.5098 5.1685,-5.0226 7.637,-7.5384 14.5547,-3.0194 29.012,-6.0915 43.3637,-9.2184 -2.2852,2.5589 -4.6518,5.1146 -7.0973,7.6669 -14.5369,3.083 -29.174,6.1123 -43.9034,9.0899 z m -15.0524,13.6726 c 2.8892,-2.4985 5.7071,-5.0001 8.4513,-7.5048 14.8674,-2.9437 29.6468,-5.9383 44.3305,-8.9859 -2.5737,2.5467 -5.2243,5.0901 -7.9498,7.6299 -14.8561,3.0049 -29.8027,5.9578 -44.832,8.8608 z m -16.4703,13.6093 c 3.1413,-2.4866 6.2154,-4.9765 9.2202,-7.4697 15.1568,-2.87 30.2354,-5.7891 45.2276,-8.7594 -2.8466,2.534 -5.7663,5.0646 -8.7565,7.5915 -15.1522,2.9287 -30.3852,5.8072 -45.6913,8.6376 z m -17.8056,13.5434 c 3.3784,-2.4743 6.6937,-4.952 9.9436,-7.4331 15.4234,-2.7984 30.7779,-5.6441 46.0558,-8.5392 -3.1046,2.521 -6.278,5.0382 -9.518,7.5516 -15.425,2.8546 -30.9214,5.6607 -46.4814,8.4207 z m -21.2197,13.3477 c 4.0098,-2.4375 8.0195,-4.875 12.0293,-7.3124 5.3479,-0.8782 10.697,-1.7574 16.0475,-2.6374 10.5359,-1.8599 21.0438,-3.7407 31.5212,-5.6432 -3.124,2.3398 -6.3042,4.6762 -9.5387,7.0092 -0.2684,0.1632 -0.5369,0.3264 -0.8053,0.4896 -16.4308,2.7062 -32.8488,5.4041 -49.254,8.0942 z m -21.8939,13.3084 c 4.0098,-2.4375 8.0197,-4.875 12.0297,-7.3124 16.3977,-2.6852 32.8081,-5.3784 49.2314,-8.0798 -4.0192,2.4433 -8.0382,4.8866 -12.0574,7.33 -16.414,2.6955 -32.8153,5.3829 -49.2037,8.0622 z m -21.8945,13.3089 c 4.0101,-2.4376 8.02,-4.8751 12.0301,-7.3127 16.3808,-2.6745 32.7745,-5.3571 49.1811,-8.0478 -4.0192,2.4433 -8.0385,4.8867 -12.0577,7.3301 -16.3973,2.6849 -32.7818,5.3617 -49.1535,8.0304 z m -21.895,13.3093 c 4.01,-2.4377 8.0202,-4.8753 12.0302,-7.3129 16.3643,-2.6639 32.7412,-5.3359 49.1309,-8.016 -4.0194,2.4434 -8.0386,4.8869 -12.0581,7.3303 -16.3804,2.6743 -32.7482,5.3405 -49.103,7.9986 z m -21.8957,13.3096 c 4.0102,-2.4377 8.0205,-4.8754 12.0306,-7.313 16.3475,-2.6533 32.7075,-5.3147 49.0806,-7.9842 -4.0194,2.4435 -8.039,4.887 -12.0583,7.3306 -16.3638,2.6636 -32.7147,5.3192 -49.0529,7.9666 z m 53.3089,-10.5541 c -4.0193,2.4436 -8.0388,4.8871 -12.0584,7.3307 -9.5934,1.5599 -19.1825,3.1172 -28.7672,4.6715 m 6.3973,-0.1093 c 6.7593,-1.0967 13.5207,-2.1948 20.2844,-3.2943 -1.6622,1.0104 -3.3243,2.0209 -4.9866,3.0314 m -36.9878,0.6319 c 2.352,-1.4297 4.7039,-2.8594 7.0558,-4.289 16.3414,-2.6495 32.6956,-5.307 49.0625,-7.9729 m 21.9459,-13.3414 c -4.0194,2.4435 -8.0387,4.8869 -12.0581,7.3304 -16.3745,2.6705 -32.7363,5.3329 -49.0853,7.9872 4.0103,-2.4376 8.0203,-4.8753 12.0305,-7.3128 16.3581,-2.6602 32.7291,-5.3285 49.1129,-8.0048 z m 21.9453,-13.3411 c -4.0193,2.4434 -8.0385,4.8868 -12.0579,7.3303 -16.3912,2.6811 -32.7697,5.3541 -49.1356,8.019 4.0102,-2.4376 8.0203,-4.8752 12.0302,-7.3127 16.375,-2.6708 32.7627,-5.3496 49.1633,-8.0366 z m 21.9447,-13.3407 c -4.0193,2.4434 -8.0383,4.8867 -12.0576,7.3301 -16.408,2.6917 -32.8034,5.3755 -49.1858,8.0509 4.01,-2.4375 8.0198,-4.875 12.0298,-7.3125 16.3916,-2.6814 32.7962,-5.3709 49.2136,-8.0685 z m 21.4538,-13.3899 c -0.9815,0.716 -1.9683,1.4318 -2.9602,2.1472 -2.869,1.7441 -5.7378,3.4883 -8.6067,5.2323 -16.4249,2.7023 -32.8369,5.3966 -49.2362,8.0827 4.0099,-2.4374 8.0196,-4.8749 12.0294,-7.3123 13.0161,-2.1354 26.0402,-4.2759 39.0724,-6.4216 3.2364,-0.5741 6.4702,-1.1502 9.7013,-1.7283 z m 18.0874,-13.7003 c -3.1927,2.5161 -6.4528,5.0285 -9.7778,7.537 -12.4002,2.2606 -24.8436,4.4908 -37.3264,6.6914 -3.2981,0.5423 -6.5957,1.0842 -9.8929,1.6259 1.1148,-0.6777 2.2296,-1.3553 3.3443,-2.0329 2.4724,-1.7845 4.9125,-3.5709 7.3192,-5.3591 15.5125,-2.7734 30.9596,-5.5935 46.3336,-8.4623 z m 16.7495,-13.7745 c -2.9401,2.5295 -5.9517,5.0553 -9.0326,7.5775 -15.2518,2.9021 -30.581,5.7547 -45.98,8.5598 3.2272,-2.4823 6.389,-4.9679 9.4826,-7.4568 15.2542,-2.8444 30.4335,-5.7372 45.53,-8.6805 z m 15.329,-13.8461 c -2.6723,2.5423 -5.4203,5.0812 -8.2417,7.6165 -14.964,2.9775 -30.0151,5.9037 -45.1454,8.7807 2.9806,-2.4943 5.8912,-4.9918 8.7299,-7.4925 14.9729,-2.9173 29.8612,-5.8848 44.6572,-8.9047 z m 13.826,-13.9149 c -2.3895,2.5547 -4.8589,5.106 -7.4057,7.6539 -14.653,3.0551 -29.4028,6.0569 -44.2414,9.0078 2.7187,-2.5058 5.3634,-5.0147 7.9318,-7.5266 14.6685,-2.9923 29.2428,-6.0366 43.7153,-9.1351 z m 12.2287,-13.9712 c -1.3488,1.657 -2.7332,3.3124 -4.1518,4.966 -0.7768,0.9051 -1.5638,1.8098 -2.3611,2.7141 -14.319,3.1346 -28.7445,6.2141 -43.2681,9.2409 2.4415,-2.5168 4.8051,-5.0366 7.0882,-7.5592 7.6399,-1.6352 15.2505,-3.2856 22.8304,-4.9516 6.6467,-1.4596 13.2682,-2.9295 19.8624,-4.4102 z m 10.5069,-14.0245 c -1.7572,2.575 -3.6096,5.1466 -5.5516,7.7147 -13.9358,3.2027 -28.008,6.3543 -42.1954,9.4599 2.1509,-2.5284 4.221,-5.0598 6.2048,-7.5939 13.9834,-3.1436 27.8379,-6.3355 41.5422,-9.5807 z m 8.6135,-14.0912 c -1.3919,2.5863 -2.8891,5.1697 -4.4863,7.7501 -13.501,3.281 -27.1637,6.5069 -40.9668,9.6826 1.8382,-2.5384 3.5856,-5.0793 5.2365,-7.6224 13.5668,-3.216 26.9795,-6.4844 40.2166,-9.8103 z m 6.5182,-14.1478 c -0.9896,2.5957 -2.0948,5.1892 -3.31,7.78 -13.0073,3.3635 -26.2016,6.6677 -39.5617,9.9178 1.4889,-2.5466 2.8765,-5.0952 4.1575,-7.6455 13.0915,-3.2926 26.0035,-6.6417 38.7142,-10.0523 z m 4.2214,-14.1946 c -0.5504,2.6034 -1.2266,5.205 -2.023,7.8044 -12.4545,3.4502 -25.1217,6.837 -37.9798,10.1654 1.1024,-2.5529 2.0934,-5.1074 2.9676,-7.6631 12.5572,-3.3732 24.9095,-6.8071 37.0352,-10.3067 z m 1.7228,-14.2263 c -0.01,0.2169 -0.014,0.4339 -0.021,0.651 -0.089,2.3903 -0.2917,4.7795 -0.6037,7.1674 -11.843,3.5409 -23.9238,7.0144 -36.221,10.4254 0.6788,-2.5575 1.2362,-5.116 1.6666,-7.6753 11.2396,-3.2487 22.276,-6.5545 33.0912,-9.9217 0.6966,-0.2155 1.3928,-0.4312 2.0886,-0.6468 z m -0.2105,-14.1333 c 0.1552,2.5876 0.2479,5.1758 0.2756,7.7644 -7.4048,2.3385 -14.8629,4.6636 -22.3758,6.9746 -3.9934,1.2301 -8.0168,2.452 -12.0695,3.6658 0.105,-1.2298 0.1796,-2.4598 0.2232,-3.6899 0.048,-1.333 0.077,-2.666 0.089,-3.999 11.4103,-3.5401 22.6947,-7.113 33.8572,-10.7159 z m -1.4595,-14.1228 c 0.3766,2.5854 0.6945,5.1716 0.9514,7.7583 -11.0207,3.6199 -22.1607,7.2108 -33.4236,10.7698 -0.084,-2.5652 -0.2303,-5.1304 -0.4387,-7.6954 11.0887,-3.5814 22.0575,-7.1931 32.9109,-10.8327 z m -2.6249,-14.1096 c 0.5823,2.5828 1.1102,5.1664 1.5814,7.7507 -10.7202,3.655 -21.553,7.2831 -32.5029,10.882 -0.3078,-2.5647 -0.675,-5.1293 -1.0996,-7.6935 10.7858,-3.6193 21.4581,-7.2665 32.0211,-10.9392 z m -3.7063,-14.0935 c 0.7726,2.5796 1.4953,5.1601 2.1653,7.7416 -10.4384,3.6864 -20.9833,7.3485 -31.6388,10.9837 -0.517,-2.5638 -1.0892,-5.1271 -1.7146,-7.6901 10.5017,-3.6536 20.8965,-7.3329 31.1881,-11.0352 z m -4.7042,-14.0748 c 0.9478,2.5759 1.8497,5.1529 2.7032,7.7309 -10.1756,3.7146 -20.4512,7.4072 -30.8312,11.0751 -0.7108,-2.5622 -1.4728,-5.1239 -2.2836,-7.6851 10.2367,-3.6844 20.3724,-7.3924 30.4116,-11.1209 z m -5.6161,-14.0541 c 0.7315,1.699 1.4434,3.3982 2.1367,5.0974 0.357,0.874 0.7091,1.748 1.0561,2.6222 -9.9313,3.7392 -19.9567,7.4588 -30.0802,11.1562 -0.8893,-2.5602 -1.8256,-5.1198 -2.8065,-7.6787 5.224,-1.941 10.4222,-3.8877 15.5951,-5.8398 4.72,-1.7811 9.4201,-3.5668 14.0988,-5.3573 z m -6.5065,-14.0422 c 1.2785,2.5708 2.5077,5.1422 3.6901,7.7142 -9.6975,3.7652 -19.4942,7.5084 -29.3794,11.2318 -1.053,-2.5577 -2.1485,-5.1147 -3.2891,-7.6708 9.7584,-3.7369 19.4214,-7.4946 28.9784,-11.2752 z m -7.4823,-14.0289 c 1.4652,2.5678 2.8769,5.1366 4.2374,7.7062 -9.436,3.7935 -18.9833,7.5634 -28.6313,11.3118 -1.2158,-2.5545 -2.4788,-5.108 -3.7913,-7.6603 9.5059,-3.7628 18.9046,-7.5479 28.1852,-11.3577 z m -8.5473,-14.0094 c 1.6684,2.5637 3.2787,5.1287 4.8334,7.6947 -9.1471,3.8234 -18.4177,7.6214 -27.8012,11.3962 -1.3953,-2.5503 -2.8421,-5.0992 -4.3427,-7.6466 9.2265,-3.79 18.3334,-7.6041 27.3105,-11.4443 z m -9.7012,-13.9843 c 1.888,2.5585 3.7133,5.1187 5.4785,7.6802 -8.8313,3.8545 -17.7981,7.6821 -26.8898,11.4848 -1.5908,-2.5449 -3.2376,-5.0882 -4.9428,-7.6297 8.9199,-3.8186 17.708,-7.663 26.3541,-11.5353 z m -10.9434,-13.9531 c 2.1234,2.5523 4.18,5.1065 6.172,7.6623 -8.4881,3.8872 -17.124,7.7458 -25.8967,11.5778 -1.8027,-2.5385 -3.6658,-5.075 -5.5918,-7.6095 8.5861,-3.8487 17.0283,-7.7249 25.3165,-11.6306 z m -12.3546,-13.9281 c 2.4204,2.549 4.7446,5.0997 6.9883,7.651 -3.5953,1.7412 -7.2273,3.4751 -10.8904,5.2029 -4.5945,2.1671 -9.2371,4.3251 -13.9259,6.4744 -1.5641,-1.9492 -3.1666,-3.8972 -4.8088,-5.8437 -0.4901,-0.5809 -0.9837,-1.1616 -1.4809,-1.7421 8.2238,-3.88 16.2851,-7.7897 24.1177,-11.7425 z m -14.2639,-13.895 c 2.8217,2.5396 5.519,5.0828 8.1075,7.6284 -7.5708,3.9774 -15.4045,7.9069 -23.4348,11.8019 -2.2897,-2.5202 -4.6622,-5.0366 -7.1336,-7.548 7.7475,-3.916 15.2564,-7.8723 22.4609,-11.8823 z m -16.7556,-13.8385 c 3.3797,2.5347 6.5403,5.0703 9.5602,7.6001 -0.5701,0.3338 -1.1426,0.6671 -1.7169,0.9999 -6.3485,3.696 -12.9771,7.3434 -19.8352,10.9531 -2.6435,-2.5028 -5.3984,-4.9999 -8.28,-7.4901 1.383,-0.7717 2.7541,-1.5453 4.1128,-2.3209 5.6144,-3.2068 11.0669,-6.4432 16.1591,-9.7421 z m -21.1031,-13.7872 c 4.437,2.508 8.5122,5.0297 12.3039,7.558 -5.6531,4.1559 -12.0532,8.1942 -18.82,12.1779 -3.093,-2.4785 -6.331,-4.9457 -9.7921,-7.3947 6.1627,-4.0121 11.7257,-8.1048 16.3082,-12.3412 z m -30.6911,-13.7036 c 2.7631,0.8998 5.2252,1.7963 7.4554,2.6746 4.1754,1.609 7.9305,3.2322 11.3727,4.8559 -1.2079,1.7086 -2.7329,3.3728 -4.434,5.0089 -2.6549,2.5545 -5.69,5.0569 -9.0194,7.5214 -3.2744,-2.0376 -6.7535,-4.0583 -10.4846,-6.0578 -0.6907,-0.3697 -1.3887,-0.7383 -2.0959,-1.1055 3.2381,-3.034 5.8626,-6.1316 6.9016,-9.4069 0.4012,-1.1249 0.5738,-2.2844 0.3042,-3.4906 z m -91.5072,-5.6437 c 2.5528,-0.4461 5.4185,-0.8808 8.6154,-1.2929 0,0 0,0 0,0 5.0376,-0.6553 11.2119,-1.1456 18.3722,-1.4012 0,0 0,0 0,0 6.8522,-0.204 13.5491,-0.1136 19.8033,0.2512 7.3087,0.5082 13.4967,1.1685 18.6103,1.9042 3.3356,1.0793 5.1837,2.1555 6.1928,3.1812 3.4614,2.9996 2.9327,5.7302 1.68,8.3771 0,0 0,0 0,0 -0.305,0.6281 -0.6695,1.2508 -1.0854,1.8689 -1.1318,-0.4669 -2.2942,-0.9296 -3.4909,-1.3877 -4.5796,-1.7365 -9.3792,-3.3878 -15.1658,-4.7865 -0.089,-0.2546 -0.2072,-0.5102 -0.3587,-0.767 0,0 0,0 0,0 -1.1508,-1.7039 -2.9303,-3.5455 -11.0429,-5.1066 -3.4536,-0.626 -7.9758,-1.1288 -13.4762,-1.377 -5.7853,-0.2437 -11.982,-0.2458 -17.7735,-0.016 -3.7205,0.134 -7.3787,0.3244 -10.8806,0.5524 z m -40.7556,14.049 c 0.8523,-0.4612 1.7252,-0.922 2.6195,-1.3823 3.97,-2.0691 8.5861,-4.1954 14.3501,-6.3034 3.6304,-0.4524 7.3124,-0.8815 11.0387,-1.2791 5.977,-0.643 12.295,-1.2285 18.6759,-1.6363 5.1687,-0.3339 10.5699,-0.5532 15.5652,-0.5311 3.9796,0.018 7.6753,0.2061 10.2706,0.5741 1.2052,0.1688 2.2174,0.3709 3.0248,0.5896 -0.8795,-0.012 -1.7422,-0.01 -2.5516,0.023 -1.7753,0.046 -3.7277,0.2224 -5.7068,0.4596 0,0 0,0 0,0 -2.5894,0.3143 -5.0531,0.7773 -7.5171,1.3095 0,0 0,0 0,0 -2.0582,0.4507 -3.9762,0.9496 -5.8134,1.4812 -1.7166,0.1227 -3.4457,0.2607 -5.1787,0.4104 0,0 0,0 0,0 -14.4502,1.254 -28.6252,3.201 -42.0051,5.2334 -2.2691,0.3449 -4.5265,0.6954 -6.7721,1.0512 z m -20.9474,13.9225 c 1.8743,-1.4897 3.8367,-2.9785 5.9019,-4.4651 1.4662,-1.058 2.9909,-2.1187 4.5905,-3.1804 11.7178,-2.068 23.7234,-4.0478 36.0313,-5.8285 4.7111,-0.6816 9.4698,-1.3382 14.2527,-1.9422 -1.9079,0.8644 -3.7133,1.7479 -5.4674,2.6429 -2.8009,1.4371 -5.3874,2.8957 -7.8133,4.3707 -9.3861,1.4925 -18.6302,3.0874 -27.7401,4.7282 -6.6486,1.1979 -13.2324,2.4249 -19.7556,3.6744 z m -15.415,13.9388 c 1.6785,-1.7055 3.42,-3.4096 5.2308,-5.1122 0.9023,-0.8485 1.8235,-1.6973 2.7668,-2.5462 15.0239,-3.0267 30.3256,-5.9656 45.9645,-8.7267 -3.3867,2.4447 -6.497,4.9088 -9.4053,7.3869 -7.8139,1.4994 -15.5577,3.0339 -23.2398,4.591 -7.1548,1.4501 -14.2596,2.9201 -21.317,4.4072 z m -12.4455,13.9717 c 2.0668,-2.5618 4.2382,-5.1227 6.5341,-7.6815 14.3693,-3.1276 28.921,-6.1911 43.6808,-9.1665 -2.6262,2.4977 -5.1042,5.0023 -7.4544,7.5131 -14.4275,3.0437 -28.6726,6.1633 -42.7605,9.3349 z m -10.3705,13.9893 c 0.027,-0.04 0.055,-0.08 0.082,-0.1196 1.7292,-2.5215 3.5239,-5.0441 5.4035,-7.5667 13.8921,-3.1999 27.9204,-6.3578 42.1105,-9.4499 -2.1545,2.52 -4.1979,5.0451 -6.1508,7.5743 -13.7862,3.1063 -27.4391,6.2651 -40.9835,9.4531 -0.1539,0.036 -0.3078,0.073 -0.4617,0.1088 z m -8.9214,14.004 c 1.5168,-2.5666 3.0947,-5.1323 4.7391,-7.697 8.1835,-1.9616 16.4057,-3.9106 24.6683,-5.8457 5.425,-1.2704 10.8666,-2.5355 16.3264,-3.7938 -0.9975,1.3909 -1.9727,2.7827 -2.929,4.1753 -0.7864,1.1454 -1.5584,2.2913 -2.3167,3.4375 -13.6002,3.2056 -27.0934,6.4488 -40.4881,9.7237 z m -7.707,14.0197 c 1.3121,-2.5687 2.6756,-5.137 4.0959,-7.7047 13.2712,-3.2935 26.6348,-6.5581 40.0994,-9.7874 -1.5729,2.5427 -3.0829,5.0874 -4.535,7.6337 -13.3108,3.2561 -26.528,6.5442 -39.6603,9.8584 z m -6.6858,14.0275 c 0.3965,-0.8911 0.7981,-1.7822 1.2047,-2.6733 0.7655,-1.6782 1.5498,-3.3564 2.3541,-5.0346 13.0278,-3.3292 26.1345,-6.6348 39.3288,-9.911 -1.3611,2.5489 -2.6687,5.0992 -3.9281,7.6508 -9.7902,2.4719 -19.5356,4.9586 -29.2396,7.4576 -3.2444,0.8355 -6.4843,1.6723 -9.7199,2.5105 z m -5.8331,14.0355 c 0.9942,-2.5716 2.0287,-5.1427 3.1042,-7.7132 10.8106,-2.8314 21.671,-5.6475 32.5813,-8.4479 2.0324,-0.5216 4.0668,-1.0427 6.1028,-1.5632 -0.2575,0.555 -0.5128,1.1101 -0.7662,1.6652 -0.9121,1.999 -1.7986,3.9984 -2.6601,5.9982 -12.857,3.3321 -25.644,6.686 -38.362,10.0609 z m -5.0322,14.0458 c 0.85,-2.5734 1.7389,-5.1463 2.6675,-7.7187 12.6317,-3.3877 25.332,-6.7549 38.1015,-10.1006 -1.034,2.5564 -2.0273,5.1135 -2.9809,7.6713 -12.6642,3.3619 -25.2601,6.7449 -37.7881,10.148 z m -4.2578,14.0542 c 0.7104,-2.5747 1.4586,-5.1491 2.2453,-7.7231 12.4441,-3.4153 24.9554,-6.8109 37.5346,-10.1859 -0.8889,2.5587 -1.7387,5.118 -2.5501,7.6779 -12.4768,3.3905 -24.8866,6.8011 -37.2298,10.2311 z m -3.5106,14.0607 c 0.5763,-2.5757 1.1886,-5.1512 1.838,-7.7264 12.2617,-3.4416 24.5893,-6.8643 36.9833,-10.2672 -0.7489,2.5607 -1.46,5.1219 -2.1342,7.6835 -12.2945,3.4177 -24.5233,6.8547 -36.6871,10.3101 z m -2.7896,14.0653 c 0.4465,-2.5764 0.928,-5.1526 1.4452,-7.7287 12.0844,-3.4664 24.2335,-6.9147 36.4475,-10.3443 -0.6138,2.5623 -1.1912,5.125 -1.733,7.6881 -12.1172,3.4434 -24.1703,6.9053 -36.1597,10.3849 z m -2.0958,14.0679 c 0.322,-2.5767 0.6775,-5.1533 1.0673,-7.7299 11.9125,-3.4899 23.888,-6.9627 35.9274,-10.4173 -0.4837,2.5635 -0.9322,5.1274 -1.3464,7.6914 -11.9456,3.468 -23.828,6.9535 -35.6483,10.4558 z m -1.4333,14.0707 c 0.2001,-2.5779 0.4364,-5.1554 0.7057,-7.7323 5.0914,-1.5219 10.194,-3.0405 15.3071,-4.5561 6.6864,-1.9821 13.3925,-3.9588 20.1188,-5.93 -0.2812,2.0115 -0.5414,4.0231 -0.7813,6.0349 -0.066,0.553 -0.1302,1.1061 -0.1931,1.6592 -11.7795,3.4913 -23.5019,6.9984 -35.1572,10.5243 z m -0.7158,14.0796 c 0.059,-2.5793 0.1591,-5.1584 0.2979,-7.737 11.5717,-3.5379 23.2157,-7.0559 34.9225,-10.5569 -0.238,2.5651 -0.442,5.1303 -0.6088,7.6951 -11.6099,3.5137 -23.1503,7.0457 -34.6116,10.5988 z m 0.1104,14.086 c -0.1025,-2.5803 -0.158,-5.1604 -0.1695,-7.7402 11.3641,-3.5663 22.8131,-7.1104 34.3367,-10.6351 -0.104,2.5647 -0.1685,5.1292 -0.1905,7.6935 -11.4103,3.5389 -22.7393,7.0985 -33.9767,10.6818 z m 1.0452,14.0891 c -0.2836,-2.5806 -0.5147,-5.1611 -0.6964,-7.7415 11.1267,-3.5977 22.3504,-7.1707 33.6614,-10.7219 0.05,2.5638 0.1445,5.1273 0.2872,7.6903 -11.1812,3.5669 -22.2685,7.157 -33.2522,10.7731 z m 2.0887,14.0892 c -0.4848,-2.5803 -0.9115,-5.1607 -1.2832,-7.7412 10.8595,-3.6317 21.8282,-7.2365 32.8965,-10.8169 0.2234,2.5623 0.4974,5.1242 0.8247,7.6854 -10.922,3.5978 -21.738,7.221 -32.438,10.8727 z m 3.2403,14.0862 c -0.7057,-2.5794 -1.3478,-5.1592 -1.9296,-7.7391 10.5626,-3.6687 21.2466,-7.3079 32.0421,-10.9204 0.4171,2.5602 0.89,5.1199 1.4219,7.6787 -10.6331,3.6313 -21.1479,7.2906 -31.5344,10.9808 z m 4.5095,14.0798 c -0.9485,-2.5775 -1.8289,-5.1557 -2.6423,-7.7347 4.1016,-1.4866 8.2253,-2.9681 12.3703,-4.4446 6.196,-2.2068 12.4387,-4.4026 18.7257,-6.588 0.5229,2.1212 1.088,4.2418 1.697,6.3618 0.1253,0.4362 0.2525,0.8724 0.3816,1.3085 -10.3138,3.6675 -20.4942,7.3662 -30.5323,11.097 z m 5.8664,14.0627 c -1.2017,-2.5736 -2.3326,-5.1484 -3.3943,-7.7242 9.8744,-3.7487 19.8954,-7.4652 30.0539,-11.1502 0.8648,2.5543 1.796,5.1075 2.7954,7.6595 -9.9641,3.7063 -19.7855,7.4443 -29.455,11.2149 z m 7.2729,14.0377 c -1.4639,-2.5683 -2.8545,-5.1382 -4.1733,-7.7095 9.4975,-3.7884 19.151,-7.544 28.9514,-11.2677 1.1118,2.5499 2.2925,5.0984 3.5437,7.6453 -9.5958,3.7448 -19.0394,7.5218 -28.3218,11.3319 z m 8.729,14.0053 c -1.7352,-2.5617 -3.3945,-5.1253 -4.9795,-7.6908 9.1019,-3.8278 18.3692,-7.6223 27.793,-11.3843 1.3677,2.5441 2.8068,5.0865 4.319,7.6269 -9.2088,3.783 -18.2559,7.5988 -27.1325,11.4482 z m 10.2347,13.9651 c -2.0155,-2.5536 -3.9525,-5.1096 -5.8128,-7.6678 8.6877,-3.8669 17.5501,-7.7001 26.5785,-11.5002 1.6326,2.537 3.3394,5.0719 5.1217,7.6044 -8.8031,3.821 -17.4352,7.6752 -25.8874,11.5636 z m 11.7902,13.9174 c -2.3048,-2.5442 -4.5289,-5.0911 -6.6737,-7.6406 8.2548,-3.9058 16.6938,-7.7773 25.3081,-11.6152 1.907,2.5285 3.8905,5.0545 5.9519,7.5777 -8.379,3.8586 -16.5772,7.751 -24.5863,11.6781 z m 13.3798,13.8631 c -2.6016,-2.5344 -5.1162,-5.0716 -7.55,-7.6108 1.9848,-1.0022 3.9815,-2.002 5.9898,-2.9997 5.8934,-2.9288 11.8932,-5.8385 17.9957,-8.7292 2.1901,2.5186 4.4594,5.0343 6.8089,7.5469 -0.186,0.091 -0.3718,0.1826 -0.5576,0.274 -7.7383,3.8072 -15.3119,7.6452 -22.6868,11.5188 z m 15.1107,13.8051 c -2.9408,-2.5216 -5.7823,-5.0475 -8.5314,-7.5767 7.3213,-3.9854 14.8687,-7.9321 22.6059,-11.845 2.4792,2.5079 5.0386,5.0122 7.6847,7.5123 -7.4767,3.9325 -14.7419,7.9007 -21.7592,11.9094 z m 17.0808,13.7218 c -3.3233,-2.5039 -6.5355,-5.0133 -9.6433,-7.5275 6.7497,-4.0281 13.7651,-8.0141 21.0097,-11.9629 2.7928,2.4924 5.6777,4.9798 8.6612,7.4616 -6.939,3.9689 -13.6271,7.9769 -20.0276,12.0288 z m 19.2889,13.611 c -3.7495,-2.4811 -7.376,-4.9691 -10.8859,-7.4632 6.0958,-4.0716 12.4968,-8.0979 19.1669,-12.0836 3.1499,2.4719 6.4037,4.9374 9.7683,7.3958 -6.3191,4.0064 -12.3478,8.0551 -18.0493,12.151 z m 21.7349,13.4729 c -4.2192,-2.4533 -8.3034,-4.9149 -12.2592,-7.384 5.3598,-4.116 11.0644,-8.1834 17.0775,-12.2069 3.5506,2.4463 7.2171,4.8849 11.0063,7.315 -5.6172,4.0446 -10.9041,8.135 -15.8246,12.2759 z m 24.5838,13.3124 c -4.8187,-2.4194 -9.4467,-4.8514 -13.912,-7.2923 1.9553,-1.8068 3.9956,-3.6023 6.1068,-5.3881 2.7569,-2.3315 5.6319,-4.647 8.6185,-6.9474 3.1312,1.8935 6.3411,3.7815 9.633,5.6635 0.9076,0.5189 1.8214,1.0372 2.7414,1.555 -4.8333,4.0823 -9.2845,8.2124 -13.1877,12.4093 z m 28.3676,13.063 c -0.058,-0.025 -0.1168,-0.049 -0.1751,-0.074 -5.5395,-2.3371 -10.8439,-4.6932 -15.9396,-7.0645 3.3258,-4.2222 7.2797,-8.3721 11.6957,-12.4685 4.4984,2.3724 9.1556,4.7294 13.999,7.0672 -3.7795,4.0825 -7.0077,8.2243 -9.5221,12.4436 -0.019,0.032 -0.039,0.064 -0.058,0.096 z m 33.6417,12.6833 c -6.8416,-2.2678 -13.2516,-4.5764 -19.3256,-6.9085 1.0136,-2.5727 2.4006,-5.1083 4.0123,-7.6182 1.0763,-1.6733 2.2656,-3.3349 3.5571,-4.986 2.8613,1.2758 5.7866,2.5447 8.7807,3.8062 2.4202,1.0178 4.8763,2.0304 7.3772,3.0361 -2.4382,4.141 -4.1344,8.3466 -4.4017,12.6704 z m 42.8052,11.9018 c -9.2906,-2.0403 -17.4837,-4.2115 -24.9492,-6.3852 -0.034,-0.01 -0.068,-0.02 -0.1024,-0.029 -1.2086,-4.3435 -0.6671,-8.5563 0.9377,-12.6923 6.0354,2.186 12.3729,4.3236 19.1082,6.3957 -0.059,1.1563 0,2.3199 0.1819,3.4918 0.5243,3.0043 1.5999,6.0714 4.8238,9.2193 z m 67.8979,8.5361 c -4.3439,-0.1078 -8.5508,-0.3017 -12.5593,-0.5698 0,0 0,0 0,0 -10.4966,-0.7004 -19.7164,-1.7418 -27.6831,-2.9233 0,0 0,0 0,0 -0.7587,-0.1121 -1.5111,-0.2254 -2.2575,-0.3396 -8.9345,-4.2444 -11.8242,-8.3818 -12.9618,-12.4602 7.382,1.9386 15.0861,3.75 23.4872,5.3042 1.2806,1.2453 2.9894,2.4904 5.2738,3.7371 0,0 0,0 0,0 3.4201,1.878 8.1291,3.766 16.0783,5.4758 3.0269,0.645 6.5501,1.2489 10.6224,1.7758 z m 75.0817,-6.4898 c -1.8535,0.3444 -3.7404,0.6838 -5.662,1.0177 -7.6931,1.3376 -16.2886,2.5902 -25.9634,3.6235 0,0 0,0 0,0 -1.185,0.1282 -2.3948,0.2522 -3.6289,0.3714 -8.7601,-0.083 -17.4401,-0.4027 -24.948,-1.0216 -8.6897,-0.7067 -14.9176,-1.8916 -19.2742,-3.1545 0,0 0,0 0,0 -2.4064,-0.6877 -4.3025,-1.4134 -5.8722,-2.1593 2.7482,0.2922 5.4876,0.5309 8.2204,0.6973 0,0 0,0 0,0 4.8899,0.2953 9.7371,0.4353 13.8492,0.2875 1.0186,-0.026 2.0501,-0.065 3.0934,-0.1141 4.9821,0.5682 11.3408,0.9115 18.1735,1.0789 0,0 0,0 0,0 10.5129,0.2529 22.027,0.086 33.4283,-0.3011 0,0 0,0 0,0 2.8553,-0.096 5.7176,-0.2045 8.5839,-0.3257 z m 46.9869,-11.3387 c -0.3598,0.1063 -0.7205,0.2125 -1.0823,0.3186 -7.0439,2.0782 -14.5827,4.1402 -22.8358,6.1211 -15.0093,1.0176 -30.0882,1.7829 -44.7596,2.1209 -5.5698,0.1266 -11.0378,0.1862 -16.2438,0.1498 3.4229,-0.4833 6.797,-1.0208 10.148,-1.5933 5.4702,-0.9356 10.6692,-1.9516 15.6572,-3.0304 18.7592,-0.8146 38.1518,-2.2541 57.0506,-3.9053 0.6888,-0.06 1.3773,-0.1206 2.0657,-0.1814 z m 36.6669,-12.3574 c -6.0901,2.3197 -12.4805,4.6162 -19.2428,6.8766 -11.9762,1.2173 -24.0269,2.3402 -36.1166,3.3422 -7.1875,0.5956 -14.3956,1.1525 -21.5596,1.6469 3.7804,-1.0115 7.4696,-2.0504 11.1028,-3.1059 3.3822,-0.9893 6.6761,-1.9926 9.8902,-3.0086 18.7592,-1.6658 37.449,-3.6187 55.926,-5.7512 z m 30.7132,-12.8527 c -5.2166,2.3859 -10.6412,4.7559 -16.2972,7.1067 -0.4063,0.051 -0.8127,0.101 -1.2191,0.1515 -17.6418,2.1882 -35.5021,4.2495 -53.4473,6.0837 6.1244,-2.1775 11.9662,-4.398 17.5964,-6.6488 4.5764,-0.5298 9.1455,-1.0711 13.7051,-1.6222 13.3121,-1.6091 26.5362,-3.3039 39.6621,-5.0709 z m 26.5615,-13.1636 c -4.5389,2.4323 -9.2425,4.8549 -14.1344,7.2645 -17.2913,2.4608 -34.7563,4.8067 -52.3709,7.0042 5.2816,-2.2902 10.3573,-4.6022 15.2504,-6.933 17.239,-2.3262 34.332,-4.7825 51.2549,-7.3357 z m 23.2906,-13.366 c -4.0099,2.4633 -8.1555,4.9186 -12.4429,7.365 -3.8477,0.6045 -7.7037,1.2045 -11.5677,1.7995 -12.8591,1.9808 -25.8134,3.9085 -38.8525,5.768 4.6101,-2.3589 9.0573,-4.7337 13.3652,-7.121 0.7736,-0.1168 1.547,-0.2339 2.32,-0.3512 15.8618,-2.4071 31.5887,-4.8965 47.1779,-7.4603 z m 20.5894,-13.526 c -3.5391,2.4902 -7.2017,4.9739 -10.994,7.45 -16.1096,2.7451 -32.3684,5.4122 -48.773,7.9924 4.0829,-2.4047 8.0301,-4.8191 11.8486,-7.2425 16.1173,-2.6541 32.0912,-5.3904 47.9184,-8.1999 z m 18.1382,-13.6576 c -3.1122,2.5116 -6.3356,5.0182 -9.6771,7.5187 -15.6041,2.8589 -31.3527,5.6484 -47.2425,8.3598 3.6116,-2.4375 7.0996,-4.8832 10.4711,-7.3364 15.6225,-2.777 31.1063,-5.6274 46.4485,-8.5421 z m 15.9266,-13.7601 c -2.729,2.5278 -5.5574,5.0519 -8.4916,7.5714 -15.1353,2.9572 -30.4105,5.8539 -45.8221,8.6813 3.1843,-2.4649 6.2572,-4.9366 9.2252,-7.4143 15.1645,-2.8846 30.195,-5.8337 45.0885,-8.8384 z m 13.9551,-13.833 c -2.39,2.5384 -4.867,5.0746 -7.4379,7.6079 -14.7033,3.0403 -29.5417,6.0288 -44.5117,8.9568 2.8008,-2.4869 5.5024,-4.9792 8.1112,-7.4759 14.743,-2.9769 29.3568,-6.0095 43.8384,-9.0888 z m 12.1844,-13.891 c -2.0731,2.5492 -4.2322,5.0957 -6.4792,7.6394 -7.7769,1.692 -15.5926,3.3696 -23.4465,5.0323 -6.5942,1.396 -13.2152,2.7821 -19.8627,4.1575 1.555,-1.5817 3.075,-3.1649 4.562,-4.7493 0.8659,-0.9234 1.7197,-1.8473 2.5619,-2.7716 14.3505,-3.0535 28.5724,-6.1572 42.6645,-9.3083 z m 10.4759,-13.9428 c -1.7663,2.5578 -3.6152,5.1135 -5.5485,7.6668 -13.9187,3.1818 -27.9666,6.3172 -42.1427,9.4037 2.1444,-2.515 4.2026,-5.0332 6.1769,-7.5542 13.9661,-3.1254 27.8046,-6.2984 41.5143,-9.5163 z m 8.8346,-13.9858 c -1.4718,2.5649 -3.0229,5.1281 -4.655,7.6893 -13.5407,3.2466 -27.2098,6.4494 -41.0058,9.6058 1.8376,-2.5255 3.5926,-5.0535 5.267,-7.584 13.5915,-3.1929 27.0565,-6.4308 40.3938,-9.7111 z m 7.261,-14.0201 c -1.1898,2.5704 -2.4555,5.1395 -3.7989,7.7071 -13.1727,3.307 -26.4727,6.5727 -39.8988,9.7945 1.5433,-2.5342 3.0074,-5.0706 4.3943,-7.609 13.227,-3.2559 26.3285,-6.5542 39.3034,-9.8926 z m 5.755,-14.0456 c -0.9203,2.5743 -1.913,5.1477 -2.9798,7.7201 -12.8148,3.363 -25.7558,6.6872 -38.8218,9.97 1.2614,-2.5414 2.4469,-5.0846 3.5586,-7.6293 12.8725,-3.3144 25.6205,-6.6689 38.243,-10.0608 z m 4.3164,-14.0623 c -0.663,2.5765 -1.3949,5.1526 -2.1977,7.7281 -12.4668,3.4146 -25.0589,6.7928 -37.7747,10.1323 0.9917,-2.547 1.9112,-5.0953 2.7602,-7.6447 12.5279,-3.3687 24.9324,-6.7748 37.2122,-10.2157 z m 2.9747,-14.0684 c -0.4311,2.5769 -0.9229,5.1537 -1.4782,7.7303 -5.1789,1.4767 -10.3787,2.9477 -15.6001,4.4125 -7.0133,1.9676 -14.0669,3.9236 -21.1611,5.8678 0.583,-2.0241 1.1225,-4.0487 1.6195,-6.0737 0.1295,-0.5274 0.2561,-1.0547 0.38,-1.5821 12.1947,-3.4191 24.2728,-6.8717 36.2399,-10.3548 z m 1.77,-14.0707 c -0.2206,2.5771 -0.496,5.1543 -0.8299,7.7313 -11.835,3.5008 -23.7773,6.9725 -35.8324,10.4119 0.4964,-2.5543 0.9308,-5.1095 1.3064,-7.6652 11.8917,-3.4631 23.675,-6.9569 35.3559,-10.478 z m 0.6727,-14.0707 c -0.029,2.5768 -0.1084,5.1539 -0.2401,7.731 -11.56,3.5369 -23.2187,7.0478 -34.9818,10.5294 0.2808,-2.5567 0.5051,-5.114 0.6759,-7.6718 11.6132,-3.5029 23.1267,-7.0335 34.5461,-10.5886 z m -0.3181,-14.068 c 0.1425,2.5762 0.2403,5.1526 0.291,7.7292 -11.3096,3.569 -22.7095,7.1149 -34.2053,10.6343 0.085,-2.5585 0.1185,-5.1175 0.1043,-7.6768 11.3594,-3.5385 22.6275,-7.1018 33.81,-10.6867 z m -1.2022,-14.0623 c 0.2947,2.5748 0.5502,5.1501 0.7635,7.7257 -11.0838,3.5969 -22.2494,7.1735 -33.5025,10.7267 -0.092,-2.5599 -0.2287,-5.1201 -0.4089,-7.6804 11.1302,-3.5699 22.1777,-7.1617 33.1479,-10.772 z m -1.9794,-14.0541 c 0.4273,2.5731 0.8207,5.1468 1.1775,7.7209 -10.8828,3.6205 -21.8388,7.2236 -32.8739,10.8063 -0.2484,-2.5607 -0.5372,-5.1215 -0.8635,-7.6825 10.9257,-3.597 21.777,-7.213 32.5599,-10.8447 z m -2.6702,-14.0466 c 0.5528,2.5723 1.0699,5.1448 1.5522,7.7175 -3.2281,1.098 -6.4624,2.1945 -9.703,3.2895 -7.5054,2.536 -15.0433,5.0645 -22.6155,7.5844 -0.3729,-2.4759 -0.7787,-4.9517 -1.2144,-7.4276 -0.014,-0.085 -0.03,-0.1701 -0.045,-0.2553 10.7445,-3.6194 21.421,-7.2553 32.0259,-10.9085 z m -3.3765,-14.0413 c 0.6848,2.571 1.3328,5.1424 1.9445,7.7142 -10.5212,3.663 -21.1158,7.3087 -31.7802,10.9375 -0.5107,-2.5599 -1.0563,-5.1194 -1.6377,-7.6785 10.5643,-3.6406 21.0567,-7.2981 31.4734,-10.9732 z m -4.1116,-14.034 c 0.8221,2.5695 1.6057,5.1394 2.3517,7.7098 -10.3291,3.6853 -20.7354,7.3527 -31.2157,11.0029 -0.6403,-2.5584 -1.3169,-5.1163 -2.0306,-7.6736 10.3754,-3.662 20.6747,-7.3416 30.8946,-11.0391 z m -4.8742,-14.0244 c 0.9642,2.5675 1.8886,5.1357 2.7742,7.7043 -10.1284,3.7079 -20.3379,7.3975 -30.6253,11.0693 -0.7749,-2.5565 -1.5877,-5.1122 -2.4386,-7.6675 10.1777,-3.6838 20.2754,-7.3857 30.2897,-11.1061 z m -5.6644,-14.0125 c 1.1115,2.5652 2.1817,5.131 3.2118,7.6976 -9.9189,3.7308 -19.9229,7.4428 -30.0088,11.1366 -0.9146,-2.5541 -1.8682,-5.1074 -2.8618,-7.6601 9.9714,-3.706 19.8587,-7.4305 29.6588,-11.1741 z m -6.4822,-13.9985 c 1.2639,2.5624 2.4851,5.1257 3.6645,7.6896 -9.7006,3.7542 -19.4903,7.489 -29.3658,11.2052 -1.0594,-2.5514 -2.1592,-5.1019 -3.3002,-7.6515 9.7562,-3.7286 19.4247,-7.4762 29.0015,-11.2433 z m -7.3326,-13.983 c 1.1672,2.0942 2.3013,4.189 3.4055,6.2841 0.2457,0.4657 0.4896,0.9314 0.7321,1.3971 -9.4735,3.7778 -19.0404,7.5359 -28.6969,11.2747 -1.2091,-2.5482 -2.46,-5.0954 -3.7536,-7.6417 3.898,-1.5341 7.7808,-3.0714 11.6479,-4.6121 5.5895,-2.2267 11.1461,-4.4605 16.665,-6.7021 z m -8.3118,-13.9667 c 1.6241,2.556 3.189,5.1132 4.7001,7.6715 -9.2117,3.8056 -18.5421,7.5866 -27.97,11.3478 -1.3645,-2.544 -2.7742,-5.0865 -4.2345,-7.627 9.2864,-3.7738 18.4615,-7.5696 27.5044,-11.3923 z m -9.4907,-13.9415 c 1.8583,2.5505 3.6473,5.1028 5.3725,7.6565 -8.8911,3.8377 -17.9259,7.6465 -27.083,11.4316 -1.5468,-2.5372 -3.1487,-5.0723 -4.8113,-7.6051 8.9839,-3.8 17.8315,-7.6259 26.5218,-11.483 z m -10.8697,-13.9082 c 2.1378,2.5444 4.1827,5.0908 6.156,7.638 -0.9906,0.4505 -1.9835,0.9006 -2.9785,1.3503 -7.5566,3.4165 -15.2431,6.8078 -23.0445,10.1774 -1.7655,-2.5287 -3.5961,-5.0548 -5.4976,-7.578 1.3902,-0.6175 2.7763,-1.2358 4.158,-1.8549 7.1862,-3.2224 14.2724,-6.463 21.2066,-9.7328 z m -12.7245,-13.8647 c 2.5469,2.5328 4.9619,5.07 7.2664,7.6102 -8.0099,3.9221 -16.2819,7.7959 -24.7279,11.6401 -2.0185,-2.5178 -4.1122,-5.0305 -6.3029,-7.5367 8.181,-3.8605 16.132,-7.7588 23.7644,-11.7136 z m -15.3636,-13.7812 c 1.6713,1.3446 3.2819,2.691 4.8437,4.0383 1.3594,1.1726 2.6844,2.3465 3.977,3.5216 -7.2706,3.9848 -14.9057,7.9063 -22.817,11.7833 -2.3636,-2.4948 -4.8415,-4.9821 -7.455,-7.4607 4.6145,-2.3943 9.104,-4.8084 13.4479,-7.2468 2.7334,-1.5344 5.4082,-3.0784 8.0034,-4.6357 z m -19.691,-13.6379 c 2.6853,1.5726 5.182,3.1527 7.5521,4.7335 1.365,0.9094 2.6894,1.8206 3.9768,2.7334 -5.9415,3.9948 -12.57,7.8823 -19.5467,11.7229 -0.1522,0.084 -0.3046,0.1678 -0.4574,0.2516 -0.084,-0.073 -0.1687,-0.1457 -0.2532,-0.2185 -2.774,-2.3887 -5.6836,-4.7615 -8.8,-7.1124 3.5485,-2.1318 6.9273,-4.2856 10.0789,-6.4715 2.6686,-1.8533 5.1933,-3.7271 7.4495,-5.639 z m -30.2888,-13.1871 c 0,5e-4 0,0 0.01,0 7.732,2.2827 13.6795,4.7181 18.8094,7.1455 -0.1366,0.1724 -0.2767,0.3443 -0.4199,0.5157 -3.3419,4.0691 -8.3954,7.923 -14.0233,11.7251 -3.6305,-2.382 -7.4797,-4.7162 -11.7912,-6.9767 1.1055,-0.9352 2.1323,-1.8777 3.0635,-2.8299 2.9224,-3.0753 5.3535,-6.1824 4.357,-9.5791 0,0 0,0 0,0 -2e-4,-5e-4 -4e-4,0 -6e-4,0 z m -71.4461,-1.8329 c 5.3969,-1.2792 12.6043,-2.4967 22.0552,-3.2008 0,0 0,0 0,0 4.1799,-0.2899 8.7291,-0.4105 13.3903,-0.3297 3.062,0.064 5.9706,0.2065 8.6764,0.4129 1.2712,0.2639 2.3741,0.5411 3.3265,0.8254 3.182,0.9709 4.8395,1.9629 5.8534,2.9302 0,0 0,0 0,0 1.244,1.1881 1.499,2.3472 1.442,3.4947 0,0 0,0 0,0 -0.064,1.6235 -0.9732,3.1974 -2.2799,4.761 -2.8412,-1.1454 -5.8527,-2.2152 -9.2079,-3.1807 0,0 0,0 0,0 -2.3538,-0.6746 -4.5671,-1.2576 -6.8173,-1.6964 0,0 0,0 0,0 -0.2061,-0.038 -0.406,-0.075 -0.6004,-0.1111 0.082,-0.637 0.2171,-1.2597 -0.2149,-1.836 -0.1727,-0.4894 -0.7607,-1.0219 -2.1297,-1.4652 0,0 0,0 0,0 -1.2848,-0.4441 -3.7465,-0.8136 -6.8228,-1.04 -7.4657,-0.5442 -17.6588,-0.1947 -26.6709,0.4357 z m -34.9905,12.8282 c 4.2919,-2.1918 9.019,-4.3682 14.4572,-6.4944 0.6067,-0.2391 1.2249,-0.4783 1.8562,-0.7174 10.6353,-1.2418 21.7187,-2.3305 32.5374,-2.8434 8.3237,-0.3649 15.995,-0.3971 18.9411,0.542 -1.2497,-0.017 -3.718,0.605 -7.8561,1.3967 -2.5361,0.5755 -4.8954,1.2345 -7.174,1.957 -6.0787,0.428 -12.347,1.0357 -18.6389,1.7251 -11.57,1.2679 -22.9644,2.7932 -34.1229,4.4344 z m -22.3724,13.4709 c 3.5559,-2.4935 7.3604,-4.9762 11.4908,-7.4414 6.3134,-1.0237 12.6795,-2.0193 19.1002,-2.9815 10.3438,-1.5495 20.8257,-3.0064 31.3939,-4.2489 -4.2036,1.839 -8.0139,3.7612 -11.6682,5.737 -0.624,0.3381 -1.2409,0.6769 -1.8507,1.0165 -16.4718,2.4345 -32.6157,5.1062 -48.466,7.9183 z m -17.4075,13.6856 c 0.4329,-0.3748 0.8685,-0.7495 1.3074,-1.124 2.5012,-2.1377 5.0896,-4.2753 7.8124,-6.4089 15.4457,-2.8926 31.1311,-5.6861 47.0906,-8.284 -3.6954,2.3771 -7.1282,4.7827 -10.3752,7.2102 -13.8091,2.4592 -27.4524,5.0336 -40.954,7.6549 -1.6292,0.3164 -3.2563,0.6337 -4.8812,0.9518 z m -14.6365,13.78 c 2.4735,-2.5311 5.0515,-5.0588 7.7494,-7.5821 10.3959,-2.1025 20.8731,-4.1718 31.4368,-6.2018 4.53,-0.8711 9.073,-1.7356 13.6299,-2.5908 -1.2431,1.0209 -2.465,2.0447 -3.6714,3.0708 -1.6901,1.4421 -3.3354,2.8869 -4.9392,4.3342 -14.8936,2.9196 -29.6233,5.9157 -44.2055,8.9697 z m -12.5625,13.8482 c 2.1454,-2.5404 4.3667,-5.0792 6.6795,-7.6153 14.3878,-3.0894 28.9087,-6.1287 43.5788,-9.0994 -2.5535,2.4867 -4.9983,4.9802 -7.3498,7.4795 -14.4289,3.0255 -28.7264,6.1101 -42.9085,9.2352 z m -11.021,13.8885 c 1.8964,-2.5471 3.8583,-5.0924 5.8883,-7.6357 5.1049,-1.1454 10.2234,-2.2858 15.3559,-3.421 8.9821,-1.9868 18.0073,-3.9576 27.0798,-5.9077 -1.9458,2.2093 -3.8295,4.4225 -5.6612,6.639 -0.2478,0.2998 -0.4946,0.5997 -0.7403,0.8996 -14.0767,3.104 -28.0502,6.2469 -41.9225,9.4258 z m -9.718,13.9243 c 1.666,-2.5532 3.393,-5.1049 5.1837,-7.6548 13.7398,-3.2018 27.5787,-6.3689 41.5185,-9.4984 -1.9525,2.5211 -3.8389,5.0445 -5.6617,7.5701 -13.778,3.1592 -27.4573,6.3545 -41.0405,9.5831 z m -8.5041,13.9544 c 1.4518,-2.5582 2.9601,-5.1151 4.5276,-7.6707 13.4586,-3.2495 27.0113,-6.467 40.6602,-9.6497 -1.7198,2.529 -3.378,5.0601 -4.9769,7.5931 -13.4966,3.21 -26.8996,6.4534 -40.2109,9.7273 z m -7.3785,13.9786 c 1.2537,-2.5621 2.5595,-5.1232 3.92,-7.6832 13.1948,-3.2928 26.4788,-6.5565 39.8544,-9.788 -1.5033,2.536 -2.9494,5.0737 -4.3407,7.6129 -13.2328,3.2565 -26.3766,6.5436 -39.4337,9.8583 z m -6.3412,13.997 c 1.0718,-2.5649 2.1912,-5.1291 3.3609,-7.6926 12.9484,-3.3317 25.9814,-6.637 39.1009,-9.913 -1.3028,2.5418 -2.553,5.085 -3.7526,7.6295 -12.9865,3.2985 -25.8889,6.6249 -38.7092,9.9761 z m -5.3907,14.0103 c 0.665,-1.89 1.3555,-3.7796 2.0708,-5.6687 0.2562,-0.677 0.5157,-1.3539 0.7782,-2.0309 12.7195,-3.3662 25.5187,-6.7088 38.4,-10.0248 -1.1188,2.5465 -2.1891,5.0942 -3.2134,7.6429 -5.9726,1.5618 -11.9277,3.1291 -17.8657,4.7016 -6.7454,1.7865 -13.4691,3.5796 -20.1699,5.3799 z m -4.4466,14.0253 c 0.7227,-2.57 1.4974,-5.1394 2.3214,-7.7081 12.4948,-3.4009 25.0754,-6.7759 37.7331,-10.1272 -0.9485,2.5499 -1.8515,5.1002 -2.7065,7.6509 -12.5353,3.3693 -24.9875,6.7634 -37.348,10.1844 z m -3.4158,14.0382 c 0.5258,-2.5721 1.1079,-5.1437 1.7439,-7.7147 12.2446,-3.438 24.5858,-6.8481 37.0148,-10.2327 -0.7745,2.5512 -1.499,5.1026 -2.171,7.6542 -12.2925,3.4037 -24.4914,6.834 -36.5877,10.2932 z m -2.2952,14.0476 c 0.3122,-2.5735 0.6854,-5.1466 1.1171,-7.7194 11.9689,-3.4771 24.0453,-6.9245 36.22,-10.3443 -0.5841,2.5518 -1.1137,5.1036 -1.5862,7.6555 -12.0243,3.4401 -23.9443,6.9087 -35.7509,10.4082 z m -1.0848,14.0536 c 0.081,-2.5743 0.23,-5.1484 0.4408,-7.7223 11.6678,-3.5183 23.4538,-7.0049 35.349,-10.4622 -0.3774,2.5519 -0.6955,5.1034 -0.9521,7.6549 -11.7306,3.4786 -23.3461,6.9877 -34.8377,10.5296 z m 0.2154,14.056 c -0.1639,-2.5744 -0.2581,-5.1488 -0.2846,-7.7232 11.3413,-3.5616 22.8112,-7.0896 34.4013,-10.5863 -0.154,2.5511 -0.2442,5.1019 -0.2685,7.6523 -11.4115,3.5193 -22.6972,7.0709 -33.8482,10.6572 z m 1.9523,14.0661 c -0.5863,-2.5749 -1.0465,-5.1513 -1.3759,-7.7289 3.1532,-1.0454 6.328,-2.0856 9.5249,-3.1205 7.8725,-2.5509 15.8142,-5.0841 23.8221,-7.6006 0.085,2.5102 0.2352,5.0199 0.4542,7.529 0,0.039 0.01,0.079 0.01,0.1181 -11.0709,3.5375 -21.8814,7.1402 -32.4355,10.8029 z m 4.4294,14.0424 c -1.0315,-2.5685 -1.9445,-5.1391 -2.7349,-7.7114 10.2621,-3.6956 20.7768,-7.3336 31.548,-10.9086 0.4335,2.5304 0.9942,5.06 1.678,7.5889 -10.4143,3.6186 -20.5768,7.2973 -30.4911,11.0311 z m 6.7815,14.0025 c -1.4478,-2.5603 -2.7852,-5.1231 -4.0079,-7.6881 9.6363,-3.7633 19.5168,-7.4738 29.6456,-11.1263 0.8826,2.5274 1.8846,5.0536 3.002,7.5786 -9.7889,3.6917 -19.3341,7.4387 -28.6397,11.2358 z m 8.9766,13.9519 c -1.8355,-2.55 -3.5685,-5.1031 -5.1946,-7.659 9.0415,-3.823 18.3188,-7.5982 27.8357,-11.3204 1.3031,2.5225 2.7178,5.0434 4.2398,7.5624 -9.1942,3.7571 -18.1531,7.5645 -26.8809,11.417 z m 11.0151,13.8906 c -2.1945,-2.5378 -4.2943,-5.0792 -6.2952,-7.624 8.4775,-3.8749 17.1825,-7.707 26.1186,-11.4909 1.6949,2.5157 3.4934,5.0292 5.3912,7.5403 -8.6302,3.8146 -17.0338,7.6745 -25.2146,11.5746 z m 12.8991,13.8205 c -1.2,-1.1989 -2.3801,-2.3988 -3.54,-3.5994 -1.2822,-1.3275 -2.5397,-2.656 -3.7723,-3.9855 7.9446,-3.919 16.1081,-7.8001 24.4945,-11.638 2.0579,2.507 4.2115,5.0112 6.4564,7.5125 -5.3196,2.5386 -10.5451,5.0947 -15.6776,7.6667 -2.6808,1.3424 -5.3345,2.6904 -7.961,4.0437 z m 14.6642,13.7487 c -2.842,-2.511 -5.5995,-5.0259 -8.2701,-7.5447 6.9424,-3.7118 14.0847,-7.3841 21.4284,-11.0148 0.5062,-0.251 1.0132,-0.5019 1.521,-0.7527 0.2137,0.2231 0.4283,0.4461 0.6433,0.6691 2.1851,2.2672 4.4437,4.5317 6.7744,6.7932 -7.593,3.9044 -14.9579,7.8551 -22.097,11.8499 z m 16.3472,13.6691 c -3.1436,-2.496 -6.2062,-4.9961 -9.186,-7.5004 6.9106,-4.0159 14.0452,-7.9889 21.406,-11.9164 2.7004,2.4777 5.4863,4.9518 8.3553,7.4222 -7.0815,3.9548 -13.9392,7.9539 -20.5753,11.9946 z m 17.9573,13.5853 c -3.4318,-2.4802 -6.7864,-4.9648 -10.0616,-7.4538 6.4143,-4.0604 13.0484,-8.08 19.9044,-12.0565 3.0042,2.4643 6.09,4.9248 9.2555,7.3814 -6.585,4.0019 -12.9503,8.0456 -19.0983,12.1289 z m 19.4946,13.4972 c -3.7068,-2.4637 -7.3398,-4.932 -10.8973,-7.4049 5.933,-4.1013 12.0813,-8.1641 18.4474,-12.186 3.2946,2.4501 6.6671,4.8962 10.1155,7.3381 -6.103,4.0454 -11.9909,8.1305 -17.6656,12.2528 z m 22.3625,13.298 c -3.4548,-1.8339 -6.9096,-3.6679 -10.3643,-5.5019 -0.9147,-0.5814 -1.8254,-1.1631 -2.7319,-1.745 5.4663,-4.1388 11.1438,-8.2413 17.0346,-12.3051 3.5717,2.4351 7.2177,4.866 10.9359,7.2925 -2.5291,1.8332 -5.0157,3.674 -7.4601,5.5221 -2.4848,2.2388 -4.9564,4.4846 -7.4142,6.7374 z m 24.7188,13.1221 c -4.5271,-2.4033 -9.0543,-4.8065 -13.5815,-7.2099 4.4325,-4.0999 8.9094,-8.177 13.4305,-12.2312 4.4954,2.3869 8.9908,4.7737 13.486,7.1604 -4.4894,4.0707 -8.9344,8.1642 -13.335,12.2807 z m 24.7167,13.1209 c -4.5267,-2.403 -9.0535,-4.806 -13.5804,-7.2092 4.3744,-4.1299 8.7932,-8.2369 13.2565,-12.3211 4.4949,2.3868 8.9899,4.7733 13.4847,7.1599 -4.4314,4.1006 -8.8182,8.2241 -13.1608,12.3704 z m 24.7147,13.12 c -4.5263,-2.4028 -9.0528,-4.8057 -13.5794,-7.2087 4.3165,-4.1598 8.6772,-8.2968 13.0824,-12.4108 4.4945,2.3865 8.9891,4.7728 13.4835,7.1592 -4.3733,4.1305 -8.7021,8.284 -12.9865,12.4603 z m 24.7125,13.1189 c -4.5259,-2.4027 -9.0519,-4.8054 -13.5781,-7.2081 4.2584,-4.1898 8.5609,-8.3568 12.908,-12.5008 4.4944,2.3863 8.9885,4.7725 13.4825,7.1587 -4.3151,4.1605 -8.5859,8.3439 -12.8124,12.5502 z"
       id="bre6"
       inkscape:label="bre6" />
  </g>
</svg>
