<?xml version="1.0" encoding="UTF-8" standalone="no"?>
<!-- Created with Inkscape (http://www.inkscape.org/) -->

<svg
   width="150mm"
   height="149.99998mm"
   viewBox="0 0 531.49606 531.496"
   id="svg2"
   version="1.1"
   inkscape:version="0.92.5 (2060ec1f9f, 2020-04-08)"
   sodipodi:docname="wi-all.svg"
   inkscape:export-filename="/home/fred/Dropbox/svg/entremet/wienerbrød/2.png"
   inkscape:export-xdpi="90"
   inkscape:export-ydpi="90"
   xmlns:inkscape="http://www.inkscape.org/namespaces/inkscape"
   xmlns:sodipodi="http://sodipodi.sourceforge.net/DTD/sodipodi-0.dtd"
   xmlns="http://www.w3.org/2000/svg"
   xmlns:svg="http://www.w3.org/2000/svg"
   xmlns:rdf="http://www.w3.org/1999/02/22-rdf-syntax-ns#"
   xmlns:cc="http://creativecommons.org/ns#"
   xmlns:dc="http://purl.org/dc/elements/1.1/">
  <defs
     id="defs4">
    <inkscape:path-effect
       effect="skeletal"
       id="path-effect61471"
       is_visible="true"
       pattern="m 2105.1812,2060.0667 c -1.1648,-3.1315 19.4163,-2.4755 20.8031,0 9.7494,1.0172 9.7494,52.9569 0,55.2874 -1.6928,0.096 -22.5201,1.6178 -20.9504,0 8.9655,-9.2404 1.3871,-51.9543 0.1473,-55.2874 z"
       copytype="repeated_stretched"
       prop_scale="1"
       scale_y_rel="false"
       spacing="8"
       normal_offset="0"
       tang_offset="0"
       prop_units="false"
       vertical_pattern="false"
       fuse_tolerance="0"
       lpeversion="0"
       hide_knot="false" />
    <linearGradient
       id="linearGradient56905"
       inkscape:swatch="solid">
      <stop
         style="stop-color:#923c3c;stop-opacity:1;"
         offset="0"
         id="stop56903" />
    </linearGradient>
    <inkscape:path-effect
       effect="skeletal"
       id="path-effect61471-72"
       is_visible="true"
       pattern="m 2105.1812,2060.0667 c -1.1648,-3.1315 19.4163,-2.4755 20.8031,0 9.7494,1.0172 9.7494,52.9569 0,55.2874 -1.6928,0.096 -22.5201,1.6178 -20.9504,0 8.9655,-9.2404 1.3871,-51.9543 0.1473,-55.2874 z"
       copytype="repeated_stretched"
       prop_scale="1"
       scale_y_rel="false"
       spacing="8"
       normal_offset="0"
       tang_offset="0"
       prop_units="false"
       vertical_pattern="false"
       fuse_tolerance="0"
       lpeversion="0"
       hide_knot="false" />
  </defs>
  <sodipodi:namedview
     id="base"
     pagecolor="#ffffff"
     bordercolor="#666666"
     borderopacity="1.0"
     inkscape:pageopacity="1"
     inkscape:pageshadow="2"
     inkscape:zoom="0.125"
     inkscape:cx="2429.4412"
     inkscape:cy="7952.729"
     inkscape:document-units="mm"
     inkscape:current-layer="layer1"
     showgrid="true"
     inkscape:window-width="1880"
     inkscape:window-height="1016"
     inkscape:window-x="40"
     inkscape:window-y="27"
     inkscape:window-maximized="1"
     showguides="false"
     inkscape:guide-bbox="true"
     inkscape:lockguides="true"
     inkscape:snap-global="true"
     inkscape:snap-bbox="true"
     inkscape:snap-nodes="true"
     objecttolerance="10000"
     guidetolerance="10000"
     inkscape:pagecheckerboard="false"
     inkscape:showpageshadow="2"
     inkscape:deskcolor="#d1d1d1">
    <inkscape:grid
       type="xygrid"
       id="grid5214"
       units="mm"
       spacingx="17.716535"
       spacingy="17.716535"
       originx="0"
       originy="0"
       empspacing="10"
       dotted="false" />
    <sodipodi:guide
       position="4400.8516,360.91373"
       orientation="1,0"
       id="guide61746"
       inkscape:locked="true" />
    <sodipodi:guide
       position="4560.3004,431.77987"
       orientation="0,1"
       id="guide61750"
       inkscape:locked="true" />
    <sodipodi:guide
       position="3515.8827,1049.9747"
       orientation="0,1"
       id="guide4470"
       inkscape:locked="true" />
    <sodipodi:guide
       position="-1826.6213,1657.4896"
       orientation="1,0"
       id="guide5403"
       inkscape:locked="true" />
    <sodipodi:guide
       position="-5788.3546,-908.91513"
       orientation="1,0"
       id="guide8722"
       inkscape:locked="true" />
  </sodipodi:namedview>
  <metadata
     id="metadata7">
    <rdf:RDF>
      <cc:Work
         rdf:about="">
        <dc:format>image/svg+xml</dc:format>
        <dc:type
           rdf:resource="http://purl.org/dc/dcmitype/StillImage" />
        <dc:title />
      </cc:Work>
    </rdf:RDF>
  </metadata>
  <g
     inkscape:label="layer1"
     inkscape:groupmode="layer"
     id="layer1"
     transform="translate(-3240.9712,-258.44905)">
    <g
       id="lun4"
       transform="matrix(0.74827101,0,0,1.4941198,1235.4474,-3026.8677)"
       inkscape:export-filename="/home/fred/Dropbox/svg/entremet/wienerbrød/g61652.png"
       inkscape:export-xdpi="90"
       inkscape:export-ydpi="90"
       inkscape:label="lun4">
      <path
         inkscape:path-effect="#path-effect61471"
         sodipodi:cx="3215.551"
         sodipodi:cy="2345.6692"
         sodipodi:rx="150.59055"
         sodipodi:ry="131.9735"
         sodipodi:type="arc"
         d="m 3393.0971,2345.9639 c 1.5976,-0.7476 2.1516,5.5061 1.4392,12.1155 -0.7175,6.6567 -2.6751,13.2497 -4.1094,13.8932 -1.6485,5.8747 -15.2408,5.446 -28.1556,2.1008 -12.9149,-3.3453 -25.4281,-8.6244 -25.8574,-12.5197 0.1391,-1.1814 0.4325,-4.434 0.5594,-8.895 0.1117,-3.9279 0.032,-7.5093 0.8414,-6.926 4.6044,3.3173 17.5538,4.5488 29.7781,4.048 12.6336,-0.5176 23.4566,-2.8586 25.5043,-3.8168 z m -7.5326,44.6742 c 1.7239,-0.1919 0.4354,5.7725 -2.1411,11.7415 -2.5917,6.0041 -6.3393,11.6513 -7.8945,11.8311 -3.2474,5.0631 -16.187,0.6745 -27.6569,-6.2952 -11.4699,-6.9697 -21.9771,-15.7257 -21.1591,-19.6941 0.528,-1.1697 1.8002,-4.2058 3.4432,-8.6071 1.4336,-3.8405 2.623,-7.3755 3.1906,-6.54 3.195,4.703 15.1351,9.8531 26.9063,13.1764 12.1291,3.4243 23.1327,4.6299 25.3115,4.3874 z m -19.9601,39.8746 c 1.7119,0.3141 -1.1904,5.6215 -5.3294,10.5899 -4.1622,4.9964 -9.3426,9.3536 -10.8903,9.0921 -4.5346,3.9391 -15.7744,-3.8418 -24.8794,-13.6888 -9.1051,-9.847 -16.8137,-21.153 -14.9452,-24.7888 0.8523,-1.0251 2.851,-3.5708 5.7067,-7.4655 2.4688,-3.3671 4.6694,-6.5141 4.9704,-5.543 1.7097,5.5158 11.7955,13.8402 22.2068,20.3675 10.7158,6.7183 21.0153,11.0429 23.1604,11.4366 z m -30.2499,32.4769 c 1.5515,0.7753 -2.6426,4.993 -7.8389,8.586 -5.2232,3.6115 -11.1995,6.4068 -12.593,5.7566 -5.2488,2.579 -14.0861,-7.7385 -20.4344,-19.5102 -6.3484,-11.7718 -10.9086,-24.6326 -8.051,-27.7086 1.0999,-0.7686 3.8335,-2.7872 7.6807,-5.8297 3.3484,-2.6481 6.3505,-5.1449 6.369,-4.1204 0.1052,5.8394 7.5358,16.4957 15.769,25.5666 8.4512,9.3109 17.1707,16.2964 19.0986,17.2597 z m -36.7461,23.117 c 1.3041,1.1254 -3.6793,4.2017 -9.4929,6.4633 -5.8399,2.2719 -12.2438,3.6072 -13.4434,2.6504 -5.6525,1.2957 -11.9234,-10.7997 -15.4569,-23.7487 -3.5335,-12.949 -5.049,-26.5688 -1.4785,-28.9279 1.3192,-0.5191 4.4252,-1.8371 9.0443,-3.9182 3.9864,-1.7961 7.6042,-3.4988 7.3559,-2.49 -1.4183,5.7621 3.2861,17.8175 9.1196,28.6174 5.971,11.0543 12.7474,19.9692 14.3519,21.3537 z m -40.6935,13.9378 c 1.0179,1.394 -4.4942,3.2683 -10.6379,4.1744 -6.1706,0.91 -12.6961,0.7929 -13.6564,-0.4054 -5.7848,0.013 -9.2825,-13.1579 -9.928,-26.5591 -0.6455,-13.4012 0.8236,-27.0324 4.8447,-28.5844 1.4452,-0.2344 4.7094,-0.8546 9.7667,-1.907 4.3301,-0.9011 8.3021,-1.77 7.8294,-0.8428 -2.6919,5.2791 -0.779,18.1865 2.5221,30.0313 3.3793,12.1254 8.015,22.3888 9.2594,24.093 z m -42.6378,4.5582 c 0.6909,1.5761 -5.0855,2.2279 -11.2764,1.7993 -6.217,-0.4304 -12.5659,-1.9402 -13.2448,-3.3168 -5.6538,-1.2259 -6.222,-14.8493 -3.9508,-28.0867 2.2713,-13.2374 6.659,-26.2354 10.9203,-26.8667 1.4612,0.089 4.7826,0.2009 9.9412,0.2856 4.4172,0.072 8.4732,0.098 7.8127,0.8969 -3.7619,4.5509 -4.6857,17.549 -4.0256,29.8108 0.6756,12.5521 2.9783,23.5501 3.8234,25.4776 z m -42.6257,-4.6773 c 0.3337,1.6943 -5.4509,1.0561 -11.4096,-0.7335 -5.9844,-1.7972 -11.8647,-4.6826 -12.2292,-6.1768 -5.2616,-2.4547 -2.8358,-15.8489 2.2825,-28.2282 5.1183,-12.3793 12.2245,-24.0727 16.4916,-23.7873 1.4,0.396 4.5866,1.2037 9.5997,2.3704 4.2896,0.9983 8.2631,1.8762 7.4419,2.5193 -4.6677,3.6554 -8.3858,16.1638 -10.3952,28.2866 -2.0574,12.413 -2.1896,23.6779 -1.7817,25.7495 z m -40.6557,-14.0562 c -0.047,1.724 -5.5687,-0.2094 -11.0109,-3.3274 -5.4658,-3.1314 -10.582,-7.3183 -10.5992,-8.8598 -4.6034,-3.629 0.8783,-16.0642 8.7704,-26.8604 7.8922,-10.7961 17.5086,-20.4646 21.5062,-19.2266 1.216,0.6854 4.1073,2.2107 8.6102,4.4249 3.8735,1.9047 7.4986,3.6084 6.5648,4.0556 -5.2992,2.5375 -11.7256,13.8501 -16.3867,25.1687 -4.7791,11.6052 -7.3964,22.5038 -7.4548,24.625 z m -36.6828,-23.2328 c -0.2892,1.0644 -2.4846,0.1077 -5.2788,-1.9295 -3.0212,-2.219 -6.3696,-5.4308 -9.0349,-8.6526 -2.604,-3.1477 -4.307,-6.019 -4.0604,-7.0071 -3.5891,-4.8123 5.0521,-15.4206 15.5943,-23.7489 10.5423,-8.3283 22.4326,-15.1342 25.8978,-12.9668 0.6432,0.634 6.3416,5.7122 9.7955,8.7955 1.7917,1.6097 2.9707,2.8019 2.2825,2.948 -5.66,1.2014 -14.7016,10.604 -22.0002,20.4574 -7.4975,10.1218 -12.6336,20.0344 -13.1958,22.104 z m -30.1396,-32.5916 c -0.8923,1.4964 -4.8419,-3.0818 -8.0442,-8.7115 -3.2204,-5.6615 -5.4864,-12.0626 -4.7006,-13.4234 -2.0985,-5.6485 9.1115,-13.4223 21.5036,-18.4551 12.3922,-5.0328 25.6449,-8.27 28.3824,-5.287 0.6598,1.147 2.3306,3.8683 4.9911,7.8737 2.2979,3.4595 4.4999,6.6103 3.4814,6.5558 -5.7734,-0.309 -17.089,6.244 -26.8255,13.7218 -10.0245,7.6989 -17.6701,15.8507 -18.7882,17.7257 z m -19.8145,-39.9518 c -1.2707,1.1853 -3.764,-4.3721 -5.2266,-10.7686 -1.4707,-6.4318 -1.7921,-13.3242 -0.6428,-14.4058 -0.3659,-6.1155 12.6425,-10.1463 25.9647,-11.1364 13.3222,-0.9901 26.8678,-0.073 28.5209,3.45 0.2604,1.2219 0.9991,4.242 2.3304,8.6636 1.1551,3.8362 2.3616,7.3787 1.4075,7.0534 -5.3894,-1.838 -18.0521,1.1709 -29.4413,5.5277 -11.7516,4.4955 -21.3063,10.1177 -22.9128,11.6161 z m -7.3538,-44.7189 c -1.5977,0.7476 -2.1516,-5.5061 -1.4392,-12.1155 0.7175,-6.6567 2.6752,-13.2496 4.1094,-13.8931 1.6485,-5.8748 15.2408,-5.4461 28.1557,-2.1007 12.9149,3.3453 25.428,8.6245 25.8573,12.5197 -0.1391,1.1814 -0.4325,4.434 -0.5594,8.895 -0.1118,3.9279 -0.032,7.5093 -0.8414,6.926 -4.6045,-3.3173 -17.5539,-4.5489 -29.7781,-4.0481 -12.6336,0.5175 -23.4567,2.8586 -25.5043,3.8167 z m 7.5327,-44.6742 c -1.7239,0.1919 -0.4354,-5.7724 2.1411,-11.7414 2.5917,-6.0042 6.3394,-11.6513 7.8946,-11.8311 3.2474,-5.0631 16.1869,-0.6745 27.6568,6.2953 11.4699,6.9697 21.9771,15.7257 21.1591,19.6941 -0.528,1.1697 -1.8002,4.2059 -3.4432,8.6071 -1.4337,3.8405 -2.623,7.3756 -3.1907,6.54 -3.1949,-4.703 -15.1351,-9.8532 -26.9062,-13.1765 -12.1291,-3.4243 -23.1327,-4.63 -25.3115,-4.3875 z m 19.9602,-39.8745 c -1.7119,-0.3141 1.1904,-5.6214 5.3294,-10.5899 4.1623,-4.9964 9.3426,-9.3535 10.8904,-9.0921 4.5345,-3.939 15.7743,3.8419 24.8793,13.6889 9.1051,9.847 16.8137,21.1531 14.9451,24.7889 -0.8523,1.025 -2.851,3.5708 -5.7067,7.4655 -2.4688,3.3671 -4.6693,6.5141 -4.9704,5.5429 -1.7097,-5.5157 -11.7954,-13.8402 -22.2067,-20.3675 -10.7158,-6.7183 -21.0153,-11.043 -23.1604,-11.4367 z m 30.25,-32.4768 c -1.5515,-0.7753 2.6426,-4.993 7.8389,-8.586 5.2232,-3.6114 11.1995,-6.4067 12.593,-5.7566 5.2488,-2.5789 14.0861,7.7386 20.4344,19.5103 6.3483,11.7718 10.9086,24.6326 8.051,27.7086 -1.1,0.7686 -3.8336,2.7872 -7.6808,5.8297 -3.3485,2.6481 -6.3506,5.1449 -6.369,4.1204 -0.1052,-5.8394 -7.5357,-16.4958 -15.769,-25.5666 -8.4511,-9.311 -17.1706,-16.2965 -19.0985,-17.2598 z m 36.7461,-23.1169 c -1.3041,-1.1254 3.6793,-4.2017 9.493,-6.4633 5.8398,-2.2719 12.2438,-3.6072 13.4433,-2.6503 5.6526,-1.2957 11.9234,10.7997 15.4569,23.7487 3.5335,12.949 5.0489,26.5688 1.4784,28.9279 -1.3192,0.5191 -4.4251,1.8371 -9.0443,3.9182 -3.9864,1.796 -7.6042,3.4988 -7.3559,2.4899 1.4183,-5.7621 -3.286,-17.8175 -9.1195,-28.6174 -5.971,-11.0543 -12.7474,-19.9692 -14.3519,-21.3537 z m 40.6936,-13.9378 c -1.0179,-1.3939 4.4942,-3.2682 10.6379,-4.1743 6.1705,-0.91 12.6961,-0.7929 13.6563,0.4055 5.7849,-0.013 9.2826,13.1578 9.928,26.559 0.6455,13.4013 -0.8236,27.0324 -4.8448,28.5845 -1.4451,0.2344 -4.7093,0.8546 -9.7666,1.9069 -4.3302,0.9011 -8.3022,1.77 -7.8294,0.8428 2.6919,-5.279 0.779,-18.1865 -2.5221,-30.0313 -3.3793,-12.1254 -8.0149,-22.3888 -9.2593,-24.0931 z m 42.6378,-4.558 c -0.6909,-1.5761 5.0855,-2.228 11.2764,-1.7993 6.217,0.4304 12.5659,1.9403 13.2448,3.3168 5.6538,1.2259 6.2219,14.8494 3.9507,28.0868 -2.2713,13.2374 -6.659,26.2353 -10.9204,26.8666 -1.4612,-0.089 -4.7825,-0.2009 -9.9411,-0.2856 -4.4172,-0.073 -8.4733,-0.098 -7.8128,-0.8969 3.762,-4.5509 4.6858,-17.549 4.0258,-29.8109 -0.6757,-12.5521 -2.9784,-23.5501 -3.8234,-25.4775 z m 42.6256,4.6774 c -0.3336,-1.6944 5.451,-1.0561 11.4097,0.7335 5.9844,1.7972 11.8647,4.6827 12.2292,6.1768 5.2615,2.4547 2.8357,15.849 -2.2826,28.2283 -5.1183,12.3792 -12.2246,24.0726 -16.4916,23.7872 -1.4001,-0.396 -4.5866,-1.2037 -9.5998,-2.3704 -4.2895,-0.9983 -8.2631,-1.8763 -7.4419,-2.5194 4.6677,-3.6553 8.3859,-16.1637 10.3953,-28.2865 2.0575,-12.413 2.1897,-23.6779 1.7817,-25.7495 z m 40.6557,14.0563 c 0.048,-1.724 5.5688,0.2094 11.0109,3.3274 5.4658,3.1314 10.582,7.3184 10.5992,8.8598 4.6034,3.629 -0.8783,16.0642 -8.7705,26.8604 -7.8922,10.7961 -17.5086,20.4645 -21.5062,19.2265 -1.216,-0.6854 -4.1073,-2.2107 -8.6102,-4.4249 -3.8735,-1.9047 -7.4985,-3.6084 -6.5648,-4.0556 5.2992,-2.5374 11.7257,-13.8501 16.3868,-25.1687 4.7791,-11.6051 7.3965,-22.5037 7.4548,-24.6249 z m 36.6828,23.2329 c 0.2892,-1.0644 2.4844,-0.1078 5.2784,1.9292 3.0212,2.2189 6.3697,5.4308 9.0351,8.6527 2.6041,3.1478 4.3071,6.0192 4.0605,7.0073 3.5892,4.8123 -5.0521,15.4206 -15.5943,23.7489 -10.5423,8.3283 -22.4327,15.1341 -25.8978,12.9667 -0.6433,-0.634 -6.3419,-5.7124 -9.7958,-8.7957 -1.7915,-1.6097 -2.9704,-2.8017 -2.2822,-2.9478 5.66,-1.2014 14.7016,-10.604 22.0003,-20.4574 7.4975,-10.1218 12.6335,-20.0344 13.1958,-22.1039 z m 30.1395,32.5916 c 0.8923,-1.4964 4.8419,3.0819 8.0442,8.7116 3.2204,5.6614 5.4864,12.0626 4.7005,13.4234 2.0985,5.6485 -9.1115,13.4222 -21.5036,18.455 -12.3922,5.0328 -25.645,8.2699 -28.3825,5.2869 -0.6597,-1.1469 -2.3306,-3.8683 -4.991,-7.8736 -2.2979,-3.4596 -4.4999,-6.6104 -3.4814,-6.5559 5.7734,0.309 17.089,-6.244 26.8256,-13.7217 10.0245,-7.6989 17.67,-15.8507 18.7882,-17.7257 z m 19.8144,39.9519 c 1.2707,-1.1853 3.764,4.3721 5.2266,10.7686 1.4706,6.4318 1.792,13.3243 0.6427,14.4059 0.3659,6.1155 -12.6425,10.1462 -25.9647,11.1363 -13.3223,0.99 -26.8679,0.073 -28.5209,-3.4501 -0.2604,-1.2219 -0.9991,-4.242 -2.3304,-8.6636 -1.155,-3.8363 -2.3615,-7.3788 -1.4075,-7.0534 5.3894,1.838 18.0521,-1.1709 29.4414,-5.5277 11.7516,-4.4954 21.3063,-10.1176 22.9128,-11.616 z"
         transform="matrix(1.9767412,0,0,1.1030293,-3320.2289,-210.22073)"
         id="path61469"
         style="opacity:1;fill:#aa4400;fill-opacity:1;fill-rule:evenodd;stroke:none;stroke-width:3.54331;stroke-linecap:round;stroke-linejoin:round;stroke-miterlimit:4;stroke-dasharray:none;stroke-opacity:1"
         class="UnoptimicedTransforms" />
      <path
         inkscape:path-effect="#path-effect61471-72"
         sodipodi:cx="3215.551"
         sodipodi:cy="2345.6692"
         sodipodi:rx="150.59055"
         sodipodi:ry="131.9735"
         sodipodi:type="arc"
         d="m 3393.0971,2345.9639 c 1.5976,-0.7476 2.1516,5.5061 1.4392,12.1155 -0.7175,6.6567 -2.6751,13.2497 -4.1094,13.8932 -1.6485,5.8747 -15.2408,5.446 -28.1556,2.1008 -12.9149,-3.3453 -25.4281,-8.6244 -25.8574,-12.5197 0.1391,-1.1814 0.4325,-4.434 0.5594,-8.895 0.1117,-3.9279 0.032,-7.5093 0.8414,-6.926 4.6044,3.3173 17.5538,4.5488 29.7781,4.048 12.6336,-0.5176 23.4566,-2.8586 25.5043,-3.8168 z m -7.5326,44.6742 c 1.7239,-0.1919 0.4354,5.7725 -2.1411,11.7415 -2.5917,6.0041 -6.3393,11.6513 -7.8945,11.8311 -3.2474,5.0631 -16.187,0.6745 -27.6569,-6.2952 -11.4699,-6.9697 -21.9771,-15.7257 -21.1591,-19.6941 0.528,-1.1697 1.8002,-4.2058 3.4432,-8.6071 1.4336,-3.8405 2.623,-7.3755 3.1906,-6.54 3.195,4.703 15.1351,9.8531 26.9063,13.1764 12.1291,3.4243 23.1327,4.6299 25.3115,4.3874 z m -19.9601,39.8746 c 1.7119,0.3141 -1.1904,5.6215 -5.3294,10.5899 -4.1622,4.9964 -9.3426,9.3536 -10.8903,9.0921 -4.5346,3.9391 -15.7744,-3.8418 -24.8794,-13.6888 -9.1051,-9.847 -16.8137,-21.153 -14.9452,-24.7888 0.8523,-1.0251 2.851,-3.5708 5.7067,-7.4655 2.4688,-3.3671 4.6694,-6.5141 4.9704,-5.543 1.7097,5.5158 11.7955,13.8402 22.2068,20.3675 10.7158,6.7183 21.0153,11.0429 23.1604,11.4366 z m -30.2499,32.4769 c 1.5515,0.7753 -2.6426,4.993 -7.8389,8.586 -5.2232,3.6115 -11.1995,6.4068 -12.593,5.7566 -5.2488,2.579 -14.0861,-7.7385 -20.4344,-19.5102 -6.3484,-11.7718 -10.9086,-24.6326 -8.051,-27.7086 1.0999,-0.7686 3.8335,-2.7872 7.6807,-5.8297 3.3484,-2.6481 6.3505,-5.1449 6.369,-4.1204 0.1052,5.8394 7.5358,16.4957 15.769,25.5666 8.4512,9.3109 17.1707,16.2964 19.0986,17.2597 z m -36.7461,23.117 c 1.3041,1.1254 -3.6793,4.2017 -9.4929,6.4633 -5.8399,2.2719 -12.2438,3.6072 -13.4434,2.6504 -5.6525,1.2957 -11.9234,-10.7997 -15.4569,-23.7487 -3.5335,-12.949 -5.049,-26.5688 -1.4785,-28.9279 1.3192,-0.5191 4.4252,-1.8371 9.0443,-3.9182 3.9864,-1.7961 7.6042,-3.4988 7.3559,-2.49 -1.4183,5.7621 3.2861,17.8175 9.1196,28.6174 5.971,11.0543 12.7474,19.9692 14.3519,21.3537 z m -40.6935,13.9378 c 1.0179,1.394 -4.4942,3.2683 -10.6379,4.1744 -6.1706,0.91 -12.6961,0.7929 -13.6564,-0.4054 -5.7848,0.013 -9.2825,-13.1579 -9.928,-26.5591 -0.6455,-13.4012 0.8236,-27.0324 4.8447,-28.5844 1.4452,-0.2344 4.7094,-0.8546 9.7667,-1.907 4.3301,-0.9011 8.3021,-1.77 7.8294,-0.8428 -2.6919,5.2791 -0.779,18.1865 2.5221,30.0313 3.3793,12.1254 8.015,22.3888 9.2594,24.093 z m -42.6378,4.5582 c 0.6909,1.5761 -5.0855,2.2279 -11.2764,1.7993 -6.217,-0.4304 -12.5659,-1.9402 -13.2448,-3.3168 -5.6538,-1.2259 -6.222,-14.8493 -3.9508,-28.0867 2.2713,-13.2374 6.659,-26.2354 10.9203,-26.8667 1.4612,0.089 4.7826,0.2009 9.9412,0.2856 4.4172,0.072 8.4732,0.098 7.8127,0.8969 -3.7619,4.5509 -4.6857,17.549 -4.0256,29.8108 0.6756,12.5521 2.9783,23.5501 3.8234,25.4776 z m -42.6257,-4.6773 c 0.3337,1.6943 -5.4509,1.0561 -11.4096,-0.7335 -5.9844,-1.7972 -11.8647,-4.6826 -12.2292,-6.1768 -5.2616,-2.4547 -2.8358,-15.8489 2.2825,-28.2282 5.1183,-12.3793 12.2245,-24.0727 16.4916,-23.7873 1.4,0.396 4.5866,1.2037 9.5997,2.3704 4.2896,0.9983 8.2631,1.8762 7.4419,2.5193 -4.6677,3.6554 -8.3858,16.1638 -10.3952,28.2866 -2.0574,12.413 -2.1896,23.6779 -1.7817,25.7495 z m -40.6557,-14.0562 c -0.047,1.724 -5.5687,-0.2094 -11.0109,-3.3274 -5.4658,-3.1314 -10.582,-7.3183 -10.5992,-8.8598 -4.6034,-3.629 0.8783,-16.0642 8.7704,-26.8604 7.8922,-10.7961 17.5086,-20.4646 21.5062,-19.2266 1.216,0.6854 4.1073,2.2107 8.6102,4.4249 3.8735,1.9047 7.4986,3.6084 6.5648,4.0556 -5.2992,2.5375 -11.7256,13.8501 -16.3867,25.1687 -4.7791,11.6052 -7.3964,22.5038 -7.4548,24.625 z m -36.6828,-23.2328 c -0.2892,1.0644 -2.4846,0.1077 -5.2788,-1.9295 -3.0212,-2.219 -6.3696,-5.4308 -9.0349,-8.6526 -2.604,-3.1477 -4.307,-6.019 -4.0604,-7.0071 -3.5891,-4.8123 5.0521,-15.4206 15.5943,-23.7489 10.5423,-8.3283 22.4326,-15.1342 25.8978,-12.9668 0.6432,0.634 6.3416,5.7122 9.7955,8.7955 1.7917,1.6097 2.9707,2.8019 2.2825,2.948 -5.66,1.2014 -14.7016,10.604 -22.0002,20.4574 -7.4975,10.1218 -12.6336,20.0344 -13.1958,22.104 z m -30.1396,-32.5916 c -0.8923,1.4964 -4.8419,-3.0818 -8.0442,-8.7115 -3.2204,-5.6615 -5.4864,-12.0626 -4.7006,-13.4234 -2.0985,-5.6485 9.1115,-13.4223 21.5036,-18.4551 12.3922,-5.0328 25.6449,-8.27 28.3824,-5.287 0.6598,1.147 2.3306,3.8683 4.9911,7.8737 2.2979,3.4595 4.4999,6.6103 3.4814,6.5558 -5.7734,-0.309 -17.089,6.244 -26.8255,13.7218 -10.0245,7.6989 -17.6701,15.8507 -18.7882,17.7257 z m -19.8145,-39.9518 c -1.2707,1.1853 -3.764,-4.3721 -5.2266,-10.7686 -1.4707,-6.4318 -1.7921,-13.3242 -0.6428,-14.4058 -0.3659,-6.1155 12.6425,-10.1463 25.9647,-11.1364 13.3222,-0.9901 26.8678,-0.073 28.5209,3.45 0.2604,1.2219 0.9991,4.242 2.3304,8.6636 1.1551,3.8362 2.3616,7.3787 1.4075,7.0534 -5.3894,-1.838 -18.0521,1.1709 -29.4413,5.5277 -11.7516,4.4955 -21.3063,10.1177 -22.9128,11.6161 z m -7.3538,-44.7189 c -1.5977,0.7476 -2.1516,-5.5061 -1.4392,-12.1155 0.7175,-6.6567 2.6752,-13.2496 4.1094,-13.8931 1.6485,-5.8748 15.2408,-5.4461 28.1557,-2.1007 12.9149,3.3453 25.428,8.6245 25.8573,12.5197 -0.1391,1.1814 -0.4325,4.434 -0.5594,8.895 -0.1118,3.9279 -0.032,7.5093 -0.8414,6.926 -4.6045,-3.3173 -17.5539,-4.5489 -29.7781,-4.0481 -12.6336,0.5175 -23.4567,2.8586 -25.5043,3.8167 z m 7.5327,-44.6742 c -1.7239,0.1919 -0.4354,-5.7724 2.1411,-11.7414 2.5917,-6.0042 6.3394,-11.6513 7.8946,-11.8311 3.2474,-5.0631 16.1869,-0.6745 27.6568,6.2953 11.4699,6.9697 21.9771,15.7257 21.1591,19.6941 -0.528,1.1697 -1.8002,4.2059 -3.4432,8.6071 -1.4337,3.8405 -2.623,7.3756 -3.1907,6.54 -3.1949,-4.703 -15.1351,-9.8532 -26.9062,-13.1765 -12.1291,-3.4243 -23.1327,-4.63 -25.3115,-4.3875 z m 19.9602,-39.8745 c -1.7119,-0.3141 1.1904,-5.6214 5.3294,-10.5899 4.1623,-4.9964 9.3426,-9.3535 10.8904,-9.0921 4.5345,-3.939 15.7743,3.8419 24.8793,13.6889 9.1051,9.847 16.8137,21.1531 14.9451,24.7889 -0.8523,1.025 -2.851,3.5708 -5.7067,7.4655 -2.4688,3.3671 -4.6693,6.5141 -4.9704,5.5429 -1.7097,-5.5157 -11.7954,-13.8402 -22.2067,-20.3675 -10.7158,-6.7183 -21.0153,-11.043 -23.1604,-11.4367 z m 30.25,-32.4768 c -1.5515,-0.7753 2.6426,-4.993 7.8389,-8.586 5.2232,-3.6114 11.1995,-6.4067 12.593,-5.7566 5.2488,-2.5789 14.0861,7.7386 20.4344,19.5103 6.3483,11.7718 10.9086,24.6326 8.051,27.7086 -1.1,0.7686 -3.8336,2.7872 -7.6808,5.8297 -3.3485,2.6481 -6.3506,5.1449 -6.369,4.1204 -0.1052,-5.8394 -7.5357,-16.4958 -15.769,-25.5666 -8.4511,-9.311 -17.1706,-16.2965 -19.0985,-17.2598 z m 36.7461,-23.1169 c -1.3041,-1.1254 3.6793,-4.2017 9.493,-6.4633 5.8398,-2.2719 12.2438,-3.6072 13.4433,-2.6503 5.6526,-1.2957 11.9234,10.7997 15.4569,23.7487 3.5335,12.949 5.0489,26.5688 1.4784,28.9279 -1.3192,0.5191 -4.4251,1.8371 -9.0443,3.9182 -3.9864,1.796 -7.6042,3.4988 -7.3559,2.4899 1.4183,-5.7621 -3.286,-17.8175 -9.1195,-28.6174 -5.971,-11.0543 -12.7474,-19.9692 -14.3519,-21.3537 z m 40.6936,-13.9378 c -1.0179,-1.3939 4.4942,-3.2682 10.6379,-4.1743 6.1705,-0.91 12.6961,-0.7929 13.6563,0.4055 5.7849,-0.013 9.2826,13.1578 9.928,26.559 0.6455,13.4013 -0.8236,27.0324 -4.8448,28.5845 -1.4451,0.2344 -4.7093,0.8546 -9.7666,1.9069 -4.3302,0.9011 -8.3022,1.77 -7.8294,0.8428 2.6919,-5.279 0.779,-18.1865 -2.5221,-30.0313 -3.3793,-12.1254 -8.0149,-22.3888 -9.2593,-24.0931 z m 42.6378,-4.558 c -0.6909,-1.5761 5.0855,-2.228 11.2764,-1.7993 6.217,0.4304 12.5659,1.9403 13.2448,3.3168 5.6538,1.2259 6.2219,14.8494 3.9507,28.0868 -2.2713,13.2374 -6.659,26.2353 -10.9204,26.8666 -1.4612,-0.089 -4.7825,-0.2009 -9.9411,-0.2856 -4.4172,-0.073 -8.4733,-0.098 -7.8128,-0.8969 3.762,-4.5509 4.6858,-17.549 4.0258,-29.8109 -0.6757,-12.5521 -2.9784,-23.5501 -3.8234,-25.4775 z m 42.6256,4.6774 c -0.3336,-1.6944 5.451,-1.0561 11.4097,0.7335 5.9844,1.7972 11.8647,4.6827 12.2292,6.1768 5.2615,2.4547 2.8357,15.849 -2.2826,28.2283 -5.1183,12.3792 -12.2246,24.0726 -16.4916,23.7872 -1.4001,-0.396 -4.5866,-1.2037 -9.5998,-2.3704 -4.2895,-0.9983 -8.2631,-1.8763 -7.4419,-2.5194 4.6677,-3.6553 8.3859,-16.1637 10.3953,-28.2865 2.0575,-12.413 2.1897,-23.6779 1.7817,-25.7495 z m 40.6557,14.0563 c 0.048,-1.724 5.5688,0.2094 11.0109,3.3274 5.4658,3.1314 10.582,7.3184 10.5992,8.8598 4.6034,3.629 -0.8783,16.0642 -8.7705,26.8604 -7.8922,10.7961 -17.5086,20.4645 -21.5062,19.2265 -1.216,-0.6854 -4.1073,-2.2107 -8.6102,-4.4249 -3.8735,-1.9047 -7.4985,-3.6084 -6.5648,-4.0556 5.2992,-2.5374 11.7257,-13.8501 16.3868,-25.1687 4.7791,-11.6051 7.3965,-22.5037 7.4548,-24.6249 z m 36.6828,23.2329 c 0.2892,-1.0644 2.4844,-0.1078 5.2784,1.9292 3.0212,2.2189 6.3697,5.4308 9.0351,8.6527 2.6041,3.1478 4.3071,6.0192 4.0605,7.0073 3.5892,4.8123 -5.0521,15.4206 -15.5943,23.7489 -10.5423,8.3283 -22.4327,15.1341 -25.8978,12.9667 -0.6433,-0.634 -6.3419,-5.7124 -9.7958,-8.7957 -1.7915,-1.6097 -2.9704,-2.8017 -2.2822,-2.9478 5.66,-1.2014 14.7016,-10.604 22.0003,-20.4574 7.4975,-10.1218 12.6335,-20.0344 13.1958,-22.1039 z m 30.1395,32.5916 c 0.8923,-1.4964 4.8419,3.0819 8.0442,8.7116 3.2204,5.6614 5.4864,12.0626 4.7005,13.4234 2.0985,5.6485 -9.1115,13.4222 -21.5036,18.455 -12.3922,5.0328 -25.645,8.2699 -28.3825,5.2869 -0.6597,-1.1469 -2.3306,-3.8683 -4.991,-7.8736 -2.2979,-3.4596 -4.4999,-6.6104 -3.4814,-6.5559 5.7734,0.309 17.089,-6.244 26.8256,-13.7217 10.0245,-7.6989 17.67,-15.8507 18.7882,-17.7257 z m 19.8144,39.9519 c 1.2707,-1.1853 3.764,4.3721 5.2266,10.7686 1.4706,6.4318 1.792,13.3243 0.6427,14.4059 0.3659,6.1155 -12.6425,10.1462 -25.9647,11.1363 -13.3223,0.99 -26.8679,0.073 -28.5209,-3.4501 -0.2604,-1.2219 -0.9991,-4.242 -2.3304,-8.6636 -1.155,-3.8363 -2.3615,-7.3788 -1.4075,-7.0534 5.3894,1.838 18.0521,-1.1709 29.4414,-5.5277 11.7516,-4.4954 21.3063,-10.1176 22.9128,-11.616 z"
         transform="matrix(1.9682293,-0.10340656,0.23051796,1.0963184,-3834.3007,137.16733)"
         id="path61469-7"
         style="opacity:1;fill:#c87117;fill-opacity:1;fill-rule:evenodd;stroke:none;stroke-width:3.54331;stroke-linecap:round;stroke-linejoin:round;stroke-miterlimit:4;stroke-dasharray:none;stroke-opacity:1"
         class="UnoptimicedTransforms" />
    </g>
  </g>
</svg>
