<?xml version="1.0" encoding="UTF-8" standalone="no"?>
<!-- Created with Inkscape (http://www.inkscape.org/) -->

<svg
   width="119.9879mm"
   height="199.99973mm"
   viewBox="0 0 425.15398 708.66043"
   id="svg2"
   version="1.1"
   inkscape:version="0.92.5 (2060ec1f9f, 2020-04-08)"
   sodipodi:docname="wi-all.svg"
   inkscape:export-filename="/home/fred/Dropbox/svg/entremet/wienerbrød/2.png"
   inkscape:export-xdpi="90"
   inkscape:export-ydpi="90"
   xmlns:inkscape="http://www.inkscape.org/namespaces/inkscape"
   xmlns:sodipodi="http://sodipodi.sourceforge.net/DTD/sodipodi-0.dtd"
   xmlns="http://www.w3.org/2000/svg"
   xmlns:svg="http://www.w3.org/2000/svg"
   xmlns:rdf="http://www.w3.org/1999/02/22-rdf-syntax-ns#"
   xmlns:cc="http://creativecommons.org/ns#"
   xmlns:dc="http://purl.org/dc/elements/1.1/">
  <defs
     id="defs4">
    <linearGradient
       id="linearGradient56905"
       inkscape:swatch="solid">
      <stop
         style="stop-color:#923c3c;stop-opacity:1;"
         offset="0"
         id="stop56903" />
    </linearGradient>
    <inkscape:path-effect
       effect="skeletal"
       id="path-effect4700"
       is_visible="true"
       pattern="m -3.0727287,269.9398 -0.8124067,10.74529 h -0.8124068 l 0.8124068,-10.74529 z"
       copytype="repeated"
       prop_scale="1"
       scale_y_rel="true"
       spacing="-0.2"
       normal_offset="0"
       tang_offset="0"
       prop_units="false"
       vertical_pattern="false"
       fuse_tolerance="0"
       pattern-nodetypes="ccccc"
       lpeversion="0"
       hide_knot="false" />
    <inkscape:path-effect
       effect="bend_path"
       id="path-effect4702"
       is_visible="true"
       bendpath="m 127.93386,1006.8572 c 0,0 -93.699544,-536.21169 -85.681471,-854.49398 2.387731,-94.782433 18.836323,-216.128584 37.26636,-211.998894 20.217927,4.530309 34.930461,145.599018 36.854361,249.983404 5.57149,302.2901 -78.354092,815.52337 -78.354092,815.52337"
       prop_scale="1"
       scale_y_rel="false"
       vertical="false"
       bendpath-nodetypes="caaac"
       lpeversion="0"
       hide_knot="false" />
  </defs>
  <sodipodi:namedview
     id="base"
     pagecolor="#ffffff"
     bordercolor="#666666"
     borderopacity="1.0"
     inkscape:pageopacity="1"
     inkscape:pageshadow="2"
     inkscape:zoom="0.125"
     inkscape:cx="2429.4412"
     inkscape:cy="7952.729"
     inkscape:document-units="mm"
     inkscape:current-layer="layer1"
     showgrid="true"
     inkscape:window-width="1880"
     inkscape:window-height="1016"
     inkscape:window-x="40"
     inkscape:window-y="27"
     inkscape:window-maximized="1"
     showguides="false"
     inkscape:guide-bbox="true"
     inkscape:lockguides="true"
     inkscape:snap-global="true"
     inkscape:snap-bbox="true"
     inkscape:snap-nodes="true"
     objecttolerance="10000"
     guidetolerance="10000"
     inkscape:pagecheckerboard="false"
     inkscape:showpageshadow="2"
     inkscape:deskcolor="#d1d1d1">
    <inkscape:grid
       type="xygrid"
       id="grid5214"
       units="mm"
       spacingx="17.716535"
       spacingy="17.716535"
       originx="0"
       originy="0"
       empspacing="10"
       dotted="false" />
    <sodipodi:guide
       position="4400.8516,360.91373"
       orientation="1,0"
       id="guide61746"
       inkscape:locked="true" />
    <sodipodi:guide
       position="4560.3004,431.77987"
       orientation="0,1"
       id="guide61750"
       inkscape:locked="true" />
    <sodipodi:guide
       position="3515.8827,1049.9747"
       orientation="0,1"
       id="guide4470"
       inkscape:locked="true" />
    <sodipodi:guide
       position="-1826.6213,1657.4896"
       orientation="1,0"
       id="guide5403"
       inkscape:locked="true" />
    <sodipodi:guide
       position="-5788.3546,-908.91513"
       orientation="1,0"
       id="guide8722"
       inkscape:locked="true" />
  </sodipodi:namedview>
  <metadata
     id="metadata7">
    <rdf:RDF>
      <cc:Work
         rdf:about="">
        <dc:format>image/svg+xml</dc:format>
        <dc:type
           rdf:resource="http://purl.org/dc/dcmitype/StillImage" />
        <dc:title />
      </cc:Work>
    </rdf:RDF>
  </metadata>
  <g
     inkscape:label="layer1"
     inkscape:groupmode="layer"
     id="layer1"
     transform="translate(-2497.8267,7314.4704)">
    <path
       style="fill:#c87137;fill-opacity:1;stroke:#000000;stroke-width:0.835682;stroke-miterlimit:4;stroke-dasharray:none;stroke-opacity:1"
       d="m 36.058508,983.98207 c 3.021719,3.85811 6.039694,7.72134 9.052194,11.59313 -0.280265,1.76723 -0.561702,3.53445 -0.844483,5.3016 l 0,0 c -0.232867,1.4553 -0.466775,2.9113 -0.702482,4.368 -0.01429,0.088 -0.02859,0.1767 -0.0429,0.265 -0.07991,-0.1036 -0.159826,-0.2072 -0.239759,-0.3107 -1.318543,-1.708 -2.639446,-3.4118 -3.961553,-5.1138 0,0 0,0 0,0 -1.605483,-2.06684 -3.212732,-4.13105 -4.821484,-6.19316 0.523691,-3.30218 1.043469,-6.6056 1.560466,-9.91007 z m 2.695772,-17.39161 c 3.032381,3.8501 6.061448,7.7051 9.086994,11.56539 -0.304768,1.9638 -0.610467,3.92748 -0.917125,5.89103 -0.210374,1.34704 -0.421212,2.69411 -0.632589,4.0412 -0.05979,-0.0766 -3.6274,-4.63928 -3.687188,-4.71584 -1.7925,-2.28996 -3.586272,-4.57802 -5.381275,-6.86426 0.512973,-3.30537 1.023324,-6.61122 1.531183,-9.91752 z m 2.649802,-17.40004 c 3.042083,3.84266 6.081168,7.68977 9.117051,11.54172 -0.504965,3.31213 -1.012347,6.62395 -1.522276,9.93546 -3.030107,-3.85663 -6.063598,-7.70815 -9.100266,-11.55496 0.504178,-3.30698 1.005965,-6.61439 1.505491,-9.92222 z m 2.608086,-17.4077 c -0.06664,-0.0838 9.210858,11.60401 9.144222,11.52023 -0.496892,3.31309 -0.995971,6.62593 -1.497367,9.93849 -3.040029,-3.8486 -6.083126,-7.69254 -9.129082,-11.53223 0.496193,-3.30844 0.990225,-6.61727 1.482227,-9.92649 z m 2.570591,-17.41453 c 1.783012,2.23256 3.565183,4.46641 5.346513,6.70152 1.274446,1.59911 2.54846,3.19887 3.822028,4.79932 -0.489628,3.31392 -0.981212,6.62762 -1.474883,9.94109 -0.06694,-0.0843 -9.088076,-11.42732 -9.155013,-11.51165 0.20395,-1.38038 0.407564,-2.76081 0.610852,-4.14131 0.28414,-1.92956 0.567642,-3.85922 0.850503,-5.78897 z m 2.535628,-17.41995 c 3.066319,3.82371 6.130158,7.65121 9.191518,11.48247 -0.482982,3.31483 -0.967853,6.62939 -1.454607,9.94367 -3.056996,-3.83474 -6.116467,-7.66572 -9.178417,-11.49294 0.482391,-3.31079 0.962895,-6.62186 1.441506,-9.9332 z m 2.500676,-17.42495 c 3.074007,3.81753 6.145527,7.63887 9.214562,11.46399 -0.476336,3.31581 -0.954572,6.63135 -1.434702,9.9466 -3.064655,-3.82862 -6.131792,-7.65348 -9.201413,-11.47454 0.475752,-3.31175 0.949605,-6.62376 1.421553,-9.93605 z m 2.465527,-17.4299 c 3.08172,3.81129 6.16095,7.62642 9.237689,11.44536 -0.469652,3.31678 -0.941215,6.63328 -1.414683,9.94951 -3.072344,-3.82247 -6.147174,-7.64115 -9.224492,-11.456 0.469073,-3.31269 0.936237,-6.62565 1.401486,-9.93887 z m 2.430175,-17.43481 c 3.089463,3.80501 6.17643,7.61388 9.260902,11.42659 -0.462931,3.31773 -0.927783,6.63519 -1.394551,9.95238 -3.080059,-3.81627 -6.162611,-7.62871 -9.247656,-11.43731 0.462357,-3.31362 0.922795,-6.62751 1.381305,-9.94166 z m 2.394625,-17.43966 c 3.097234,3.79868 6.191966,7.60124 9.284198,11.40766 -0.456171,3.31868 -0.914274,6.63709 -1.374304,9.95523 -3.087804,-3.81001 -6.178105,-7.61618 -9.270904,-11.41847 0.455603,-3.31454 0.909275,-6.62935 1.36101,-9.94442 z m 2.358874,-17.44447 c 3.105032,3.79229 6.207558,7.5885 9.307578,11.38859 -0.449373,3.31962 -0.900689,6.63897 -1.353942,9.95805 -3.095577,-3.80371 -6.193655,-7.60355 -9.294237,-11.39948 0.448811,-3.31546 0.89568,-6.63118 1.340601,-9.94716 z m 2.322922,-17.44922 c 0.0026,0.003 9.328486,11.36625 9.331043,11.36936 -0.442536,3.32054 -0.887028,6.64083 -1.333467,9.96084 -3.103376,-3.79736 -6.20926,-7.59081 -9.317653,-11.38034 0.44198,-3.31637 0.882008,-6.63299 1.320077,-9.94986 z m 2.286771,-17.45394 c 3.120714,3.77938 6.238911,7.56271 9.354593,11.34999 -0.435663,3.32146 -0.873291,6.64267 -1.312878,9.96361 0.0026,0.003 -9.343711,-11.36417 -9.341155,-11.36106 0.435113,-3.31726 0.868261,-6.63477 1.29944,-9.95254 z m 2.25042,-17.45859 c 0.0026,0.003 9.375671,11.32738 9.378226,11.33046 -0.428751,3.32237 -0.859478,6.64449 -1.292175,9.96634 0.0026,0.003 -9.367295,-11.34471 -9.364739,-11.34161 0.428206,-3.31814 0.854437,-6.63654 1.278688,-9.95519 z m 2.213869,-17.4632 c 0.0026,0.003 9.39939,11.30772 9.401943,11.31078 -0.421801,3.32328 -0.845589,6.64629 -1.271357,9.96905 0.0026,0.003 -9.390963,-11.32511 -9.388409,-11.32202 0.421261,-3.31902 0.840538,-6.63829 1.257823,-9.95781 z m 2.177116,-17.46777 c 3.144447,3.75962 6.286362,7.52328 9.425745,11.29096 -0.414813,3.32417 -0.831623,6.64808 -1.250425,9.97173 0.0026,0.003 -9.414716,-11.30535 -9.412163,-11.30228 0.414279,-3.31989 0.826562,-6.64003 1.236843,-9.96041 z m 2.140204,-17.47238 c 1.83242,2.18158 3.663987,4.36451 5.494712,6.54876 1.318738,1.5734 2.637032,3.14751 3.95488,4.72233 -0.407786,3.32504 -0.817582,6.64984 -1.229379,9.97438 -3.1428,-3.76483 -6.288133,-7.52564 -9.436001,-11.28239 0.170527,-1.39046 0.340701,-2.78096 0.510524,-4.1715 0.235749,-1.93045 0.470841,-3.86098 0.705264,-5.79158 z m 2.103288,-17.47684 c 3.160464,3.74622 6.318294,7.49666 9.473555,11.25114 -0.400817,3.32595 -0.803655,6.65161 -1.208458,9.97699 -3.150727,-3.75818 -6.303964,-7.51244 -9.459772,-11.26259 0.400268,-3.32162 0.798513,-6.64347 1.194675,-9.96554 z m 2.064867,-17.48102 c 3.168915,3.73901 6.335091,7.48247 9.498589,11.23018 -0.393544,3.32696 -0.789212,6.65363 -1.186947,9.98001 -3.158756,-3.75162 -6.320128,-7.4991 -9.484179,-11.24227 0.392991,-3.32241 0.783856,-6.64505 1.172537,-9.96792 z m 2.024562,-17.48524 c 3.177734,3.73143 6.352621,7.46753 9.524724,11.20809 -0.385914,3.32798 -0.774054,6.65567 -1.164362,9.98307 -3.167152,-3.74469 -6.337027,-7.48502 -9.509687,-11.22083 0.385355,-3.32321 0.768483,-6.64665 1.149325,-9.97033 z m 1.982376,-17.4895 c 3.186919,3.72348 6.370884,7.45183 9.551958,11.18488 -0.377926,3.32901 -0.75818,6.65772 -1.140704,9.98614 -3.175914,-3.73738 -6.354658,-7.47019 -9.536295,-11.19825 0.377363,-3.32403 0.752396,-6.64828 1.125041,-9.97277 z m 1.938306,-17.49382 c 3.196471,3.71516 6.389882,7.4354 9.580293,11.16055 -0.36958,3.33005 -0.74159,6.6598 -1.115973,9.98925 -3.185042,-3.7297 -6.373022,-7.45462 -9.564002,-11.17456 0.369012,-3.32485 0.735592,-6.64992 1.099682,-9.97524 z m 1.892354,-17.49816 c 3.20639,3.70645 6.409612,7.41821 9.609729,11.13509 -0.360877,3.33109 -0.724286,6.66188 -1.090169,9.99237 -3.194538,-3.72164 -6.392121,-7.43828 -9.59281,-11.14974 0.360303,-3.32567 0.718073,-6.65158 1.07325,-9.97772 z m 1.84452,-17.50256 c 3.216675,3.69737 6.430076,7.40027 9.640263,11.10851 -0.351815,3.33214 -0.706265,6.66398 -1.06329,9.99553 -3.204401,-3.71322 -6.411952,-7.42121 -9.622718,-11.12381 0.351237,-3.3265 0.699838,-6.65325 1.045745,-9.98023 z m 1.794803,-17.507 c 3.227327,3.68792 6.451273,7.38159 9.671898,11.08081 -0.342396,3.3332 -0.687529,6.6661 -1.035339,9.9987 -3.214629,-3.70441 -6.432517,-7.40338 -9.653726,-11.09674 0.341813,-3.32735 0.680888,-6.65494 1.017167,-9.98277 z m 1.743202,-17.51148 c 3.238347,3.6781 6.473204,7.36215 9.704636,11.05198 -0.33262,3.33427 -0.66808,6.66824 -1.00632,10.0019 -3.225221,-3.69522 -6.453811,-7.38481 -9.68583,-11.06856 0.332031,-3.32819 0.661221,-6.65664 0.987514,-9.98532 z m 1.689721,-17.51601 c 3.249732,3.6679 6.495865,7.34197 9.738465,11.02203 -0.32248,3.33535 -0.64791,6.67039 -0.97621,10.00513 -3.236189,-3.68567 -6.475849,-7.36548 -9.719044,-11.03925 0.321891,-3.32906 0.64084,-6.65836 0.956789,-9.98791 z m 1.634356,-17.52058 c 3.261484,3.65732 6.519269,7.32104 9.773409,10.99095 -0.312,3.33644 -0.62703,6.67257 -0.94505,10.00839 -3.24752,-3.67575 -6.498611,-7.34541 -9.753349,-11.00882 0.311393,-3.32992 0.619742,-6.6601 0.92499,-9.99052 z m 1.577108,-17.5252 c 3.273601,3.64638 6.543401,7.29936 9.809441,10.95876 -0.30114,3.33753 -0.60543,6.67475 -0.9128,10.01166 -3.25921,-3.66544 -6.522111,-7.32459 -9.788759,-10.97726 0.300538,-3.3308 0.59793,-6.66185 0.892118,-9.99316 z m 1.517978,-17.52985 c 3.286093,3.63505 6.568263,7.27693 9.846573,10.92544 -0.28993,3.33863 -0.58311,6.67695 -0.87948,10.01496 -3.27127,-3.65476 -6.54634,-7.30302 -9.825265,-10.94458 0.289325,-3.33168 0.575402,-6.66363 0.858172,-9.99582 z m 1.456966,-17.53456 c 3.298937,3.62336 6.593857,7.25376 9.884817,10.891 -0.27837,3.33974 -0.56009,6.67917 -0.84509,10.01829 -3.28371,-3.64371 -6.57131,-7.2807 -9.86288,-10.91077 0.277754,-3.33259 0.552157,-6.66542 0.823153,-9.99852 z m 1.394057,-17.53924 c 0.82003,0.89404 1.6398,1.78855 2.45931,2.6835 2.49061,2.71991 4.97888,5.44389 7.46485,8.17187 -0.26644,3.34087 -0.53634,6.68141 -0.80962,10.02164 -3.2965,-3.63228 -6.59701,-7.25763 -9.90159,-10.87584 0.20002,-2.50819 0.39807,-5.01652 0.59415,-7.52499 0.0645,-0.82538 0.12882,-1.65078 0.1929,-2.47618 z m 1.32775,-17.54314 c 3.32641,3.59785 6.64832,7.20382 9.96588,10.81736 -0.25394,3.34218 -0.51161,6.68397 -0.77283,10.02539 -3.30965,-3.62055 -6.62349,-7.23388 -9.94168,-10.83946 0.25331,-3.33423 0.50291,-6.66866 0.74863,-10.00329 z m 1.25608,-17.54687 c 3.34164,3.58342 6.67848,7.17559 10.0107,10.77596 -0.24039,3.34352 -0.48478,6.68666 -0.73303,10.02942 -3.32373,-3.60801 -6.65194,-7.20819 -9.98477,-10.79998 0.23976,-3.33493 0.47552,-6.67007 0.7071,-10.0054 z m 1.17901,-17.55051 c 3.35786,3.56788 6.71066,7.14513 10.05854,10.73122 -0.2258,3.34484 -0.4559,6.68931 -0.69014,10.0334 -3.33883,-3.59438 -6.68241,-7.18027 -10.03089,-10.75715 0.22519,-3.33563 0.44607,-6.67146 0.66249,-10.00747 z m 1.09653,-17.55404 c 3.3751,3.55121 6.74485,7.11243 10.1094,10.68312 -0.21019,3.34614 -0.42497,6.69191 -0.64418,10.03731 -3.35492,-3.57961 -6.71487,-7.15011 -10.08002,-10.71096 0.20959,-3.3363 0.41458,-6.6728 0.6148,-10.00947 z m 1.00865,-17.55749 c 3.39334,3.53344 6.78104,7.07751 10.16327,10.63168 -0.19354,3.34742 -0.39197,6.69448 -0.59512,10.04117 -3.37203,-3.56373 -6.74937,-7.11772 -10.13218,-10.66142 0.19295,-3.33696 0.38102,-6.6741 0.56403,-10.01143 z m 0.91534,-17.56082 c 3.41259,3.51453 6.81927,7.04033 10.22019,10.57687 -0.17587,3.34868 -0.35692,6.69701 -0.54299,10.04498 -3.39014,-3.54673 -6.78588,-7.08309 -10.18737,-10.60853 0.1753,-3.3376 0.34541,-6.67537 0.51017,-10.01332 z m 0.81665,-17.56406 c 3.43285,3.49451 6.8595,7.00092 10.28011,10.5187 -0.15717,3.34993 -0.31981,6.69951 -0.48777,10.04873 -3.40926,-3.52861 -6.8244,-7.04622 -10.24557,-10.55228 0.15661,-3.33821 0.30774,-6.6766 0.45323,-10.01515 z m 0.71291,-17.56767 c 3.44871,3.46836 6.89093,6.9494 10.32698,10.44168 0.005,0.005 0.0105,0.0106 0.0157,0.016 -0.13744,3.35115 -0.28066,6.70196 -0.42947,10.05242 -3.42939,-3.50938 -6.86494,-7.00712 -10.3068,-10.49268 2.1e-4,-0.005 4.2e-4,-0.0102 6.2e-4,-0.0152 0.13662,-3.334 0.26775,-6.66806 0.39296,-10.00215 z m 0.60258,-17.56905 c 3.47705,3.44984 6.94695,6.91411 10.41002,10.39137 -0.11671,3.35268 -0.23973,6.70487 -0.36862,10.05655 -3.45033,-3.48926 -6.90713,-6.96652 -10.37072,-10.43031 0.1162,-3.33921 0.22611,-6.67842 0.32932,-10.01761 z m 0.47866,-17.56852 c 3.50263,3.42291 6.99746,6.86198 10.48481,10.31574 -0.0932,3.35425 -0.19351,6.70807 -0.30046,10.06144 -3.4732,-3.46754 -6.95352,-6.92136 -10.44126,-10.36001 0.0928,-3.33912 0.17861,-6.67819 0.25691,-10.01717 z m 0.34047,-17.56688 c 3.53069,3.39287 7.05293,6.80361 10.56706,10.23077 -0.067,3.3556 -0.14189,6.71084 -0.22417,10.0657 -3.49856,-3.44272 -7.00487,-6.86999 -10.51926,-10.28038 0.0668,-3.33882 0.1257,-6.67753 0.17637,-10.01609 z m 0.18802,-17.56411 c 3.56123,3.35972 7.11337,6.73902 10.65675,10.13646 -0.0381,3.35674 -0.0848,6.71318 -0.13975,10.0693 -3.52639,-3.41476 -7.06118,-6.81237 -10.60469,-10.19138 0.038,-3.33832 0.0673,-6.67645 0.0877,-10.01438 z m 0.0213,-17.56021 c 3.59424,3.32345 7.17876,6.6682 10.75388,10.03279 -0.006,3.35767 -0.0224,6.71511 -0.0472,10.07227 -3.55672,-3.3837 -7.12247,-6.74853 -10.69759,-10.09304 0.006,-3.33759 0.004,-6.67494 -0.009,-10.01202 z m -0.15969,-17.55519 c 3.62975,3.28407 7.24913,6.59114 10.85846,9.91978 0.0279,3.35839 0.0456,6.7166 0.0535,10.0746 -3.58952,-3.34952 -7.18872,-6.67846 -10.79792,-9.98536 -0.0277,-3.33665 -0.0656,-6.673 -0.11406,-10.00902 z m -0.35629,-17.54732 c 3.66802,3.24052 7.32542,6.5054 10.97175,9.7954 0.009,0.47697 0.0183,0.95394 0.0271,1.43091 0.053,2.88199 0.0981,5.76389 0.13536,8.64568 -3.11018,-2.84198 -6.22796,-5.66754 -9.35354,-8.47578 -0.51716,-0.46458 -1.03454,-0.92866 -1.55215,-1.39224 -0.0647,-3.33478 -0.14097,-6.66946 -0.2285,-10.00397 z m -0.56313,-17.54261 c 3.70544,3.19823 7.40093,6.41993 11.08601,9.66587 0.10511,3.358 0.19908,6.71649 0.28166,10.0754 -3.66323,-3.27089 -7.33724,-6.51704 -11.02159,-9.73922 -0.10437,-3.33424 -0.21982,-6.66827 -0.34608,-10.00205 z m -0.76266,-17.53785 c 3.74088,3.15734 7.47246,6.33725 11.19432,9.54051 0.14336,3.35614 0.27604,6.71285 0.39778,10.07009 -3.70113,-3.22742 -7.41237,-6.43099 -11.13329,-9.61148 -0.14241,-3.33336 -0.29543,-6.66642 -0.45881,-9.99912 z m -0.95367,-17.53129 c 3.77432,3.11784 7.54003,6.25735 11.29668,9.41933 0.17998,3.35392 0.34975,6.70853 0.50904,10.06375 -3.73705,-3.18535 -7.48355,-6.34773 -11.23904,-9.48792 -0.17883,-3.33214 -0.36781,-6.66387 -0.56668,-9.99516 z m -1.13617,-17.52293 c 3.80579,3.07972 7.60363,6.18023 11.39308,9.30232 0.21499,3.35137 0.42023,6.70351 0.61545,10.05638 -3.77099,-3.14466 -7.55075,-6.26724 -11.33884,-9.36853 -0.21363,-3.33057 -0.43695,-6.66064 -0.66969,-9.99017 z m -1.31302,-17.510191 c 3.83754,3.039206 7.66637,6.10243 11.48681,9.186591 0.17171,2.31561 0.33874,4.6313 0.50138,6.94701 0.0726,1.03368 0.14439,2.06744 0.21522,3.10128 -1.17356,-0.95829 -2.3479,-1.91457 -3.523,-2.86885 -2.63276,-2.13798 -5.26934,-4.2665 -7.90984,-6.38455 -0.24695,-3.328363 -0.50351,-6.655585 -0.77057,-9.981481 z m -1.5069,-17.485791 c 3.87336,2.991214 7.73715,6.010155 11.59166,9.053745 0.28552,3.347933 0.55965,6.696371 0.8233,10.045126 -3.83455,-3.067592 -7.67789,-6.112652 -11.53029,-9.132098 -0.28341,-3.32379 -0.57799,-6.64611 -0.88467,-9.966773 z m -1.72988,-17.455205 c 3.91347,2.936135 7.8165,5.903707 11.7094,8.899637 0.32821,3.34558 0.64347,6.691996 0.94666,10.03906 -3.87048,-3.023974 -7.75061,-6.021704 -11.64068,-8.990113 -0.3254,-3.318057 -0.66356,-6.634315 -1.01538,-9.948584 z m -1.98201,-17.418506 c 3.95788,2.873969 7.90446,5.783085 11.84002,8.724269 0.37646,3.342065 0.73837,6.685297 1.08665,10.029509 -3.91071,-2.973269 -7.83193,-5.916584 -11.76396,-8.826868 -0.37293,-3.311164 -0.7602,-6.620196 -1.16271,-9.92691 z M 98.534279,21.645903 c 2.822031,1.971156 5.637521,3.965538 8.446811,5.978048 1.18029,0.845492 2.35953,1.694195 3.53774,2.54603 0.43023,3.337388 0.84435,6.676275 1.24324,10.016472 -3.95522,-2.915475 -7.92183,-5.797288 -11.900125,-8.64236 -0.126029,-0.9772 -0.25345,-1.954185 -0.382289,-2.93095 -0.30668,-2.324648 -0.621314,-4.64718 -0.945377,-6.96724 z M 95.914549,4.3619062 c 4.073862,2.6913726 8.130911,5.4472483 12.172111,8.2530278 0.49875,3.335398 0.97421,6.672016 1.4306,10.00884 -4.00522,-2.851362 -8.02422,-5.662891 -12.057971,-8.419988 -0.491293,-3.286713 -1.004795,-6.5676778 -1.54474,-9.8418798 z M 92.80776,-12.793894 c 3.276427,2.000258 6.540327,4.0658037 9.79132,6.1672206 0.8761,0.5666304 1.75132,1.136444 2.62565,1.7093013 0.59348,3.3279973 1.15624,6.6589938 1.69251,9.9919752 -4.07249,-2.7640922 -8.162381,-5.47068879 -12.270638,-8.1051908 -0.123571,-0.6926387 -0.248476,-1.3849384 -0.374757,-2.0768892 -0.469966,-2.5711623 -0.95522,-5.1342051 -1.464085,-7.6864171 z m -3.84161,-16.855342 c 4.295415,2.250987 8.561601,4.680783 12.79778,7.229211 0.7398,3.325594 1.4228,6.654609 2.066,9.981502 -4.160456,-2.646727 -8.345762,-5.216788 -12.55514,-7.650006 -0.712997,-3.210383 -1.47687,-6.399133 -2.30864,-9.560707 z m -5.141865,-16.021235 c 4.492037,1.423485 9.005642,3.512656 13.445298,5.807166 0.51577,1.71055 0.99277,3.412833 1.447578,5.097648 0.440975,1.608832 0.863527,3.220099 1.269613,4.833164 -2.094773,-1.187897 -4.19756,-2.340264 -6.308271,-3.450181 -2.229686,-1.17223 -4.472678,-2.318153 -6.716027,-3.375352 -0.931002,-3.092942 -1.936304,-6.086376 -3.138191,-8.912445 z m -4.959681,-8.705852 c -0.258155,-0.740354 -0.301129,-1.562738 -0.02647,-2.221916 0.9114,-1.552125 3.365893,-1.956674 5.651068,-1.791582 0,0 1e-6,0 1e-6,0 1.755955,0.09948 3.571578,0.474236 5.360273,0.980874 0.669948,1.03133 1.243601,2.057348 1.743802,3.052294 1.178617,2.288036 2.199115,4.608824 3.103098,6.939277 -3.235265,-1.431411 -6.498151,-2.641696 -9.75616,-3.474234 -1.4127,-0.357865 -2.814994,-0.630783 -4.147047,-0.719672 -0.475869,-0.760496 -0.958146,-1.424203 -1.479893,-1.95384 l 0,0 c -0.746134,-0.586198 -1.06502,-1.041317 -0.969271,-0.827909 0.309024,-0.01922 0.462362,0.0033 0.520594,0.01671 z m -6.188399,10.82257 c -1.017932,-1.933758 -1.975309,-3.916919 -2.831553,-5.987633 -1.009524,-2.445426 -1.905348,-5.004117 -2.370598,-7.873181 0.279133,-0.436522 0.571035,-0.872249 0.876854,-1.30619 l 0,-10e-7 c 1.052023,-1.609677 2.650103,-3.349376 4.959316,-4.853989 1.968339,-1.276109 4.528006,-1.79329 7.383264,-1.30357 0.242006,0.06959 0.478451,0.143266 0.709342,0.220756 -0.267641,0.04477 -0.532471,0.09645 -0.793612,0.155326 -3.013458,0.773646 -4.552272,2.685474 -5.116625,4.538295 -0.685649,2.437771 -0.08268,4.608618 0.47197,6.677277 0,0 10e-7,0 10e-7,10e-7 0.165675,0.562132 0.352113,1.113311 0.554978,1.656235 -0.784154,1.226292 -1.488453,2.632499 -2.196912,4.146071 -0.586882,1.272943 -1.130882,2.58586 -1.646425,3.930603 z m -5.007403,16.222713 c -2.662133,-4.056251 -5.221098,-8.225325 -7.600801,-12.601828 0.353818,-1.127606 0.72052,-2.253569 1.101442,-3.377363 0.73514,-2.17175 1.541438,-4.362386 2.461638,-6.547764 1.254053,3.100429 2.70754,6.004349 4.240217,8.824811 0.794093,1.46172 1.61044,2.899706 2.446017,4.317719 -0.968088,3.082499 -1.839725,6.215054 -2.648513,9.384425 z m -3.811323,16.912701 c -2.295085,-3.168243 -4.555568,-6.381592 -6.774058,-9.651336 -0.545928,-0.803215 -1.089689,-1.609776 -1.630698,-2.420409 0.752089,-3.312795 1.555864,-6.634703 2.444925,-9.952484 2.571075,4.243678 5.274729,8.324145 8.034865,12.336006 -0.144693,0.634989 -0.287924,1.271024 -0.429952,1.908002 -0.574823,2.585094 -1.121897,5.178868 -1.645082,7.780221 z M 60.729795,6.7311862 C 57.741086,2.8680277 54.785014,-1.040863 51.875872,-5.017319 c 0.613369,-3.3272816 1.260467,-6.652388 1.948762,-9.973193 2.818741,4.047707 5.696429,8.0140013 8.618771,11.9207174 -0.60017,3.25754086 -1.168885,6.5252435 -1.71361,9.8009808 z m -2.66403,17.2855658 c -3.075866,-3.798291 -6.125555,-7.636128 -9.146464,-11.517785 0.211716,-1.361074 0.427077,-2.7217353 0.646181,-4.0819582 0.317064,-1.9689195 0.642412,-3.9380791 0.977589,-5.9070389 1.753135,2.3244715 3.519515,4.6289627 5.296184,6.9179897 1.227542,1.5815584 2.460003,3.1557674 3.697204,4.7229184 -0.511193,3.284724 -1.000943,6.573469 -1.470694,9.865874 z m -2.294827,17.354659 c -3.151216,-3.738995 -6.280145,-7.512749 -9.384183,-11.325537 0.446017,-3.338594 0.91133,-6.675345 1.397383,-10.009893 3.058019,3.851164 6.143147,7.660565 9.25278,11.432477 -0.440422,3.297717 -0.861933,6.598822 -1.26598,9.902953 z m -1.972497,17.410511 c -3.215306,-3.686984 -6.412212,-7.403939 -9.588116,-11.155142 0.382776,-3.343945 0.782314,-6.686681 1.20006,-10.027847 3.136307,3.785426 6.295833,7.533875 9.475977,11.249622 -0.378536,3.308489 -0.740695,6.619731 -1.087921,9.933367 z m -1.696918,17.454674 c -3.268132,-3.642257 -6.521753,-7.309699 -9.75826,-11.006601 0.328419,-3.347074 0.671068,-6.693572 1.029391,-10.039134 3.203332,3.726971 6.425996,7.421753 9.665387,11.08862 -0.325534,3.317038 -0.637226,6.636196 -0.936518,9.957115 z m -1.456186,17.480676 c -3.317622,-3.596604 -6.619757,-7.22095 -9.906468,-10.871697 0.130558,-1.548515 0.263897,-3.096744 0.399978,-4.64468 0.158133,-1.800324 0.319842,-3.600617 0.48535,-5.400822 1.75254,1.976618 3.509545,3.945313 5.270611,5.906749 1.513895,1.686108 3.031057,3.366619 4.551492,5.0414 -0.280023,3.322132 -0.54714,6.645182 -0.800963,9.96905 z m -1.210721,17.495388 c -3.368958,-3.5478 -6.722127,-7.12497 -10.059572,-10.73017 0.235592,-3.354233 0.484877,-6.707307 0.747469,-10.059124 3.308307,3.631559 6.632166,7.236017 9.971643,10.812034 -0.233561,3.32504 -0.453537,6.65083 -0.65954,9.97726 z m -0.952855,17.50722 c -3.422011,-3.49582 -6.827934,-7.02265 -10.217831,-10.57914 0.186371,-3.35798 0.387114,-6.71497 0.601842,-10.07089 3.359779,3.58465 6.735412,7.14057 10.126963,10.66642 -0.184718,3.32734 -0.355171,6.65525 -0.510974,9.98361 z m -0.682463,17.51581 c -3.476784,-3.44069 -6.937178,-6.91401 -10.381246,-10.41862 0.13477,-3.3611 0.28459,-6.7214 0.449074,-10.0808 3.41297,3.53458 6.842094,7.0388 10.287437,10.51132 -0.133493,3.32901 -0.252044,6.65841 -0.355265,9.9881 z m -0.418079,17.53775 c -3.521725,-3.39921 -7.032377,-6.8211 -10.531397,-10.26702 0.01036,-0.42617 0.0209,-0.85234 0.03163,-1.2785 0.07402,-2.93669 0.159986,-5.8729 0.257652,-8.80855 3.02787,3.03962 6.068284,6.05486 9.121285,9.04482 0.443637,0.43494 0.887462,0.8695 1.331473,1.30368 -0.08126,3.33479 -0.151328,6.66999 -0.210639,10.00557 z m -0.215115,17.55327 c -3.558558,-3.36137 -7.106947,-6.74388 -10.644609,-10.14888 0.04359,-3.3585 0.09765,-6.71711 0.162622,-10.0758 3.515986,3.42802 7.043214,6.83267 10.581127,10.2153 -0.04334,3.33613 -0.07624,6.6726 -0.09914,10.00938 z m -0.0305,17.55895 c -3.592481,-3.32612 -7.175697,-6.67184 -10.749091,-10.0385 0.0082,-3.35798 0.02605,-6.71615 0.05409,-10.07445 3.553377,3.3882 7.117092,6.75459 10.690587,10.10049 -0.0081,3.33722 -0.0064,6.67472 0.0044,10.01246 z m 0.14018,17.56334 c -3.623494,-3.29347 -7.238628,-6.60498 -10.844843,-9.93589 -0.02461,-3.35722 -0.04026,-6.71469 -0.0465,-10.07237 3.587857,3.35098 7.185149,6.68168 10.791316,9.99345 0.02456,3.33808 0.05805,6.67636 0.10003,10.01481 z m 0.29693,17.56643 c -3.651597,-3.26339 -7.295738,-6.54329 -10.931865,-9.84104 -0.05474,-3.3562 -0.101266,-6.71273 -0.139151,-10.06954 3.619429,3.31634 7.247387,6.61394 10.883317,9.89417 0.05454,3.33868 0.11725,6.67749 0.187699,10.01641 z m 0.439751,17.56824 c -3.67679,-3.23591 -7.347029,-6.48678 -11.010158,-9.75395 -0.08222,-3.35495 -0.15698,-6.71029 -0.223855,-10.06599 3.64809,3.28429 7.303805,6.55139 10.966587,9.80265 0.08187,3.33904 0.171156,6.67815 0.267426,10.01729 z m 0.56864,17.56876 c -3.699073,-3.21101 -7.392499,-6.43544 -11.07972,-9.67463 -0.107051,-3.35345 -0.2074,-6.70736 -0.300617,-10.0617 3.673841,3.25483 7.354403,6.49401 11.041127,9.7189 0.106554,3.33916 0.219767,6.67831 0.33921,10.01743 z m 0.684117,17.56736 c -2.404616,-2.06117 -4.806997,-4.12771 -7.207095,-6.19976 -1.311971,-1.13261 -2.623305,-2.26682 -3.933976,-3.40268 -0.129236,-3.3517 -0.252524,-6.70394 -0.369435,-10.05668 3.696682,3.22795 7.39918,6.44181 11.106937,9.64292 0.04545,1.18012 0.09163,2.36023 0.138536,3.54033 0.08584,2.1587 0.174201,4.31732 0.265033,6.47587 z m 0.792836,17.56357 c -3.738277,-3.16557 -7.471515,-6.34337 -11.199533,-9.53392 -0.149884,-3.3506 -0.293972,-6.70155 -0.4321,-10.05287 3.716835,3.20384 7.439064,6.39457 11.166506,9.57272 0.149307,3.33821 0.304404,6.67623 0.465127,10.01407 z m 0.896649,17.56015 c -3.756459,-3.14433 -7.508184,-6.30028 -11.254996,-9.46836 -0.169702,-3.34934 -0.333898,-6.69903 -0.492424,-10.04909 3.736224,3.18076 7.477536,6.34904 11.223756,9.50535 0.169109,3.33756 0.343719,6.67493 0.523664,10.0121 z m 0.995118,17.5566 c -3.773597,-3.12416 -7.542766,-6.25932 -11.307328,-9.406 -0.188504,-3.34804 -0.371792,-6.69645 -0.5497,-10.04523 3.754569,3.15876 7.51392,6.30564 11.277874,9.44117 0.187895,3.33688 0.381002,6.67357 0.579154,10.01006 z m 1.088239,17.55289 c -3.789691,-3.10504 -7.575259,-6.22046 -11.356526,-9.34681 -0.20629,-3.34672 -0.407654,-6.69381 -0.603928,-10.04129 3.77187,3.13782 7.548216,6.26436 11.328858,9.38017 0.205666,3.33618 0.416253,6.67216 0.631596,10.00793 z m 1.176015,17.54907 c -3.804741,-3.08698 -7.605665,-6.18375 -11.402592,-9.29081 -0.22306,-3.34537 -0.441484,-6.69113 -0.655107,-10.03727 3.788126,3.11793 7.580422,6.2252 11.37671,9.32235 0.222419,3.33546 0.449471,6.6707 0.680989,10.00573 z m 1.258443,17.54509 c -3.818746,-3.06999 -7.63398,-6.14914 -11.445525,-9.23798 -0.238814,-3.344 -0.473282,-6.6884 -0.703238,-10.03318 3.803339,3.0991 7.610541,6.18817 11.42143,9.26772 0.238157,3.3347 0.480657,6.66918 0.727333,10.00344 z m 1.335527,17.54099 c -3.831707,-3.05406 -7.660209,-6.11667 -11.485326,-9.18835 -0.253552,-3.3426 -0.503047,-6.6856 -0.74832,-10.029 3.817506,3.08134 7.638571,6.15325 11.463016,9.21626 0.252879,3.33392 0.509811,6.66762 0.77063,10.00109 z m 1.407234,17.5368 c -2.849276,-2.25296 -5.696931,-4.51034 -8.542943,-6.7722 -0.993211,-0.78936 -1.98622,-1.57928 -2.979022,-2.36976 -0.267273,-3.34117 -0.53078,-6.68276 -0.790354,-10.02475 3.83063,3.06464 7.664513,6.12046 11.50147,9.168 0.06897,0.86228 0.138184,1.72454 0.20765,2.58679 0.199061,2.4708 0.400135,4.94143 0.603199,7.41192 z m 1.474368,17.53192 c -3.854973,-3.02482 -7.707094,-6.05745 -11.556309,-9.09808 -0.280025,-3.33987 -0.556475,-6.68008 -0.829291,-10.02064 3.842676,3.04904 7.688314,6.08995 11.536859,9.12293 0.279356,3.33221 0.562289,6.66414 0.848741,9.99579 z m 1.539316,17.52674 c -3.865972,-3.01082 -7.729189,-6.02924 -11.589598,-9.05543 -0.292391,-3.33867 -0.581307,-6.67767 -0.866691,-10.01702 3.854069,3.03438 7.711002,6.06085 11.570745,9.07961 0.291725,3.33123 0.586926,6.66218 0.885544,9.99284 z m 1.60239,17.5216 c -3.876622,-2.99722 -7.750587,-6.00181 -11.621841,-9.01396 -0.304399,-3.33747 -0.605426,-6.67527 -0.903021,-10.01342 3.865113,3.02011 7.732992,6.03253 11.603585,9.03746 0.303737,3.33025 0.610849,6.66022 0.921277,9.98992 z m 1.663588,17.51648 c -3.886923,-2.984 -7.771287,-5.97515 -11.653037,-8.97364 -0.316051,-3.33628 -0.628831,-6.6729 -0.938282,-10.00985 3.875807,3.00623 7.754285,6.005 11.635377,8.99648 0.315395,3.32928 0.634061,6.65828 0.955942,9.98701 z m 1.722912,17.51141 c -3.896876,-2.97117 -7.79129,-5.94927 -11.683186,-8.93449 -0.327348,-3.3351 -0.651525,-6.67053 -0.972476,-10.0063 3.886154,2.99274 7.77488,5.97823 11.666124,8.95667 0.326695,3.32831 0.65656,6.65635 0.989538,9.98412 z m 1.780359,17.50637 c -3.906479,-2.95873 -7.810594,-5.92417 -11.712289,-8.89651 -0.338286,-3.33392 -0.673505,-6.66817 -1.005598,-10.00276 3.896151,2.97963 7.794777,5.95225 11.695824,8.91802 0.337638,3.32735 0.678345,6.65443 1.022063,9.98125 z m 1.835932,17.50136 c -3.915734,-2.94667 -7.8292,-5.89983 -11.740344,-8.85968 -0.34887,-3.33275 -0.694773,-6.66583 -1.037652,-9.99925 3.905799,2.96692 7.813976,5.92704 11.724476,8.88053 0.348225,3.32641 0.699418,6.65254 1.05352,9.9784 z m 1.88963,17.49641 c -3.92464,-2.93501 -7.847109,-5.87629 -11.767353,-8.82403 -0.359097,-3.33159 -0.715328,-6.66351 -1.068637,-9.99576 3.915099,2.9546 7.832477,5.9026 11.752082,8.84421 0.358456,3.32546 0.719778,6.65065 1.083908,9.97558 z m 1.941452,17.49148 c -3.933196,-2.92373 -7.86432,-5.85351 -11.793316,-8.78954 -0.368966,-3.33043 -0.735169,-6.6612 -1.098551,-9.99229 3.924048,2.94266 7.85028,5.87895 11.77864,8.80906 0.368331,3.32452 0.739426,6.64877 1.113227,9.97277 z m 1.991399,17.48658 c -3.941404,-2.91284 -7.880832,-5.83151 -11.818231,-8.7562 -0.37848,-3.32929 -0.754299,-6.65891 -1.127398,-9.98885 3.93265,2.93111 7.867386,5.85607 11.804153,8.77507 0.377849,3.32359 0.75836,6.64692 1.141476,9.96998 z m 2.039471,17.48173 c -3.949263,-2.90233 -7.896647,-5.81028 -11.842099,-8.72404 -0.387638,-3.32815 -0.772715,-6.65662 -1.155175,-9.98542 3.940903,2.91995 7.883793,5.83397 11.828618,8.74224 0.387011,3.32267 0.776582,6.64508 1.168656,9.96722 z m 2.085668,17.47692 C 75.824992,634.28173 71.87,631.38411 67.916844,628.4809 c -0.396439,-3.32701 -0.790419,-6.65435 -1.181883,-9.98201 3.948806,2.90917 7.899504,5.81264 11.852037,8.71058 0.395816,3.32175 0.794091,6.64325 1.194767,9.96448 z m 2.12999,17.47214 c -3.963934,-2.8825 -7.926184,-5.77018 -11.886697,-8.66322 -0.404883,-3.32589 -0.807409,-6.65209 -1.207521,-9.97862 3.956361,2.89878 7.914515,5.79208 11.874409,8.68008 0.404264,3.32084 0.810887,6.64143 1.219809,9.96176 z m 2.172436,17.46739 c -3.970746,-2.87316 -7.939906,-5.75128 -11.907425,-8.63455 -0.412972,-3.32477 -0.823688,-6.64985 -1.232091,-9.97526 3.963567,2.88879 7.92883,5.77231 11.895734,8.65075 0.412357,3.31994 0.82697,6.63963 1.243782,9.95906 z m 2.213007,17.46268 c 0.03833,0.0276 -11.965437,-8.63464 -11.927107,-8.60704 -0.420703,-3.32366 -0.839252,-6.64763 -1.255591,-9.97192 3.970424,2.87918 7.942446,5.75331 11.916013,8.62258 0.420093,3.31905 0.84234,6.63784 1.266685,9.95638 z m 2.251918,17.45779 c -3.510356,-2.51623 -7.019532,-5.03617 -10.527522,-7.55983 -0.472832,-0.34015 -0.945643,-0.68037 -1.418435,-1.02065 -0.428078,-3.32255 -0.854105,-6.64541 -1.278021,-9.96859 3.976931,2.86996 7.955364,5.73509 11.935244,8.59558 0.05077,0.39412 0.101577,0.78824 0.152409,1.18235 0.377137,2.92392 0.755913,5.84763 1.136325,8.77114 z m 2.290701,17.45262 c -3.989838,-2.84653 -7.978175,-5.69783 -11.964999,-8.5539 -0.435449,-3.32164 -0.868795,-6.64356 -1.300031,-9.96576 3.9832,2.86114 7.967923,5.71749 11.954157,8.56906 0.434858,3.31714 0.871818,6.63401 1.310873,9.9506 z m 2.329372,17.44757 c -3.996122,-2.83772 -7.99076,-5.68019 -11.983902,-8.52741 -0.442807,-3.32065 -0.883523,-6.64159 -1.322139,-9.96281 3.989546,2.85227 7.980597,5.69976 11.973142,8.54251 0.442211,3.31618 0.886513,6.63208 1.332899,9.94771 z m 2.367845,17.44244 c -4.002356,-2.82893 -8.003246,-5.66259 -12.002657,-8.50099 -0.450129,-3.31966 -0.898176,-6.6396 -1.344136,-9.95983 3.995843,2.84342 7.993174,5.6821 11.991982,8.51604 0.449525,3.31521 0.901131,6.63013 1.354811,9.94478 z m 2.40612,17.43727 c -4.008542,-2.82018 -8.015634,-5.64506 -12.021265,-8.47466 -0.457413,-3.31866 -0.912755,-6.6376 -1.366019,-9.95683 4.00209,2.83461 8.005652,5.6645 12.010673,8.48967 0.456803,3.31422 0.915675,6.62816 1.376611,9.94182 z m 2.444196,17.43204 c -4.014678,-2.81146 -8.027924,-5.62759 -12.039725,-8.44843 -0.464659,-3.31763 -0.927258,-6.63556 -1.38779,-9.95378 4.008289,2.82583 8.018033,5.64695 12.029218,8.46337 0.464043,3.31324 0.930144,6.62618 1.398297,9.93884 z m 2.48208,17.42675 c -4.020769,-2.80276 -8.04012,-5.61018 -12.058044,-8.42228 -0.471867,-3.31661 -0.941685,-6.63351 -1.409447,-9.95071 4.014439,2.81708 8.030315,5.62946 12.047621,8.43718 0.47124,3.31222 0.94453,6.62416 1.41987,9.93581 z m 2.51975,17.42141 c -4.0268,-2.79409 -8.052207,-5.59283 -12.076204,-8.39622 -0.479038,-3.31557 -0.956038,-6.63144 -1.430992,-9.94761 4.02054,2.80836 8.0425,5.61204 12.065866,8.41107 0.47841,3.31121 0.95886,6.62213 1.44133,9.93276 z m 2.55724,17.41601 c -4.03279,-2.78545 -8.064204,-5.57553 -12.094224,-8.37025 -0.486172,-3.31452 -0.970315,-6.62935 -1.452424,-9.94447 4.026592,2.79966 8.054588,5.59467 12.083968,8.38505 0.48554,3.31018 0.9731,6.62008 1.46268,9.92967 z m 2.59453,17.41056 c -4.03874,-2.77685 -8.07611,-5.5583 -12.112103,-8.34437 -0.493267,-3.31347 -0.984516,-6.62723 -1.473742,-9.94131 4.032595,2.791 8.066575,5.57737 12.101925,8.35912 0.49263,3.30915 0.98727,6.618 1.48392,9.92656 z m 2.63161,17.40505 c -4.04463,-2.76828 -8.08791,-5.54113 -12.12983,-8.31858 -0.50032,-3.3124 -0.99864,-6.6251 -1.494945,-9.93811 4.038545,2.78236 8.078465,5.56012 12.119735,8.33328 0.49968,3.3081 1.00136,6.6159 1.50504,9.92341 z m 2.6685,17.39948 c -4.05047,-2.75973 -8.09961,-5.52401 -12.14741,-8.29288 -0.50734,-3.31131 -1.01269,-6.62294 -1.51604,-9.93487 4.04446,2.77375 8.09026,5.54292 12.1374,8.30752 0.50669,3.30704 1.01538,6.61379 1.52605,9.92023 z m 2.70519,17.39385 c -4.05626,-2.7512 -8.11121,-5.50695 -12.16484,-8.26726 -0.51432,-3.31022 -1.02667,-6.62076 -1.53702,-9.93161 4.05031,2.76518 8.10196,5.5258 12.15492,8.28186 0.51367,3.30598 1.02932,6.61165 1.54694,9.91701 z m 2.74196,17.3856 c -4.06203,-2.74037 -8.12275,-5.48663 -12.18222,-8.23832 -0.33338,-2.11609 -0.66591,-4.23229 -0.99763,-6.34858 -0.18707,-1.19348 -0.37388,-2.387 -0.56043,-3.58057 1.46271,0.9941 2.9256,1.98761 4.38866,2.98053 2.59402,1.76051 5.18853,3.51885 7.78354,5.27492 0.52059,3.30441 1.04324,6.60843 1.56808,9.91202 z m 2.78235,17.37771 c -4.0685,-2.7288 -8.13556,-5.46402 -12.20121,-8.20522 -0.52913,-3.30863 -1.05595,-6.61756 -1.58059,-9.92676 4.06205,2.74731 8.12541,5.48896 12.19015,8.22448 0.52821,3.30295 1.05872,6.60546 1.59165,9.9075 z m 2.82702,17.36913 c -4.07561,-2.7162 -8.14964,-5.43936 -12.22213,-8.16904 -0.53767,-3.30751 -1.07278,-6.61536 -1.60548,-9.92352 4.06851,2.73637 8.13848,5.46654 12.20996,8.19005 0.53665,3.30133 1.07583,6.60217 1.61765,9.90251 z m 2.88472,17.36076 c -1.37103,-0.90659 -2.7421,-1.81341 -4.11322,-2.72046 -2.71426,-1.80024 -5.42776,-3.60374 -8.14052,-5.41035 -0.54701,-3.30623 -1.09123,-6.61284 -1.63281,-9.91982 4.07563,2.72442 8.15285,5.44208 12.23173,8.15255 0.36297,2.19386 0.72715,4.38749 1.09259,6.58088 z m 2.94254,17.3611 c -4.09076,-2.7018 -8.18187,-5.4056 -12.27333,-8.1115 l -1.67884,-9.90525 c 4.09181,2.70798 8.18327,5.41389 12.27438,8.11772 z m -12.11271,-7.16384 c 4.09142,2.70571 8.1825,5.40934 12.27323,8.11094 l 0.55211,3.2575 m -10.59405,1.7963 -1.12638,-6.6457 c 2.7449,1.8145 5.48964,3.628 8.23422,5.4405 m -3.62163,0.6141 c -1.34618,-0.8892 -2.69241,-1.7787 -4.03867,-2.6684 l -1.67883,-9.90524 m -2.9265,-17.37913 c 2.32267,1.54625 4.64588,3.0902 6.96964,4.63178 1.76258,1.1661 3.5251,2.33182 5.28755,3.49716 0.55927,3.29968 1.11853,6.59936 1.67779,9.89904 -4.09099,-2.70313 -8.18233,-5.40833 -12.27402,-8.1156 -0.24107,-1.42232 -0.48213,-2.84463 -0.7232,-4.26695 -0.31351,-1.88168 -0.62608,-3.76349 -0.93776,-5.64543 z m -2.85579,-17.39863 c 4.07288,2.72902 8.14731,5.4515 12.22333,8.16698 0.54234,3.30024 1.08734,6.59997 1.63514,9.89916 -4.0804,-2.7078 -8.15911,-5.42291 -12.23621,-8.14488 -0.5434,-3.30673 -1.08411,-6.61382 -1.62226,-9.92126 z m -2.80855,-17.40498 c 4.066,2.7406 8.13342,5.47519 12.20229,8.20332 0.5334,3.30196 1.06922,6.60345 1.60761,9.90444 -4.07287,-2.72104 -8.1442,-5.44885 -12.21405,-8.18298 -0.53437,-3.30794 -1.06628,-6.61621 -1.59585,-9.92478 z m -2.76558,-17.41054 c 4.05978,2.75116 8.12083,5.49684 12.1832,8.23661 0.52526,3.30351 1.05273,6.60661 1.58253,9.90925 -4.066,-2.73326 -8.1306,-5.47275 -12.19386,-8.21801 -0.52614,-3.30901 -1.05005,-6.6183 -1.57187,-9.92785 z m -2.72662,-17.41435 c 4.05394,2.75984 8.10921,5.51512 12.16579,8.26587 0.01,0.062 0.0194,0.12405 0.0292,0.18607 0.5083,3.24289 1.0185,6.48542 1.53072,9.72756 -3.9836,-2.69295 -7.96597,-5.39138 -11.94719,-8.09485 -0.0761,-0.0517 -0.15227,-0.10339 -0.22841,-0.15509 -0.51867,-3.30954 -1.03536,-6.61939 -1.55007,-9.92956 z m -2.68976,-17.41916 c 4.04811,2.7684 8.09757,5.53222 12.14836,8.29148 0.51105,3.30638 1.02409,6.61245 1.53911,9.91822 -4.05409,-2.7544 -8.10687,-5.51334 -12.15831,-8.27686 -0.51171,-3.31063 -1.02144,-6.62158 -1.52916,-9.93284 z m -2.65294,-17.42487 c 4.04224,2.77698 8.08584,5.54937 12.13079,8.31717 0.50406,3.30745 1.01012,6.61459 1.51818,9.92143 -4.04828,-2.76293 -8.09523,-5.53043 -12.14083,-8.30251 -0.50472,-3.31172 -1.00743,-6.62375 -1.50814,-9.93609 z m -2.615911,-17.43053 c 4.036321,2.7856 8.074011,5.56658 12.113071,8.34296 0.49704,3.3085 0.99608,6.6167 1.49713,9.92459 -4.04242,-2.77148 -8.08349,-5.54756 -12.1232,-8.32824 -0.497678,-3.3128 -0.993348,-6.6259 -1.487001,-9.93931 z m -2.578688,-17.43614 c 4.030349,2.79425 8.062089,5.58385 12.095209,8.36884 0.48997,3.30954 0.98196,6.61879 1.47596,9.92773 -4.03651,-2.78007 -8.07165,-5.56476 -12.105413,-8.35407 -0.490609,-3.31386 -0.979196,-6.62803 -1.465756,-9.9425 z m -2.541266,-17.44168 c 4.024326,2.80292 8.050065,5.60118 12.077195,8.39481 0.48287,3.31057 0.96776,6.62085 1.45468,9.93083 -4.03055,-2.78869 -8.059715,-5.58201 -12.087481,-8.37998 -0.483499,-3.31492 -0.964966,-6.63014 -1.444394,-9.94566 z m -2.503648,-17.44717 c 4.018256,2.81163 8.037939,5.61857 12.059033,8.42086 0.47573,3.31159 0.95349,6.6229 1.43329,9.93391 -4.02454,-2.79734 -8.047679,-5.59933 -12.069403,-8.40599 -0.476352,-3.31596 -0.95066,-6.63222 -1.42292,-9.94878 z m -2.46583,-17.4526 c 4.012137,2.82036 8.025717,5.63602 12.040733,8.447 0.46854,3.3126 0.93914,6.62492 1.41178,9.93695 -4.018482,-2.80602 -8.035548,-5.61671 -12.05118,-8.43208 -0.469167,-3.317 -0.93628,-6.63429 -1.401333,-9.95187 z M 86.053232,769.2917 c 4.005968,2.82912 8.013398,5.65352 12.022276,8.47322 0.46133,3.31361 0.924723,6.62693 1.390172,9.93997 -4.012381,-2.81473 -8.023324,-5.63414 -12.032815,-8.45827 -0.461945,-3.31802 -0.921824,-6.63633 -1.379633,-9.95492 z M 83.66363,751.82839 c 3.999751,2.83791 8.00098,5.67109 12.003675,8.49955 0.454077,3.31459 0.910227,6.62891 1.368444,9.94294 -4.006226,-2.82347 -8.010997,-5.65164 -12.014299,-8.48453 -0.454684,-3.31904 -0.907293,-6.63836 -1.35782,-9.95796 z m -2.351191,-17.46857 c 3.993485,2.84673 7.988465,5.68871 11.984929,8.52595 0.446785,3.31558 0.895654,6.63087 1.346601,9.94589 -4.000022,-2.83223 -7.998572,-5.66919 -11.995636,-8.51089 -0.447386,-3.32004 -0.892686,-6.64035 -1.335894,-9.96095 z m -2.312582,-17.47379 c 3.98717,2.85559 7.975852,5.7064 11.966035,8.55246 0.439456,3.31654 0.881007,6.63281 1.324647,9.9488 -3.99377,-2.84103 -7.986049,-5.6868 -11.976826,-8.53734 -0.440051,-3.32103 -0.878005,-6.64233 -1.313856,-9.96392 z M 76.726082,699.4071 c 0.09197,0.0662 0.18395,0.13235 0.275927,0.19853 3.8889,2.79807 7.779259,5.59157 11.671067,8.38051 0.43209,3.3175 0.866285,6.63472 1.30258,9.95168 -3.987468,-2.84985 -7.973428,-5.70447 -11.957869,-8.56388 -0.422681,-3.24525 -0.84335,-6.49077 -1.262003,-9.73655 -0.0099,-0.0768 -0.0198,-0.15353 -0.0297,-0.23029 z M 74.4909,681.92306 c 3.97453,2.87338 7.950598,5.74184 11.92815,8.60558 0.329994,2.57821 0.66125,5.15627 0.993741,7.73417 0.09547,0.74018 0.191046,1.48034 0.286727,2.22049 -0.888098,-0.63771 -1.776121,-1.27566 -2.664067,-1.91385 -3.092485,-2.22269 -6.184101,-4.44817 -9.274822,-6.67655 -0.425352,-3.32296 -0.848615,-6.64624 -1.269729,-9.96984 z m -2.195542,-17.48987 c 3.967891,2.88274 7.937418,5.76035 11.908525,8.63302 0.417232,3.31938 0.836656,6.63851 1.258216,9.95738 -3.974825,-2.86753 -7.948124,-5.73987 -11.919844,-8.61723 -0.417843,-3.32407 -0.833495,-6.64846 -1.246897,-9.97317 z m -2.154026,-17.49574 c 3.960903,2.8925 7.923539,5.77964 11.887854,8.66162 0.409362,3.32028 0.821018,6.64031 1.234911,9.96007 -3.968231,-2.87662 -7.934839,-5.75828 -11.899769,-8.64516 0.0025,0.0206 -1.225533,-9.9971 -1.222996,-9.97653 z m -2.110636,-17.50164 c 3.953567,2.90264 7.908964,5.79971 11.866137,8.69139 0.401135,3.32118 0.804667,6.64211 1.210537,9.96278 -3.961288,-2.88611 -7.920855,-5.77747 -11.878648,-8.67428 -0.401756,-3.32631 -0.801117,-6.65294 -1.198026,-9.97989 z m -2.065369,-17.50759 c 3.945881,2.91317 7.89369,5.82055 11.843372,8.72232 0.392553,3.3221 0.787603,6.64394 1.185094,9.96551 -3.953996,-2.89597 -7.906174,-5.79742 -11.85648,-8.70454 -0.393178,-3.32744 -0.783859,-6.6552 -1.171986,-9.98329 z m -2.018228,-17.51357 c 3.937847,2.92409 7.877718,5.84217 11.81956,8.75442 0.383614,3.32302 0.769827,6.64577 1.158582,9.96826 -3.946355,-2.90623 -7.890795,-5.81816 -11.833266,-8.73597 -0.384242,-3.32858 -0.765887,-6.65748 -1.144876,-9.98671 z m -1.969212,-17.51958 c 3.929464,2.9354 7.861049,5.86456 11.794702,8.78768 0.374319,3.32394 0.751338,6.64762 1.131001,9.97103 -3.938365,-2.91688 -7.874718,-5.83967 -11.809004,-8.76857 -0.374952,-3.32972 -0.747204,-6.65977 -1.116699,-9.99014 z m -1.91832,-17.52564 c 3.920731,2.94709 7.843682,5.88774 11.768797,8.82211 0.364667,3.32488 0.732136,6.64948 1.10235,9.97383 -3.930026,-2.92792 -7.857943,-5.86197 -11.783696,-8.80234 -0.365304,-3.33087 -0.727807,-6.66207 -1.087451,-9.9936 z m -1.865553,-17.53172 c 3.91165,2.95917 7.825616,5.91168 11.741845,8.8577 0.354659,3.32581 0.712221,6.65136 1.07263,9.97663 -3.921338,-2.93933 -7.84047,-5.88503 -11.757341,-8.83727 -0.3553,-3.33202 -0.707697,-6.66438 -1.057134,-9.99706 z m -1.810911,-17.53786 c 3.902219,2.97165 7.806853,5.93641 11.713846,8.89446 0.344294,3.32676 0.691594,6.65325 1.041841,9.97947 -3.912302,-2.95115 -7.822299,-5.90887 -11.729939,-8.87336 -0.344939,-3.33319 -0.686875,-6.66671 -1.025748,-10.00057 z m -1.754394,-17.54402 c 3.89244,2.98451 7.787392,5.96191 11.684801,8.93239 0.333573,3.32771 0.670253,6.65515 1.009983,9.98232 -3.902917,-2.96335 -7.803431,-5.93349 -11.70149,-8.91062 -0.334224,-3.33436 -0.665341,-6.66906 -0.993294,-10.00409 z m -1.696001,-17.55022 c 3.882312,2.99776 7.767233,5.98819 11.654708,8.97148 0.322496,3.32867 0.6482,6.65707 0.977056,9.98519 -3.893182,-2.97593 -7.783865,-5.95889 -11.671995,-8.94904 -0.32315,-3.33554 -0.643093,-6.67141 -0.959769,-10.00763 z m -1.635734,-17.55645 c 3.871835,3.01139 7.746376,6.01524 11.623569,9.01172 0.311062,3.32964 0.625435,6.65901 0.94306,9.9881 -3.883099,-2.98892 -7.763602,-5.98507 -11.641453,-8.98864 -0.311721,-3.33672 -0.620132,-6.67378 -0.925176,-10.01118 z m -1.573591,-17.56274 c 3.861009,3.02542 7.724822,6.04308 11.591384,9.05315 0.299271,3.33062 0.601955,6.66095 0.907993,9.99101 -3.872666,-3.00228 -7.742639,-6.01201 -11.609864,-9.02939 -0.299935,-3.33791 -0.596458,-6.67617 -0.889513,-10.01477 z M 48.21381,436.51738 c 3.849834,3.03984 7.702569,6.07168 11.558151,9.09573 0.287125,3.3316 0.577764,6.66291 0.871858,9.99395 -3.861885,-3.01603 -7.720979,-6.03974 -11.577228,-9.0713 -0.287792,-3.33912 -0.572072,-6.67858 -0.852781,-10.01838 z m -1.443679,-17.57542 c 0.625751,0.49801 1.251582,0.99579 1.877495,1.49335 3.213375,2.55441 6.428844,5.10309 9.646376,7.64616 0.274622,3.33258 0.552859,6.66489 0.834654,9.99691 -3.850755,-3.03018 -7.698622,-6.06824 -11.543546,-9.11439 -0.230413,-2.79575 -0.458294,-5.59175 -0.683609,-8.38799 -0.04389,-0.54467 -0.08768,-1.08935 -0.13137,-1.63404 z m -1.374526,-17.58279 c 3.825828,3.07079 7.655023,6.13252 11.487407,9.18574 0.239812,3.05623 0.482877,6.11228 0.729069,9.16812 0.02233,0.27716 0.04468,0.55431 0.06706,0.83147 -0.319251,-0.25318 -0.638482,-0.50642 -0.957692,-0.75971 -3.519562,-2.79271 -7.036578,-5.59233 -10.55091,-8.39926 -0.262243,-3.34171 -0.520611,-6.68383 -0.774938,-10.02636 z m -1.299948,-17.59022 c 3.812312,3.08788 7.628298,6.16611 11.447777,9.2352 0.247475,3.33422 0.49911,6.66822 0.75474,10.00199 -3.826965,-3.05992 -7.650611,-6.12861 -11.470757,-9.20661 -0.24814,-3.34313 -0.492115,-6.68665 -0.73176,-10.03058 z m -1.220024,-17.59752 c 3.797752,3.10605 7.599483,6.20182 11.405015,9.28785 0.232371,3.33499 0.469192,6.66976 0.710299,10.00431 -3.813612,-3.07624 -7.623599,-6.16188 -11.429781,-9.25744 -0.233021,-3.34451 -0.461587,-6.68942 -0.685533,-10.03472 z m -1.134754,-17.60468 c 3.782148,3.12527 7.568581,6.23965 11.35912,9.34368 0.216252,3.33573 0.437244,6.67125 0.662811,10.00656 -3.799216,-3.09363 -7.594499,-6.19728 -11.385673,-9.31145 -0.216886,-3.34588 -0.429027,-6.69214 -0.636258,-10.03879 z m -1.044138,-17.6117 c 3.7655,3.14554 7.535591,6.2796 11.310093,9.40268 0.199116,3.33645 0.403262,6.6727 0.612273,10.00874 -3.783773,-3.11209 -7.56331,-6.2348 -11.33843,-9.36865 -0.199735,-3.34721 -0.394435,-6.69481 -0.583936,-10.04277 z m -0.948175,-17.6186 c 3.747808,3.1669 7.500511,6.32168 11.257932,9.46489 0.180965,3.33714 0.36725,6.67408 0.558689,10.01083 -3.767288,-3.1316 -7.530034,-6.27444 -11.288057,-9.42903 -0.181567,-3.34853 -0.35781,-6.69742 -0.528564,-10.04669 z M 38.9017,295.71112 c 3.729071,3.18929 7.463344,6.36587 11.202639,9.53026 0.161798,3.3378 0.329204,6.67542 0.502055,10.01284 -3.749758,-3.15217 -7.494668,-6.3162 -11.23455,-9.49259 -0.162384,-3.34981 -0.319154,-6.69998 -0.470144,-10.05051 z m -0.740297,-17.63178 c 0.956155,0.82805 1.912659,1.65522 2.869502,2.48155 2.755281,2.37956 5.513572,4.75186 8.274798,7.1171 0.141613,3.33844 0.289126,6.6767 0.442373,10.01478 -3.731185,-3.17381 -7.457215,-6.36008 -11.177912,-9.55933 -0.105534,-2.4873 -0.207816,-4.97479 -0.306779,-7.46248 -0.03438,-0.86384 -0.06838,-1.72771 -0.101982,-2.59162 z m -0.629112,-17.63905 c 3.688451,3.23774 7.383059,6.46079 11.083264,9.67052 0.12063,3.33911 0.247448,6.67816 0.380024,10.01714 -3.711517,-3.19677 -7.417952,-6.40599 -11.118748,-9.62901 -0.121221,-3.35239 -0.236211,-6.70528 -0.34454,-10.05865 z m -0.506184,-17.64765 c 3.664518,3.26558 7.336097,6.51494 11.014177,9.74942 0.0976,3.33915 0.202147,6.67831 0.313203,10.01746 -3.691052,-3.22005 -7.376117,-6.4541 -11.054639,-9.70348 -0.09804,-3.35404 -0.1891,-6.70852 -0.272741,-10.0634 z m -0.369325,-17.65496 c 3.637675,3.29601 7.283315,6.57426 10.936361,9.83608 0.07193,3.33894 0.151549,6.67797 0.238439,10.01705 -3.667677,-3.24592 -7.328463,-6.50738 -10.981801,-9.78572 -0.07222,-3.35545 -0.136693,-6.71127 -0.192999,-10.06741 z m -0.218535,-17.661 c 3.607923,3.32904 7.224714,6.63876 10.849816,9.93052 0.0436,3.33848 0.09566,6.67713 0.155731,10.0159 -3.641392,-3.27438 -7.274989,-6.56584 -10.900233,-9.87573 -0.04374,-3.35661 -0.07899,-6.71352 -0.105314,-10.07069 z m -0.05381,-17.66573 c 3.575259,3.36465 7.160291,6.70844 10.754539,10.03271 0.01263,3.33778 0.03447,6.6758 0.06508,10.01401 -3.612196,-3.30541 -7.215694,-6.62946 -10.809934,-9.97348 -0.01262,-3.35754 -0.01599,-6.71529 -0.0097,-10.07324 z m 0.124838,-17.66917 c 3.539686,3.40284 7.09005,6.78328 10.650533,10.14266 -0.02099,3.33684 -0.03202,6.67399 -0.03351,10.01139 -3.580092,-3.33904 -7.15058,-6.69827 -10.710906,-10.07901 0.02115,-3.35821 0.0523,-6.71657 0.09389,-10.07504 z m 0.31742,-17.67134 c 3.501204,3.44363 7.013989,6.86331 10.537798,10.26038 -0.05726,3.33566 -0.103797,6.67168 -0.14005,10.00804 -3.545077,-3.37526 -7.079646,-6.77225 -10.603148,-10.1923 0.05756,-3.35863 0.125887,-6.71735 0.2054,-10.07612 z m 0.553093,-17.68865 c 3.447072,3.50169 6.910486,6.972 10.390308,10.40959 -0.05328,1.76898 -0.102218,3.53803 -0.146763,5.30714 -0.03942,1.56309 -0.07638,3.12627 -0.110902,4.68953 -1.643929,-1.6003 -3.285351,-3.20571 -4.924208,-4.81637 -1.857482,-1.82536 -3.710293,-3.66004 -5.558444,-5.50384 0.101324,-3.36275 0.218123,-6.72479 0.350009,-10.08605 z m 0.831048,-17.67722 c 3.392808,3.55373 6.801657,7.07773 10.226613,10.57063 -0.152996,3.32846 -0.291303,6.65737 -0.414535,9.98664 -3.456028,-3.46176 -6.895779,-6.95553 -10.319317,-10.47998 0.154412,-3.36 0.323621,-6.71913 0.507239,-10.07729 z m 1.096968,-17.65933 c 3.340262,3.60263 6.696265,7.17714 10.068073,10.72218 -0.203326,3.32655 -0.392643,6.65373 -0.567563,9.98145 -3.401901,-3.51571 -6.787826,-7.0618 -10.157838,-10.63694 0.205121,-3.35664 0.424359,-6.71224 0.657328,-10.06669 z m 1.350362,-17.638156 c 3.289435,3.648343 6.594309,7.270198 9.914687,10.864221 -0.251276,3.324025 -0.489221,6.648855 -0.713448,9.974395 -3.349492,-3.56648 -6.683308,-7.161729 -10.001513,-10.784393 0.253448,-3.352663 0.520336,-6.704105 0.800274,-10.054223 z M 42.24939,66.190682 c 3.239489,3.694149 6.49588,7.3591 9.76657,10.999126 -0.05816,0.650578 -0.115857,1.301222 -0.173091,1.951929 -0.234701,2.670681 -0.461171,5.341987 -0.679211,8.013864 -2.652621,-2.90616 -5.2953,-5.829862 -7.928072,-8.77041 -0.641382,-0.716242 -1.28222,-1.433467 -1.922494,-2.151707 0.29897,-3.347901 0.610588,-6.695622 0.936298,-10.042802 z m 1.851531,-17.604096 c 3.1795,3.748053 6.37979,7.46212 9.598268,11.146475 -0.344382,3.314091 -0.67397,6.63054 -0.990209,9.948986 -3.249628,-3.658188 -6.483287,-7.343357 -9.698372,-11.059783 0.347776,-3.346159 0.710732,-6.691506 1.090313,-10.035678 z m 2.158348,-17.582425 c 3.108248,3.809241 6.241176,7.579709 9.396179,11.315679 -0.400717,3.304707 -0.784108,6.612406 -1.151615,9.922735 -3.192576,-3.705648 -6.365293,-7.443064 -9.515548,-11.216524 0.405466,-3.342197 0.828646,-6.682947 1.270984,-10.02189 z m 2.511913,-17.549063 c 3.025735,3.877713 6.080037,7.711866 9.160304,11.506734 -0.465938,3.293102 -0.912016,6.58983 -1.339677,9.889821 -3.12426,-3.760393 -6.224774,-7.557341 -9.298936,-11.39512 0.472041,-3.336012 0.96433,-6.669944 1.478309,-10.001435 z m 2.929562,-17.5173685 c 2.91677,3.97025359 5.87932,7.8742666 8.873357,11.7338721 -0.134802,0.8178045 -0.268155,1.6360966 -0.400175,2.4548434 -0.396961,2.462545 -0.781514,4.927437 -1.154268,7.394525 C 56.734743,14.652393 54.465393,11.760532 52.212707,8.8435805 51.463644,7.873607 50.71646,6.9007101 49.971379,5.9245507 50.519795,2.5950569 51.093761,-0.73459256 51.700744,-4.0622705 Z M 55.23825,-21.539513 c 0.279899,0.416591 0.560467,0.83216 0.841625,1.246805 2.481186,3.667622 5.015149,7.263986 7.591528,10.8049197 -0.644806,3.243244 -1.253245,6.4980498 -1.832781,9.76229016 -2.947221,-3.89050746 -5.853897,-7.83586006 -8.705734,-11.85789086 0.593783,-2.985527 1.21875,-5.968168 1.880311,-8.946383 0.07454,-0.336464 0.149544,-0.673049 0.225051,-1.009741 z m 4.535197,-17.44466 c 2.406999,4.358215 4.987336,8.514613 7.664914,12.5638 -0.6819,2.717349 -1.320154,5.460717 -1.9358,8.221813 -0.10348,0.46537 -0.206061,0.931021 -0.307765,1.396948 -0.403918,-0.576255 -0.80655,-1.154162 -1.207853,-1.733787 -2.373949,-3.435931 -4.714007,-6.917403 -6.972526,-10.503652 0.834677,-3.319055 1.743153,-6.638509 2.75903,-9.945122 z m 7.1023,-17.461855 c 0.473997,2.319368 1.211179,4.441208 2.034723,6.475511 1.022381,2.530963 2.19515,4.92933 3.446667,7.262454 -0.348434,0.938052 -0.684719,1.890486 -1.013614,2.854615 -0.708982,2.081374 -1.367602,4.188216 -1.986572,6.316306 -1.729824,-2.811866 -3.392481,-5.694399 -4.963712,-8.67776 -0.72881,-1.384264 -1.436194,-2.793332 -2.108768,-4.239785 0.684509,-1.838005 1.433959,-3.681158 2.273816,-5.515074 0.662503,-1.465823 1.419362,-2.971407 2.31746,-4.476267 z m 22.307064,-1.944201 c -1.317464,-0.335367 -2.6421,-0.586716 -3.941608,-0.700557 -10e-7,0 -10e-7,0 -10e-7,0 -2.33817,-0.262942 -4.968401,0.04088 -6.178282,1.48939 -0.676907,0.921534 -0.629125,2.250938 -0.172188,3.23298 -0.0038,-0.0013 -0.01155,-0.0045 -0.02238,-0.01022 l 0,0 c -0.42914,0.150445 -0.964561,0.905557 -1.771341,1.90023 -0.720116,0.989069 -1.364479,2.127652 -1.988525,3.367878 -0.884146,-2.001928 -1.665115,-4.061946 -2.133816,-6.310116 -0.47081,-2.278902 -0.710507,-4.786335 0.617853,-7.687034 1e-6,0 1e-6,-10e-7 1e-6,-10e-7 0.172427,-0.327835 0.369755,-0.650722 0.593425,-0.965207 1.827384,-0.904817 4.058752,-1.225439 6.507542,-0.805434 3.024059,0.869566 5.179809,2.377546 6.479863,3.986493 l 0,10e-7 c 0.746685,0.822704 1.412394,1.661204 2.00946,2.501594 z m 7.794477,17.570467 c -4.46124,-2.276044 -8.994236,-4.315221 -13.503472,-5.657187 -0.441969,-0.995151 -0.910371,-1.968237 -1.410737,-2.91619 -0.923903,-1.700346 -1.766796,-3.174117 -2.749798,-4.171982 l 0,-1e-6 c -6.06e-4,-4.76e-4 -0.0012,-9.52e-4 -0.0018,-0.0014 0.0016,-4.14e-4 0.0031,-8.26e-4 0.0047,-0.0012 2.669047,-0.573018 5.822772,0.07312 8.882026,0.979376 0,0 10e-7,0 10e-7,0 1.697149,0.499941 3.392419,1.092576 5.08149,1.757093 1.472666,3.316776 2.664448,6.676581 3.69763,10.011557 z m 4.572732,17.445329 c -4.244587,-2.536533 -8.519674,-4.950419 -12.824483,-7.181482 -0.122011,-0.455791 -0.245472,-0.911004 -0.370433,-1.365622 -0.758855,-2.718459 -1.526114,-5.389594 -2.378365,-7.970903 3.763222,1.613387 7.531192,3.555326 11.244083,5.53749 0.628871,0.337531 1.257001,0.678676 1.884387,1.023253 0.884722,3.31144 1.693991,6.632376 2.444811,9.957264 z m 3.50353,17.5019481 c -0.48078,-0.313837 -0.96182,-0.6267428 -1.44313,-0.9386942 -3.646546,-2.3616251 -7.309765,-4.6794969 -10.989123,-6.9121259 -0.653402,-3.236455 -1.346477,-6.454928 -2.096248,-9.649873 4.236295,2.376266 8.446756,4.903721 12.630611,7.522189 0.59401,2.939787 1.15243,5.8793957 1.687,8.8150041 0.0707,0.3877902 0.14102,0.7756241 0.21089,1.1635 z m 2.88932,17.5301339 C 103.89789,8.8568108 99.836874,6.1068406 95.758846,3.4223369 95.284447,0.57364587 94.789711,-2.2698483 94.271845,-5.1074769 c -0.07733,-0.4230418 -0.155064,-0.8458638 -0.233254,-1.2684538 0.534737,0.3382387 1.069191,0.6777808 1.603361,1.0184954 3.586091,2.2856129 7.157828,4.62701743 10.715848,7.0145873 0.55488,3.3315054 1.08182,6.6653424 1.58507,10.000497 z m 2.45203,17.554482 c -0.79772,-0.575643 -1.59592,-1.149845 -2.3946,-1.72258 -3.19131,-2.288662 -6.39069,-4.554212 -9.598637,-6.78918 -0.463893,-3.293841 -0.947209,-6.582601 -1.454182,-9.865266 4.046759,2.735876 8.078049,5.529626 12.094869,8.366654 0.37585,2.668684 0.73859,5.337723 1.09037,8.006596 0.088,0.667863 0.17544,1.335789 0.26218,2.003776 z m 2.13524,17.570973 c -3.93801,-2.937993 -7.88709,-5.843716 -11.84752,-8.71409 -0.38678,-3.154139 -0.787506,-6.306151 -1.202964,-9.455871 -0.02004,-0.151901 -0.04011,-0.303793 -0.06022,-0.455676 0.183489,0.130262 0.366954,0.260608 0.550393,0.391039 3.803282,2.704533 7.595792,5.443032 11.377782,8.212827 0.4094,3.339279 0.80328,6.679932 1.18253,10.021771 z m 1.86527,17.592857 c -3.8951,-2.993127 -7.8004,-5.957693 -11.71619,-8.890619 -0.35444,-3.313887 -0.72263,-6.625768 -1.10547,-9.935453 3.94071,2.898129 7.87045,5.830012 11.78949,8.792572 0.35771,3.343519 0.70147,6.688082 1.03217,10.0335 z m 1.62445,17.608628 c -3.8565,-3.041173 -7.72232,-6.057495 -11.59775,-9.045887 -0.30899,-3.320344 -0.63015,-6.639014 -0.96438,-9.955819 3.89791,2.957635 7.78572,5.945315 11.6637,8.959962 0.31155,3.346599 0.61073,6.69391 0.89843,10.041744 z m 1.41276,17.618287 c -3.82219,-3.082132 -7.65282,-6.143123 -11.4922,-9.179893 -0.26907,-3.325641 -0.54874,-6.649937 -0.8399,-9.972701 3.85941,3.010055 7.70958,6.046445 11.5508,9.106092 0.27093,3.348516 0.53106,6.697413 0.7813,10.046502 z m 1.22887,17.625284 c -3.66509,-3.01617 -7.33798,-6.01223 -11.01828,-8.98888 -0.12663,-0.10243 -0.25327,-0.20483 -0.37991,-0.30721 -0.2347,-3.32977 -0.47842,-6.65854 -0.73204,-9.986095 3.8252,3.055385 7.64203,6.133395 11.45078,9.230955 0.008,0.11141 0.0157,0.22281 0.0235,0.33421 0.22757,3.23824 0.4463,6.47727 0.65594,9.71702 z m 1.0498,17.63921 c -3.75849,-3.15976 -7.526,-6.29712 -11.30209,-9.41284 -0.20076,-3.3312 -0.41139,-6.66194 -0.63161,-9.99217 3.79422,3.09387 7.58023,6.20885 11.35761,9.34575 0.20204,3.35236 0.39416,6.70547 0.57609,10.05926 z m 0.86181,17.65184 c -3.7238,-3.20098 -7.4573,-6.37865 -11.20005,-9.5338 -0.16536,-3.33264 -0.34103,-6.66491 -0.52677,-9.99677 3.762,3.1325 7.51514,6.28701 11.25896,9.46432 0.16643,3.35479 0.32247,6.71023 0.46786,10.06625 z m 0.66532,17.66266 c -3.68714,-3.24357 -7.38465,-6.46295 -11.09207,-9.65892 -0.12833,-3.33373 -0.26744,-6.6672 -0.41708,-10.00035 3.72781,3.17253 7.44608,6.36796 11.15437,9.58707 0.12919,3.35688 0.24754,6.7143 0.35478,10.0722 z m 0.46029,17.67171 c -3.64849,-3.28757 -7.30802,-6.55005 -10.97813,-9.78823 -0.0897,-3.33449 -0.19061,-6.66881 -0.30253,-10.0029 3.69163,3.21394 7.37306,6.45168 11.04383,9.71399 0.0903,3.35862 0.16937,6.71768 0.23683,10.07714 z m 0.25378,17.67201 c -3.61128,-3.32659 -7.23263,-6.63152 -10.86439,-9.91335 -0.0261,-1.72193 -0.0549,-3.44376 -0.0867,-5.1655 -0.0297,-1.61348 -0.0622,-3.22693 -0.0973,-4.84035 1.76765,1.57571 3.53276,3.15719 5.29527,4.74454 1.88033,1.69348 3.75784,3.39319 5.63256,5.09893 0.0507,3.35873 0.0907,6.71731 0.12056,10.07573 z m 0.065,17.6684 c -3.57692,-3.36271 -7.16328,-6.70548 -10.7594,-10.02687 -0.0146,-3.33702 -0.039,-6.67378 -0.0737,-10.01022 3.61613,3.29921 7.22214,6.62079 10.81834,9.96329 0.0147,3.35814 0.0194,6.71609 0.0148,10.0738 z m -0.10934,17.66414 c -3.54505,-3.39572 -7.09889,-6.77322 -10.66186,-10.13104 0.0186,-3.33789 0.0282,-6.67556 0.0282,-10.01298 3.58156,3.33743 7.15364,6.69551 10.71656,10.07279 -0.0187,3.35735 -0.0464,6.71443 -0.0829,10.07123 z m -0.26939,17.65875 c -3.51566,-3.42561 -7.03947,-6.83472 -10.57176,-10.22587 0.0491,-3.33853 0.0899,-6.67691 0.12192,-10.0151 3.54948,3.37253 7.09011,6.764 10.62222,10.17295 -0.0493,3.35634 -0.10688,6.71236 -0.17238,10.06802 z m -0.41518,17.65224 c -3.48875,-3.45239 -6.98501,-6.88999 -10.48911,-10.31135 0.0769,-3.33896 0.14619,-6.67783 0.20755,-10.01658 3.51986,3.40452 7.03153,6.82625 10.53532,10.26376 -0.0772,3.35512 -0.1619,6.70985 -0.25376,10.06417 z m -0.54668,17.6446 c -3.46433,-3.47606 -6.93553,-6.93903 -10.41392,-10.38749 0.10192,-3.33918 0.19707,-6.67832 0.28503,-10.01741 3.49275,3.43339 6.97793,6.88228 10.45588,10.34523 -0.10235,3.35367 -0.21149,6.70691 -0.32699,10.05967 z m -0.66393,17.63584 c -3.4424,-3.49661 -6.89101,-6.98185 -10.34617,-10.45428 0.12425,-3.33918 0.24253,-6.6784 0.35438,-10.01761 3.4681,3.45914 6.92929,6.93207 10.38388,10.41735 -0.12482,3.35202 -0.25567,6.70355 -0.39209,10.05454 z m -0.76984,17.629 c -3.42172,-3.51672 -6.84949,-7.02205 -10.28347,-10.51543 0.0953,-2.20236 0.18806,-4.40479 0.27835,-6.60729 0.0466,-1.1364 0.0925,-2.2728 0.13777,-3.40922 1.17277,1.18497 2.34481,2.37133 3.51614,3.55904 2.27038,2.30206 4.538,4.60941 6.80292,6.92186 -0.14497,3.3507 -0.29559,6.70105 -0.45171,10.05104 z m -0.8712,17.62259 c -3.40197,-3.53554 -6.8097,-7.06032 -10.22337,-10.57378 0.16374,-3.33799 0.32211,-6.67614 0.47495,-10.01447 3.42513,3.50215 6.84417,7.01597 10.25727,10.54092 -0.1643,3.34947 -0.33398,6.69857 -0.50885,10.04733 z m -0.96717,17.61599 c -3.38323,-3.55324 -6.77194,-7.09634 -10.16631,-10.62877 0.18205,-3.33736 0.35901,-6.6749 0.53075,-10.01261 3.40524,3.52175 6.80468,7.05454 10.19847,10.59782 -0.18262,3.34822 -0.37031,6.69607 -0.56291,10.04356 z m -1.05775,17.6093 c -3.36548,-3.56982 -6.73618,-7.13013 -10.11225,-10.68041 0.19932,-3.33671 0.39385,-6.67361 0.58344,-10.01069 3.38638,3.54023 6.76723,7.09087 10.1427,10.65137 -0.1999,3.34694 -0.40459,6.69352 -0.61389,10.03973 z m -1.1429,17.60251 c -3.34876,-3.58528 -6.70245,-7.16168 -10.06122,-10.72868 0.21556,-3.33606 0.42663,-6.6723 0.63306,-10.00873 3.36851,3.5576 6.73177,7.12497 10.08995,10.70157 -0.21616,3.34565 -0.43681,6.69093 -0.66179,10.03584 z m -1.22265,17.59563 c -3.33304,-3.59962 -6.67073,-7.191 -10.01323,-10.77361 0.23078,-3.33537 0.45737,-6.67094 0.6796,-10.0067 3.35165,3.57384 6.69834,7.15682 10.04023,10.74841 -0.2314,3.34434 -0.46698,6.68831 -0.7066,10.0319 z m -1.29699,17.58865 c -3.31834,-3.61285 -6.64104,-7.21809 -9.96826,-10.81519 0.24497,-3.33467 0.48605,-6.66955 0.72305,-10.00462 3.33581,3.58897 6.66693,7.18645 9.99353,10.79189 -0.2456,3.34302 -0.49509,6.68566 -0.74832,10.02792 z m -1.36588,17.58153 c -2.17034,-2.38069 -4.34244,-4.75832 -6.51632,-7.13285 -1.13618,-1.24104 -2.27286,-2.48123 -3.41004,-3.72052 0.25814,-3.33396 0.51267,-6.66812 0.76342,-10.00249 3.32096,3.60298 6.63753,7.21384 9.94985,10.83203 -0.0888,1.14703 -0.17807,2.29402 -0.26774,3.44096 -0.17155,2.19443 -0.34462,4.38872 -0.51917,6.58287 z m -1.42998,17.57519 c -3.29165,-3.63662 -6.58728,-7.26637 -9.88693,-10.88908 0.27034,-3.33315 0.53727,-6.66655 0.80073,-10.00021 3.30716,3.61587 6.61022,7.2389 9.90926,10.86891 -0.27096,3.34044 -0.54533,6.68057 -0.82306,10.02038 z m -1.49188,17.56932 c -3.279,-3.6479 -6.56185,-7.28916 -9.848633,-10.92359 0.282138,-3.33225 0.560964,-6.66475 0.836421,-9.9975 3.294072,3.62779 6.584162,7.26254 9.870332,10.90405 -0.28275,3.33933 -0.56881,6.67834 -0.85812,10.01704 z m -1.55189,17.56349 c -3.26671,-3.65882 -6.53717,-7.3112 -9.811442,-10.95697 0.293575,-3.33136 0.58394,-6.66297 0.871037,-9.99483 3.281365,3.63935 6.558845,7.28544 9.832515,10.93808 -0.29418,3.33822 -0.59157,6.67612 -0.89211,10.01372 z m -1.61003,17.5577 c -3.25478,-3.66935 -6.513207,-7.33248 -9.775343,-10.98922 0.304654,-3.33048 0.6062,-6.6612 0.90458,-9.99218 3.269012,3.65054 6.534253,7.30759 9.795793,10.97098 -0.30526,3.33712 -0.61362,6.67393 -0.92503,10.01042 z m -1.66628,17.55197 c -3.24322,-3.67951 -6.48998,-7.35303 -9.740344,-11.02036 0.315374,-3.3296 0.627744,-6.65945 0.937049,-9.98955 3.257031,3.66134 6.510395,7.32899 9.760165,11.00275 -0.31597,3.33603 -0.63495,6.67175 -0.95687,10.00716 z m -1.72064,17.54627 c -3.232032,-3.6893 -6.467495,-7.37282 -9.706453,-11.05038 0.325738,-3.32873 0.648572,-6.65771 0.968445,-9.98694 3.245417,3.67177 6.487277,7.34964 9.725648,11.0334 -0.32633,3.33495 -0.65557,6.66959 -0.98764,10.00392 z m -1.77313,17.54062 c -3.221207,-3.69872 -6.445738,-7.39187 -9.673657,-11.07927 0.335743,-3.32788 0.668685,-6.656 0.998768,-9.98436 3.234168,3.68183 6.464888,7.36953 9.692219,11.06293 -0.33633,3.33387 -0.67546,6.66744 -1.01733,10.0007 z m -1.823733,17.53501 c -3.210747,-3.70776 -6.424713,-7.41016 -9.64196,-11.10703 0.345391,-3.32703 0.688083,-6.65431 1.028017,-9.98182 3.223287,3.69152 6.443232,7.38869 9.659898,11.09134 -0.345973,3.3328 -0.694644,6.66531 -1.045955,9.99751 z m -1.872451,17.52944 c -3.200656,-3.71642 -6.404424,-7.42771 -9.611365,-11.13367 0.354681,-3.32619 0.706764,-6.65262 1.056192,-9.97929 3.212773,3.70083 6.422311,7.4071 9.628676,11.11862 -0.355258,3.33175 -0.713111,6.66319 -1.073503,9.99434 z m -1.919288,17.52392 c -3.190932,-3.72471 -6.384868,-7.4445 -9.581871,-11.15919 0.363613,-3.32536 0.724731,-6.65095 1.083295,-9.97678 3.202625,3.70976 6.402122,7.42475 9.598554,11.14477 -0.364185,3.3307 -0.730864,6.6611 -1.099978,9.9912 z m -1.964243,17.51844 c -3.181574,-3.73262 -6.366045,-7.46054 -9.553476,-11.18358 0.372188,-3.32454 0.741982,-6.6493 1.109324,-9.97431 3.192844,3.71833 6.382667,7.44166 9.569532,11.16982 -0.372754,3.32965 -0.7479,6.65901 -1.12538,9.98807 z m -2.007315,17.51301 c -3.172583,-3.74016 -6.347955,-7.47584 -9.526181,-11.20685 0.380404,-3.32372 0.758517,-6.64767 1.13428,-9.97186 3.183429,3.72651 6.363945,7.45782 9.541609,11.19373 -0.380965,3.32862 -0.764221,6.65695 -1.149708,9.98498 z m -2.048504,17.50762 c -3.163958,-3.74733 -6.3306,-7.49039 -9.499987,-11.229 0.388263,-3.32291 0.774337,-6.64606 1.158162,-9.96943 3.174382,3.73432 6.345957,7.47322 9.514788,11.21652 -0.388819,3.32759 -0.779826,6.6549 -1.172963,9.98191 z m -2.087811,17.50228 c -3.155701,-3.75413 -6.313977,-7.5042 -9.474892,-11.25003 0.395764,-3.32212 0.78944,-6.64446 1.180971,-9.96703 3.1657,3.74176 6.328701,7.48788 9.489065,11.23818 -0.396315,3.32658 -0.794716,6.65287 -1.195144,9.97888 z m -2.12525,17.49704 c 2.66e-4,3.2e-4 -3.051683,-3.64366 -3.051417,-3.64334 -2.132008,-2.54403 -4.265157,-5.08627 -6.399466,-7.62666 0.402907,-3.32133 0.803828,-6.64287 1.202706,-9.96465 3.157386,3.74882 6.31218,7.50179 9.464444,11.25872 -0.27312,2.25126 -0.547148,4.50239 -0.822068,6.75339 -0.13119,1.07421 -0.262589,2.14839 -0.394199,3.22254 z m -2.162034,17.49251 c -3.139816,-3.76732 -6.282165,-7.53062 -9.427045,-11.28987 0.409897,-3.32043 0.817792,-6.6411 1.223678,-9.96202 3.149421,3.75545 6.296307,7.51496 9.440658,11.2785 -0.410428,3.32472 -0.82286,6.64918 -1.237291,9.97339 z m -2.198912,17.48785 c 0.0026,0.003 -9.405793,-11.31279 -9.40324,-11.30971 0.416904,-3.31957 0.831816,-6.63938 1.24473,-9.95944 0.0026,0.003 9.414251,11.29536 9.416803,11.29842 -0.41744,3.32383 -0.836873,6.64741 -1.258293,9.97073 z m -2.235591,17.48313 c 0.0026,0.003 -9.382072,-11.33248 -9.379517,-11.32939 0.423872,-3.31869 0.845763,-6.63764 1.265666,-9.95683 0.0026,0.003 9.39048,11.31512 9.393033,11.31819 -0.424413,3.32293 -0.850809,6.64561 -1.279182,9.96803 z m -2.272069,17.47838 c 0.0026,0.003 -9.358435,-11.35203 -9.355879,-11.34892 0.430802,-3.31782 0.859634,-6.63588 1.286489,-9.9542 0.0026,0.003 9.366792,11.33472 9.369347,11.33781 -0.431349,3.32203 -0.86467,6.6438 -1.299957,9.96531 z m -2.308347,17.47358 c 0.0026,0.003 -9.334883,-11.37143 -9.332326,-11.36831 0.437694,-3.31693 0.873429,-6.63411 1.307198,-9.95154 0.0026,0.003 9.343189,11.35418 9.345746,11.35728 -0.438247,3.32111 -0.878455,6.64197 -1.320618,9.96257 z m -2.344425,17.46871 c -3.100446,-3.79974 -6.203398,-7.5956 -9.308856,-11.38754 0.444548,-3.31602 0.887148,-6.63231 1.327792,-9.94885 3.109919,3.78828 6.217328,7.58049 9.322228,11.3766 -0.445106,3.32019 -0.892163,6.64013 -1.341164,9.95979 z m -2.380303,17.46382 c -3.092656,-3.80609 -6.187813,-7.6083 -9.285471,-11.40663 0.451364,-3.31512 0.900791,-6.63049 1.348273,-9.94613 3.102103,3.79469 6.2017,7.59329 9.298795,11.39576 -0.451928,3.31927 -0.905796,6.63827 -1.361597,9.957 z m -2.41598,17.45885 c -3.084895,-3.81236 -6.172284,-7.62089 -9.262171,-11.42555 0.458143,-3.3142 0.914358,-6.62867 1.36864,-9.94339 3.094314,3.80106 6.186129,7.60599 9.275446,11.41478 -0.458712,3.31833 -0.919353,6.63638 -1.381915,9.95416 z m -2.451458,17.45386 c -3.077161,-3.8186 -6.156812,-7.63339 -9.238954,-11.44434 0.464882,-3.31327 0.927848,-6.62681 1.388892,-9.94062 3.086554,3.80738 6.170614,7.6186 9.252181,11.43366 -0.465457,3.31737 -0.932833,6.63447 -1.402119,9.9513 z m -2.486736,17.44881 c -3.069455,-3.82479 -6.141395,-7.64579 -9.215821,-11.46298 0.471584,-3.31234 0.941263,-6.62494 1.40903,-9.93781 3.078822,3.81364 6.155155,7.6311 9.229001,11.45237 -0.472165,3.31641 -0.946237,6.63255 -1.42221,9.94842 z m -2.521812,17.4437 c -3.061778,-3.83092 -6.126035,-7.65808 -9.192774,-11.48146 0.478248,-3.31139 0.954602,-6.62305 1.429055,-9.93498 3.071118,3.81985 6.139752,7.6435 9.205904,11.47094 -0.478835,3.31544 -0.959565,6.63061 -1.442185,9.9455 z m -2.556699,17.43859 c -0.981553,-1.2332 -1.96337,-2.46599 -2.945443,-3.69839 -2.073646,-2.60221 -4.148432,-5.20269 -6.224357,-7.80144 0.484873,-3.31044 0.967863,-6.62114 1.448964,-9.93213 3.063442,3.82602 6.124406,7.65582 9.182892,11.48936 -0.329443,2.24924 -0.659754,4.49835 -0.990931,6.74732 -0.156844,1.06512 -0.313884,2.13021 -0.471125,3.19528 z m -2.592832,17.43415 c -3.045741,-3.84394 -6.09435,-7.68351 -9.145621,-11.51911 0.491615,-3.30928 0.981213,-6.61894 1.468925,-9.92894 -0.07184,-0.0901 9.231568,11.59798 9.159731,11.50789 -0.492259,3.31363 -0.98656,6.62702 -1.483035,9.94016 z m -2.632946,17.42948 c -3.036419,-3.85153 -6.076024,-7.69823 -9.118607,-11.5405 0.499095,-3.30791 0.995942,-6.61623 1.490673,-9.92494 3.047654,3.83838 6.092511,7.68093 9.134363,11.52804 -0.499827,3.31274 -1.001926,6.62522 -1.506429,9.9374 z m -2.677316,17.42403 c -3.026135,-3.85983 -6.055773,-7.71438 -9.088708,-11.56405 0.507384,-3.3064 1.01229,-6.61324 1.514848,-9.92051 3.038555,3.84536 6.073993,7.69535 9.106109,11.55035 -0.508202,3.31172 -1.018909,6.62313 -1.532249,9.93421 z m -2.727395,17.41942 c -3.013405,-3.87098 -6.032138,-7.73362 -9.054469,-11.59136 0.03359,-0.21492 0.06717,-0.42984 0.100732,-0.64476 0.482564,-3.08987 0.962767,-6.18017 1.440717,-9.27089 2.831537,3.6025 5.660072,7.20942 8.485437,10.82111 0.196527,0.25122 0.393037,0.50247 0.589532,0.75374 -0.517399,3.31061 -1.037672,6.62139 -1.561949,9.93216 z"
       id="bre4"
       inkscape:original-d="M 158.77804,101.71719 H -15.594273 Z"
       inkscape:connector-curvature="0"
       sodipodi:nodetypes="ccc"
       transform="matrix(4.2603791,0,0,0.65951205,2352.7313,-7271.2867)"
       inkscape:path-effect="#path-effect4700;#path-effect4702"
       inkscape:label="bre4"
       class="UnoptimicedTransforms" />
  </g>
</svg>
