<?xml version="1.0" encoding="UTF-8" standalone="no"?>
<!-- Created with Inkscape (http://www.inkscape.org/) -->

<svg
   width="119.93912mm"
   height="200.01373mm"
   viewBox="0 0 424.98113 708.71006"
   id="svg2"
   version="1.1"
   inkscape:version="0.92.5 (2060ec1f9f, 2020-04-08)"
   sodipodi:docname="wi-all.svg"
   inkscape:export-filename="/home/fred/Dropbox/svg/entremet/wienerbrød/2.png"
   inkscape:export-xdpi="90"
   inkscape:export-ydpi="90"
   xmlns:inkscape="http://www.inkscape.org/namespaces/inkscape"
   xmlns:sodipodi="http://sodipodi.sourceforge.net/DTD/sodipodi-0.dtd"
   xmlns="http://www.w3.org/2000/svg"
   xmlns:svg="http://www.w3.org/2000/svg"
   xmlns:rdf="http://www.w3.org/1999/02/22-rdf-syntax-ns#"
   xmlns:cc="http://creativecommons.org/ns#"
   xmlns:dc="http://purl.org/dc/elements/1.1/">
  <defs
     id="defs4">
    <linearGradient
       id="linearGradient56905"
       inkscape:swatch="solid">
      <stop
         style="stop-color:#923c3c;stop-opacity:1;"
         offset="0"
         id="stop56903" />
    </linearGradient>
    <inkscape:path-effect
       pattern-nodetypes="ccccc"
       fuse_tolerance="0"
       vertical_pattern="false"
       prop_units="false"
       tang_offset="0"
       normal_offset="0"
       spacing="-0.2"
       scale_y_rel="true"
       prop_scale="1"
       copytype="repeated"
       pattern="m -67.657141,310.93647 h -1.111078 l -1.111078,12.1337 h 1.111078 z"
       is_visible="true"
       id="path-effect899"
       effect="skeletal"
       lpeversion="0"
       hide_knot="false" />
    <inkscape:path-effect
       bendpath-nodetypes="caaaaac"
       vertical="false"
       scale_y_rel="false"
       prop_scale="1"
       bendpath="m 31.560278,1023.6319 c 0,0 54.587198,-195.55684 58.17338,-347.85695 C 94.551763,471.1568 27.280196,326.38492 35.555927,124.75895 39.477968,29.20421 60.665166,-59.627325 79.518749,-59.635674 c 18.857565,-0.0084 39.475381,89.508534 43.978191,184.394624 9.22195,194.3307 -54.104577,355.35301 -45.999498,551.016 6.993081,168.81848 73.844988,349.14735 73.844988,349.14735"
       is_visible="true"
       id="path-effect901"
       effect="bend_path"
       lpeversion="0"
       hide_knot="false" />
  </defs>
  <sodipodi:namedview
     id="base"
     pagecolor="#ffffff"
     bordercolor="#666666"
     borderopacity="1.0"
     inkscape:pageopacity="1"
     inkscape:pageshadow="2"
     inkscape:zoom="0.125"
     inkscape:cx="2429.4412"
     inkscape:cy="7952.729"
     inkscape:document-units="mm"
     inkscape:current-layer="layer1"
     showgrid="true"
     inkscape:window-width="1880"
     inkscape:window-height="1016"
     inkscape:window-x="40"
     inkscape:window-y="27"
     inkscape:window-maximized="1"
     showguides="false"
     inkscape:guide-bbox="true"
     inkscape:lockguides="true"
     inkscape:snap-global="true"
     inkscape:snap-bbox="true"
     inkscape:snap-nodes="true"
     objecttolerance="10000"
     guidetolerance="10000"
     inkscape:pagecheckerboard="false"
     inkscape:showpageshadow="2"
     inkscape:deskcolor="#d1d1d1">
    <inkscape:grid
       type="xygrid"
       id="grid5214"
       units="mm"
       spacingx="17.716535"
       spacingy="17.716535"
       originx="0"
       originy="0"
       empspacing="10"
       dotted="false" />
    <sodipodi:guide
       position="4400.8516,360.91373"
       orientation="1,0"
       id="guide61746"
       inkscape:locked="true" />
    <sodipodi:guide
       position="4560.3004,431.77987"
       orientation="0,1"
       id="guide61750"
       inkscape:locked="true" />
    <sodipodi:guide
       position="3515.8827,1049.9747"
       orientation="0,1"
       id="guide4470"
       inkscape:locked="true" />
    <sodipodi:guide
       position="-1826.6213,1657.4896"
       orientation="1,0"
       id="guide5403"
       inkscape:locked="true" />
    <sodipodi:guide
       position="-5788.3546,-908.91513"
       orientation="1,0"
       id="guide8722"
       inkscape:locked="true" />
  </sodipodi:namedview>
  <metadata
     id="metadata7">
    <rdf:RDF>
      <cc:Work
         rdf:about="">
        <dc:format>image/svg+xml</dc:format>
        <dc:type
           rdf:resource="http://purl.org/dc/dcmitype/StillImage" />
        <dc:title />
      </cc:Work>
    </rdf:RDF>
  </metadata>
  <g
     inkscape:label="layer1"
     inkscape:groupmode="layer"
     id="layer1"
     transform="translate(-2497.8268,6557.2159)">
    <path
       transform="matrix(3.2231951,0,0,0.6495869,2429.337,-6514.2062)"
       sodipodi:nodetypes="ccc"
       inkscape:connector-curvature="0"
       inkscape:original-d="M 259.7081,111.40201 -15.594273,101.71719 Z"
       inkscape:path-effect="#path-effect899;#path-effect901"
       id="bre5"
       d="m 134.56507,1007.2865 c 0.86478,2.8491 1.72958,5.6983 2.5944,8.5476 5.03416,2.6652 10.06218,5.3111 15.08406,7.9377 -0.8604,-2.8354 -1.72078,-5.6707 -2.58116,-8.5059 -5.0263,-2.6405 -10.05873,-5.3003 -15.0973,-7.9794 z m -4.72158,-15.55587 c 0.86474,2.84898 1.72948,5.69801 2.59425,8.54707 5.04219,2.6906 10.07824,5.3618 15.10816,8.0136 -0.86035,-2.8351 -1.72069,-5.6703 -2.58101,-8.50534 -5.03433,-2.66578 -10.0748,-5.35089 -15.1214,-8.05533 z m -4.72129,-15.55496 c 0.86468,2.84882 1.72938,5.69769 2.59409,8.5466 5.05022,2.71584 10.09431,5.41235 15.13226,8.08953 -0.8603,-2.83501 -1.72058,-5.66997 -2.58085,-8.50488 -5.04237,-2.69109 -10.09087,-5.4015 -15.1455,-8.13125 z m -4.72101,-15.55405 c 0.86463,2.84865 1.72928,5.69735 2.59394,8.5461 5.05825,2.74114 10.11037,5.46296 15.15635,8.16544 -0.86025,-2.83484 -1.72048,-5.66964 -2.58069,-8.50439 -5.0504,-2.71639 -10.10693,-5.4521 -15.1696,-8.20715 z m -4.72072,-15.55317 c 0.86458,2.84849 1.72917,5.69703 2.59378,8.54561 5.06628,2.76645 10.12643,5.51357 15.18045,8.24136 -0.8602,-2.83468 -1.72038,-5.66931 -2.58054,-8.5039 -5.05843,-2.74169 -10.12299,-5.50271 -15.19369,-8.28307 z m -4.72044,-15.55226 c 0.86453,2.84833 1.72907,5.6967 2.59362,8.54511 5.07432,2.79176 10.1425,5.56418 15.20455,8.31728 -0.86014,-2.83452 -1.72027,-5.66899 -2.58038,-8.50341 -5.06646,-2.76699 -10.13906,-5.55332 -15.21779,-8.35898 z m -4.62048,-15.59214 c 0.22396,0.8635 0.44864,1.7268 0.67404,2.5899 0.60658,1.99847 1.21316,3.99697 1.81975,5.99549 5.08235,2.81706 10.15857,5.61479 15.22864,8.39319 -0.86008,-2.83435 -1.72016,-5.66865 -2.58022,-8.50291 -3.98077,-2.19047 -7.96533,-4.39284 -11.95366,-6.6071 -1.06307,-0.62086 -2.12593,-1.24371 -3.18855,-1.86857 z m -4.01652,-15.82653 c 0.72035,2.90283 1.44922,5.80336 2.1864,8.70159 3.97332,2.36531 7.95011,4.70201 11.93001,7.01088 0.97577,0.53991 1.95131,1.0791 2.92662,1.61759 -0.22864,-0.75346 -0.45728,-1.50692 -0.68592,-2.26037 -0.549,-2.10347 -1.09366,-4.20806 -1.63389,-6.31374 -4.91307,-2.8751 -9.82103,-5.79326 -14.72322,-8.75595 z m -3.847368,-15.87194 c 0.688723,2.91107 1.386315,5.81989 2.092578,8.72645 4.88891,2.99183 9.78396,5.93854 14.68448,8.84163 -0.72225,-2.87153 -1.43614,-5.74508 -2.14145,-8.62065 -4.88468,-2.93765 -9.76344,-5.91964 -14.635608,-8.94743 z m -3.671097,-15.91657 c 0.655788,2.91917 1.320803,5.83613 1.994848,8.75087 4.857997,3.05764 9.722957,6.0689 14.594197,9.03525 -0.69112,-2.87884 -1.37352,-5.75967 -2.04698,-8.64247 -4.85432,-3.00178 -9.701898,-6.04917 -14.542065,-9.14365 z m -3.487717,-15.9604 c 0.621551,2.92712 1.252686,5.85208 1.89321,8.77485 4.825103,3.12504 9.657982,6.20241 14.497972,9.23361 -0.65868,-2.88601 -1.30829,-5.77397 -1.9486,-8.66386 -4.82198,-3.06749 -9.636394,-6.18186 -14.442582,-9.3446 z m -3.297227,-16.00343 c 0.586011,2.93493 1.181965,5.86774 1.787665,8.7984 4.790231,3.19401 9.589063,6.33908 14.395824,9.43669 -0.62496,-2.89303 -1.24046,-5.78797 -1.84632,-8.6848 -4.78766,-3.13478 -9.56694,-6.31771 -14.337169,-9.55029 z m -3.099627,-16.04566 c 0.549169,2.94259 1.108639,5.8831 1.678213,8.8215 4.753382,3.26456 9.516184,6.4789 14.287733,9.64451 -0.58992,-2.89991 -1.170025,-5.80168 -1.740132,-8.7053 -4.751359,-3.20364 -9.493521,-6.45672 -14.225814,-9.76071 z m -2.894523,-16.08515 c 0.06165,0.356 0.123456,0.71198 0.185413,1.06791 0.451508,2.59302 0.911235,5.18447 1.379047,7.77431 4.714554,3.33669 9.439348,6.62188 14.173706,9.85706 -0.553573,-2.90664 -1.096983,-5.8151 -1.630033,-8.72537 -4.30144,-2.98812 -8.594538,-6.01848 -12.878782,-9.09222 -0.409876,-0.29356 -0.81966,-0.58746 -1.229351,-0.88169 z m -2.677108,-16.10339 c 0.470103,2.9538 0.951622,5.90521 1.444044,8.85413 3.175114,2.30996 6.356377,4.59885 9.543172,6.86789 1.501498,1.06944 3.004084,2.13356 4.507735,3.19243 -0.228705,-1.2914 -0.455342,-2.58314 -0.679895,-3.87523 -0.282148,-1.62339 -0.561099,-3.24734 -0.836764,-4.87187 -4.672703,-3.34431 -9.332788,-6.73216 -13.978292,-10.16735 z m -2.45023,-16.15105 c 0.426855,2.96226 0.866057,5.92227 1.317094,8.87995 4.623361,3.46635 9.262348,6.88391 13.914996,10.25646 -0.477436,-2.92097 -0.943849,-5.8437 -1.39873,-8.76808 -4.626709,-3.40807 -9.238484,-6.86291 -13.83336,-10.36833 z m -2.20484,-16.19565 c 0.380216,2.97014 0.773711,5.9382 1.179972,8.90408 4.570304,3.53832 9.15855,7.0246 13.762774,10.46266 -0.435622,-2.92706 -0.859292,-5.8557 -1.270498,-8.78585 -4.575322,-3.47569 -9.133393,-7.00139 -13.672248,-10.58089 z m -1.940937,-16.23723 c 0.330187,2.97748 0.674584,5.95303 1.032679,8.92654 4.511853,3.61415 9.043965,7.17304 13.594373,10.68045 -0.390419,-2.93256 -0.767955,-5.86657 -1.132094,-8.80193 -4.518542,-3.54718 -9.017516,-7.1476 -13.494958,-10.80506 z m -1.658519,-16.27574 c 0.276766,2.98425 0.568674,5.96673 0.875212,8.94733 4.448009,3.69384 8.918595,7.32919 13.409793,10.90983 -0.341826,-2.93752 -0.669836,-5.87634 -0.983518,-8.81635 -4.456369,-3.62253 -8.890853,-7.30153 -13.301487,-11.04081 z m -1.35759,-16.31123 c 0.219955,2.99048 0.455984,5.97932 0.707574,8.96645 4.378772,3.77741 8.782438,7.49308 13.209032,11.15082 -0.289841,-2.94193 -0.564935,-5.88499 -0.82477,-8.8291 -4.388803,-3.70175 -8.753403,-7.4632 -13.091836,-11.28817 z M 68.6981,688.59642 c 0.159754,2.99614 0.336512,5.9908 0.529764,8.98389 4.304141,3.86484 8.635493,7.6647 12.992092,11.4034 -0.234466,-2.94577 -0.453254,-5.89252 -0.65585,-8.84017 -4.315843,-3.78483 -8.605167,-7.6326 -12.866006,-11.54712 z m -0.699385,-16.36918 c 0.04207,1.31182 0.08729,2.62368 0.135702,3.93556 0.06285,1.68718 0.131308,3.37393 0.205274,5.06023 4.224117,3.95613 8.477763,7.84406 12.758972,11.66758 -0.175701,-2.94906 -0.334791,-5.89895 -0.476758,-8.84957 -2.897772,-2.64769 -5.782058,-5.32632 -8.652231,-8.03711 -1.326665,-1.25268 -2.650315,-2.51161 -3.970959,-3.77669 z m -0.363652,-16.36465 c 0.03753,2.99665 0.09078,5.99366 0.160173,8.99093 3.762298,3.66801 7.549169,7.28644 11.360802,10.85272 0.383566,0.35885 0.767382,0.71713 1.151449,1.07485 -0.01437,-0.37359 -0.02846,-0.74718 -0.04227,-1.12079 -0.09558,-2.57894 -0.178572,-5.15821 -0.249241,-7.73772 -4.156526,-3.95938 -8.283413,-7.98052 -12.380916,-12.05999 z m -0.05104,-16.35747 c -0.01838,2.995 -0.02177,5.99055 -0.0098,8.98654 4.062525,4.11314 8.15412,8.16938 12.27504,12.16526 -0.0547,-2.95376 -0.09358,-5.90778 -0.117055,-8.86194 -4.078263,-4.03914 -8.127584,-8.13691 -12.148217,-12.28986 z m 0.246835,-16.34666 c -0.07159,2.99269 -0.128927,5.98611 -0.171613,8.98016 3.98691,4.18456 8.002194,8.31535 12.046105,12.38892 0.0015,-2.95434 0.01812,-5.90874 0.04938,-8.86312 -4.002784,-4.11431 -7.977323,-8.28411 -11.923871,-12.50596 z m 0.529975,-16.33225 c -0.122095,2.98972 -0.230684,5.98035 -0.325361,8.97179 3.91408,4.25139 7.855835,8.45215 11.825522,12.59883 0.05504,-2.95425 0.124416,-5.90839 0.207716,-8.86231 -3.930089,-4.1849 -7.83263,-8.42216 -11.707877,-12.70831 z m 0.79838,-16.31422 c -0.169904,2.98609 -0.327044,5.97327 -0.471012,8.96144 3.844032,4.31362 7.715044,8.57977 11.61329,12.79497 0.105863,-2.95351 0.225318,-5.90671 0.357956,-8.85952 -3.860178,-4.2509 -7.693505,-8.55102 -11.500234,-12.89689 z m 1.052049,-16.29258 c -0.215014,2.9818 -0.418005,5.96486 -0.608567,8.9491 3.776769,4.37128 7.579821,8.69821 11.409411,12.97735 0.153986,-2.95209 0.320822,-5.90371 0.5001,-8.85474 -3.793051,-4.31232 -7.559948,-8.6707 -11.300944,-13.07171 z m 1.290984,-16.26732 c -0.257426,2.97684 -0.50357,5.95513 -0.738027,8.93477 3.71229,4.42435 7.450166,8.80749 11.213883,13.14597 0.199411,-2.95002 0.410929,-5.89938 0.634149,-8.84798 -3.728708,-4.36914 -7.431959,-8.78121 -11.110005,-13.23276 z m 1.515182,-16.23846 c -0.297139,2.97122 -0.583737,5.94408 -0.859389,8.91847 3.650595,4.47282 7.326079,8.90758 11.026707,13.30082 0.242136,-2.94728 0.495638,-5.89373 0.7601,-8.83923 -3.667149,-4.42138 -7.309537,-8.88255 -10.927418,-13.38006 z m 1.72285,-16.20419 c -0.301763,2.68665 -0.596031,5.37477 -0.882329,8.06442 -0.0296,0.27797 -0.05911,0.55596 -0.08853,0.83397 3.591684,4.51671 7.20756,8.9985 10.847884,13.44192 0.282161,-2.94389 0.574949,-5.88676 0.877955,-8.82851 -1.24564,-1.54274 -2.488411,-3.08985 -3.728326,-4.64119 -2.35189,-2.94254 -4.693898,-5.89986 -7.026653,-8.87061 z m 1.904664,-16.16742 c -0.364031,2.95798 -0.720104,5.91761 -1.067579,8.87898 3.540107,4.55294 7.100578,9.07642 10.683651,13.56562 0.319375,-2.94021 0.648327,-5.87945 0.986218,-8.8178 -3.554467,-4.51186 -7.087819,-9.05574 -10.60229,-13.6268 z m 2.06283,-16.13454 c -0.39088,2.95221 -0.774966,5.90594 -1.151619,8.86126 3.494913,4.58477 7.007487,9.14422 10.539959,13.67352 0.352118,-2.93695 0.712649,-5.87308 1.080953,-8.80846 -3.507431,-4.54917 -6.99645,-9.12622 -10.469293,-13.72632 z m 2.197854,-16.10445 c -0.413491,2.94696 -0.821352,5.89529 -1.222943,8.84507 3.456207,4.61151 6.927372,9.20185 10.415732,13.76617 0.380622,-2.93421 0.768493,-5.86774 1.162972,-8.80066 -3.466884,-4.5814 -6.918059,-9.18653 -10.355761,-13.81058 z m 2.309734,-16.07716 c -0.431862,2.94222 -0.859259,5.88566 -1.281551,8.83042 3.42399,4.63317 6.860234,9.2493 10.31097,13.84356 0.404887,-2.93198 0.815859,-5.86342 1.232275,-8.79439 -3.432824,-4.60854 -6.852643,-9.23668 -10.261694,-13.87959 z m 2.398473,-16.05265 c -0.445995,2.93798 -0.88869,5.87706 -1.327445,8.8173 3.398262,4.64975 6.806074,9.28658 10.225673,13.90569 0.424915,-2.93026 0.854749,-5.86012 1.288864,-8.78966 -3.405254,-4.63059 -6.800206,-9.27664 -10.187092,-13.93333 z m 2.464069,-16.03093 c -0.45589,2.93426 -0.909644,5.86947 -1.360622,8.80571 3.37902,4.66124 6.764888,9.31369 10.15984,13.95256 0.440703,-2.92905 0.885161,-5.85785 1.332735,-8.78645 -3.38417,-4.64756 -6.760743,-9.30644 -10.131953,-13.97182 z m 2.506521,-16.012 c 0.0596,-0.37851 -1.440686,9.17416 -1.381083,8.79565 3.366268,4.66764 6.73668,9.33063 10.113472,13.98417 0.03012,-0.19503 1.333768,-8.58976 1.363888,-8.78478 -3.369573,-4.65944 -6.734254,-9.32606 -10.096277,-13.99504 z m 2.525573,-15.9957 c -0.084,0.53183 -0.168004,1.06367 -0.252022,1.59552 -0.378915,2.39668 -0.757881,4.79381 -1.136549,7.19144 3.360004,4.66895 6.721448,9.33739 10.086565,14.00052 0.45957,-2.92817 0.92056,-5.85636 1.38234,-8.78465 -2.92038,-4.05393 -5.839112,-8.11016 -8.757652,-12.16553 -0.440875,-0.61246 -0.881767,-1.2249 -1.322682,-1.8373 z m 2.517226,-15.9833 c -0.458895,2.92672 -0.919356,5.85374 -1.380737,8.78114 2.432853,3.37554 4.864374,6.75316 7.295405,10.13101 0.92851,1.29009 1.85703,2.5802 2.78563,3.87021 0.17699,-1.1203 0.35401,-2.24062 0.53103,-3.36097 0.28585,-1.80839 0.57164,-3.61695 0.8572,-5.42568 -3.3603,-4.66826 -6.722395,-9.33513 -10.088528,-13.99571 z m 2.486089,-15.97734 c -0.45105,2.92588 -0.904843,5.85192 -1.360733,8.77821 3.370972,4.656 6.736672,9.32017 10.099362,13.98762 0.4611,-2.9302 0.92109,-5.86095 1.37932,-8.79232 -3.36739,-4.66505 -6.73929,-9.32451 -10.117949,-13.97351 z m 2.431559,-15.97409 c -0.43892,2.92553 -0.881762,5.85109 -1.327876,8.77676 3.386436,4.64209 6.764896,9.29653 10.137616,13.95845 0.45492,-2.93243 0.90755,-5.86553 1.35725,-8.79939 -3.38102,-4.65668 -6.76927,-9.30358 -10.16699,-13.93582 z m 2.35363,-15.97358 c -0.42251,2.92569 -0.85011,5.85127 -1.28216,8.77681 3.40844,4.62301 6.80619,9.26256 10.19548,13.91378 0.44445,-2.93515 0.88544,-5.87111 1.32231,-8.80796 -3.40119,-4.64314 -6.81232,-9.27231 -10.23563,-13.88263 z m 2.2523,-15.9758 c -0.4018,2.92635 -0.80988,5.85245 -1.22359,8.77837 3.43698,4.59876 6.86056,9.21826 10.27297,13.85361 0.42969,-2.93836 0.85474,-5.87768 1.27451,-8.81803 -3.42789,-4.62444 -6.86844,-9.23071 -10.32389,-13.81395 z m 2.12759,-15.98074 c -0.37682,2.9275 -0.76109,5.85462 -1.15217,8.78143 3.47206,4.56934 6.928,9.16362 10.37005,13.77794 0.41066,-2.94208 0.81549,-5.88526 1.21386,-8.8296 -3.46112,-4.60057 -6.93762,-9.17878 -10.43174,-13.72977 z m 1.97947,-15.98842 c -0.34755,2.92916 -0.70373,5.8578 -1.06789,8.78599 3.51368,4.53477 7.00851,9.09865 10.48675,13.68678 0.38733,-2.9463 0.76766,-5.89383 1.14035,-8.84266 -3.50089,-4.57154 -7.01988,-9.11653 -10.55921,-13.63011 z m 1.80797,-15.99881 c -0.314,2.93131 -0.6378,5.86196 -0.97076,8.79203 3.56182,4.49503 7.10209,9.02337 10.62304,13.58013 0.35973,-2.95102 0.71127,-5.9034 1.054,-8.85723 -3.54721,-4.53734 -7.11522,-9.04394 -10.70628,-13.51493 z m 1.61213,-16.01094 c -0.27597,2.93388 -0.56279,5.86692 -0.86003,8.79899 0.8041,0.98918 1.60698,1.98023 2.40865,2.97312 2.80419,3.47356 5.594,6.96914 8.37049,10.48445 0.32783,-2.95624 0.6463,-5.91398 0.95478,-8.8733 -0.19883,-0.24843 -0.39773,-0.49674 -0.59671,-0.74496 -3.40358,-4.24625 -6.82924,-8.46001 -10.27718,-12.6383 z m 1.39654,-16.02674 c -0.23512,2.93662 -0.48184,5.87258 -0.73975,8.80778 3.67687,4.39948 7.32848,8.84017 10.95506,13.31851 0.29127,-2.96214 0.57177,-5.92576 0.84109,-8.89075 -3.65999,-4.45246 -7.34538,-8.86549 -11.0564,-13.23554 z m 1.16596,-16.03971 c -0.19151,2.93863 -0.39538,5.87681 -0.61119,8.81442 3.73964,4.34485 7.45336,8.73413 11.14137,13.16431 0.2507,-2.96716 0.48988,-5.9356 0.71713,-8.90522 -3.72296,-4.40168 -7.47199,-8.7607 -11.24731,-13.07351 z m 0.9203,-16.04876 c -0.14513,2.93993 -0.30339,5.8796 -0.47435,8.81891 3.8052,4.28547 7.58382,8.6186 11.33605,12.99586 0.20739,-2.97146 0.40249,-5.94401 0.58489,-8.91753 -3.78871,-4.34616 -7.60417,-8.64642 -11.44659,-12.89724 z m 0.65958,-16.0539 c -0.096,2.94051 -0.20589,5.88097 -0.32923,8.82125 3.87356,4.22134 7.71986,8.49358 11.53911,12.81318 0.16131,-2.97505 0.30957,-5.95098 0.44438,-8.92769 -3.85727,-4.2859 -7.74195,-8.52266 -11.65426,-12.70674 z m 0.38379,-16.05512 c -0.0441,2.94038 -0.10286,5.88089 -0.17583,8.82143 3.94471,4.15247 7.86149,8.35907 11.75055,12.61626 0.11246,-2.97792 0.21112,-5.95652 0.29557,-8.9357 -3.9286,-4.22088 -7.8853,-8.38939 -11.87029,-12.50199 z m 0.0929,-16.05244 c 0.0105,2.93953 0.006,5.87939 -0.0142,8.81948 4.01866,4.07885 8.00871,8.21506 11.97037,12.40509 0.0609,-2.98006 0.10716,-5.96062 0.13849,-8.94156 -4.00274,-4.15111 -8.03423,-8.24663 -12.0947,-12.28301 z m -0.213,-16.04582 c 0.0679,2.93796 0.11974,5.87645 0.1558,8.81536 4.09539,4.00048 8.1615,8.06156 12.19855,12.17969 0.006,-2.98149 -0.002,-5.96328 -0.0269,-8.94526 -4.07967,-4.07661 -8.18876,-8.09439 -12.32749,-12.04979 z m -0.53397,-16.03562 c 0.005,0.12479 0.0108,0.24959 0.0162,0.37438 0.1213,2.81105 0.22711,5.62276 0.31781,8.43503 4.17491,3.91737 8.31987,7.89857 12.43511,11.94006 -0.0506,-2.98221 -0.11732,-5.96453 -0.2005,-8.94683 -4.03175,-3.87469 -8.09178,-7.69107 -12.18029,-11.44592 -0.12942,-0.11896 -0.25886,-0.23787 -0.38833,-0.35672 z m -0.84947,-16.0348 c 0.18357,2.93516 0.35168,5.87132 0.50447,8.8083 2.64949,2.39092 5.28883,4.80513 7.91777,7.24229 1.59024,1.47435 3.17615,2.95793 4.75774,4.45052 -0.0576,-1.55584 -0.11988,-3.11166 -0.18676,-4.66744 -0.0614,-1.42539 -0.12632,-2.85068 -0.1948,-4.27583 -4.23973,-3.91246 -8.50624,-7.76557 -12.79842,-11.55784 z m -1.15668,-16.014818 c 0.24026,2.930893 0.46484,5.863124 0.67384,8.796508 4.32489,3.7548 8.62447,7.57112 12.89764,11.44748 -0.16874,-2.9786 -0.35311,-5.95647 -0.55325,-8.93343 -4.31382,-3.83154 -8.6536,-7.602227 -13.01823,-11.310558 z m -1.46859,-15.988239 c 0.29782,2.925421 0.57971,5.852511 0.84581,8.781088 4.39712,3.669589 8.76976,7.402211 13.1168,11.196381 -0.22608,-2.975342 -0.46803,-5.949624 -0.72598,-8.922662 -4.38743,-3.74781 -8.80001,-7.43324 -13.23663,-11.054807 z m -1.78518,-15.955059 c 0.35623,2.918739 0.6963,5.83948 1.02034,8.76204 4.46889,3.581552 8.91411,7.227648 13.33455,10.936806 -0.28428,-2.970877 -0.58467,-5.940362 -0.9013,-8.908272 -4.46057,-3.661245 -8.94547,-7.258597 -13.45359,-10.790574 z m -2.10603,-15.915325 c 0.41574,2.909036 0.814,5.821958 1.19673,8.7381 1.2138,0.933662 2.42599,1.872094 3.63658,2.814973 3.31743,2.583313 6.62243,5.201872 9.91457,7.855094 -0.34335,-2.965204 -0.70304,-5.928683 -1.07921,-8.890255 -0.0463,-0.03649 -0.0926,-0.07297 -0.13893,-0.109446 -4.48663,-3.532339 -8.99663,-7.007287 -13.52974,-10.408466 z m -2.45515,-15.840671 c 0.48573,2.89269 0.95047,5.790476 1.39616,8.692693 4.61485,3.384877 9.20523,6.852072 13.77083,10.384695 -0.40271,-2.959261 -0.82275,-5.917644 -1.26204,-8.874482 -4.60921,-3.480586 -9.24429,-6.887184 -13.90495,-10.202906 z m -2.8724,-15.739386 c 0.56857,2.871936 1.11262,5.750179 1.63409,8.634063 4.70081,3.253713 9.37514,6.60532 14.0227,10.037935 -0.47217,-2.95386 -0.96519,-5.905629 -1.48099,-8.854644 -4.69749,-3.367647 -9.42285,-6.645727 -14.1758,-9.817354 z M 100.49693,-2.38849 c 0.0643,0.2756257 0.12841,0.5513706 0.19224,0.8272315 0.59498,2.5722825 1.16725,5.1506442 1.71823,7.734595 4.79829,3.0990144 9.56809,6.3115025 14.30912,9.6205745 -0.55446,-2.94405 -1.13329,-5.8847992 -1.73843,-8.8215829 -4.46151,-3.0050157 -8.94886,-5.9190913 -13.46182,-8.7286415 -0.33965,-0.2113772 -0.67943,-0.4221117 -1.01934,-0.6321766 z m -3.94859,-15.385737 c 0.79212,2.786919 1.541004,5.59303 2.255488,8.4147651 3.251032,1.9172958 6.489212,3.908971 9.712942,5.952236 1.64302,1.0412763 3.28254,2.0959861 4.91856,3.16347956 -0.30355,-1.36910876 -0.61319,-2.73723246 -0.92911,-4.10430306 -0.36014,-1.5588052 -0.72917,-3.117509 -1.10842,-4.6755722 -4.91387,-3.0741554 -9.86551,-6.0171604 -14.84946,-8.7506054 z m -4.801638,-14.965386 c 0.978201,2.667827 1.887076,5.390675 2.760624,8.149867 0.08027,0.04098 0.160542,0.08202 0.240806,0.123127 4.97575,2.542834 9.917738,5.319235 14.820738,8.254465 -0.77698,-2.918736 -1.59723,-5.832288 -2.46961,-8.737088 -1.32893,-0.743197 -2.66083,-1.472421 -3.99559,-2.186266 -3.763359,-2.010951 -7.557044,-3.92115 -11.356968,-5.604105 z m -6.19167,-13.819969 c 0.881243,1.56502 1.715901,3.260368 2.566149,5.024888 0.363443,0.777456 0.716634,1.562156 1.060572,2.35355 5.246386,1.921712 10.487157,4.394228 15.662467,7.103237 -0.96904,-2.897012 -2.01432,-5.795607 -3.16985,-8.677107 -2.676946,-1.235319 -5.368505,-2.370507 -8.067177,-3.366171 -2.694518,-0.994301 -5.41895,-1.887994 -8.052161,-2.438397 z m -6.019698,-7.010484 c -8.24e-4,0.004 -0.0054,0.01053 -0.01388,0.01993 -0.08727,-0.07312 0.125086,0.07456 0.523623,0.24042 0,0 0,0 0,0 0.579348,0.286845 1.238494,0.958186 2.049125,1.806653 0.0085,0.0092 0.01699,0.01835 0.02547,0.02755 5.168201,-0.365011 10.987211,1.511285 16.485339,3.682206 -1.334659,-2.842687 -2.916473,-5.77049 -4.933509,-8.598435 -1.710396,-0.440934 -3.418653,-0.774882 -5.1031,-0.958432 -2.280685,-0.264777 -4.624422,-0.243968 -6.486723,0.473764 0,0 0,0 0,0 -1.46679,0.5941 -2.556388,1.610148 -2.56041,2.907304 -0.0018,0.13086 0.0031,0.264133 0.01407,0.399038 z m -6.620513,7.572306 c 1.194593,-2.116472 2.456666,-4.016351 3.927408,-5.550931 0.125118,-0.126746 0.246879,-0.249472 0.365503,-0.367469 -0.271281,-1.576284 -0.471197,-3.187012 -0.188186,-4.826713 0.24477,-1.522408 0.91963,-3.173647 2.498525,-4.418757 0,0 10e-7,0 10e-7,-10e-7 1.580653,-1.204919 3.860149,-1.90546 6.130102,-1.960779 0.5054,-0.02492 1.016164,-0.03021 1.528994,-0.01836 -0.355572,-0.243459 -0.726006,-0.48134 -1.111735,-0.712387 -1.754302,-1.075335 -3.975244,-1.755606 -6.549373,-1.838183 0,10e-7 0,10e-7 -10e-7,0 -2.563892,0.07264 -4.78452,0.736474 -6.545381,1.793427 -0.253315,0.14841 -0.500236,0.299796 -0.740871,0.453809 -1.052531,2.280566 -1.348448,4.432025 -1.347405,6.448267 0.0095,3.980207 0.878787,7.55466 2.032419,10.998075 z m -6.318535,13.8614 c 1.003182,-2.668615 2.073081,-5.282935 3.243238,-7.823004 -0.337587,-0.848946 -0.664924,-1.705594 -0.980952,-2.570874 -1.57741,-4.447595 -3.088125,-9.021144 -3.38703,-14.267234 -2.089395,2.800669 -3.740077,5.714046 -5.13307,8.549474 0.194711,0.651904 0.398177,1.295583 0.607501,1.932421 1.578845,4.980554 3.518403,9.657746 5.650313,14.179217 z M 61.648339,-17.183 c 0.738505,-2.510319 1.512092,-5.004633 2.32721,-7.480075 0.08931,-0.27036 0.17897,-0.540373 0.269008,-0.810019 -2.577874,-5.059608 -5.023886,-10.244196 -7.095998,-15.766019 -1.203858,2.871512 -2.295442,5.762442 -3.308296,8.652833 0.845054,1.855458 1.718765,3.68082 2.610885,5.485072 1.665969,3.374341 3.40326,6.67497 5.197191,9.918208 z m -4.095888,15.3718565 c 0.0091,-0.037295 0.01813,-0.074588 0.02721,-0.1118796 0.682702,-2.8049347 1.391948,-5.5975827 2.13619,-8.3741849 -2.870056,-4.925089 -5.632227,-9.964148 -8.233419,-15.176196 -0.913002,2.898968 -1.772718,5.807752 -2.587944,8.722441 2.747609,5.058919 5.62256,9.9735509 8.573255,14.8012535 0.02823,0.046197 0.05647,0.092386 0.08471,0.138566 z M 54.052367,13.78876 c 0.593193,-2.870227 1.211509,-5.733713 1.856873,-8.5897108 -1.840382,-2.9055067 -3.653791,-5.84355511 -5.437879,-8.817026 -1.180091,-1.9669247 -2.347014,-3.9500641 -3.497419,-5.9531425 -0.412292,1.6100688 -0.813264,3.2209569 -1.204386,4.8320099 -0.318639,1.3120901 -0.631304,2.625282 -0.93817,3.93950809 2.998439,4.95553751 6.075688,9.81392061 9.220981,14.58836131 z m -3.000799,15.733888 c 0.508131,-2.892295 1.037877,-5.779206 1.591166,-8.659988 -3.211663,-4.733447 -6.360541,-9.546009 -9.43587,-14.4508986 -0.63765,2.9353409 -1.248106,5.8752016 -1.833296,8.8188356 3.162454,4.846054 6.392042,9.605667 9.678,14.292051 z m -2.571207,15.840879 c 0.435833,-2.909418 0.889775,-5.814811 1.363752,-8.715433 -3.34143,-4.650196 -6.631751,-9.368793 -9.860199,-14.169005 -0.545049,2.949321 -1.066412,5.901803 -1.566015,8.8567 3.302284,4.747236 6.660026,9.418744 10.062462,14.027738 z m -2.208688,15.91818 c 0.21041,-1.644378 0.426205,-3.288017 0.647405,-4.930882 0.171822,-1.274766 0.346638,-2.548943 0.524607,-3.822468 -3.447012,-4.577611 -6.85459,-9.212909 -10.21197,-13.919107 -0.465213,2.958356 -0.910247,5.918516 -1.337027,8.879732 2.027249,2.763405 4.0699,5.503939 6.125708,8.224359 1.410306,1.866111 2.827441,3.722224 4.251277,5.568366 z m -1.87186,15.963707 c 0.312188,-2.92755 0.641144,-5.853144 0.986983,-8.776578 -3.539839,-4.500987 -7.040065,-9.06208 -10.498788,-13.68366 -0.0025,-0.0033 -0.005,-0.0066 -0.0074,-0.0099 -3.95e-4,0.0029 -7.9e-4,0.0059 -0.0012,0.0088 -0.398423,2.96105 -0.779562,5.924377 -1.143533,8.889779 3.514705,4.584253 7.069988,9.107986 10.663957,13.57158 z m -1.53861,16.002591 c 0.251534,-2.933997 0.519626,-5.866408 0.804393,-8.79703 -3.635627,-4.430107 -7.233374,-8.920308 -10.791351,-13.470985 -0.336196,2.971614 -0.655283,5.945139 -0.957376,8.920372 3.609956,4.509509 7.258698,8.958597 10.944334,13.347643 z m -1.209517,16.034105 c 0.191641,-2.9391 0.399631,-5.87698 0.624086,-8.81343 -3.725994,-4.3552 -7.415902,-8.770393 -11.06783,-13.245964 -0.274301,2.977895 -0.531701,5.95733 -0.772317,8.938101 3.702324,4.433963 7.441641,8.807593 11.216061,13.121293 z m -0.884603,16.0582 c 0.0055,-0.12227 0.01105,-0.24453 0.01662,-0.36679 0.128289,-2.82049 0.27141,-5.64021 0.429463,-8.45896 -3.813479,-4.27948 -7.592663,-8.61885 -11.33566,-13.01851 -0.213166,2.98282 -0.409642,5.96682 -0.589542,8.95178 3.677988,4.2268 7.389096,8.39693 11.131597,12.51075 0.11581,0.1273 0.23165,0.25454 0.347519,0.38173 z m -0.563042,16.07342 c 0.0739,-2.94502 0.16367,-5.88949 0.269619,-8.83326 -2.426217,-2.61551 -4.839881,-5.25431 -7.240572,-7.91686 -1.456268,-1.6151 -2.907735,-3.23876 -4.354299,-4.871 -0.07985,1.56079 -0.155207,3.1218 -0.226074,4.683 -0.06461,1.42616 -0.125438,2.85241 -0.182515,4.27874 3.878746,4.28032 7.790609,8.49945 11.733841,12.65938 z m -0.24749,16.08466 c 0.01709,-2.94667 0.04951,-5.893 0.09757,-8.83887 -3.979448,-4.12567 -7.928372,-8.30979 -11.845025,-12.5544 -0.09278,2.98836 -0.169349,5.97694 -0.230003,8.96562 3.961829,4.20146 7.954897,8.34334 11.977458,12.42765 z m 0.0573,16.09132 c -0.03775,-2.94747 -0.0607,-5.89483 -0.06857,-8.84196 -4.057051,-4.05074 -8.085454,-8.15832 -12.083464,-12.32476 -0.03475,2.98877 -0.05384,5.97753 -0.05755,8.96617 4.04108,4.12414 8.111522,8.19032 12.209581,12.20055 z m 0.35133,16.09344 c -0.09061,-2.94744 -0.166977,-5.895 -0.228789,-8.84256 -4.130822,-3.97736 -8.234874,-8.00994 -12.310407,-12.09976 0.0213,2.98834 0.05773,5.97645 0.108986,8.9642 4.116499,4.04839 8.260485,8.04042 12.43021,11.97812 z m 0.634597,16.091 c -0.14151,-2.94657 -0.269308,-5.8935 -0.383098,-8.84066 -4.200763,-3.90553 -8.376631,-7.86466 -12.525858,-11.87942 0.07538,2.98709 0.165352,5.97371 0.269612,8.95975 4.188087,3.97417 8.401784,7.89361 12.639344,11.76033 z m 0.907102,16.08401 c -0.190434,-2.94488 -0.367698,-5.89034 -0.531495,-8.83625 -4.266871,-3.83525 -8.510725,-7.72249 -12.729813,-11.66373 0.127494,2.98499 0.269035,5.9693 0.424323,8.95279 4.255844,3.9015 8.535421,7.7499 12.836985,11.54719 z m 1.168846,16.07246 c -0.237387,-2.94235 -0.462146,-5.8855 -0.673979,-8.82935 -4.329149,-3.76652 -8.637156,-7.58341 -12.922275,-11.45268 0.177635,2.98207 0.368775,5.96322 0.573122,8.94332 4.319769,3.8304 8.661395,7.60929 13.023132,11.33871 z m 1.419826,16.05635 c -0.282369,-2.93898 -0.552651,-5.879 -0.810548,-8.81993 -4.387596,-3.69934 -8.755926,-7.44743 -13.103244,-11.24629 0.225806,2.97831 0.464575,5.95547 0.716008,8.93135 4.379863,3.76083 8.779706,7.47178 13.197784,11.13487 z m 1.659903,16.03629 c -0.125338,-1.13171 -0.249029,-2.26356 -0.371031,-3.39556 -0.194436,-1.8039 -0.384469,-3.60826 -0.570031,-5.41305 -4.442211,-3.63371 -8.867032,-7.31456 -13.272717,-11.04455 0.272004,2.97371 0.55643,5.94605 0.85298,8.91688 3.200518,2.66425 6.41046,5.30338 9.62917,7.91814 1.242631,1.00951 2.486517,2.01551 3.731629,3.01814 z m 1.880917,16.01802 c -0.363095,-2.93211 -0.7164,-5.86505 -1.059204,-8.79891 -3.911929,-3.11229 -7.812516,-6.25586 -11.700934,-9.43453 -0.576211,-0.47113 -1.152139,-0.94304 -1.727778,-1.41575 0.05649,0.53026 0.113364,1.06047 0.170613,1.59063 0.263203,2.43699 0.533995,4.87265 0.811983,7.30702 4.487045,3.62609 8.989236,7.20801 13.50532,10.75154 z m 2.075456,16.00134 c -0.39636,-2.92929 -0.784231,-5.85929 -1.162899,-8.79006 -4.534835,-3.52055 -9.056646,-7.07717 -13.564179,-10.67565 0.35546,2.96075 0.720999,5.91965 1.095905,8.87676 4.530923,3.56675 9.075065,7.09447 13.631173,10.58895 z m 2.244185,15.98729 c -0.424899,-2.92696 -0.842608,-5.85449 -1.252412,-8.78267 -4.572244,-3.4747 -9.13339,-6.98033 -13.682185,-10.52265 0.389786,2.95424 0.788353,5.90677 1.194987,8.85765 4.568996,3.5145 9.149284,6.99513 13.73961,10.44767 z m 2.387101,15.97584 c -0.448711,-2.9251 -0.891529,-5.85064 -1.327742,-8.7767 -4.603847,-3.43597 -9.198523,-6.8977 -13.782775,-10.39099 0.419385,2.94823 0.846252,5.89486 1.279888,8.83998 4.601263,3.46936 9.21189,6.91 13.830629,10.32771 z m 2.504205,15.967 c -0.467795,-2.92372 -0.930996,-5.84775 -1.388891,-8.77217 -4.629643,-3.40433 -9.252042,-6.82927 -13.865946,-10.28062 0.444256,2.94267 0.894696,5.88389 1.350606,8.82373 4.627724,3.43133 9.262885,6.83909 13.904231,10.22906 z m 2.595497,15.96078 c -0.482152,-2.92281 -0.961008,-5.84581 -1.435857,-8.76907 -4.649634,-3.3798 -9.293951,-6.77507 -13.9317,-10.19158 0.4644,2.93761 0.933685,5.87389 1.407141,8.80892 4.64838,3.4004 9.302269,6.78238 13.960416,10.15173 z m 2.660976,15.95718 c -0.49178,-2.9224 -0.981565,-5.84485 -1.468639,-8.76742 -4.66382,-3.36238 -9.32425,-6.73507 -13.980038,-10.12386 0.479817,2.93302 0.963219,5.86485 1.449494,8.79555 4.663229,3.37658 9.330041,6.73989 13.999183,10.09573 z m 2.700643,15.95617 c -0.496681,-2.92245 -0.992666,-5.84483 -1.487239,-8.76719 -4.672199,-3.35206 -9.342935,-6.70928 -14.010958,-10.07745 0.490506,2.92891 0.983299,5.85676 1.477665,8.78361 4.672273,3.35986 9.346201,6.71161 14.020532,10.06103 z m 2.712002,15.96283 c -0.495627,-2.92451 -0.992277,-5.84848 -1.489251,-8.772 -2.535668,-1.81755 -5.071352,-3.63445 -7.606868,-5.45159 -2.139252,-1.53323 -4.278459,-3.06711 -6.417501,-4.60221 0.314464,1.85288 0.629324,3.70539 0.9444,5.55754 0.182141,1.07167 0.364292,2.14327 0.54642,3.2148 4.674556,3.34991 9.349208,6.69916 14.0228,10.05346 z m 2.691731,15.97362 c -0.489586,-2.92674 -0.981468,-5.85279 -1.474947,-8.77824 -4.671233,-3.35861 -9.344349,-6.70989 -14.018192,-10.05953 0.496046,2.92211 0.991342,5.84376 1.485188,8.76503 4.671433,3.35125 9.341135,6.70694 14.007951,10.07274 z m 2.646111,15.98721 c -0.478916,-2.92949 -0.961399,-5.85815 -1.446751,-8.78606 -4.661932,-3.37329 -9.327572,-6.73417 -13.995766,-10.08833 0.490999,2.9207 0.979976,5.84109 1.466231,8.76124 4.662704,3.35965 9.321851,6.7288 13.976286,10.11315 z m 2.575203,16.00369 c -0.463614,-2.93278 -0.932067,-5.86457 -1.404661,-8.79548 -4.647025,-3.395 -9.299585,-6.77253 -13.956523,-10.13825 0.481321,2.91982 0.959349,5.83948 1.433382,8.75904 4.648368,3.37508 9.291354,6.76475 13.927802,10.17469 z m 2.47901,16.02304 c -0.44368,-2.93658 -0.893472,-5.87204 -1.348678,-8.80646 -4.626511,-3.42377 -9.260384,-6.82498 -13.900462,-10.20931 0.467014,2.91947 0.92946,5.83892 1.38664,8.75843 4.628427,3.39756 9.249646,6.81478 13.8625,10.25734 z m 2.357534,16.0453 c -0.419116,-2.94092 -0.845617,-5.88058 -1.278803,-8.81905 -4.600392,-3.45957 -9.209972,-6.89151 -13.827583,-10.30149 0.448074,2.91966 0.890309,5.83943 1.326005,8.75941 4.60288,3.42707 9.196726,6.87889 13.780381,10.36113 z m 2.21077,16.07042 c -0.38992,-2.94578 -0.788498,-5.89016 -1.195033,-8.83321 -4.568668,-3.50242 -9.148349,-6.97212 -13.737887,-10.41479 0.424504,2.92036 0.841896,5.84099 1.251477,8.76196 4.571727,3.46363 9.132593,6.95709 13.681443,10.48604 z m 2.038723,16.09844 c -0.356094,-2.95118 -0.722118,-5.90081 -1.097372,-8.84896 -4.531337,-3.55231 -9.075513,-7.06682 -13.631372,-10.54922 0.396302,2.92159 0.78422,5.8436 1.163055,8.7661 4.534968,3.50724 9.05725,7.04937 13.565689,10.63208 z m 1.840325,16.12937 c -0.317241,-2.95677 -0.645605,-5.91219 -0.984798,-8.86617 -0.723511,-0.5819 -1.447422,-1.16266 -2.171725,-1.7423 -3.768797,-3.01594 -7.547781,-6.00237 -11.336269,-8.96264 0.363469,2.92336 0.717282,5.84728 1.06074,8.77184 0.522694,0.41394 1.045192,0.82842 1.567491,1.24346 3.966863,3.15153 7.922077,6.33633 11.864561,9.55581 z m 1.619821,16.1566 c -0.275778,-2.96131 -0.563214,-5.92146 -0.862015,-8.88035 -4.438918,-3.67138 -8.894911,-7.29759 -13.366413,-10.88068 0.325925,2.92544 0.641029,5.85189 0.945019,8.77922 4.444776,3.61588 8.873101,7.2758 13.283409,10.98181 z m 1.388121,16.17947 c -0.232368,-2.96515 -0.476929,-5.92934 -0.73339,-8.89246 -4.386037,-3.73478 -8.790863,-7.42273 -13.212913,-11.06588 0.285565,2.92872 0.559773,5.85826 0.822332,8.78849 4.393344,3.6769 8.768523,7.3995 13.123971,11.16985 z m 1.145785,16.19858 c -0.187011,-2.9683 -0.386749,-5.93583 -0.598922,-8.90249 -4.329553,-3.7999 -8.67961,-7.5513 -13.048605,-11.25624 0.243255,2.93132 0.47462,5.86325 0.693801,8.7957 4.33831,3.73962 8.656741,7.52662 12.953726,11.36303 z m 0.892816,16.21393 c -0.139705,-2.97077 -0.292674,-5.94096 -0.458612,-8.91046 -4.269467,-3.86673 -8.561153,-7.6833 -12.873491,-11.45174 0.198999,2.93322 0.385573,5.86687 0.559427,8.80084 4.279675,3.80406 8.537755,7.65717 12.772676,11.56136 z m 0.629214,16.2255 c -0.09045,-2.97254 -0.194703,-5.94469 -0.312459,-8.91634 -4.20578,-3.93529 -8.435493,-7.81874 -12.687572,-11.6524 0.152796,2.93443 0.292631,5.8691 0.419212,8.80391 4.217436,3.87022 8.411565,7.79115 12.580819,11.76483 z m 0.354977,16.23333 c -0.03925,-2.97363 -0.09284,-5.94706 -0.160462,-8.92018 -4.138491,-4.00555 -8.302629,-7.9576 -12.490848,-11.85819 0.104645,2.93495 0.195794,5.86996 0.273154,8.80491 4.151597,3.93809 8.278171,7.92856 12.378156,11.97346 z m 0.07011,16.23737 c 0.0139,-2.97403 0.01292,-5.94804 -0.0026,-8.92194 -4.0676,-4.07753 -8.162561,-8.0999 -12.283317,-12.06913 0.05455,2.93478 0.09506,5.86943 0.121253,8.80384 4.082155,4.00768 8.137573,8.06941 12.164688,12.18723 z m -0.225395,16.23766 c 0.06899,-2.97374 0.122579,-5.94765 0.161057,-8.92163 -3.993107,-4.15123 -8.015289,-8.24563 -12.06498,-12.28523 0.0025,2.93393 -0.0096,5.86754 -0.03649,8.8007 4.009112,4.07899 7.989772,8.2137 11.940415,12.40616 z m -0.542393,16.23509 c 0.130361,-2.97187 0.244015,-5.94489 0.340247,-8.919 -1.044715,-1.12954 -2.092005,-2.25454 -3.141897,-3.37489 -2.881472,-3.07512 -5.779259,-6.1191 -8.692746,-9.13274 -0.05149,2.93238 -0.118088,5.86425 -0.200078,8.79549 0.04128,0.0436 0.08255,0.0872 0.123823,0.13077 3.892047,4.10346 7.748454,8.2721 11.570651,12.50037 z m -0.873482,16.21477 c 0.188807,-2.96757 0.362209,-5.93636 0.519489,-8.90633 -3.823698,-4.30722 -7.681378,-8.55581 -11.574516,-12.74006 -0.109248,2.92646 -0.235533,5.85279 -0.378141,8.77892 3.844854,4.2295 7.655418,8.52057 11.433168,12.86747 z m -1.179672,16.19048 c 0.242519,-2.96297 0.470932,-5.92725 0.684525,-8.89279 -3.74144,-4.3779 -7.514737,-8.70225 -11.321367,-12.96731 -0.168897,2.9258 -0.35353,5.85138 -0.553185,8.77669 3.761682,4.30655 7.491199,8.66959 11.190027,13.08341 z m -1.460005,16.1646 c 0.291494,-2.95809 0.570184,-5.91756 0.835355,-8.87837 -3.665254,-4.44173 -7.36024,-8.83496 -11.086433,-13.17398 -0.223811,2.92484 -0.462057,5.84939 -0.714023,8.77358 3.684582,4.37673 7.339124,8.8049 10.965101,13.27877 z m -1.714482,16.13713 c 0.335734,-2.95291 0.659965,-5.90729 0.971977,-8.86308 -3.595139,-4.4987 -7.217885,-8.95396 -10.869714,-13.36007 -0.273988,2.9236 -0.561111,5.84681 -0.860654,8.7696 3.613554,4.44006 7.199192,8.92648 10.758391,13.45355 z m -1.943103,16.10806 c 0.375239,-2.94745 0.740274,-5.89643 1.094393,-8.84692 -3.531096,-4.54879 -7.087674,-9.05922 -10.67121,-13.52556 -0.31943,2.92206 -0.650695,5.84365 -0.993078,8.76474 3.548597,4.49651 7.071403,9.03433 10.569895,13.60774 z m -2.145868,16.0774 c 0.410007,-2.94168 0.811113,-5.88499 1.202602,-8.82987 -3.473125,-4.59204 -6.969606,-9.15077 -10.49092,-13.67049 -0.360138,2.92023 -0.730808,5.83991 -1.111296,8.75901 3.489711,4.54612 6.955757,9.12847 10.399614,13.74135 z m -2.3237,16.04622 c 0.315793,-2.10239 0.627209,-4.20551 0.934168,-6.30934 0.12178,-0.83443 0.242905,-1.66899 0.36336,-2.50369 -3.421226,-4.62841 -6.863682,-9.22859 -10.328847,-13.79482 -0.396108,2.91811 -0.801449,5.83559 -1.215306,8.75241 1.659094,2.21517 3.313169,4.43762 4.96239,6.66668 1.767133,2.38817 3.528517,4.78451 5.284235,7.18876 z m -2.491669,16.01838 c 0.471402,-2.93122 0.934668,-5.86385 1.389578,-8.79788 -3.372171,-4.66371 -6.765172,-9.2985 -10.179592,-13.90263 -0.427869,2.91425 -0.8644,5.82738 -1.309374,8.73942 3.38726,4.62444 6.753526,9.27871 10.099388,13.96109 z m -2.653368,15.99057 c 0.500288,-2.92615 0.99284,-5.85368 1.477437,-8.78262 -3.324747,-4.69724 -6.669548,-9.36705 -10.034995,-14.00771 -0.458671,2.91022 -0.925604,5.81935 -1.400579,8.72737 3.339402,4.65991 6.658584,9.34813 9.958137,14.06296 z m -2.807094,15.96288 c 0.527712,-2.92108 1.04809,-5.84356 1.560915,-8.76742 -3.279352,-4.72881 -6.577984,-9.43169 -9.896486,-14.10693 -0.488014,2.90623 -0.983888,5.81137 -1.487403,8.71542 3.293573,4.6934 6.5677,9.41362 9.822974,14.15893 z m -2.952847,15.93535 c 0.553677,-2.91606 1.100421,-5.83349 1.640012,-8.75231 -3.235987,-4.75842 -6.490478,-9.49241 -9.764066,-14.20026 -0.515896,2.90226 -1.039251,5.80343 -1.569845,8.70353 3.249773,4.72493 6.480875,9.47519 9.693899,14.24904 z m -3.090626,15.90794 c 0.578181,-2.91105 1.14983,-5.82347 1.714728,-8.73727 -3.194651,-4.78607 -6.407032,-9.54921 -9.637734,-14.28772 -0.542317,2.89832 -1.091693,5.79555 -1.647906,8.69171 3.208002,4.75452 6.398109,9.53285 9.570912,14.33328 z m -3.220431,15.88067 c 0.601224,-2.90607 1.196319,-5.8135 1.785063,-8.7223 -3.155345,-4.81176 -6.327645,-9.6021 -9.517491,-14.36931 -0.567279,2.8944 -1.141215,5.78773 -1.721587,8.67998 3.168262,4.78214 6.319403,9.58659 9.454015,14.41163 z m -3.342309,15.85365 c 0.385459,-1.79529 0.768658,-3.59108 1.149605,-5.38735 0.234675,-1.10653 0.468498,-2.21325 0.701457,-3.32017 -3.118068,-4.83549 -6.252316,-9.65107 -9.403336,-14.44501 -0.590779,2.8905 -1.187815,5.77994 -1.790885,8.66832 1.731014,2.65843 3.457031,5.32323 5.17815,7.9941 1.391512,2.15941 2.779857,4.32278 4.165009,6.49011 z m -3.459823,15.82766 c 0.644455,-2.89644 1.28297,-5.79422 1.915568,-8.69331 -3.082162,-4.85829 -6.180438,-9.69671 -9.294519,-14.51536 -0.612927,2.88658 -1.231699,5.77186 -1.856336,8.65581 3.094499,4.83112 6.173031,9.68205 9.235287,14.55286 z m -3.577877,15.80096 c 0.666151,-2.89144 1.326321,-5.78428 1.980533,-8.6785 -3.045823,-4.88106 -6.108054,-9.74221 -9.186386,-14.58355 -0.634273,2.88175 -1.27443,5.76214 -1.920493,8.64114 3.058481,4.85377 6.100699,9.72737 9.126346,14.62091 z m -3.696737,15.77312 c 0.687994,-2.88624 1.369966,-5.77394 2.04594,-8.66306 -3.008992,-4.90375 -6.034689,-9.78755 -9.076782,-14.65148 -0.655765,2.8767 -1.317455,5.75199 -1.985092,8.62584 3.021973,4.87631 6.027386,9.77251 9.015934,14.6887 z m -3.816404,15.7441 c 0.709985,-2.88082 1.413908,-5.76315 2.111791,-8.64697 -2.971672,-4.92636 -5.960343,-9.83271 -8.965706,-14.71916 -0.677405,2.87146 -1.360776,5.74143 -2.050134,8.60991 2.984973,4.89877 5.953092,9.81748 8.904049,14.75622 z m -3.936877,15.71395 c 0.03289,-0.12915 0.06576,-0.2583 0.09862,-0.38745 0.698715,-2.74618 1.391864,-5.49379 2.079468,-8.24281 -2.933861,-4.94887 -5.885016,-9.8777 -8.853159,-14.78656 -0.699193,2.86598 -1.404392,5.73044 -2.115619,8.59333 2.851836,4.76146 5.687617,9.54162 8.507065,14.34057 0.09456,0.16095 0.189104,0.32192 0.283627,0.48292 z m -4.065288,15.68248 c 0.758168,-2.8689 1.508215,-5.7399 2.251203,-8.61257 -1.808415,-3.10707 -3.624749,-6.20504 -5.447704,-9.29573 -1.094451,-1.85554 -2.191351,-3.70826 -3.290682,-5.55817 -0.374457,1.48525 -0.750543,2.97008 -1.128264,4.45448 -0.349707,1.37426 -0.700734,2.74786 -1.053197,4.12076 2.909521,4.94203 5.800839,9.90323 8.668644,14.89123 z m -4.232636,15.6438 c 0.09394,-0.3366 0.187522,-0.6731 0.280845,-1.0096 0,0 0,0 0,0 0.597959,-2.1557 1.186801,-4.3133 1.770306,-6.4715 0.09996,-0.3698 0.199776,-0.7395 0.299437,-1.1094 -2.843377,-5.0021 -5.712922,-9.9748 -8.603323,-14.92546 -0.744086,2.85066 -1.495259,5.69806 -2.254582,8.54186 1.0618,1.8402 2.120288,3.6839 3.175193,5.5315 0,0 0,0 1e-6,0 1.54844,2.7121 3.090083,5.4293 4.61798,8.1618 0.238456,0.4264 0.476573,0.8532 0.714143,1.2808 z m -7.706279,-17.9867 c -0.652858,2.4655 -1.311548,4.9283 -1.976763,7.3883 -0.102757,0.38 -0.205621,0.7597 -0.308614,1.1393 1.273425,2.224 2.542032,4.4506 3.801955,6.6853 0.390905,0.6933 0.781363,1.3861 1.170467,2.0796 m -1.866884,-1.1206 c -0.255435,-0.4525 -0.511263,-0.9051 -0.767231,-1.3581 -0.908855,-1.6085 -1.822138,-3.213 -2.738399,-4.8157 -0.319445,1.1709 -0.640377,2.3395 -0.963422,3.5054 m 7.280409,5.3481 c 1.205016,0.081 2.396415,0.1757 3.585802,0.289 0.06125,-0.022 0.122475,-0.044 0.183686,-0.065 0.04012,-0.1421 0.08006,-0.2841 0.119864,-0.426 0.156459,-0.5574 0.311706,-1.1148 0.466254,-1.672 0,0 0,0 0,0 0.186831,-0.6735 0.372772,-1.3473 0.557938,-2.0211 -1.054617,-1.8778 -2.11494,-3.749 -3.17871,-5.617 -1.778929,-3.1237 -3.568147,-6.2361 -5.366352,-9.339 m 4.044343,-15.57345 c -0.728919,2.85793 -1.46368,5.71296 -2.205345,8.56476 2.894647,4.94869 5.768997,9.91889 8.61774,14.91799 0.769121,-2.8662 1.529435,-5.7347 2.282003,-8.605 -2.877531,-4.98229 -5.777434,-9.93903 -8.694398,-14.87775 z m 3.920025,-15.62168 c -0.706974,2.86399 -1.419969,5.72643 -2.139007,8.58729 1.467301,2.46501 2.930286,4.93503 4.388917,7.41006 1.458062,2.47408 2.911858,4.95291 4.360727,7.43742 0.512447,-1.98815 1.021601,-3.97707 1.527816,-5.96667 0.225358,-0.88573 0.450137,-1.77161 0.674338,-2.65764 -2.9203,-4.95685 -5.857999,-9.89364 -8.812791,-14.81046 z m 3.800379,-15.65257 c -0.685135,2.86953 -1.376249,5.73757 -2.073365,8.60408 2.971701,4.90675 5.926442,9.83344 8.863917,14.78017 0.717839,-2.87884 1.429601,-5.75922 2.13531,-8.6411 -2.958286,-4.93437 -5.933676,-9.84872 -8.925862,-14.74315 z m 3.681534,-15.68225 c -0.663442,2.87486 -1.332823,5.74829 -2.008165,8.62025 3.008874,4.88431 6.001085,9.78852 8.976325,14.71274 0.695795,-2.88434 1.385555,-5.77015 2.069301,-8.65741 -2.995781,-4.9118 -6.008371,-9.80363 -9.037461,-14.67558 z m 3.563495,-15.71076 c -0.641896,2.87998 -1.289692,5.75858 -1.943408,8.63577 3.045558,4.86179 6.074747,9.74344 9.087261,14.64504 0.6739,-2.88961 1.341804,-5.78065 2.003736,-8.67308 -3.032785,-4.88914 -6.082084,-9.75835 -9.147589,-14.60773 z m 3.446264,-15.73813 c -0.6205,2.88489 -1.246857,5.76845 -1.879095,8.65067 3.081751,4.83918 6.147428,9.69817 9.196726,14.57708 0.652151,-2.89469 1.298348,-5.79074 1.938613,-8.68812 -3.069299,-4.8664 -6.154817,-9.71291 -9.256244,-14.53963 z m 3.32904,-15.7636 c -0.598783,2.88912 -1.203679,5.77718 -1.814467,8.66419 0.266524,0.41175 0.53293,0.82365 0.799219,1.2357 2.848475,4.40782 5.683733,8.83218 8.505539,13.27316 0.630551,-2.89955 1.255188,-5.8004 1.873934,-8.70252 -0.596407,-0.93025 -1.1934,-1.85977 -1.790979,-2.78856 -2.513855,-3.90716 -5.038167,-7.80145 -7.573246,-11.68197 z m 3.207268,-15.78518 c -0.575801,2.89301 -1.158116,5.78495 -1.746725,8.67583 3.154622,4.79148 6.292399,9.60474 9.413922,14.43806 0.609065,-2.9043 1.212143,-5.80997 1.809013,-8.717 -3.14186,-4.82042 -6.300399,-9.61995 -9.47621,-14.39689 z m 3.077802,-15.80645 c -0.551359,2.89692 -1.109633,5.79276 -1.674602,8.68753 3.193641,4.76456 6.369662,9.5524 9.528655,14.3618 0.586541,-2.90927 1.166693,-5.81992 1.740235,-8.73194 -3.180444,-4.79542 -6.378343,-9.56846 -9.594288,-14.31739 z m 2.940362,-15.82788 c -0.525457,2.90086 -1.05823,5.80063 -1.598099,8.69932 3.23469,4.73568 6.450986,9.49614 9.649478,14.27966 0.562555,-2.91427 1.118321,-5.82992 1.667076,-8.74695 -3.221059,-4.76847 -6.460347,-9.51305 -9.718455,-14.23203 z m 2.794948,-15.84943 c -0.498094,2.90482 -1.003905,5.80855 -1.517214,8.71118 3.277768,4.70484 6.536367,9.43596 9.776388,14.19165 0.53711,-2.9193 1.067029,-5.83998 1.589537,-8.76205 -3.263703,-4.73955 -6.546409,-9.45372 -9.848711,-14.14078 z m 2.64156,-15.87112 c -0.46927,2.9088 -0.94666,5.81651 -1.431948,8.72312 3.322876,4.67203 6.625808,9.37186 9.909387,14.09775 0.510204,-2.92435 1.012817,-5.85008 1.507616,-8.77721 -3.308376,-4.70869 -6.63653,-9.39048 -9.985055,-14.04366 z m 2.4802,-15.89295 c -0.438987,2.91281 -0.886494,5.82452 -1.342301,8.73513 3.370013,4.63727 6.719307,9.30384 10.048474,13.99798 0.481838,-2.92942 0.955683,-5.86023 1.421314,-8.79245 -3.355078,-4.67586 -6.73071,-9.32332 -10.127487,-13.94066 z m 2.311433,-15.91763 c -0.407756,2.91728 -0.824281,5.83391 -1.24886,8.74984 0.05224,0.0703 0.104476,0.14063 0.156706,0.21095 3.3663,4.53121 6.711766,9.09224 10.036963,13.68147 0.452012,-2.93451 0.895629,-5.87043 1.330631,-8.80776 -0.892723,-1.21722 -1.786914,-2.43239 -2.682582,-3.64546 -2.5194,-3.41232 -5.050155,-6.80943 -7.592858,-10.18904 z m 2.134891,-15.93451 c -0.373468,2.91951 -0.757007,5.83844 -1.149901,8.75676 3.47024,4.5621 6.917569,9.15863 10.343466,13.78389 0.421226,-2.93957 0.834014,-5.88078 1.237649,-8.82361 -3.453978,-4.60575 -6.930558,-9.18001 -10.431214,-13.71704 z m 1.934752,-15.94587 c -0.334445,2.92144 -0.680261,5.84239 -1.036734,8.7628 3.526967,4.51494 7.028898,9.06938 10.507271,13.6576 0.388142,-2.94543 0.766543,-5.89243 1.134491,-8.84096 -3.509791,-4.56495 -7.044308,-9.09334 -10.605028,-13.57944 z m 1.708758,-15.95564 c -0.290686,2.92309 -0.594045,5.84576 -0.90936,8.76798 3.589764,4.46091 7.152369,8.96639 10.689291,13.51072 0.35032,-2.951 0.6896,-5.9035 1.017125,-8.85744 -3.571676,-4.51729 -7.170202,-8.99295 -10.797056,-13.42126 z m 1.456907,-15.96381 c -0.242192,2.92444 -0.498357,5.84854 -0.76778,8.77227 3.658635,4.40003 7.287985,8.84969 10.889526,13.34326 0.307765,-2.95628 0.603187,-5.91397 0.885554,-8.87303 -3.639632,-4.46277 -7.308239,-8.87884 -11.0073,-13.2425 z m 1.179201,-15.97039 c -0.188962,2.92549 -0.393198,5.85074 -0.611993,8.77569 3.733577,4.33228 7.435743,8.71926 11.107976,13.15522 0.260473,-2.96127 0.507302,-5.92388 0.739775,-8.88777 -3.713659,-4.40138 -7.45842,-8.751 -11.235758,-13.04314 z m 0.875639,-15.97538 c -0.130997,2.92626 -0.278568,5.85235 -0.442,8.77823 3.81459,4.25768 7.595645,8.57512 11.344641,12.9466 0.208445,-2.96597 0.401946,-5.9332 0.579789,-8.90162 -3.793758,-4.33314 -7.620743,-8.60945 -11.48243,-12.82321 z m 0.548379,-15.98401 c -0.02615,1.07736 -0.05437,2.15465 -0.08466,3.23185 -0.05145,1.85114 -0.10994,3.70224 -0.175299,5.55328 3.901675,4.17621 7.76769,8.41725 11.59952,12.71739 0.151683,-2.97038 0.28712,-5.94193 0.405598,-8.9146 -2.849829,-3.12754 -5.718729,-6.2217 -8.607287,-9.28019 -1.043835,-1.10663 -2.089802,-2.20919 -3.137872,-3.30773 z m 0.238346,-16.01208 c -0.01647,2.93346 -0.0477,5.86653 -0.09398,8.79909 3.416398,3.52147 6.811407,7.08439 10.18404,10.69003 0.558603,0.59733 1.116469,1.19597 1.673602,1.7959 0.01774,-0.58505 0.0348,-1.17015 0.05117,-1.75529 0.06661,-2.38868 0.123203,-4.77751 0.169919,-7.16643 -3.965755,-4.17785 -7.961195,-8.29827 -11.984754,-12.3633 z m -0.05492,-16.01997 c 0.03627,2.93456 0.05831,5.86892 0.06584,8.80296 4.0566,4.03284 8.085853,8.12032 12.086194,12.26447 0.03326,-2.974 0.05146,-5.94805 0.0549,-8.92206 -4.041529,-4.10354 -8.111028,-8.15132 -12.206932,-12.14537 z m -0.337558,-16.02411 c 0.08706,2.93498 0.160428,5.86993 0.219819,8.80477 4.127322,3.96264 8.229012,7.97825 12.303504,12.04887 -0.02058,-2.97385 -0.05568,-5.94757 -0.105018,-8.92104 -4.113701,-4.03095 -8.253658,-8.0078 -12.418305,-11.9326 z m -0.60956,-16.02447 c 0.135901,2.93469 0.258651,5.86956 0.367955,8.8045 4.194443,3.89415 8.364967,7.83961 12.510008,11.83842 -0.07247,-2.97301 -0.158935,-5.9457 -0.259091,-8.91795 -4.182271,-3.96007 -8.389083,-7.86772 -12.618872,-11.72497 z M 78.84088,592.2214 c 0.182796,2.93373 0.352977,5.86782 0.510248,8.80217 4.25796,3.82739 8.493717,7.70441 12.705705,11.63311 -0.122418,-2.97148 -0.25829,-5.94244 -0.407321,-8.91279 -4.247239,-3.89091 -8.517305,-7.73106 -12.808632,-11.52249 z m -1.121662,-16.01391 c 0.227745,2.93207 0.443409,5.86469 0.646698,8.79776 4.317877,3.76234 8.615265,7.57264 12.890598,11.43295 -0.170416,-2.96926 -0.35375,-5.93781 -0.549709,-8.90555 -4.308605,-3.82347 -8.638322,-7.59784 -12.987587,-11.32516 z M 76.357455,560.2045 c 0.270746,2.92973 0.529946,5.8602 0.777306,8.7913 4.374192,3.699 8.729608,7.44429 13.064684,11.23793 -0.216466,-2.96635 -0.445315,-5.9318 -0.686254,-8.89625 -4.366368,-3.75774 -8.752136,-7.46805 -13.155736,-11.13298 z m -1.59123,-15.98829 c 0.311799,2.92669 0.612588,5.85431 0.902071,8.78276 4.426904,3.63737 8.836748,7.31938 13.227965,11.04807 -0.260569,-2.96275 -0.532985,-5.92442 -0.816956,-8.88489 -4.420531,-3.69372 -8.858746,-7.34169 -13.31308,-10.94594 z m -1.809954,-15.97122 c 0.180251,1.50301 0.357833,3.00618 0.532648,4.50952 0.165267,1.42109 0.328023,2.84244 0.488236,4.26402 4.476015,3.57747 8.936683,7.19791 13.380439,10.86335 -0.302723,-2.95846 -0.616759,-5.91565 -0.941815,-8.87145 -2.810781,-2.28292 -5.627873,-4.54842 -8.450887,-6.79699 -1.667549,-1.32839 -3.337109,-2.65111 -5.008621,-3.96845 z m -2.010947,-15.96005 c 0.38516,2.92216 0.761484,5.84479 1.128272,8.76796 4.356678,3.39667 8.70097,6.82743 13.031841,10.29737 0.1629,0.13052 0.325781,0.26111 0.488642,0.39175 -0.01721,-0.14819 -0.03444,-0.29638 -0.0517,-0.44457 -0.326733,-2.80489 -0.662799,-5.60834 -1.007601,-8.41041 -4.516715,-3.57174 -9.046917,-7.10388 -13.589452,-10.6021 z M 68.758765,496.3341 c 0.415008,2.92074 0.822452,5.8418 1.221633,8.76325 4.559301,3.47833 9.107092,6.98828 13.642218,10.53554 -0.378426,-2.94764 -0.76596,-5.89383 -1.161905,-8.83863 -4.556039,-3.51935 -9.123739,-7.00417 -13.701946,-10.46016 z M 66.42188,480.38959 c 0.440225,2.91984 0.874158,5.83986 1.3011,8.76013 4.592447,3.43927 9.17521,6.90508 13.747134,10.40312 -0.409267,-2.94259 -0.826371,-5.88387 -1.250613,-8.8239 -4.589756,-3.474 -9.189348,-6.91856 -13.797621,-10.33935 z m -2.461926,-15.94107 c 0.46081,2.91948 0.916602,5.83899 1.366675,8.7586 4.619986,3.40724 9.232116,6.83595 13.835232,10.29182 -0.435478,-2.93806 -0.87752,-5.87496 -1.325428,-8.81076 -4.617868,-3.43569 -9.243747,-6.84701 -13.876479,-10.23966 z m -2.561683,-15.9405 c 0.476766,2.91964 0.949784,5.83916 1.418357,8.75864 4.641921,3.38227 9.27781,6.78092 13.906512,10.20165 -0.457057,-2.93406 -0.919407,-5.8671 -1.38635,-8.7992 -4.640374,-3.40442 -9.286932,-6.78956 -13.938519,-10.16109 z m -2.636153,-15.94283 c 0.48809,2.92033 0.973704,5.84039 1.456145,8.76028 4.658249,3.36432 9.312293,6.73996 13.960975,10.1326 -0.474005,-2.93059 -0.952031,-5.86031 -1.433378,-8.78922 -4.657274,-3.3802 -9.318907,-6.7462 -13.983742,-10.10366 z M 56.07678,416.61715 c 0.494782,2.92155 0.988362,5.84269 1.48004,8.7635 4.668971,3.35343 9.335564,6.7131 13.99862,10.08469 -0.486323,-2.92766 -0.975394,-5.85458 -1.466515,-8.78084 -4.668568,-3.36302 -9.339668,-6.71691 -14.012145,-10.06735 z m -2.709239,-15.95613 c 0.496844,2.92329 0.993758,5.84604 1.490042,8.76831 4.674088,3.34957 9.347623,6.70031 14.019448,10.05789 -0.49401,-2.92525 -0.989496,-5.8499 -1.485758,-8.77404 -4.674256,-3.35288 -9.349219,-6.7017 -14.023732,-10.05216 z m -2.706495,-15.97475 c 0.493167,2.92756 0.988159,5.85411 1.484263,8.77971 2.722917,1.95485 5.446164,3.90756 8.169493,5.85928 1.951422,1.39849 3.902948,2.79688 5.854494,4.19557 -0.287213,-1.68916 -0.574493,-3.37818 -0.861706,-5.06706 -0.209731,-1.23382 -0.419345,-2.46762 -0.628791,-3.70141 -4.673779,-3.35011 -9.346781,-6.70354 -14.017753,-10.06609 z m -2.670241,-15.99499 c 0.02803,0.1697 1.433107,8.62144 1.461134,8.79114 4.66711,3.36982 9.337116,6.72821 14.008768,10.08094 -0.494064,-2.92236 -0.986594,-5.84472 -1.476876,-8.76716 -4.667464,-3.3579 -9.332223,-6.72428 -13.993026,-10.10492 z m -2.60815,-16.01782 c 0.470423,2.93593 0.945268,5.87057 1.423823,8.80401 4.654324,3.39112 9.313473,6.76565 13.976194,10.12938 -0.486116,-2.92262 -0.9694,-5.84536 -1.449136,-8.76832 -4.655342,-3.37279 -9.306054,-6.75922 -13.950881,-10.16507 z m -2.520247,-16.04324 c 0.451959,2.94082 0.909641,5.88023 1.37233,8.8183 4.635733,3.41952 9.278217,6.8173 13.926201,10.19913 -0.47344,-2.92335 -0.942749,-5.84696 -1.407212,-8.77091 -4.637416,-3.39479 -9.268273,-6.80837 -13.891319,-10.24652 z m -2.406532,-16.0713 c 0.428769,2.9462 0.864558,5.89085 1.306654,8.83404 4.611335,3.45503 9.23135,6.88316 13.858791,10.29019 -0.456037,-2.92455 -0.906644,-5.8495 -1.351106,-8.77492 -4.613683,-3.4239 -9.21888,-6.87174 -13.814339,-10.34931 z m -2.267005,-16.10195 c 0.40085,2.95205 0.81002,5.90243 1.226796,8.8512 4.581132,3.49765 9.172871,6.96325 13.773964,10.40259 -0.433906,-2.92624 -0.861084,-5.85301 -1.280818,-8.78038 -4.584144,-3.46012 -9.157876,-6.94933 -13.719942,-10.47341 z m -2.101666,-16.13522 c 0.368205,2.95839 0.746028,5.91496 1.132755,8.86981 4.545124,3.54736 9.102782,7.05752 13.67172,10.53628 -0.407048,-2.92841 -0.806069,-5.85747 -1.196347,-8.78727 -4.5488,-3.50344 -9.08526,-7.04111 -13.608128,-10.61882 z m -1.910514,-16.1711 c 0.330832,2.9652 0.67258,5.92845 1.024531,8.88985 4.50331,3.60418 9.02108,7.16602 13.552059,10.69129 -0.375463,-2.93105 -0.741599,-5.86289 -1.097694,-8.7956 -4.50765,-3.55385 -9.001033,-7.14711 -13.478896,-10.78554 z m -1.691502,-16.21 c 0.287954,2.97188 0.588137,5.9423 0.900251,8.91114 1.131684,0.93198 2.264492,1.86088 3.398396,2.78674 3.330034,2.71864 6.66901,5.41166 10.016409,8.08147 -0.33915,-2.93417 -0.667673,-5.86927 -0.984858,-8.80536 -0.104981,-0.085 -0.209954,-0.17001 -0.314918,-0.25505 -4.354952,-3.52792 -8.693921,-7.10027 -13.01528,-10.71894 z m -1.448913,-16.24014 c 0.242456,2.97677 0.497682,5.95231 0.765382,8.92649 4.400303,3.73648 8.819921,7.42365 13.257106,11.06353 -0.297886,-2.93758 -0.583878,-5.87629 -0.857677,-8.81599 -4.407451,-3.67583 -8.796303,-7.39984 -13.164811,-11.17403 z m -1.195112,-16.26457 c 0.194987,2.98082 0.403285,5.96065 0.624598,8.93935 4.341572,3.80548 8.704334,7.56005 13.08654,11.26571 -0.253604,-2.94125 -0.494773,-5.88339 -0.723208,-8.82629 -4.350367,-3.74246 -8.680259,-7.53471 -12.98793,-11.37877 z m -0.930549,-16.28445 c 0.145546,2.98405 0.304946,5.96733 0.477901,8.94971 4.279009,3.87605 8.581084,7.69956 12.90448,11.47254 -0.207352,-2.94407 -0.401727,-5.88881 -0.582827,-8.83408 -4.289452,-3.81064 -8.556552,-7.67269 -12.799554,-11.58817 z m -0.655226,-16.29976 c 0.09413,2.98644 0.202665,5.97234 0.325292,8.95756 4.212615,3.94816 8.450172,7.84217 12.710926,11.68403 -0.159129,-2.94607 -0.304739,-5.89257 -0.436533,-8.83938 -4.224705,-3.88037 -8.425182,-7.81377 -12.599685,-11.80221 z m -0.369138,-16.31052 c 0.04075,2.98799 0.09644,5.97567 0.166769,8.96291 4.142388,4.02182 8.311596,7.98787 12.505877,11.90016 -0.108935,-2.94723 -0.203809,-5.89466 -0.284326,-8.84217 -4.156126,-3.95165 -8.286148,-7.95794 -12.38832,-12.0209 z m -0.07229,-16.31672 c -0.0146,2.98871 -0.01372,5.97733 0.0023,8.96575 4.068332,4.09704 8.165359,8.13668 12.289335,12.12095 -0.05677,-2.94756 -0.09894,-5.89509 -0.126205,-8.84247 -4.083717,-4.02447 -8.139453,-8.10521 -12.165463,-12.24423 z m 0.23532,-16.31838 c -0.07193,2.98859 -0.127832,5.97734 -0.168016,8.9661 3.990442,4.1738 8.011457,8.28859 12.061298,12.34638 -0.0026,-2.94705 0.0099,-5.89384 0.03783,-8.84026 -4.007477,-4.09885 -7.985096,-8.25559 -11.931111,-12.47222 z m 0.553691,-16.31548 c -0.131221,2.98765 -0.245881,5.97567 -0.344278,8.96394 3.908723,4.25212 7.849894,8.4436 11.821768,12.57647 0.05347,-2.94571 0.122633,-5.89093 0.207775,-8.83554 -3.927404,-4.17478 -7.823074,-8.40907 -11.685265,-12.70487 z m 0.88169,-16.30317 c -0.191615,2.98426 -0.366614,5.96955 -0.525112,8.95567 1.921132,2.17608 3.850992,4.33696 5.789342,6.4827 1.918859,2.12416 3.845996,4.23317 5.781195,6.32727 0.07681,-2.02688 0.161322,-4.05342 0.25362,-6.07958 0.04168,-0.91641 0.08493,-1.83274 0.129749,-2.74899 -3.843886,-4.25236 -7.654115,-8.56459 -11.428794,-12.93707 z m 1.212027,-16.282433 c -0.252479,2.979802 -0.488132,5.961013 -0.707075,8.943423 3.734467,4.40691 7.505291,8.75353 11.31058,13.04024 0.170531,-2.94058 0.357338,-5.88008 0.560534,-8.81829 -3.757426,-4.32837 -7.479403,-8.716698 -11.164039,-13.165373 z m 1.54642,-16.254452 c -0.314104,2.974002 -0.611173,5.949783 -0.891323,8.927139 3.643125,4.482743 7.324398,8.905098 11.041928,13.267447 0.230154,-2.935963 0.476792,-5.870472 0.74003,-8.803324 C 39.465659,85.73827 35.834816,81.274643 32.243108,76.750575 Z m 1.884969,-16.219094 c -0.37649,2.966851 -0.735736,5.935851 -1.077854,8.906798 3.548898,4.557773 7.137738,9.055061 10.764626,13.492244 0.290538,-2.929996 0.597769,-5.858169 0.921808,-8.784313 -3.575858,-4.477958 -7.112682,-9.016074 -10.60858,-13.614729 z m 2.22543,-16.177664 c -0.439906,2.960378 -0.860878,5.922076 -1.264845,8.884348 0.433962,0.581886 0.868549,1.162805 1.30374,1.742784 3.027152,4.036591 6.086025,8.026905 9.175355,11.971199 0.351683,-2.922681 0.720267,-5.843165 1.10587,-8.761251 C 46.144972,57.49961 45.617258,56.806933 45.090493,56.112865 42.14942,52.236068 39.234902,48.319072 36.353507,44.353817 Z M 38.95514,28.207824 c -0.515204,2.953099 -1.007968,5.908877 -1.480219,8.866587 3.346168,4.714674 6.743643,9.35743 10.181661,13.94148 0.413206,-2.914315 0.843273,-5.825087 1.29213,-8.731571 -3.381737,-4.623169 -6.716516,-9.31093 -9.993572,-14.076496 z m 3.047606,-16.092759 c -0.603266,2.940878 -1.180586,5.885792 -1.733886,8.833996 3.214936,4.809701 6.492856,9.536769 9.822994,14.194418 0.480966,-2.898949 0.9823,-5.792997 1.50593,-8.681398 -3.260568,-4.702628 -6.462502,-9.480563 -9.595038,-14.347016 z m 3.563271,-16.0125286 c -0.704092,2.92371122 -1.378732,5.8528175 -2.025846,8.7865726 3.05952,4.9153924 6.193699,9.737439 9.391771,14.479353 0.56149,-2.878639 1.146856,-5.75102 1.758023,-8.616395 C 51.574752,5.9593144 48.529848,1.0805415 45.566017,-3.8974636 Z m 4.208716,-15.9374454 c -0.847729,2.910033 -1.647862,5.827352 -2.409195,8.748045 1.49972,2.6397527 3.02943,5.2438589 4.58153,7.8207654 1.415189,2.34959667 2.848735,4.6770958 4.29947,6.9839305 0.432256,-1.8836761 0.876444,-3.76403263 1.333121,-5.640855 C 57.814756,-2.8889365 58.053,-3.8533929 58.294738,-4.8162388 55.349333,-9.705596 52.491633,-14.692146 49.774733,-19.834909 Z M 54.943661,-35.6462 c -0.896056,2.412866 -1.728905,4.830271 -2.518101,7.240581 -0.156369,0.476013 -0.311213,0.952328 -0.464573,1.428928 2.567801,5.231512 5.301976,10.285551 8.14943,15.221136 0.766827,-2.807691 1.571108,-5.598231 2.421637,-8.367707 -1.069038,-1.983948 -2.115368,-3.990589 -3.135682,-6.023604 -1.552434,-3.095804 -3.054408,-6.246695 -4.452711,-9.499334 z m 6.974103,-15.624944 c -0.815837,1.464056 -1.547798,2.925333 -2.219995,4.358435 -0.668992,1.388132 -1.305787,2.784078 -1.914315,4.185498 1.996328,5.559867 4.390424,10.767022 6.940248,15.83372 0.93089,-2.73052 1.906793,-5.419659 2.96125,-8.04746 -1.452613,-3.236839 -2.788264,-6.565242 -3.946131,-10.038544 -0.68409,-2.026528 -1.323874,-4.108105 -1.821057,-6.291649 z m 15.313682,-14.187627 c -1.61344,0.290016 -3.046433,0.831958 -4.260768,1.56086 0,0 0,0 0,0 -2.125682,1.245379 -3.801113,2.700306 -5.090386,4.158216 0,0 -10e-7,0 -10e-7,0 -0.444652,0.494365 -0.872385,0.994803 -1.284316,1.50014 0.01991,6.118961 1.809896,11.296977 3.631135,16.364017 0.07563,0.202119 0.151885,0.403772 0.228745,0.604973 0.06448,-0.134413 0.129256,-0.268604 0.194345,-0.40257 1.199259,-2.399977 2.3736,-4.672326 3.676535,-6.655367 -0.602182,-2.102136 -1.033498,-4.273554 -1.159056,-6.578642 0,0 0,-10e-7 0,-10e-7 -0.118694,-2.13126 0.0094,-4.392628 1.056754,-6.775166 0,0 0,0 10e-7,-1e-6 0.602071,-1.33814 1.552595,-2.655444 3.007012,-3.776459 z m 18.421473,12.090692 c -1.287052,-2.13519 -2.777489,-4.251317 -4.548316,-6.272641 -0.619773,-0.719768 -1.332528,-1.439937 -2.146655,-2.136244 -1.365361,-0.132858 -2.743575,-0.160479 -4.062035,-0.02801 -2.100547,0.168961 -4.129064,0.93605 -5.377167,2.160424 -10e-7,10e-7 -10e-7,10e-7 -10e-7,10e-7 -1.249186,1.225679 -1.67522,2.811337 -1.75205,4.222018 -0.07415,0.942365 0.01511,1.879704 0.172987,2.810759 0.36534,-0.324069 0.699143,-0.573586 1.010442,-0.719439 0.416832,-0.162793 0.646108,-0.301794 0.571328,-0.21892 0,0 0,0 0,0 -0.06334,-0.05307 0.03116,0.01018 0.240143,0.112274 0.211033,-0.272556 0.477534,-0.523521 0.784902,-0.749992 0,0 0,0 0,0 1.470407,-0.967817 3.559993,-1.193115 5.724267,-1.087234 3.054933,0.153902 6.232327,0.889758 9.382155,1.907006 z m 7.205311,15.669815 c -1.08194,-2.891241 -2.26212,-5.771981 -3.574548,-8.623542 -0.180937,-0.07378 -0.361932,-0.147008 -0.542984,-0.219675 -5.244153,-2.091255 -10.81465,-4.017689 -15.83284,-4.019022 1.479273,1.833152 2.739427,4.058567 3.968528,6.491271 1.300371,0.372281 2.61526,0.804549 3.930455,1.268329 4.034663,1.415269 8.060394,3.161319 12.051389,5.102639 z m 5.14569,15.82799 c -0.5984,-2.081598 -1.22185,-4.159364 -1.8736,-6.231993 -0.25814,-0.823557 -0.5212,-1.647936 -0.78996,-2.472705 -5.1495,-2.736029 -10.3657,-5.263811 -15.588739,-7.269034 1.082149,2.588808 2.072972,5.244721 3.00647,7.949062 2.470975,1.161731 4.938691,2.407376 7.396389,3.701453 2.62724,1.383165 5.24397,2.827842 7.84944,4.323217 z m 4.13467,15.9444109 c -0.68761,-2.925987 -1.40813,-5.8509759 -2.1704,-8.7713979 -4.96682,-3.003737 -9.973352,-5.850414 -15.014143,-8.46162 0.851771,2.760589 1.654588,5.542679 2.417288,8.342701 4.955485,2.794149 9.879725,5.783725 14.767255,8.8903169 z m 3.47052,16.0093651 c -0.5868,-2.9395003 -1.19923,-5.8752697 -1.83922,-8.8066431 -2.2367,-1.46952721 -4.47994,-2.9153734 -6.7297,-4.3358671 -2.61401,-1.6505008 -5.23719,-3.2662099 -7.868678,-4.8349549 0.522863,2.1030861 1.027538,4.2144773 1.517658,6.3327046 0.16871,0.72937354 0.33559,1.45923584 0.50068,2.18957575 4.83572,3.03834625 9.64223,6.19570425 14.41926,9.45518475 z m 2.96102,16.082687 c -0.49995,-2.950877 -1.02201,-5.899234 -1.5681,-8.844405 -4.73164,-3.321824 -9.49188,-6.548545 -14.28041,-9.6632723 0.60111,2.8634953 1.17644,5.7337283 1.72794,8.6100333 4.73416,3.20141 9.44111,6.506255 14.12057,9.897644 z m 2.52186,16.132769 c -0.42594,-2.957845 -0.87045,-5.914382 -1.33547,-8.868944 -4.63928,-3.44313 -9.30513,-6.806734 -13.99729,-10.073923 0.51372,2.885816 1.00518,5.777159 1.47634,8.673363 4.64409,3.340942 9.26299,6.76974 13.85642,10.269504 z m 2.15299,16.160847 c -0.13383,-1.087686 -0.26987,-2.175125 -0.40813,-3.262305 -0.23801,-1.873532 -0.48233,-3.746927 -0.73345,-5.620015 -4.55842,-3.540903 -9.14142,-7.017858 -13.7487,-10.413975 0.43915,2.90373 0.85957,5.811775 1.26321,8.723472 3.35471,2.540112 6.6969,5.119247 10.02646,7.730706 1.20185,0.942774 2.40206,1.890156 3.60061,2.842117 z m 1.82799,16.194574 c -0.30519,-2.968999 -0.62656,-5.936487 -0.96426,-8.902282 -3.84767,-3.11298 -7.71303,-6.178571 -11.59537,-9.195837 -0.64464,-0.501142 -1.28973,-1.00101 -1.93527,-1.499555 0.0744,0.574925 0.14817,1.149972 0.22139,1.725133 0.29773,2.342042 0.585,4.685426 0.86188,7.03006 4.4943,3.549572 8.96521,7.164227 13.41163,10.842481 z m 1.50618,16.224598 c -0.24668,-2.973893 -0.50931,-5.946608 -0.78802,-8.917962 -4.41349,-3.717358 -8.85183,-7.371799 -13.31393,-10.961839 0.31849,2.923184 0.62097,5.848156 0.90756,8.774732 4.4227,3.638614 8.82119,7.340798 13.19439,11.105069 z m 1.18906,16.248023 c -0.18903,-2.97758 -0.39377,-5.95431 -0.61436,-8.930016 -4.34005,-3.802103 -8.70576,-7.5428 -13.09604,-11.220608 0.26063,2.929086 0.50548,5.859627 0.73468,8.791442 4.35062,3.72483 8.67623,7.511722 12.97572,11.359182 z m 0.87665,16.26484 c -0.13224,-2.98005 -0.27996,-5.95959 -0.44329,-8.93844 -4.26613,-3.88402 -8.55874,-7.70815 -12.87673,-11.4709 0.20363,2.93378 0.39171,5.86868 0.56439,8.80453 4.27807,3.80822 8.53031,7.67698 12.75563,11.60481 z m 0.55579,16.28218 c -0.0716,-2.98229 -0.15953,-5.96462 -0.26422,-8.94686 -2.102,-1.9914 -4.21164,-3.96689 -6.32894,-5.926 -2.10158,-1.9448 -4.20979,-3.87493 -6.3245,-5.79021 0.1017,2.02528 0.19611,4.05093 0.2833,6.07689 0.0393,0.91152 0.077,1.8231 0.11313,2.73475 4.20385,3.88668 8.37752,7.83834 12.52123,11.85143 z m 0.23103,16.28235 c -0.0135,-2.98183 -0.0426,-5.96389 -0.0876,-8.94607 -4.10769,-4.04897 -8.24504,-8.03797 -12.41228,-11.96344 0.089,2.93723 0.16163,5.87506 0.21823,8.81338 4.12333,3.97148 8.21716,8.0047 12.28169,12.09613 z m -0.0787,16.27787 c 0.0418,-2.98065 0.0689,-5.96173 0.0807,-8.94312 -4.02977,-4.12517 -8.08854,-8.19359 -12.17651,-12.20173 0.0306,2.93906 0.0456,5.87851 0.0453,8.81826 4.04561,4.05153 8.06238,8.16158 12.05053,12.32659 z m -0.37331,16.26948 c 0.0944,-2.97876 0.1748,-5.95813 0.24068,-8.93802 -3.95464,-4.19662 -7.9376,-8.33973 -11.94911,-12.42578 -0.025,2.94016 -0.0649,5.88053 -0.1193,8.82099 3.97068,4.12684 7.91318,8.30896 11.82773,12.54281 z m -0.65286,16.25718 c 0.14425,-2.97615 0.2752,-5.95311 0.39242,-8.93078 -3.88231,-4.26333 -7.79227,-8.47637 -11.7301,-12.63558 -0.0779,2.94055 -0.16989,5.8811 -0.27564,8.82156 3.89853,4.1974 7.76957,8.44685 11.61332,12.7448 z m -0.91736,16.24096 c 0.19132,-2.97282 0.37008,-5.94665 0.53588,-8.92139 -3.81276,-4.32528 -7.65251,-8.60351 -11.51946,-12.83115 -0.12798,2.94022 -0.26936,5.88026 -0.42371,8.81999 3.82919,4.26321 7.63155,8.57524 11.40729,12.93255 z m -1.16678,16.22081 c 0.23562,-2.96877 0.45944,-5.93875 0.67106,-8.90983 -3.74601,-4.38249 -7.51834,-8.72117 -11.31719,-13.01248 -0.17534,2.93918 -0.36331,5.87797 -0.5635,8.81626 3.76263,4.32428 7.4991,8.69415 11.20963,13.10605 z m -1.40114,16.19677 c 0.27716,-2.96401 0.54329,-5.92942 0.79796,-8.89614 -3.68205,-4.43495 -7.38975,-8.82932 -11.1233,-13.17957 -0.21994,2.93742 -0.45174,5.87425 -0.695,8.81039 3.69886,4.38061 7.37224,8.80356 11.02034,13.26532 z m -1.62006,16.16839 c 0.13546,-1.27029 0.26912,-2.54087 0.40093,-3.81174 0.17519,-1.68887 0.34698,-3.37826 0.51529,-5.06813 -3.62089,-4.48268 -7.26675,-8.928 -10.93779,-13.33243 -0.26177,2.93494 -0.53465,5.8691 -0.81823,8.80237 2.50932,3.05719 5.00682,6.13299 7.49259,9.22624 1.11799,1.39118 2.23371,2.78579 3.34721,4.18369 z m -1.81557,16.13684 c 0.34888,-2.95281 0.68916,-5.90705 1.0202,-8.86277 -3.21811,-4.08346 -6.45397,-8.14067 -9.70921,-12.16804 -0.35116,-0.43436 -0.70254,-0.86837 -1.05416,-1.30202 -0.0405,0.39511 -0.0813,0.79021 -0.12219,1.18528 -0.26284,2.53687 -0.53327,5.07321 -0.81087,7.60907 3.58052,4.47966 7.13852,8.99411 10.67623,13.53848 z m -1.98632,16.10875 c 0.378,-2.94792 0.7486,-5.89712 1.11113,-8.84767 -3.51662,-4.55997 -7.05229,-9.09191 -10.60926,-13.59093 -0.33611,2.92986 -0.68127,5.85916 -1.03483,8.78796 3.53004,4.52123 7.04028,9.07307 10.53296,13.65064 z m -2.13369,16.08338 c 0.40285,-2.94352 0.79947,-5.88819 1.1892,-8.83407 -3.47452,-4.59084 -6.96538,-9.15784 -10.47481,-13.69611 -0.36691,2.92803 -0.74168,5.85563 -1.12368,8.78287 3.4861,4.55765 6.95512,9.14171 10.40929,13.74731 z m -2.25766,16.06074 c 0.42341,-2.93963 0.84177,-5.88026 1.25442,-8.82197 -3.43896,-4.61654 -6.89154,-9.21343 -10.35998,-13.7858 -0.39342,2.9267 -0.79352,5.85311 -1.19968,8.77929 3.44871,4.58889 6.88304,9.20002 10.30524,13.82848 z m -2.35824,16.04083 c 0.4397,-2.93623 0.87551,-5.87333 1.30679,-8.81136 -3.40993,-4.63709 -6.83077,-9.25871 -10.26476,-13.86 -0.41564,2.92587 -0.83679,5.85158 -1.26281,8.7772 3.41784,4.61498 6.82402,9.248 10.22078,13.89416 z m -2.43541,16.02365 c 0.45169,-2.93333 0.90067,-5.8674 1.3463,-8.80226 -3.38745,-4.65246 -6.78308,-9.29365 -10.18915,-13.91869 -0.43357,2.92553 -0.87149,5.85105 -1.31309,8.77661 3.39351,4.6359 6.77807,9.28564 10.15594,13.94434 z m -2.48919,16.0092 c 0.45939,-2.93094 0.91726,-5.86247 1.37295,-8.79466 -3.37149,-4.66267 -6.74846,-9.31826 -10.133142,-13.96189 -0.447228,2.9257 -0.897619,5.85151 -1.350524,8.77752 3.375716,4.65165 6.745206,9.31295 10.110716,13.97903 z m -2.51958,15.99747 c 0.46282,-2.92904 0.92528,-5.85853 1.38675,-8.78856 -3.36207,-4.66771 -6.726907,-9.33253 -10.096745,-13.98959 -0.456596,2.92637 -0.915178,5.85298 -1.375098,8.77993 3.364462,4.66224 6.725413,9.32994 10.085093,13.99822 z m -2.52416,15.98942 c 0.46114,-2.92822 0.9233,-5.85652 1.38582,-8.78496 -1.34852,-1.87317 -2.69684,-3.74659 -4.04511,-5.61995 -2.011296,-2.79451 -4.022929,-5.58879 -6.035381,-8.38179 -0.38258,2.42595 -0.765714,4.85217 -1.149035,7.2787 -0.07933,0.50177 -0.15866,1.00355 -0.23799,1.50535 3.35934,4.66819 6.71916,9.33735 10.081696,14.00265 z m -2.50391,15.98786 c 0.0366,-0.23565 1.33526,-8.54891 1.3719,-8.78456 -0.72555,-1.00501 -9.362738,-12.99461 -10.088287,-13.99962 -0.462536,2.93003 -0.924514,5.86082 -1.385294,8.79245 3.363298,4.66868 6.729778,9.3342 10.101681,13.99173 z m -2.460652,15.98927 c 0.445295,-2.92875 0.893931,-5.85728 1.345269,-8.78568 -3.378239,-4.65236 -6.749841,-9.31458 -10.117042,-13.98182 -0.458386,2.93306 -0.91505,5.86702 -1.369353,8.80196 3.373744,4.66409 6.753374,9.32088 10.141126,13.96554 z m -2.394243,15.99348 c 0.431013,-2.92977 0.866532,-5.85919 1.305917,-8.78834 -3.397015,-4.6372 -6.784689,-9.2884 -10.165259,-13.94876 -0.449999,2.9366 -0.897111,5.87424 -1.340697,8.813 3.390678,4.65442 6.789945,9.29739 10.200039,13.9241 z M 93.03818,478.0092 c 0.412493,-2.93131 0.830656,-5.86213 1.25385,-8.79253 -3.422279,-4.61696 -6.832514,-9.25205 -10.232941,-13.90044 -0.437373,2.94065 -0.870694,5.88248 -1.299325,8.82558 3.4141,4.63965 6.839493,9.26372 10.278416,13.86739 z m -2.192004,16.01027 c 0.389735,-2.93336 0.786304,-5.86608 1.189068,-8.79825 -3.454032,-4.59164 -6.893316,-9.20553 -10.320089,-13.83687 -0.420508,2.94522 -0.8358,5.89175 -1.245237,8.83969 3.444011,4.6198 6.902018,9.21988 10.376258,13.79543 z m -2.05617,16.02285 c 0.362737,-2.93592 0.733474,-5.87106 1.111569,-8.80551 -3.492272,-4.56122 -6.967094,-9.14883 -10.426701,-13.75803 -0.399404,2.95029 -0.792428,5.90204 -1.178432,8.85533 3.480409,4.59486 6.977518,9.16587 10.493564,13.70821 z m -1.897193,16.03822 c 0.331501,-2.93899 0.672166,-5.87707 1.021354,-8.81431 -3.537002,-4.52571 -7.053849,-9.08196 -10.552777,-13.66392 -0.374062,2.95587 -0.74058,5.91334 -1.098913,8.8725 3.523296,4.56484 7.065996,9.10169 10.630336,13.60573 z m -1.714568,16.05609 c 0.245699,-2.44462 0.498551,-4.88849 0.758321,-7.33156 0.05292,-0.49762 0.106119,-0.99521 0.159596,-1.49278 -3.588218,-4.48512 -7.153579,-9.00492 -10.698318,-13.55457 -0.344481,2.96196 -0.680254,5.92567 -1.006678,8.89121 1.428333,1.81096 2.860199,3.61678 4.295742,5.41716 2.155097,2.70311 4.318858,5.39354 6.491337,8.07054 z m -1.50932,16.07636 c 0.256675,-2.94616 0.524453,-5.89141 0.802927,-8.83565 -3.645935,-4.43885 -7.267356,-8.91636 -10.864519,-13.4291 -0.310606,2.96906 -0.610937,5.93982 -0.900584,8.91219 3.629332,4.48895 7.283306,8.94095 10.962176,13.35256 z m -1.288647,16.09437 c 0.214909,-2.94912 0.441662,-5.89752 0.679854,-8.8451 -3.706505,-4.38824 -7.387798,-8.81829 -11.044136,-13.2867 -0.271854,2.97492 -0.532689,5.95135 -0.782101,8.9292 3.690038,4.44211 7.405414,8.84412 11.146383,13.2026 z m -1.053239,16.10878 c 0.170444,-2.95143 0.353475,-5.90232 0.548684,-8.85257 -3.769857,-4.33304 -7.513807,-8.71104 -11.232105,-13.13054 -0.230401,2.98011 -0.449044,5.96156 -0.65552,8.94424 3.753527,4.39067 7.533089,8.73811 11.338941,13.03887 z m -0.803095,16.11957 c 0.12328,-2.95308 0.259889,-5.90579 0.409418,-8.85805 -3.835995,-4.27326 -7.645385,-8.59461 -11.428427,-12.96061 -0.18625,2.98464 -0.36,5.97043 -0.520843,8.95728 3.819801,4.33464 7.666333,8.62292 11.539852,12.86138 z m -0.538217,16.12675 c 0.07342,-2.95406 0.160907,-5.90794 0.262057,-8.86155 -3.904916,-4.20889 -7.782531,-8.46901 -11.6331,-12.77692 -0.139401,2.98851 -0.26556,5.97798 -0.37807,8.96833 3.888857,4.27404 7.805144,8.49857 11.749113,12.67014 z m -0.258602,16.13032 c 0.02086,-2.95439 0.05653,-5.90878 0.106598,-8.86307 -3.976621,-4.13993 -7.925244,-8.33424 -11.846125,-12.57947 -0.08985,2.99171 -0.165721,5.98422 -0.2272,8.97741 3.960699,4.20884 7.949523,8.36503 11.966727,12.46513 z m 0.03575,16.13026 c -0.0344,-2.95404 -0.05325,-5.90827 -0.05696,-8.86258 -4.05111,-4.06639 -8.073526,-8.1903 -12.067502,-12.36827 -0.0376,2.99426 -0.06048,5.98913 -0.06823,8.9845 4.035324,4.13906 8.09947,8.22233 12.192693,12.24635 z m 0.344833,16.12661 c -0.09236,-2.95304 -0.168427,-5.90645 -0.228608,-8.86013 -4.128383,-3.98826 -8.227375,-8.03717 -12.297231,-12.14329 0.01734,2.99614 0.05015,5.99271 0.09883,8.9896 4.112733,4.06469 8.254985,8.07044 12.42701,12.01382 z m 0.670903,16.11549 c -0.153991,-2.9501 -0.29104,-5.90096 -0.410636,-8.85252 -0.910634,-0.8447 -1.819878,-1.69255 -2.727714,-2.54359 -3.28759,-3.08193 -6.556738,-6.20258 -9.807567,-9.36029 0.07499,2.99736 0.16618,5.99497 0.273988,8.99272 0.256441,0.24377 0.512996,0.4873 0.769663,0.73061 3.941318,3.73756 7.909282,7.4142 11.902266,11.03307 z m 1.006052,16.09929 c -0.213962,-2.94701 -0.411914,-5.89494 -0.593345,-8.84371 -4.288605,-3.8153 -8.549867,-7.69469 -12.781821,-11.64198 0.137534,2.99802 0.292405,5.99461 0.464099,8.98969 4.276309,3.89685 8.580653,7.72758 12.911067,11.496 z m 1.324238,16.0809 c -0.270543,-2.94336 -0.526007,-5.8878 -0.765881,-8.83323 -4.363482,-3.73084 -8.701938,-7.52254 -13.013404,-11.3789 0.198941,2.99255 0.414287,5.98353 0.645526,8.97284 4.352857,3.80805 8.731432,7.55321 13.133759,11.23929 z m 1.623911,16.05948 c -0.323733,-2.93916 -0.633319,-5.87955 -0.928246,-8.82108 -4.432966,-3.65025 -8.843223,-7.35812 -13.228806,-11.12742 0.256958,2.98653 0.529388,5.97133 0.81678,8.95432 4.424012,3.72311 8.871424,7.38657 13.340272,10.99418 z m 1.90507,16.035 c -0.373532,-2.93439 -0.733848,-5.87017 -1.080438,-8.80725 -4.497056,-3.57353 -8.973721,-7.20144 -13.428029,-10.88754 0.311583,2.97995 0.637708,5.95802 0.977862,8.93412 4.489773,3.64204 9.00063,7.22766 13.530605,10.76067 z m 2.167717,16.00749 c -0.41994,-2.92908 -0.827597,-5.85969 -1.222458,-8.79176 -4.555754,-3.50066 -9.093433,-7.05248 -13.611072,-10.65926 0.362818,2.97282 0.739246,5.9436 1.128772,8.91226 4.550141,3.56484 9.119049,7.07649 13.704758,10.53876 z m 2.411851,15.97693 c -0.462959,-2.92321 -0.914565,-5.8481 -1.354307,-8.7746 -4.609058,-3.43166 -9.202358,-6.91125 -13.777935,-10.44256 0.410662,2.96512 0.834003,5.92805 1.26951,8.88871 4.605116,3.4915 9.226682,6.93305 13.862732,10.32845 z m 2.637471,15.94332 c -0.502586,-2.91677 -0.994751,-5.83538 -1.475983,-8.75575 -4.656969,-3.36654 -9.300497,-6.77776 -13.928619,-10.23748 0.455116,2.95687 0.921978,5.9114 1.400076,8.8635 4.654698,3.42203 9.323528,6.79733 14.004526,10.12973 z m 2.846988,15.9017 c -0.540339,-2.90899 -1.070388,-5.8198 -1.58995,-8.7324 -2.092023,-1.46896 -4.182004,-2.94806 -6.269882,-4.43744 -2.601534,-1.85464 -5.199376,-3.72256 -7.793188,-5.60441 0.381031,2.26391 0.768441,4.52635 1.161997,6.78728 0.11919,0.68451 0.238953,1.36891 0.359286,2.0532 4.700273,3.36271 9.411077,6.67347 14.131737,9.93377 z m 3.051309,15.86489 c -0.577143,-2.90231 -1.144354,-5.80648 -1.701436,-8.71249 -4.737977,-3.2285 -9.466467,-6.50689 -14.184797,-9.83665 0.535758,2.94528 1.081944,5.88849 1.63836,8.82961 4.739805,3.29002 9.489321,6.52937 14.247873,9.71953 z m 3.248704,15.82803 c -0.61264,-2.89549 -1.21571,-5.79287 -1.80901,-8.69213 -4.774983,-3.15908 -9.541294,-6.36677 -14.298263,-9.62456 0.573063,2.93767 1.156195,5.87324 1.749201,8.80666 4.777357,3.21892 9.563607,6.38843 14.358072,9.51003 z m 3.43899,15.79038 c -0.64684,-2.88852 -1.28447,-5.77898 -1.91269,-8.67135 -4.809997,-3.09123 -9.61215,-6.22979 -14.405781,-9.41718 0.609065,2.92991 1.227842,5.85768 1.856135,8.78327 4.812931,3.14938 9.633936,6.25064 14.462336,9.30526 z m 3.62217,15.75193 c -0.67974,-2.88141 -1.35063,-5.76479 -2.01246,-8.65012 -4.84304,-3.02497 -9.679058,-6.09599 -14.507372,-9.21455 0.643766,2.92201 1.296885,5.84183 1.959162,8.75944 4.84653,3.08143 9.70031,6.11601 14.56067,9.10523 z m 3.79823,15.71268 c -0.71134,-2.87415 -1.41417,-5.75031 -2.10831,-8.62846 -4.87412,-2.96027 -9.74202,-5.96533 -14.603035,-9.01665 0.677163,2.91397 1.363323,5.8257 2.058282,8.73518 4.878143,3.01505 9.762723,5.98453 14.653063,8.90993 z m 3.96719,15.67262 c -0.74163,-2.86673 -1.47512,-5.73552 -2.20027,-8.60635 -4.9032,-2.89716 -9.80101,-5.83782 -14.69275,-8.82348 0.70926,2.90577 1.42716,5.80927 2.15349,8.71048 4.90779,2.95025 9.82119,5.8562 14.73953,8.71935 z m 4.56397,15.51111 c -0.86007,-2.83429 -1.72012,-5.66853 -2.58016,-8.50273 -1.6096,-0.88806 -3.21981,-1.77805 -4.83064,-2.66999 -3.3653,-1.95508 -6.72837,-3.93007 -10.08899,-5.92546 0.69962,2.73915 1.40665,5.47624 2.12091,8.21124 0.0472,0.15559 0.0945,0.31118 0.14168,0.46677 5.0852,2.82606 10.16427,5.63278 15.2372,8.42017 z m 4.69612,15.47563 c -0.86013,-2.83445 -1.72024,-5.66886 -2.58033,-8.50323 -5.06931,-2.77599 -10.14476,-5.57131 -15.22635,-8.38597 0.86451,2.84827 1.72903,5.69658 2.59356,8.54494 5.07718,2.80075 10.14821,5.58217 15.21312,8.34426 z m 4.69639,15.47653 c -0.86017,-2.83462 -1.72033,-5.6692 -2.58048,-8.50372 -5.06128,-2.75069 -10.1287,-5.52071 -15.20225,-8.31006 0.86455,2.84843 1.72913,5.69691 2.59372,8.54543 5.06914,2.77545 10.13214,5.53156 15.18901,8.26835 z m 4.69668,15.47742 c -0.86022,-2.83478 -1.72044,-5.66952 -2.58063,-8.50421 -5.05325,-2.72539 -10.11264,-5.4701 -15.17816,-8.23415 0.86461,2.8486 1.72923,5.69724 2.59387,8.54592 5.06111,2.75015 10.11609,5.48096 15.16492,8.19244 z m 4.69697,15.47832 c -0.86028,-2.83495 -1.72054,-5.66985 -2.58079,-8.50471 -5.04522,-2.70008 -10.09658,-5.41949 -15.15407,-8.15823 0.86467,2.84876 1.72934,5.69757 2.59404,8.54642 5.05307,2.72484 10.10001,5.43034 15.14082,8.11652 z m 4.69725,15.47921 c -0.86033,-2.83511 -1.72065,-5.67017 -2.58095,-8.50519 -5.03719,-2.67478 -10.08051,-5.36889 -15.12997,-8.08232 0.86472,2.84892 1.72945,5.69789 2.59419,8.54691 5.04505,2.69953 10.08396,5.3797 15.11673,8.0406 z m 4.69754,15.4801 c -0.86039,-2.8353 -1.72076,-5.6705 -2.58111,-8.5057 -5.02916,-2.6494 -10.06445,-5.3182 -15.10587,-8.0064 0.86477,2.8491 1.72955,5.6982 2.59434,8.5474 5.03702,2.6743 10.06789,5.3292 15.09264,7.9647 z"
       style="fill:#c87137;fill-opacity:1;stroke:#000000;stroke-width:1.03852;stroke-miterlimit:4;stroke-dasharray:none;stroke-opacity:1"
       inkscape:label="bre5"
       class="UnoptimicedTransforms" />
  </g>
</svg>
