<?xml version="1.0" encoding="UTF-8" standalone="no"?>
<!-- Created with Inkscape (http://www.inkscape.org/) -->

<svg
   width="240mm"
   height="37.98037mm"
   viewBox="0 0 850.3937 134.57611"
   id="svg2"
   version="1.1"
   inkscape:version="0.92.5 (2060ec1f9f, 2020-04-08)"
   sodipodi:docname="wi-all.svg"
   inkscape:export-filename="/home/fred/Dropbox/svg/entremet/wienerbrød/2.png"
   inkscape:export-xdpi="90"
   inkscape:export-ydpi="90"
   xmlns:inkscape="http://www.inkscape.org/namespaces/inkscape"
   xmlns:sodipodi="http://sodipodi.sourceforge.net/DTD/sodipodi-0.dtd"
   xmlns="http://www.w3.org/2000/svg"
   xmlns:svg="http://www.w3.org/2000/svg"
   xmlns:rdf="http://www.w3.org/1999/02/22-rdf-syntax-ns#"
   xmlns:cc="http://creativecommons.org/ns#"
   xmlns:dc="http://purl.org/dc/elements/1.1/">
  <defs
     id="defs4">
    <linearGradient
       id="linearGradient56905"
       inkscape:swatch="solid">
      <stop
         style="stop-color:#923c3c;stop-opacity:1;"
         offset="0"
         id="stop56903" />
    </linearGradient>
  </defs>
  <sodipodi:namedview
     id="base"
     pagecolor="#ffffff"
     bordercolor="#666666"
     borderopacity="1.0"
     inkscape:pageopacity="1"
     inkscape:pageshadow="2"
     inkscape:zoom="0.125"
     inkscape:cx="2429.4412"
     inkscape:cy="7952.729"
     inkscape:document-units="mm"
     inkscape:current-layer="layer1"
     showgrid="true"
     inkscape:window-width="1880"
     inkscape:window-height="1016"
     inkscape:window-x="40"
     inkscape:window-y="27"
     inkscape:window-maximized="1"
     showguides="false"
     inkscape:guide-bbox="true"
     inkscape:lockguides="true"
     inkscape:snap-global="true"
     inkscape:snap-bbox="true"
     inkscape:snap-nodes="true"
     objecttolerance="10000"
     guidetolerance="10000"
     inkscape:pagecheckerboard="false"
     inkscape:showpageshadow="2"
     inkscape:deskcolor="#d1d1d1">
    <inkscape:grid
       type="xygrid"
       id="grid5214"
       units="mm"
       spacingx="17.716535"
       spacingy="17.716535"
       originx="0"
       originy="0"
       empspacing="10"
       dotted="false" />
    <sodipodi:guide
       position="4400.8516,360.91373"
       orientation="1,0"
       id="guide61746"
       inkscape:locked="true" />
    <sodipodi:guide
       position="4560.3004,431.77987"
       orientation="0,1"
       id="guide61750"
       inkscape:locked="true" />
    <sodipodi:guide
       position="3515.8827,1049.9747"
       orientation="0,1"
       id="guide4470"
       inkscape:locked="true" />
    <sodipodi:guide
       position="-1826.6213,1657.4896"
       orientation="1,0"
       id="guide5403"
       inkscape:locked="true" />
    <sodipodi:guide
       position="-5788.3546,-908.91513"
       orientation="1,0"
       id="guide8722"
       inkscape:locked="true" />
  </sodipodi:namedview>
  <metadata
     id="metadata7">
    <rdf:RDF>
      <cc:Work
         rdf:about="">
        <dc:format>image/svg+xml</dc:format>
        <dc:type
           rdf:resource="http://purl.org/dc/dcmitype/StillImage" />
        <dc:title />
      </cc:Work>
    </rdf:RDF>
  </metadata>
  <g
     inkscape:label="layer1"
     inkscape:groupmode="layer"
     id="layer1"
     transform="translate(-1469.3177,-1507.7379)">
    <g
       id="fro6"
       transform="matrix(1.3575997,0,0,1.3575997,8561.09,430.2107)"
       inkscape:export-filename="/home/fred/Dropbox/svg/entremet/wienerbrød/g4065.png"
       inkscape:export-xdpi="90"
       inkscape:export-ydpi="90"
       inkscape:label="fro6">
      <path
         sodipodi:nodetypes="scscs"
         inkscape:connector-curvature="0"
         id="rect4050"
         d="m -5193.5107,798.22386 c 168.6119,8.10906 595.0707,0 595.0707,0 0,0 4.6275,92.30911 -17.1898,91.87252 -144.838,-2.89837 -606.5026,-3.42619 -606.5026,-3.42619 0,0 -5.0468,-90.06555 28.6217,-88.44633 z"
         style="fill:#808080;fill-opacity:1;stroke:none;stroke-width:9.49448;stroke-linecap:round;stroke-linejoin:round;stroke-miterlimit:4;stroke-dasharray:none;stroke-opacity:1" />
      <path
         inkscape:connector-curvature="0"
         id="path3973"
         d="m -5221.5229,815.87977 c 8.3952,-16.46492 19.8103,-22.13836 44.625,-22.17905 20.8591,-0.0344 24.4665,1.72134 20.6611,10.05491 -3.8927,8.52458 -64.2099,87.20579 -65.8035,85.83789 -1.3053,-1.12048 -1.7177,-9.61786 -1.7177,-35.40237 0,-28.73798 0.3419,-34.5985 2.2351,-38.31138 z"
         style="fill:#ffeeaa;stroke-width:1.91011" />
      <path
         inkscape:connector-curvature="0"
         id="path3969"
         d="m -5194.6229,882.1937 c 4.3801,-8.472 55.8317,-75.06441 61.1947,-79.20269 5.3341,-4.11588 8.0446,-4.70889 21.7416,-4.75654 16.324,-0.0567 18.5322,1.15641 15.1691,8.33398 -0.965,2.05929 -13.8345,19.93802 -28.5991,39.7305 -33.2861,44.62139 -33.793,45.02808 -55.1231,44.22083 -15.6752,-0.59322 -17.7578,-1.79882 -14.3832,-8.32608 z"
         style="fill:#ffeeaa;stroke-width:1.40625" />
      <path
         inkscape:connector-curvature="0"
         id="path3951"
         d="m -5114.0579,855.18193 c 11.503,-15.37062 24.5799,-32.88159 29.0598,-38.91323 11.7214,-15.78123 16.6296,-18.19281 35.4484,-17.4168 12.8326,0.52916 15.4688,1.16456 15.4688,3.72845 0,3.64221 -54.8053,77.78592 -61.8493,83.67327 -3.9567,3.30691 -7.4195,3.93925 -21.5726,3.93925 -15.0206,0 -16.8927,-0.38524 -17.1645,-3.53218 -0.2266,-2.62388 5.0732,-10.71878 20.6094,-31.47876 z"
         style="fill:#ffeeaa;stroke-width:1.40625" />
      <path
         inkscape:connector-curvature="0"
         id="path3917"
         d="m -5072.3657,880.19089 c 1.2482,0 14.5294,-16.50017 29.7657,-36.97994 17.8078,-23.93643 29.6133,-38.44471 33.4699,-41.13282 4.8985,-3.41433 8.6816,-4.15287 21.2728,-4.15287 15.2738,0 17.7279,1.14035 15.493,7.19927 -0.5672,1.53765 -8.3027,12.57922 -17.1901,24.53688 -8.8873,11.95764 -21.0104,28.33348 -26.9401,36.39075 -16.2182,22.03729 -17.8685,23.07733 -38.9062,24.51933 -11.4284,0.78336 -18.0594,0.46494 -18.5013,-0.88841 -1.5133,-4.63449 -0.7271,-9.49219 1.5363,-9.49219 z"
         style="fill:#ffeeaa;stroke-width:1.40625" />
      <path
         inkscape:connector-curvature="0"
         id="path3903"
         d="m -4989.054,851.87843 c 12.79,-17.10393 25.629,-34.3437 28.5311,-38.31059 9.3607,-12.79543 14.8465,-15.36759 32.7758,-15.36759 14.9037,0 15.854,0.23823 15.854,3.97409 0,2.9691 -7.1717,13.56526 -28.3594,41.90094 -15.5976,20.85976 -30.948,39.97768 -34.112,42.48424 -5.166,4.09269 -7.3635,4.49832 -21.5505,3.97799 -13.8283,-0.5072 -15.835,-1.01466 -16.0958,-4.07021 -0.2197,-2.57394 5.8099,-11.65858 22.9568,-34.58887 z"
         style="fill:#ffeeaa;stroke-width:1.40625" />
      <path
         inkscape:connector-curvature="0"
         id="path3891"
         d="m -4922.1821,844.1529 c 21.4613,-28.64881 30.8519,-40.03381 34.9663,-42.39222 3.673,-2.10541 10.766,-3.36 20.4398,-3.61528 14.4157,-0.3804 17.6817,0.88353 16.202,6.27028 -0.6483,2.36013 -47.401,65.65914 -56.1037,75.95933 -7.5998,8.99497 -13.3893,11.00578 -29.782,10.34397 -12.4561,-0.50288 -14.5232,-1.06136 -14.7731,-3.99144 -0.2113,-2.47815 7.7071,-14.08293 29.0507,-42.57464 z"
         style="fill:#ffeeaa;stroke-width:1.40625" />
      <path
         inkscape:connector-curvature="0"
         id="path3875"
         d="m -4646.5568,884.73299 c 0.8215,-1.52877 12.2261,-17.16139 25.3437,-34.739 l 23.8501,-31.95913 v 29.1319 29.13209 l -4.4932,5.10614 c -8.9344,10.15309 -13.6977,11.93706 -30.205,11.31228 -15.4154,-0.58352 -17.7739,-1.88265 -14.4956,-7.98428 z"
         style="fill:#ffeeaa;stroke-width:1.40393" />
      <path
         inkscape:connector-curvature="0"
         id="path3969-2"
         d="m -4827.3532,882.19364 c 4.3801,-8.47192 55.8317,-75.06427 61.1947,-79.2027 5.3341,-4.1157 8.0446,-4.7088 21.7416,-4.7565 16.3239,-0.0562 18.5321,1.1565 15.1691,8.334 -0.9651,2.05943 -13.8345,19.93815 -28.5991,39.7305 -33.2861,44.62133 -33.793,45.02813 -55.1231,44.22083 -15.6752,-0.5931 -17.7578,-1.79888 -14.3832,-8.32613 z"
         style="fill:#ffeeaa;stroke-width:1.40625" />
      <path
         inkscape:connector-curvature="0"
         id="path3969-0"
         d="m -4888.5651,882.19364 c 4.3801,-8.47192 55.8317,-75.06427 61.1947,-79.2027 5.3341,-4.1157 8.0446,-4.7088 21.7416,-4.7565 16.324,-0.0562 18.5322,1.1565 15.1691,8.334 -0.965,2.05943 -13.8345,19.93815 -28.5991,39.7305 -33.2861,44.62133 -33.793,45.02813 -55.1231,44.22083 -15.6752,-0.5931 -17.7578,-1.79888 -14.3832,-8.32613 z"
         style="fill:#ffeeaa;stroke-width:1.40625" />
      <path
         inkscape:connector-curvature="0"
         id="path3969-23"
         d="m -4766.1414,882.1937 c 4.3801,-8.47192 55.8317,-75.06439 61.1947,-79.20282 5.3341,-4.1157 8.0446,-4.7088 21.7416,-4.7565 16.324,-0.0562 18.5322,1.1565 15.1691,8.334 -0.965,2.05943 -13.8345,19.93815 -28.5991,39.7305 -33.2861,44.62145 -33.793,45.02825 -55.1231,44.22095 -15.6752,-0.5931 -17.7578,-1.79888 -14.3832,-8.32613 z"
         style="fill:#ffeeaa;stroke-width:1.40625" />
      <path
         inkscape:connector-curvature="0"
         id="path3969-7"
         d="m -4704.93,882.19363 c 4.3801,-8.47193 55.8317,-75.06428 61.1947,-79.2027 5.3341,-4.1157 8.0446,-4.7088 21.7416,-4.7565 16.324,-0.0562 18.5322,1.1565 15.1691,8.334 -0.965,2.05942 -13.8345,19.93815 -28.5991,39.7305 -33.2861,44.62135 -33.793,45.02815 -55.1231,44.22085 -15.6752,-0.5931 -17.7578,-1.79887 -14.3832,-8.32615 z"
         style="fill:#ffeeaa;stroke-width:1.40625" />
    </g>
  </g>
</svg>
