<?xml version="1.0" encoding="UTF-8" standalone="no"?>
<!-- Created with Inkscape (http://www.inkscape.org/) -->

<svg
   width="151.19604mm"
   height="85.215866mm"
   viewBox="0 0 535.73402 301.94597"
   id="svg2"
   version="1.1"
   inkscape:version="0.92.5 (2060ec1f9f, 2020-04-08)"
   sodipodi:docname="wi-all.svg"
   inkscape:export-filename="/home/fred/Dropbox/svg/entremet/wienerbrød/2.png"
   inkscape:export-xdpi="90"
   inkscape:export-ydpi="90"
   xmlns:inkscape="http://www.inkscape.org/namespaces/inkscape"
   xmlns:sodipodi="http://sodipodi.sourceforge.net/DTD/sodipodi-0.dtd"
   xmlns="http://www.w3.org/2000/svg"
   xmlns:svg="http://www.w3.org/2000/svg"
   xmlns:rdf="http://www.w3.org/1999/02/22-rdf-syntax-ns#"
   xmlns:cc="http://creativecommons.org/ns#"
   xmlns:dc="http://purl.org/dc/elements/1.1/">
  <defs
     id="defs4">
    <linearGradient
       id="linearGradient56905"
       inkscape:swatch="solid">
      <stop
         style="stop-color:#923c3c;stop-opacity:1;"
         offset="0"
         id="stop56903" />
    </linearGradient>
  </defs>
  <sodipodi:namedview
     id="base"
     pagecolor="#ffffff"
     bordercolor="#666666"
     borderopacity="1.0"
     inkscape:pageopacity="1"
     inkscape:pageshadow="2"
     inkscape:zoom="0.125"
     inkscape:cx="2429.4412"
     inkscape:cy="7952.729"
     inkscape:document-units="mm"
     inkscape:current-layer="layer1"
     showgrid="true"
     inkscape:window-width="1880"
     inkscape:window-height="1016"
     inkscape:window-x="40"
     inkscape:window-y="27"
     inkscape:window-maximized="1"
     showguides="false"
     inkscape:guide-bbox="true"
     inkscape:lockguides="true"
     inkscape:snap-global="true"
     inkscape:snap-bbox="true"
     inkscape:snap-nodes="true"
     objecttolerance="10000"
     guidetolerance="10000"
     inkscape:pagecheckerboard="false"
     inkscape:showpageshadow="2"
     inkscape:deskcolor="#d1d1d1">
    <inkscape:grid
       type="xygrid"
       id="grid5214"
       units="mm"
       spacingx="17.716535"
       spacingy="17.716535"
       originx="0"
       originy="0"
       empspacing="10"
       dotted="false" />
    <sodipodi:guide
       position="4400.8516,360.91373"
       orientation="1,0"
       id="guide61746"
       inkscape:locked="true" />
    <sodipodi:guide
       position="4560.3004,431.77987"
       orientation="0,1"
       id="guide61750"
       inkscape:locked="true" />
    <sodipodi:guide
       position="3515.8827,1049.9747"
       orientation="0,1"
       id="guide4470"
       inkscape:locked="true" />
    <sodipodi:guide
       position="-1826.6213,1657.4896"
       orientation="1,0"
       id="guide5403"
       inkscape:locked="true" />
    <sodipodi:guide
       position="-5788.3546,-908.91513"
       orientation="1,0"
       id="guide8722"
       inkscape:locked="true" />
  </sodipodi:namedview>
  <metadata
     id="metadata7">
    <rdf:RDF>
      <cc:Work
         rdf:about="">
        <dc:format>image/svg+xml</dc:format>
        <dc:type
           rdf:resource="http://purl.org/dc/dcmitype/StillImage" />
        <dc:title />
      </cc:Work>
    </rdf:RDF>
  </metadata>
  <g
     inkscape:label="layer1"
     inkscape:groupmode="layer"
     id="layer1"
     transform="translate(-364.95679,-599.76272)">
    <g
       id="kan4"
       transform="translate(-3574.4507,-493.8503)"
       inkscape:export-filename="/home/fred/Dropbox/svg/entremet/wienerbrød/g4336.png"
       inkscape:export-xdpi="90"
       inkscape:export-ydpi="90"
       inkscape:label="kan4">
      <g
         id="g19361-7-4"
         transform="translate(1906.2351,-46.566715)">
        <path
           style="fill:#c87117;fill-opacity:1;stroke:none;stroke-width:0.9375px;stroke-linecap:butt;stroke-linejoin:miter;stroke-opacity:1"
           d="m 2055.1182,1140.9446 h 496.063 c 0,0 17.2536,90.7148 17.7165,141.7323 0.463,51.0175 -17.7165,159.4488 -17.7165,159.4488 h -496.063"
           id="path19301-2-1"
           inkscape:connector-curvature="0"
           sodipodi:nodetypes="cczcc" />
        <g
           transform="matrix(0.14773776,0,0,1,1679.176,467.04331)"
           id="g19274-9-6-1">
          <path
             inkscape:connector-curvature="0"
             id="path19219-1-0-9"
             d="m 2506.4459,973.46605 c -18.4731,-3.1192 -37.8333,-11.2669 -52.5379,-22.1105 -62.392,-46.0098 -76.6624,-144.0352 -31.044,-213.2456 21.2,-32.1638 53.8442,-54.5543 90.8953,-62.3448 11.5918,-2.4373 33.3598,-3.3871 44.9057,-1.9592 33.7422,4.1727 62.8458,18.777 88.9459,44.6333 16.1371,15.9864 26.6229,29.6648 36.8225,48.0336 28.552,51.421 31.1372,109.9798 6.9809,158.131 -5.353,10.6704 -12.9856,22.6534 -15.5915,24.4787 -3.0845,2.1604 -7.854,1.7461 -10.5133,-0.9132 -3.7121,-3.7121 -3.0678,-7.2795 2.9707,-16.4488 9.6379,-14.6348 16.6546,-31.5289 20.6368,-49.6875 2.6456,-12.0636 2.455,-45.6586 -0.3298,-58.125 -5.9202,-26.5024 -16.787,-49.9859 -33.3419,-72.0525 -33.0832,-44.0979 -76.6243,-65.9519 -123.3249,-61.8989 -17.4783,1.5169 -31.3106,5.5209 -47.037,13.6159 -12.7261,6.5506 -20.8713,12.6113 -31.875,23.7176 -18.996,19.1732 -31.9843,44.1514 -37.698,72.4981 -2.8604,14.1907 -3.0554,42.2233 -0.3929,56.4635 5.1881,27.7482 17.5337,52.0773 35.7016,70.3559 21.1058,21.2344 46.077,31.7167 75.0455,31.5022 28.1516,-0.2085 51.2489,-10.3151 71.3177,-31.2062 20.6154,-21.4603 31.4474,-51.2363 30.1355,-82.8394 -0.7809,-18.8111 -4.065,-31.7532 -12.0137,-47.3437 -9.2186,-18.0814 -23.2029,-32.082 -40.0367,-40.0836 -34.539,-16.4173 -73.5257,-5.7404 -94.7157,25.9391 -9.6065,14.3618 -13.6921,28.6217 -13.588,47.4257 0.082,14.7725 2.0141,23.0754 8.3789,36.0034 7.4602,15.1527 20.9336,26.7199 35.561,30.5299 17.4231,4.5381 37.2568,-0.8187 50.2223,-13.5645 6.8621,-6.7458 9.34,-10.9129 11.5419,-19.4103 1.872,-7.2244 1.8898,-21.3817 0.037,-29.2431 -3.0516,-12.9454 -12.9566,-26.3827 -20.4892,-27.7958 -7.7839,-1.4603 -18.6001,2.8604 -23.6129,9.4324 -2.3535,3.0857 -2.4972,3.7893 -1.9959,9.7695 0.2972,3.5444 1.8565,10.373 3.4652,15.1747 1.7075,5.0965 2.699,9.631 2.382,10.8941 -0.8986,3.58 -3.8995,5.866 -7.7006,5.866 -5.114,0 -7.3826,-2.7382 -10.6061,-12.8011 -5.1346,-16.0293 -5.7155,-26.5783 -1.8752,-34.0519 2.8531,-5.5525 11.17,-12.9881 18.7004,-16.7189 6.7772,-3.3576 7.2874,-3.4594 17.3437,-3.4594 9.4492,0 10.7839,0.223 15.1641,2.5337 10.0126,5.2818 20.7507,20.8533 24.8973,36.1038 1.5264,5.6141 1.996,10.1148 2.0333,19.4875 0.08,20.0701 -4.6407,32.7714 -16.7335,45.0238 -21.5718,21.8564 -54.9257,27.004 -81.881,12.6369 -13.3068,-7.0924 -24.3658,-19.2175 -32.0364,-35.1248 -7.123,-14.7714 -8.8726,-23.0977 -8.8726,-42.2234 0,-13.7376 0.3053,-17.1021 2.2119,-24.375 9.2344,-35.2253 33.5587,-60.3956 67.1405,-69.4756 5.3193,-1.4382 9.6706,-1.7629 22.9688,-1.7137 15.113,0.056 17.0667,0.2628 24.7859,2.6252 9.5089,2.9101 22.7955,9.4799 29.9264,14.7977 7.5719,5.6465 18.8555,17.2959 24.0969,24.8778 14.3912,20.8176 21.6989,45.3537 21.7274,72.9511 0.033,32.1365 -10.0217,60.2839 -30.3529,84.9692 -17.3158,21.0242 -44.8748,36.2816 -72.4659,40.1192 -9.3722,1.3035 -25.3792,1.1289 -34.2803,-0.3741 z"
             style="fill:#c67116;stroke-width:0.9375" />
          <path
             inkscape:connector-curvature="0"
             id="path19251-9-1-6"
             d="m 2545.468,673.14005 c -4.1763,-0.01 -8.6007,0.1492 -12.9383,0.4138 3.0749,-0.094 6.4617,-0.1271 10.3052,-0.1208 6.9858,0.011 11.4537,0.07 15.0988,0.2984 -3.4942,-0.3898 -7.803,-0.583 -12.4657,-0.5914 z m 30.042,3.7207 c 17.4416,4.4407 33.2591,11.4981 47.9499,21.4691 -14.9131,-10.2301 -30.8152,-17.3459 -47.9499,-21.4691 z m -33.2025,12.3632 c -9.5977,0 -19.2114,0.5895 -24.7851,1.7835 -25.2206,5.4016 -46.3551,16.8667 -64.2188,34.834 -18.4652,18.5725 -29.6592,38.2374 -36.4783,64.0906 -16.7953,63.6756 9.2831,131.2184 60.8459,157.5879 29.1234,14.8939 63.1586,15.1734 91.8824,0.7544 23.5852,-11.8397 43.168,-34.9303 51.9324,-61.2342 4.7162,-14.1547 6.0976,-22.83 6.1047,-38.3642 0.013,-29.2287 -8.183,-52.2707 -25.9277,-72.8906 -5.9168,-6.8755 -17.5667,-15.663 -26.3946,-19.9092 -42.0453,-20.223 -91.0264,1.338 -105.3938,46.3935 -3.4032,10.6725 -4.1805,17.1006 -3.7133,30.6959 0.3902,11.3524 0.8038,13.9653 3.4497,21.8041 3.9312,11.6464 9.2982,20.5958 16.9025,28.1836 7.5492,7.5329 14.4794,11.5757 24.0307,14.0186 9.2112,2.3559 16.9197,2.3577 26.1053,0.01 18.5978,-4.7565 32.068,-17.1277 36.1689,-33.219 4.7538,-18.6534 0.3111,-38.8364 -11.3618,-51.6084 -5.8023,-6.3486 -9.8471,-7.7726 -17.633,-6.209 -6.117,1.2284 -14.3059,6.354 -17.0215,10.6548 -2.5449,4.0302 -1.8999,11.77 1.9336,23.2123 1.5671,4.6769 2.8492,9.4872 2.8492,10.6897 0,3.0886 -2.7621,6.0383 -6.2916,6.72 -4.5182,0.8727 -7.9223,-3.0271 -10.9186,-12.5116 -5.6506,-17.8875 -5.6895,-28.3398 -0.1372,-36.4013 10.7105,-15.5513 32.4771,-22.2775 48.0139,-14.8371 10.0154,4.7964 20.9797,20.3091 25.1056,35.5188 3.6258,13.3669 2.6577,33.4561 -2.2376,46.4062 -4.1997,11.11 -16.1411,23.5766 -29.0515,30.3314 -11.4304,5.9806 -18.6185,7.6392 -32.9205,7.5916 -11.6863,-0.039 -13.2862,-0.2639 -20.8704,-2.937 -10.907,-3.8443 -17.3934,-7.8506 -25.5249,-15.7672 -11.1693,-10.8742 -17.7779,-22.1942 -22.5275,-38.584 -4.019,-13.8688 -4.6109,-34.079 -1.4227,-48.6035 11.6038,-52.8623 60.893,-84.2049 112.0733,-71.2646 32.0837,8.1119 58.4112,33.5502 70.6587,68.2745 5.2702,14.9428 6.9786,25.4715 7.0276,43.3026 0.035,12.8807 -0.36,17.9616 -2.06,26.4953 -7.6129,38.2128 -30.9277,70.6903 -61.7853,87.1418 8.1164,-4.2374 15.6288,-9.2915 21.9287,-14.9268 9.2874,-8.3074 14.7186,-9.9645 42.0722,-12.8375 9.4112,-0.9884 18.8851,-2.1958 21.0516,-2.6825 2.1665,-0.4868 4.1239,-0.5847 4.3506,-0.2179 0.1639,0.2654 -0.3566,1.4859 -1.2232,2.9993 0.7418,-1.0199 1.5698,-2.1369 2.6038,-3.5065 5.0476,-6.6855 13.3479,-24.517 16.6882,-35.8521 8.1814,-27.7635 7.4984,-58.6672 -1.9501,-88.2348 -8.2874,-25.9345 -22.9773,-50.3575 -43.2,-71.8268 -22.0361,-23.3944 -45.3643,-37.0256 -74.0461,-43.266 -5.5056,-1.1978 -15.0867,-1.7982 -24.6844,-1.8018 z m -101.184,26.3508 c -0.1772,0.1793 -0.3548,0.358 -0.531,0.5383 0.1753,-0.1803 0.3545,-0.3586 0.531,-0.5383 z m -1.6681,1.7248 c -1.1582,1.2115 -2.3032,2.4377 -3.4223,3.6914 1.1153,-1.2448 2.2599,-2.4724 3.4223,-3.6914 z m -3.4223,3.6914 c -0.1539,0.1725 -0.3046,0.3486 -0.4578,0.5218 0.1538,-0.1731 0.3031,-0.3491 0.4578,-0.5218 z m 219.3952,5.5005 c 1.4418,1.5914 2.8764,3.215 4.3011,4.8816 21.7353,25.4258 38.3395,58.2194 44.2895,87.4695 8.7154,42.8442 2.259,81.476 -19.7369,118.103 -6.4169,10.6851 -9.1762,13.4491 -13.429,13.4491 -0.7295,0 -1.4295,-0.096 -2.0965,-0.2637 2.3766,0.6657 5.0724,0.3508 7.066,-1.0455 2.6059,-1.8253 10.2385,-13.809 15.5914,-24.4793 24.1564,-48.1512 21.5721,-106.7089 -6.98,-158.1299 -8.4511,-15.2201 -17.1094,-27.2239 -29.0056,-39.9848 z m -259.1089,94.1546 c -0.327,6.7367 -0.2492,13.4692 0.216,20.1509 -0.3475,-6.5669 -0.4193,-13.58 -0.216,-20.1509 z m 46.3366,121.3807 c 0.088,0.082 0.1758,0.1623 0.2637,0.2436 -0.088,-0.081 -0.176,-0.1622 -0.2637,-0.2436 z m 2.547,2.3034 c 0.2194,0.1933 0.4421,0.3831 0.6629,0.575 -0.221,-0.1915 -0.4432,-0.3817 -0.6629,-0.575 z m 2.6478,2.2669 c 0.4505,0.3759 0.9078,0.7449 1.364,1.1151 -0.4568,-0.369 -0.912,-0.7392 -1.364,-1.1151 z m 2.6238,2.1295 c 1.1295,0.8933 2.2703,1.7736 3.4333,2.6312 2.7685,2.0416 5.7036,3.9879 8.7652,5.8228 -4.2262,-2.5595 -8.2963,-5.3845 -12.1985,-8.454 z m 126.3044,13.6597 c -0.046,0.023 -0.092,0.045 -0.1374,0.068 0.046,-0.023 0.092,-0.045 0.1374,-0.068 z m -6.7365,3.1055 c -0.7857,0.3277 -1.5703,0.6576 -2.3639,0.9649 -14.6655,5.6795 -23.9331,7.5089 -39.8437,7.8626 -4.9781,0.1106 -9.6105,0.1226 -12.8522,0.066 8.563,0.5637 18.9074,0.4086 25.7428,-0.542 9.7409,-1.3549 19.7868,-4.2748 29.317,-8.3514 z m -78.8068,4.334 c 5.0618,1.5533 10.1683,2.7906 15.2106,3.642 0.8202,0.1385 1.7175,0.2632 2.6477,0.3791 -7.1513,-1.3551 -12.8801,-2.6147 -17.8583,-4.0211 z"
             style="fill:#a05a2c;fill-opacity:1;stroke-width:0.9375" />
        </g>
      </g>
      <path
         sodipodi:nodetypes="cc"
         inkscape:connector-curvature="0"
         id="path19301-9-3-7-5"
         d="m 4049.936,1094.3779 c 0,0 17.2536,90.7148 17.7165,141.7323"
         style="fill:none;fill-opacity:1;stroke:#000000;stroke-width:3.54331;stroke-linecap:butt;stroke-linejoin:miter;stroke-miterlimit:4;stroke-dasharray:none;stroke-opacity:1" />
      <path
         sodipodi:nodetypes="cc"
         inkscape:connector-curvature="0"
         id="path19301-9-3-73-3"
         d="m 4386.5502,1094.3779 c 0,0 17.2536,90.7148 17.7165,141.7323"
         style="fill:none;fill-opacity:1;stroke:#000000;stroke-width:3.54331;stroke-linecap:butt;stroke-linejoin:miter;stroke-miterlimit:4;stroke-dasharray:none;stroke-opacity:1" />
      <path
         sodipodi:nodetypes="cc"
         inkscape:connector-curvature="0"
         id="path19301-9-3-3-4"
         d="m 4134.0897,1094.3779 c 0,0 17.2536,90.7148 17.7165,141.7323"
         style="fill:none;fill-opacity:1;stroke:#000000;stroke-width:3.54331;stroke-linecap:butt;stroke-linejoin:miter;stroke-miterlimit:4;stroke-dasharray:none;stroke-opacity:1" />
      <path
         sodipodi:nodetypes="cc"
         inkscape:connector-curvature="0"
         id="path19301-9-3-2-9"
         d="m 4218.243,1094.3779 c 0,0 17.2536,90.7148 17.7165,141.7323"
         style="fill:none;fill-opacity:1;stroke:#000000;stroke-width:3.54331;stroke-linecap:butt;stroke-linejoin:miter;stroke-miterlimit:4;stroke-dasharray:none;stroke-opacity:1" />
      <path
         sodipodi:nodetypes="cc"
         inkscape:connector-curvature="0"
         id="path19301-9-3-74-5"
         d="m 4302.3968,1094.3779 c 0,0 17.2536,90.7148 17.7165,141.7323"
         style="fill:none;fill-opacity:1;stroke:#000000;stroke-width:3.54331;stroke-linecap:butt;stroke-linejoin:miter;stroke-miterlimit:4;stroke-dasharray:none;stroke-opacity:1" />
    </g>
  </g>
</svg>
