<?xml version="1.0" encoding="UTF-8" standalone="no"?>
<!-- Created with Inkscape (http://www.inkscape.org/) -->

<svg
   width="196.65294mm"
   height="98.893456mm"
   viewBox="0 0 696.80175 350.40987"
   id="svg2"
   version="1.1"
   inkscape:version="0.92.5 (2060ec1f9f, 2020-04-08)"
   sodipodi:docname="wi-all.svg"
   inkscape:export-filename="/home/fred/Dropbox/svg/entremet/wienerbrød/2.png"
   inkscape:export-xdpi="90"
   inkscape:export-ydpi="90"
   xmlns:inkscape="http://www.inkscape.org/namespaces/inkscape"
   xmlns:sodipodi="http://sodipodi.sourceforge.net/DTD/sodipodi-0.dtd"
   xmlns="http://www.w3.org/2000/svg"
   xmlns:svg="http://www.w3.org/2000/svg"
   xmlns:rdf="http://www.w3.org/1999/02/22-rdf-syntax-ns#"
   xmlns:cc="http://creativecommons.org/ns#"
   xmlns:dc="http://purl.org/dc/elements/1.1/">
  <defs
     id="defs4">
    <inkscape:path-effect
       effect="skeletal"
       id="path-effect61783"
       is_visible="true"
       pattern="m 2105.1812,2060.0667 c -1.1648,-3.1315 19.4163,-2.4755 20.8031,0 9.7494,1.0172 9.7494,52.9569 0,55.2874 -1.6928,0.096 -22.5201,1.6178 -20.9504,0 8.9655,-9.2404 1.3871,-51.9543 0.1473,-55.2874 z"
       copytype="repeated_stretched"
       prop_scale="1"
       scale_y_rel="false"
       spacing="10"
       normal_offset="0"
       tang_offset="0"
       prop_units="false"
       vertical_pattern="false"
       fuse_tolerance="0"
       lpeversion="0"
       hide_knot="false" />
    <linearGradient
       id="linearGradient56905"
       inkscape:swatch="solid">
      <stop
         style="stop-color:#923c3c;stop-opacity:1;"
         offset="0"
         id="stop56903" />
    </linearGradient>
    <inkscape:path-effect
       effect="skeletal"
       id="path-effect61783-9"
       is_visible="true"
       pattern="m 2105.1812,2060.0667 c -1.1648,-3.1315 19.4163,-2.4755 20.8031,0 9.7494,1.0172 9.7494,52.9569 0,55.2874 -1.6928,0.096 -22.5201,1.6178 -20.9504,0 8.9655,-9.2404 1.3871,-51.9543 0.1473,-55.2874 z"
       copytype="repeated_stretched"
       prop_scale="0.99999998"
       scale_y_rel="false"
       spacing="10"
       normal_offset="0"
       tang_offset="0"
       prop_units="false"
       vertical_pattern="false"
       fuse_tolerance="0"
       lpeversion="0"
       hide_knot="false" />
  </defs>
  <sodipodi:namedview
     id="base"
     pagecolor="#ffffff"
     bordercolor="#666666"
     borderopacity="1.0"
     inkscape:pageopacity="1"
     inkscape:pageshadow="2"
     inkscape:zoom="0.125"
     inkscape:cx="2429.4412"
     inkscape:cy="7952.729"
     inkscape:document-units="mm"
     inkscape:current-layer="layer1"
     showgrid="true"
     inkscape:window-width="1880"
     inkscape:window-height="1016"
     inkscape:window-x="40"
     inkscape:window-y="27"
     inkscape:window-maximized="1"
     showguides="false"
     inkscape:guide-bbox="true"
     inkscape:lockguides="true"
     inkscape:snap-global="true"
     inkscape:snap-bbox="true"
     inkscape:snap-nodes="true"
     objecttolerance="10000"
     guidetolerance="10000"
     inkscape:pagecheckerboard="false"
     inkscape:showpageshadow="2"
     inkscape:deskcolor="#d1d1d1">
    <inkscape:grid
       type="xygrid"
       id="grid5214"
       units="mm"
       spacingx="17.716535"
       spacingy="17.716535"
       originx="0"
       originy="0"
       empspacing="10"
       dotted="false" />
    <sodipodi:guide
       position="4400.8516,360.91373"
       orientation="1,0"
       id="guide61746"
       inkscape:locked="true" />
    <sodipodi:guide
       position="4560.3004,431.77987"
       orientation="0,1"
       id="guide61750"
       inkscape:locked="true" />
    <sodipodi:guide
       position="3515.8827,1049.9747"
       orientation="0,1"
       id="guide4470"
       inkscape:locked="true" />
    <sodipodi:guide
       position="-1826.6213,1657.4896"
       orientation="1,0"
       id="guide5403"
       inkscape:locked="true" />
    <sodipodi:guide
       position="-5788.3546,-908.91513"
       orientation="1,0"
       id="guide8722"
       inkscape:locked="true" />
  </sodipodi:namedview>
  <metadata
     id="metadata7">
    <rdf:RDF>
      <cc:Work
         rdf:about="">
        <dc:format>image/svg+xml</dc:format>
        <dc:type
           rdf:resource="http://purl.org/dc/dcmitype/StillImage" />
        <dc:title />
      </cc:Work>
    </rdf:RDF>
  </metadata>
  <g
     inkscape:label="layer1"
     inkscape:groupmode="layer"
     id="layer1"
     transform="translate(-3240.9713,-1342.3237)">
    <g
       id="lun6"
       inkscape:label="lun6"
       transform="translate(-227.95665,17.523551)">
      <ellipse
         ry="141.71095"
         rx="144.32076"
         cy="1502.2261"
         cx="3998.8792"
         id="path61872-6"
         style="opacity:1;fill:#ffeeaa;fill-opacity:1;fill-rule:evenodd;stroke:none;stroke-width:3.60351;stroke-linecap:round;stroke-linejoin:round;stroke-miterlimit:4;stroke-dasharray:none;stroke-opacity:1" />
      <ellipse
         ry="141.71095"
         rx="144.32076"
         cy="1503.2444"
         cx="3646.967"
         id="path61872"
         style="opacity:1;fill:#ffeeaa;fill-opacity:1;fill-rule:evenodd;stroke:none;stroke-width:3.60351;stroke-linecap:round;stroke-linejoin:round;stroke-miterlimit:4;stroke-dasharray:none;stroke-opacity:1" />
      <path
         transform="translate(-614.82504,-834.53739)"
         inkscape:original-d="m 4213.7153,2192.8033 c 190.2678,-51.1366 246.6064,334.6011 436.8743,283.4645 134.5398,-36.1591 134.5398,-247.3054 0,-283.4645 -190.2679,-51.1366 -246.6065,334.6011 -436.8743,283.4645 -134.5398,-36.1591 -134.5398,-247.3054 0,-283.4645 z"
         inkscape:path-effect="#path-effect61783"
         sodipodi:nodetypes="aaaaa"
         inkscape:connector-curvature="0"
         id="path61781"
         d="m 4206.9862,2166.6955 c -1.086,-1.3406 4.4009,-3.4957 10.6772,-4.6411 6.3043,-1.1505 13.0627,-1.1974 14.0845,-0.01 5.9973,-0.1307 9.6421,13.0257 10.2925,26.408 0.6505,13.3823 -0.6467,26.9666 -4.3483,28.5457 -1.348,0.2469 -4.3463,0.8913 -9.104,2.0689 -4.0646,1.006 -7.8634,2.0142 -7.4534,1.0731 2.3148,-5.3139 -0.095,-18.1651 -3.8604,-29.8234 -3.8706,-11.9857 -8.9415,-21.9617 -10.2881,-23.6241 z m 46.4604,-5.4223 c -0.672,-1.6109 5.4628,-2.0207 11.9726,-1.1525 6.5504,0.8736 13.0645,2.9962 13.6666,4.4555 3.4743,1.0775 4.7343,6.4557 4.2355,13.2933 -0.6747,9.203 -4.3663,21.0381 -8.1651,29.5825 -2.8253,6.3592 -5.6275,10.9189 -7.9764,11.1145 -1.2358,-0.179 -4.3953,-0.5447 -8.9752,-0.8655 -3.987,-0.2792 -7.6511,-0.4128 -7.0246,-1.1902 3.5561,-4.4125 5.2016,-17.3643 5.1236,-29.6176 -0.08,-12.6492 -2.003,-23.5728 -2.857,-25.62 z m 46.3796,9.5045 c -0.1,-1.5228 4.5043,-0.5199 9.5372,1.6394 5.1657,2.2162 10.29,5.4182 12.3482,7.6338 0.4965,0.5353 0.7841,0.9888 0.8098,1.3211 4.7974,3.2707 0.2,16.0654 -6.8508,27.4602 -7.0508,11.3947 -15.9732,21.7641 -20.0869,20.8148 -0.13,-0.061 -0.4402,-0.202 -0.8601,-0.3892 -1.7876,-0.7961 -5.8067,-2.4865 -9.1866,-3.8553 -3.3697,-1.3646 -6.135,-2.4793 -5.3581,-2.9589 4.9604,-3.0623 10.4665,-14.7803 14.2404,-26.473 3.8772,-12.0128 5.5493,-23.0163 5.4069,-25.1929 z m 40.0763,21.5244 c 0.4426,-2.1254 8.4143,2.9597 13.6684,7.9404 2.9802,2.8361 5.1364,5.5506 4.981,6.602 3.8147,3.9373 -3.0853,15.5793 -12.0632,25.5146 -8.978,9.9354 -19.718,18.4533 -23.8179,16.4939 -0.4775,-0.357 -2.5764,-1.8763 -5.2131,-3.7317 -4.7717,-3.3696 -10.6274,-7.2868 -9.4,-7.6159 5.8198,-1.5603 13.9045,-11.6927 20.3646,-22.1477 6.5922,-10.6687 11.0572,-21.0241 11.4802,-23.0556 z m 33.038,27.6625 c 0.632,-1.5768 4.9274,1.7123 8.8419,5.8403 3.9251,4.1391 7.3779,9.0217 6.9656,10.4264 3.1838,4.2234 -5.037,14.9665 -15.084,23.8575 -10.047,8.8911 -21.7626,16.115 -25.7291,13.4993 -0.5748,-0.5585 -4.4623,-4.1984 -7.9786,-7.5499 -3.5164,-3.3514 -6.6709,-6.4351 -5.5904,-6.5119 6.152,-0.4372 15.6373,-9.2869 23.6038,-18.6456 8.07,-9.4802 14.2369,-19.0854 14.9708,-20.9161 z m 28.2217,30.3688 c 0.6852,-1.2825 3.6189,1.1699 6.5886,4.6177 3.9508,4.5616 7.9075,10.7853 7.3165,12.3254 5.7212,8.8418 -35.6455,40.3163 -43.2047,34.4816 -0.6168,-0.6871 -5.2049,-5.6138 -8.8104,-9.7186 -2.8819,-3.2614 -5.1194,-6.0292 -4.1385,-5.9838 6.3241,0.2928 16.5358,-7.7218 25.3211,-16.3268 8.8495,-8.668 16.0347,-17.7248 16.9274,-19.3955 z m 25.1745,31.3534 c 0.8755,-1.435 4.4403,2.1925 7.6017,6.5113 3.1642,4.3227 5.907,9.3086 5.3384,10.6212 5.2096,8.7096 -36.7164,39.4077 -44.3438,33.0338 -0.5443,-0.6506 -4.2314,-4.9218 -7.5083,-8.9453 -3.277,-4.0235 -6.1504,-7.8043 -5.0369,-7.6816 6.3584,0.7006 16.9147,-6.8557 26.09,-15.0347 9.2099,-8.2098 16.9009,-16.9345 17.8589,-18.5047 z m 23.5997,31.534 c 0.7335,-1.134 3.1034,0.993 5.5839,4.0922 3.688,4.5987 7.6017,11.3038 6.911,12.8478 4.9833,8.4368 -36.617,39.5399 -44.461,32.8767 -0.7246,-0.8742 -5.571,-6.5438 -9.1998,-11.2691 -2.538,-3.298 -4.3587,-5.986 -3.4265,-5.8545 12.8399,1.8113 42.6455,-29.6831 44.5924,-32.6931 z m 22.9896,31.0363 c 0.9031,-1.4049 4.2978,2.0915 7.3347,6.2128 3.034,4.1177 5.7278,8.8737 5.1747,10.1655 4.9666,7.9862 -35.3136,40.7314 -43.5977,33.9871 -0.7518,-0.8629 -4.3416,-4.8572 -7.9405,-9.2486 -3.4376,-4.1945 -6.3956,-8.1788 -5.2629,-8.0179 6.486,0.9217 17.0384,-6.6458 26.2497,-14.7843 9.1807,-8.1115 17.1007,-16.8503 18.042,-18.3146 z m 23.2171,29.8219 c 0.6404,-1.0715 2.7425,0.5011 5.079,2.978 3.9297,4.142 8.5472,10.757 7.9293,12.4042 2.6978,3.8519 -5.5636,14.4504 -15.5119,23.4495 -9.9483,8.9991 -21.7974,16.1771 -26.1197,13.0108 -1.2466,-1.2805 -6.5551,-6.5764 -10.9698,-11.7982 -2.536,-2.983 -4.2334,-5.3287 -3.3467,-5.2281 6.5865,0.7472 16.7864,-7.2912 25.6423,-15.813 8.7898,-8.4583 16.4341,-17.5589 17.2975,-19.0032 z m 24.2182,27.7044 c 0.7558,-1.4753 4.3312,1.4099 7.643,4.8266 3.3086,3.4136 6.4448,7.4305 6.0818,8.7462 2.9415,3.4003 -4.0506,14.8079 -12.8457,24.9068 -8.7951,10.0989 -19.7655,18.5627 -24.5517,15.7456 -1.0892,-0.9033 -5.2526,-4.2526 -9.8217,-8.4926 -4.2299,-3.9252 -7.8311,-7.756 -6.6512,-7.6946 6.7272,0.3503 16.2358,-8.5436 24.3603,-17.7605 8.0062,-9.0826 15.0628,-18.8672 15.7852,-20.2775 z m 25.8014,23.928 c 0.5696,-1.5428 4.33,0.6796 7.8866,3.3777 3.5523,2.6948 7.0491,5.9487 6.8884,7.2744 3.2474,2.6831 -1.5675,15.1337 -8.2782,26.7325 -6.7108,11.5989 -16.0155,21.9524 -21.4798,19.8495 -1.3614,-0.7787 -6.1725,-3.4428 -11.6423,-7.1821 -5.009,-3.4242 -9.2527,-6.9122 -8.0457,-6.9831 6.8696,-0.404 15.0064,-10.6072 21.7555,-20.8767 6.5764,-10.0066 12.4197,-20.8494 12.9155,-22.1922 z m 27.6274,17.9056 c 0.2573,-1.6097 4.0992,-0.3915 7.8456,1.2383 3.7371,1.6257 7.6188,3.7378 7.773,5.0305 1.0312,0.4716 1.6016,1.9077 1.8619,4.0456 0,0 0,0 0,0 1.2372,10.3049 -4.2165,37.8843 -12.7873,46.3288 0,0 0,0 0,0 -1.7486,1.7245 -3.5903,2.6368 -5.3816,2.4375 -1.6247,-0.4234 -7.2347,-1.8092 -13.8346,-4.2947 -6.0236,-2.2686 -11.244,-4.9188 -10.0231,-5.2276 6.9105,-1.7478 12.4674,-13.5881 16.7306,-25.1133 4.0626,-10.983 7.6333,-23.3052 7.8155,-24.4451 z m 29.031,9.3397 c -0.1683,-1.26 2.1102,-1.5382 4.9366,-1.4459 2.7113,0.089 6.4441,0.5439 8.6704,1.1191 1.3512,0.3554 2.3464,0.7876 2.6046,1.3324 3.844,0.4086 6.9865,13.3529 8.1668,26.6996 1.1804,13.3467 -0.5493,27.2058 -6.618,28.5494 -0.3972,0.03 -2.0678,0.171 -4.1728,0.2803 -4.341,0.2105 -9.5479,0.2269 -14.6787,-0.2298 -4.7766,-0.4253 -8.2377,-1.1745 -7.3953,-1.6743 6.3345,-3.7583 7.8616,-16.7439 8.3881,-28.9871 0.4935,-11.4759 0.2206,-24.7279 0.098,-25.6437 z m 30.1471,-0.3996 c -0.9068,-1.8262 5.061,-3.3683 10.1265,-4.1763 2.9916,-0.4903 5.6974,-0.6626 6.3878,0.084 3.9292,-0.7602 10.6,10.7968 15.4794,23.2839 4.8794,12.4872 7.1187,26.2735 1.8179,29.2442 -0.8218,0.3133 -4.248,1.6721 -8.7192,3.0726 -3.8548,1.2262 -7.8112,2.2723 -11.1859,2.9088 -3.2386,0.6108 -5.3704,0.7299 -4.8642,0.1361 4.6928,-5.505 2.1813,-18.3488 -1.1007,-30.1556 -3.1167,-11.212 -7.4638,-23.4357 -7.9416,-24.398 z m 29.7056,-9.4038 c -1.0965,-1.1972 2.1374,-3.4235 5.6689,-5.3629 3.5182,-1.9321 7.5628,-3.7265 8.6826,-3.0585 0.6976,-0.3681 1.6275,-0.2755 2.7535,0.1825 0,0 0,0 0,0 8.7394,3.5608 31.2734,29.4603 30.5135,41.3631 0,0 0,0 0,0 -0.099,1.4932 -0.5586,2.7398 -1.4264,3.6373 -1.3085,1.0111 -5.8668,4.6289 -11.909,8.3359 -5.5233,3.3888 -10.9231,5.9097 -10.4046,4.7613 2.9949,-6.6327 -3.0033,-18.224 -9.4596,-28.6466 -6.114,-9.87 -13.7053,-20.433 -14.4189,-21.2121 z m 25.1837,-17.2653 c -1.3999,-0.8132 0.9867,-3.8954 3.7938,-6.8338 2.7943,-2.925 6.1862,-5.9098 7.4682,-5.6081 2.8199,-2.8194 14.8266,3.0015 25.8678,10.6028 11.0412,7.6013 20.6314,17.7532 17.8993,23.1976 -0.9197,1.3118 -4.1837,6.1043 -8.8067,11.4024 -4.2431,4.8627 -8.6635,8.8996 -8.5093,7.6473 0.8895,-7.2222 -8.3249,-16.4912 -17.6053,-24.4938 -8.7765,-7.5681 -19.2166,-15.3966 -20.1078,-15.9144 z m 19.2534,-24.2922 c -1.5796,-0.3731 -0.1165,-4.0853 1.8179,-7.793 1.9256,-3.6909 4.4303,-7.6051 5.7562,-7.6737 1.9999,-3.5809 15.1376,-1.1648 27.7869,3.28 12.6493,4.4448 24.5739,11.6692 23.4454,17.5334 -0.516,1.4617 -2.3445,6.8807 -5.2488,13.1205 -2.6736,5.7442 -5.7048,10.7909 -5.9213,9.5596 -1.2469,-7.0927 -12.6716,-13.4147 -23.8313,-18.4813 -10.633,-4.8274 -22.7086,-9.2866 -23.805,-9.5455 z m 12.3283,-29.3931 c -1.6289,0.052 -1.1208,-4.02 -0.1331,-8.1942 0.9838,-4.1582 2.4888,-8.6431 3.763,-9.0381 1.0959,-4.0283 14.4343,-4.8058 27.7722,-3.4703 13.3378,1.3355 26.621,5.5145 26.9436,11.3999 -0.1469,1.5192 -0.6112,7.1473 -1.8557,13.7956 -1.1464,6.1241 -2.7611,11.6648 -3.2881,10.5456 -3.0345,-6.4436 -15.6578,-9.7315 -27.7402,-11.8403 -11.6021,-2.025 -24.2325,-3.2373 -25.4617,-3.1982 z m 4.9859,-32.1089 c -1.2794,0.3522 -1.8028,-2.2768 -1.9595,-5.5583 -0.2372,-4.8014 0.2154,-11.3944 1.5497,-12.1769 0.1546,-4.1822 12.9709,-7.9592 26.2632,-9.6843 13.2924,-1.7251 27.178,-0.6624 28.8301,4.9864 0.2808,2.0974 1.3015,9.0724 1.4321,16.8748 0.087,4.8789 -0.2365,8.6571 -0.8706,7.8691 -4.4442,-5.5222 -17.482,-5.8285 -29.7292,-5.0969 -11.7973,0.7046 -24.2907,2.4489 -25.5158,2.7861 z m -2.4548,-32.5032 c -1.7826,0.9666 -3.6337,-5.6477 -4.5093,-10.8503 -0.492,-2.9041 -0.65,-5.453 0.055,-6.1257 -0.815,-4.0435 10.7464,-10.7338 23.2477,-15.5778 12.5012,-4.844 26.2632,-7.0902 29.213,-1.9243 0.2845,0.7357 1.5284,3.8294 2.8679,7.8658 2.4136,7.2496 4.8587,17.3888 3.4318,16.269 -5.5949,-4.3907 -18.3479,-1.6983 -30.1038,1.816 -11.3022,3.3787 -23.1042,7.9316 -24.2025,8.5273 z m -9.8708,-30.5852 c -1.187,1.0785 -3.37,-2.1631 -5.2797,-5.7698 -1.8991,-3.5865 -3.6679,-7.7629 -3.1431,-9.0396 0.018,-0.044 0.039,-0.086 0.063,-0.1235 -1.7683,-3.5821 7.619,-13.0627 18.3784,-21.0602 10.7594,-7.9975 23.4659,-13.791 27.7262,-9.4535 0.017,0.024 0.038,0.052 0.061,0.083 0,0 0,0 0,0 1.1298,1.5432 4.5337,6.1363 7.9753,12.0278 3.1558,5.4023 5.4846,10.5566 4.358,10.0453 -6.5447,-2.9701 -18.2293,2.8129 -28.7533,9.1162 -10.0549,6.0224 -20.5186,13.3866 -21.3856,14.1743 z m -16.9726,-26.2533 c -0.8657,1.3737 -3.8723,-1.1635 -6.6826,-4.0758 -2.7997,-2.9014 -5.6026,-6.3566 -5.2512,-7.6161 -2.2269,-2.3975 1.8177,-10.9016 7.7297,-20.0099 2.3579,-3.6325 5.0493,-7.3303 7.8694,-10.6676 7.0702,-8.3669 15.21,-14.3197 19.7038,-11.8492 1.3104,0.991 5.9881,4.4328 11.1379,9.2747 4.7107,4.4289 8.5591,8.9712 7.3155,8.774 -7.1803,-1.1389 -16.7921,7.6986 -25.1511,16.6705 -7.9217,8.5028 -16.104,18.5989 -16.6714,19.4994 z m -23.271,-19.826 c -0.4196,1.5625 -4.0019,0.075 -7.5641,-1.8536 -3.5452,-1.919 -7.3181,-4.3993 -7.3649,-5.7147 -3.4624,-1.9731 -1.0142,-15.0906 3.4102,-27.7469 4.4245,-12.6563 11.6888,-24.5838 17.6607,-23.3787 1.5048,0.5415 6.9944,2.4333 13.3283,5.5051 5.816,2.8205 10.8867,6.0349 9.6353,6.2132 -7.2157,1.0279 -13.7356,12.3538 -19.0195,23.4055 -4.9894,10.4359 -9.8236,22.5928 -10.086,23.5701 z m -28.4495,-12.1366 c 0.062,1.6267 -3.9537,1.1933 -7.9753,0.3165 -4.0116,-0.8747 -8.2675,-2.2202 -8.6715,-3.4657 -3.8246,-0.9317 -5.1274,-14.1861 -4.477,-27.5684 0.6504,-13.3823 4.3007,-26.8686 10.421,-27.3853 1.6567,0.1008 7.4084,0.3763 14.3288,1.5377 6.3223,1.0609 11.9468,2.6561 10.8108,3.1948 -6.4993,3.0824 -9.5829,15.7594 -11.5257,27.8787 -1.8553,11.5744 -2.9554,24.3306 -2.9111,25.4917 z m -30.4484,-3.6422 c 0.5104,1.5326 -3.202,2.2847 -7.1058,2.675 -3.8855,0.3885 -8.2534,0.4601 -9.0223,-0.5926 -2.2972,0.1953 -5.0368,-4.0943 -7.825,-10.2986 -3.7516,-8.3422 -7.4436,-20.1893 -8.1665,-29.5877 -0.5351,-6.9899 0.6629,-12.6357 4.0853,-14.1039 1.5996,-0.4292 7.2763,-2.032 14.3985,-3.0792 6.5201,-0.9587 12.624,-1.1077 11.6674,-0.2621 -5.523,4.883 -4.5656,17.93 -2.7707,30.0486 1.6803,11.3438 4.4534,24.3424 4.7391,25.2005 z m -29.4256,6.0576 c 0.8783,1.1492 -1.7105,2.7987 -4.9386,4.3182 -3.162,1.4884 -7.3095,3.0252 -9.3398,3.1381 -0.5355,0.031 -0.9506,-0.03 -1.2002,-0.2093 -3.8309,1.544 -12.5711,-8.5512 -19.6219,-19.9459 -7.0508,-11.3947 -11.8305,-24.4637 -7.3159,-28.329 0.3425,-0.2138 0.8075,-0.509 1.1499,-0.7229 2.799,-1.7493 7.513,-4.5663 12.9815,-7.1296 5.0513,-2.3678 9.4687,-3.8668 8.9168,-2.8908 -3.5692,6.3122 1.3847,18.4237 6.8842,29.3689 5.2091,10.3671 11.8511,21.5743 12.484,22.4023 z m -28.1756,15.2529 c 1.6744,1.2618 -3.7272,5.6686 -8.4604,8.7247 -2.7089,1.7435 -5.2232,3.0168 -6.1511,2.6307 -3.6936,2.4758 -14.2087,-5.803 -23.1866,-15.7384 -8.978,-9.9353 -16.1029,-21.8164 -12.6945,-26.2701 0.5286,-0.5012 2.8664,-2.7794 5.9189,-5.5011 5.4237,-4.8184 13.3827,-10.9254 12.9733,-9.2205 -1.6331,6.8017 5.9678,17.4238 13.9318,26.7479 7.7204,9.0389 16.5986,17.8205 17.6686,18.6268 z m -26.468,22.1815 c 1.4681,0.7434 -1.2986,4.2991 -4.6954,7.6899 -3.3874,3.3813 -7.4906,6.6813 -8.8343,6.3342 -3.493,3.0713 -14.9594,-3.9379 -25.0064,-12.8289 -10.047,-8.8911 -18.517,-19.8489 -15.8067,-24.5278 0.7924,-0.96 4.2032,-5.2258 8.3023,-9.7051 3.8715,-4.2307 7.7413,-7.9153 7.6801,-6.7318 -0.3507,6.7789 8.6767,16.1645 17.9637,24.182 9.1284,7.8806 19.0303,14.8956 20.3967,15.5875 z m -24.634,26.6376 c 1.3439,0.5053 -0.3819,3.5183 -2.9803,6.7808 -3.3961,4.2913 -8.3372,9.1185 -9.9023,8.8469 -6.5569,6.6313 -47.8813,-24.7911 -43.2048,-34.4815 0.761,-1.0668 4.5106,-6.5023 8.4085,-11.4538 2.9219,-3.7336 5.5561,-6.6715 5.624,-5.6423 0.438,6.6382 10.2353,15.2211 20.216,22.3709 9.8999,7.092 20.2876,12.9958 21.8389,13.579 z m -23.5126,29.2318 c 1.5898,0.4951 -0.8339,4.6745 -3.9933,8.7239 -3.1564,4.0458 -7.0701,7.9854 -8.4753,7.8029 -6.5831,7.1523 -48.4927,-23.5308 -44.3439,-33.0338 0.5351,-0.8075 3.5565,-5.5224 6.7213,-10.029 3.1059,-4.4227 6.1792,-8.3796 6.3241,-7.2402 0.8276,6.5092 10.9783,14.6402 21.2865,21.3152 10.2662,6.6477 20.8402,11.9502 22.4806,12.461 z m -22.972,30.7129 c 1.2978,0.3672 -0.019,3.2435 -2.2499,6.5365 -3.2861,4.8631 -8.5906,10.6656 -10.2869,10.4657 -6.7799,7.4477 -48.3946,-23.6645 -44.461,-32.8766 0.4903,-0.7476 4.6715,-7.3395 7.9981,-12.0445 2.3931,-3.3927 4.4368,-5.9469 4.5845,-5.0145 2.0283,12.7973 41.0044,31.9686 44.4152,32.9334 z m -23.2856,31.4337 c 1.6125,0.461 -0.898,4.8371 -4.2189,9.0548 -3.3241,4.2216 -7.4495,8.2634 -8.8783,8.0712 -7.2187,7.5626 -47.5532,-25.2112 -43.5977,-33.9871 0.4736,-0.6859 3.5506,-5.3089 6.5306,-9.5366 2.9785,-4.2257 5.8745,-8.0517 6.052,-6.94 1.0107,6.3316 11.153,14.4702 21.4912,21.1001 10.3714,6.6512 20.871,11.7372 22.6211,12.2376 z m -24.5422,31.4956 c 1.1968,0.3846 -0.035,2.924 -2.2441,5.9256 -3.6776,5.0282 -10.1121,11.2753 -11.9444,10.9426 -3.8188,3.5889 -15.4256,-3.3667 -25.3739,-12.3659 -9.9483,-8.9991 -18.452,-19.8198 -16.2577,-24.0945 0.6096,-0.7851 5.3207,-7.1409 8.904,-11.5486 2.2467,-2.7809 4.053,-4.7632 4.165,-3.9069 0.8211,6.2757 10.5834,14.8643 20.6295,21.9272 10.1133,7.1101 20.3429,12.5488 22.1216,13.1205 z m -26.9561,30.8424 c 1.575,0.6239 -1.6233,4.8836 -5.7515,8.8518 -4.1337,3.9736 -9.115,7.5545 -10.545,7.1572 -4.3244,3.2839 -15.0825,-4.9294 -23.8777,-15.0283 -8.7951,-10.0989 -15.9993,-21.7571 -13.5196,-25.6241 0.535,-0.5579 4.0174,-4.3545 7.2942,-7.8968 3.2727,-3.538 6.3799,-6.8043 6.4602,-5.7141 0.4553,6.188 9.4491,15.6 18.8754,23.4578 9.5441,7.9561 19.257,14.0806 21.064,14.7965 z m -31.1596,28.8234 c 1.4982,0.8121 -2.4025,4.7715 -7.3248,8.2531 -4.9341,3.49 -10.7207,6.3492 -12.114,5.7226 -5.0783,2.6356 -14.2244,-7.4295 -20.9351,-19.0284 -6.7108,-11.5988 -11.6842,-24.3379 -8.8228,-27.5537 0.5799,-0.4283 4.3719,-3.3883 7.9172,-6.2218 3.5386,-2.8282 6.8807,-5.4916 6.8417,-4.4273 -0.2202,6.0145 7.3197,16.6697 15.54,25.7664 8.3828,9.2764 17.1153,16.523 18.8978,17.4891 z m -37.5302,24.2086 c 1.3278,1.1048 -3.6499,4.2782 -9.6122,6.6207 -5.9877,2.3525 -12.6496,3.7154 -13.8855,2.7442 -1.7153,0.3765 -3.5062,-0.3815 -5.2109,-1.9765 0,0 0,0 0,0 -8.3932,-7.8461 -13.8214,-35.359 -12.7878,-46.3307 0,0 0,0 0,0 0.2171,-2.2647 0.7361,-3.858 1.6919,-4.5047 1.2525,-0.4864 4.0671,-1.6806 8.4619,-3.7421 3.764,-1.7657 7.2816,-3.5062 7.0647,-2.5012 -1.2225,5.6653 3.6344,17.8087 9.5883,28.5106 6.1234,11.0065 13.0411,19.8079 14.6896,21.1797 z m -44.7153,14.2367 c 0.7339,1.1105 -2.6489,2.3307 -7.3215,2.9827 -4.8164,0.6721 -10.3259,0.6572 -14.3636,0.025 -2.2124,-0.3546 -3.7688,-0.866 -4.135,-1.4261 -6.0308,-0.6854 -7.8028,-14.2171 -6.6224,-27.5638 1.1803,-13.3467 4.3653,-26.6185 8.1715,-27.6852 0.2576,-0.012 1.2732,-0.075 2.5665,-0.1867 3.2095,-0.2597 5.1856,-0.5196 8.8533,-0.9637 2.8523,-0.3453 5.0383,-0.5653 4.6602,0.1424 -2.6718,5.0012 -1.836,18.041 0.5539,30.054 2.4674,12.4024 6.4169,22.7757 7.6371,24.6217 z m -47.2372,-0.5313 c 0.545,2.0717 -8.9386,0.9085 -16.1236,-1.5759 -4.4103,-1.5016 -7.955,-3.3703 -8.2676,-4.4624 -5.4593,-2.3314 -3.3499,-15.8141 1.5295,-28.3013 4.8795,-12.4871 11.6803,-24.3477 15.7681,-24.2268 0.5841,0.148 2.9022,0.6903 5.9359,1.3055 5.2196,1.0318 11.3772,1.9467 10.4947,2.757 -4.3075,3.9559 -7.437,16.5266 -8.8806,28.7326 -1.4823,12.5327 -1.0091,23.6705 -0.4564,25.7713 z m -44.1599,-14.0304 c -0.042,1.7347 -5.6974,-0.2818 -11.2479,-3.5816 -5.5789,-3.3167 -10.7234,-7.7537 -10.7093,-9.323 -0.9343,-0.7819 -1.4581,-1.9277 -1.6145,-3.3313 0,0 0,0 0,0 -1.2262,-11.2463 21.2778,-37.0913 30.5143,-41.3641 0,0 0,0 0,0 1.183,-0.5467 2.1771,-0.7404 2.941,-0.4873 1.1115,0.6724 3.8589,2.2266 8.0806,4.3891 3.6504,1.8698 7.0912,3.5145 6.1835,3.9693 -5.1383,2.5742 -11.7467,13.8342 -16.5301,25.1103 -4.926,11.6122 -7.5651,22.4426 -7.6176,24.6186 z m -38.6458,-26.5264 c -0.5579,1.6455 -5.3727,-1.9898 -9.6658,-6.7726 -4.3176,-4.81 -7.8541,-10.51 -7.3708,-11.9922 -3.2213,-5.0033 6.0907,-14.9772 17.1319,-22.5784 11.0413,-7.6012 23.3261,-13.6001 26.6353,-11.2219 0.8685,0.974 3.1163,3.3597 6.4999,6.705 2.9403,2.9071 5.6962,5.4936 4.7005,5.6564 -5.6663,0.9268 -15.3364,9.6678 -23.2902,19.0007 -8.1874,9.6068 -13.9398,19.135 -14.6408,21.203 z m -28.8894,-36.3965 c -1.0075,1.4088 -4.5349,-3.3662 -7.2791,-9.0432 -2.7584,-5.7067 -4.5786,-12.0323 -3.7139,-13.3076 -1.7201,-5.5761 9.8899,-12.7006 22.5393,-17.1453 12.6494,-4.4448 26.1016,-6.9607 28.6931,-3.668 0.5916,1.2139 2.1461,4.2009 4.5298,8.4776 2.0715,3.7165 4.0378,7.0588 3.0178,6.9176 -5.8257,-0.8066 -17.4529,4.8781 -27.73,11.6053 -10.5399,6.8991 -18.8035,14.4109 -20.057,16.1636 z m -17.714,-42.074 c -1.3339,1.0938 -3.5019,-4.3109 -4.7346,-10.3856 -1.2383,-6.1021 -1.4688,-12.5978 -0.3256,-13.6147 -0.3214,-5.7512 12.6331,-9.9063 25.971,-11.2418 13.3379,-1.3354 27.0049,-0.5817 28.7448,3.3123 0.2959,1.3831 1.0845,4.6442 2.3797,9.5311 1.1163,4.2121 2.1951,8.0571 1.2471,7.6479 -5.4021,-2.3317 -18.1557,0.2691 -29.7804,4.2016 -11.908,4.0283 -21.863,9.2053 -23.502,10.5492 z m -6.9388,-44.5263 c -1.2357,0.5974 -2.0564,-2.9793 -2.2145,-7.6416 -0.245,-6.9831 1.1149,-15.8564 2.7789,-16.7591 0.9943,-5.6647 14.5543,-6.7783 27.8467,-5.0531 13.2923,1.7251 26.4342,5.553 27.2466,9.7513 -0.015,0.837 0.088,7.2047 0.2029,12.0609 0.087,3.4395 0.094,6.1569 -0.604,5.6294 -4.7163,-3.5641 -17.7321,-3.9564 -29.95,-2.8076 -12.5052,1.1757 -23.4128,3.9042 -25.3066,4.8198 z m 3.4094,-44.8418 c -2.1416,0.4832 -0.6547,-9.2431 1.9846,-16.377 1.4733,-3.9944 3.205,-7.1327 4.237,-7.413 2.3132,-5.3329 15.771,-3.2142 28.2722,1.6298 12.5013,4.8441 24.3669,11.662 24.1884,15.8725 -0.1421,0.5468 -0.6791,2.7688 -1.3138,5.6728 -1.1629,5.3514 -2.313,12.2144 -3.1188,11.2515 -3.778,-4.5146 -16.3641,-7.8847 -28.5139,-9.5607 -12.4464,-1.7168 -23.6767,-1.5405 -25.7357,-1.0759 z m 13.9763,-43.2011 c -1.6957,-0.033 0.1093,-5.419 3.1463,-10.834 3.0577,-5.452 7.1977,-10.6072 8.9166,-10.9678 0.056,-0.012 0.1082,-0.018 0.1577,-0.019 3.6855,-4.6583 16.1335,0.9296 26.8928,8.9272 10.7594,7.9976 20.4053,17.6837 19.2117,21.5867 -0.01,0.017 -0.021,0.037 -0.033,0.059 0,0 0,0 0,0 -0.8093,1.4418 -2.2169,4.1 -4.3841,8.5267 -1.8279,3.7334 -3.4435,7.1907 -3.8955,6.2817 -2.5933,-5.2153 -13.9592,-11.6171 -25.3117,-16.2338 -11.6583,-4.741 -22.5613,-7.2857 -24.7005,-7.3273 z m 25.1256,-38.7901 c -1.6624,-0.4977 1.7671,-5.4198 6.3984,-9.8979 4.6554,-4.5013 10.2695,-8.2858 11.7777,-7.8601 4.1092,-2.8625 12.0557,2.8292 19.0685,11.1211 2.802,3.3129 5.4957,7.014 7.879,10.6804 5.9653,9.1779 10.1981,17.9358 8.3552,20.7253 -0.9449,0.9057 -3.1697,3.1652 -6.3795,6.6883 -2.7742,3.0448 -5.2743,5.9345 -5.4729,4.9384 -1.1253,-5.6432 -10.2526,-14.9787 -19.8775,-22.5627 -9.9092,-7.808 -19.6657,-13.209 -21.7489,-13.8328 z m 35.7087,-30.324 c -1.4438,-0.969 3.3431,-4.6686 9.0948,-7.5582 5.7852,-2.9064 12.2162,-4.82 13.5185,-3.964 5.6753,-1.793 12.8412,9.8191 17.2656,22.4754 4.4244,12.6563 6.9709,26.0893 3.8051,28.6502 -1.1592,0.5752 -4.0707,2.1198 -8.167,4.4914 -3.5709,2.0675 -6.768,4.0503 -6.6658,3.0374 0.5756,-5.704 -5.3127,-17.3263 -12.2292,-27.4495 -7.1211,-10.4227 -14.8044,-18.4629 -16.622,-19.6827 z"
         style="fill:#aa4400;fill-opacity:1;stroke:none;stroke-width:1.16386px;stroke-linecap:butt;stroke-linejoin:miter;stroke-opacity:1"
         class="UnoptimicedTransforms" />
      <path
         transform="translate(-614.82504,-834.53739)"
         inkscape:original-d="m 4650.5923,2476.2817 c -190.2678,51.1366 -246.6064,-334.6011 -436.8743,-283.4645 -134.5398,36.1591 -134.5398,247.3054 0,283.4645 190.2679,51.1366 246.6065,-334.6011 436.8743,-283.4645 134.5398,36.1591 134.5398,247.3054 0,283.4645 z"
         inkscape:path-effect="#path-effect61783-9"
         sodipodi:nodetypes="aaaaa"
         inkscape:connector-curvature="0"
         id="path61781-1"
         d="m 4657.3214,2502.3895 c 1.086,1.3406 -4.4009,3.4957 -10.6772,4.6411 -6.3043,1.1505 -13.0627,1.1974 -14.0845,0.01 -5.9973,0.1307 -9.6421,-13.0257 -10.2925,-26.408 -0.6505,-13.3823 0.6467,-26.9666 4.3483,-28.5457 1.348,-0.2469 4.3463,-0.8913 9.104,-2.0689 4.0646,-1.006 7.8634,-2.0142 7.4534,-1.0731 -2.3148,5.3139 0.096,18.1651 3.8604,29.8234 3.8706,11.9857 8.9415,21.9617 10.2881,23.6241 z m -46.4604,5.4223 c 0.672,1.6109 -5.4628,2.0207 -11.9726,1.1525 -6.5504,-0.8736 -13.0645,-2.9962 -13.6666,-4.4555 -3.4743,-1.0775 -4.7343,-6.4557 -4.2355,-13.2933 0.6747,-9.203 4.3663,-21.0381 8.1651,-29.5825 2.8253,-6.3592 5.6275,-10.9189 7.9764,-11.1145 1.2358,0.179 4.3953,0.5447 8.9752,0.8655 3.987,0.2792 7.6511,0.4128 7.0246,1.1902 -3.5561,4.4125 -5.2016,17.3643 -5.1236,29.6176 0.08,12.6492 2.003,23.5728 2.857,25.62 z m -46.3796,-9.5045 c 0.1,1.5228 -4.5043,0.5199 -9.5372,-1.6394 -5.1657,-2.2162 -10.29,-5.4182 -12.3482,-7.6338 -0.4965,-0.5353 -0.7841,-0.9888 -0.8098,-1.3211 -4.7974,-3.2707 -0.2,-16.0654 6.8508,-27.4602 7.0508,-11.3947 15.9732,-21.7641 20.0869,-20.8148 0.13,0.061 0.4402,0.202 0.8601,0.3892 1.7876,0.7961 5.8067,2.4865 9.1866,3.8553 3.3697,1.3646 6.135,2.4793 5.3581,2.9589 -4.9604,3.0623 -10.4665,14.7803 -14.2404,26.473 -3.8772,12.0128 -5.5493,23.0163 -5.4069,25.1929 z m -40.0763,-21.5244 c -0.4426,2.1254 -8.4143,-2.9597 -13.6684,-7.9404 -2.9802,-2.8361 -5.1364,-5.5506 -4.981,-6.602 -3.8147,-3.9373 3.0853,-15.5793 12.0632,-25.5146 8.978,-9.9354 19.718,-18.4533 23.8179,-16.4939 0.4775,0.357 2.5764,1.8763 5.2131,3.7317 4.7717,3.3696 10.6274,7.2868 9.4,7.6159 -5.8198,1.5603 -13.9045,11.6927 -20.3646,22.1477 -6.5922,10.6687 -11.0572,21.0241 -11.4802,23.0556 z m -33.038,-27.6625 c -0.632,1.5768 -4.9274,-1.7123 -8.8419,-5.8403 -3.9251,-4.1391 -7.3779,-9.0217 -6.9656,-10.4264 -3.1838,-4.2234 5.037,-14.9665 15.084,-23.8575 10.047,-8.8911 21.7626,-16.115 25.7291,-13.4993 0.5748,0.5585 4.4623,4.1984 7.9786,7.5499 3.5164,3.3514 6.6709,6.4351 5.5904,6.5119 -6.152,0.4372 -15.6373,9.2869 -23.6038,18.6456 -8.07,9.4802 -14.2369,19.0854 -14.9708,20.9161 z m -28.2217,-30.3688 c -0.6852,1.2825 -3.6189,-1.1699 -6.5886,-4.6177 -3.9508,-4.5616 -7.9075,-10.7853 -7.3165,-12.3254 -5.7212,-8.8418 35.6455,-40.3163 43.2047,-34.4815 0.6168,0.687 5.2049,5.6137 8.8104,9.7185 2.8819,3.2614 5.1194,6.0292 4.1385,5.9838 -6.3241,-0.2928 -16.5358,7.7218 -25.3211,16.3268 -8.8495,8.668 -16.0347,17.7248 -16.9274,19.3955 z m -25.1745,-31.3534 c -0.8755,1.435 -4.4403,-2.1925 -7.6017,-6.5113 -3.1642,-4.3227 -5.907,-9.3086 -5.3384,-10.6212 -5.2096,-8.7096 36.7164,-39.4077 44.3438,-33.0338 0.5443,0.6506 4.2314,4.9218 7.5083,8.9453 3.277,4.0235 6.1504,7.8043 5.0369,7.6816 -6.3584,-0.7006 -16.9147,6.8557 -26.09,15.0347 -9.2099,8.2098 -16.9009,16.9345 -17.8589,18.5047 z m -23.5997,-31.534 c -0.7335,1.134 -3.1034,-0.993 -5.5839,-4.0922 -3.688,-4.5987 -7.6017,-11.3038 -6.911,-12.8478 -4.9833,-8.4368 36.617,-39.5399 44.461,-32.8767 0.7246,0.8742 5.571,6.5438 9.1998,11.2691 2.538,3.298 4.3587,5.986 3.4265,5.8545 -12.8399,-1.8113 -42.6455,29.6831 -44.5924,32.6931 z m -22.9896,-31.0363 c -0.9031,1.4049 -4.2978,-2.0915 -7.3347,-6.2128 -3.034,-4.1177 -5.7278,-8.8737 -5.1747,-10.1655 -4.9666,-7.9862 35.3136,-40.7314 43.5977,-33.9871 0.7518,0.8629 4.3416,4.8572 7.9405,9.2486 3.4376,4.1945 6.3956,8.1788 5.2629,8.0179 -6.486,-0.9217 -17.0384,6.6458 -26.2497,14.7843 -9.1807,8.1115 -17.1007,16.8503 -18.042,18.3146 z m -23.2171,-29.8219 c -0.6404,1.0715 -2.7425,-0.5011 -5.079,-2.978 -3.9297,-4.142 -8.5472,-10.757 -7.9293,-12.4042 -2.6978,-3.8519 5.5636,-14.4504 15.5119,-23.4495 9.9483,-8.9991 21.7974,-16.1771 26.1197,-13.0108 1.2466,1.2805 6.5551,6.5764 10.9698,11.7982 2.536,2.983 4.2334,5.3287 3.3467,5.2281 -6.5865,-0.7472 -16.7864,7.2912 -25.6423,15.813 -8.7898,8.4583 -16.4341,17.5589 -17.2975,19.0032 z m -24.2182,-27.7044 c -0.7558,1.4753 -4.3312,-1.4099 -7.643,-4.8266 -3.3086,-3.4136 -6.4448,-7.4305 -6.0818,-8.7462 -2.9415,-3.4003 4.0506,-14.8079 12.8457,-24.9068 8.7951,-10.0989 19.7655,-18.5627 24.5517,-15.7456 1.0892,0.9033 5.2526,4.2526 9.8217,8.4926 4.2299,3.9252 7.8311,7.756 6.6512,7.6946 -6.7272,-0.3503 -16.2358,8.5436 -24.3603,17.7605 -8.0062,9.0826 -15.0628,18.8672 -15.7852,20.2775 z m -25.8014,-23.928 c -0.5696,1.5428 -4.33,-0.6796 -7.8866,-3.3777 -3.5523,-2.6948 -7.0491,-5.9487 -6.8884,-7.2744 -3.2474,-2.6831 1.5675,-15.1337 8.2782,-26.7325 6.7108,-11.5989 16.0155,-21.9524 21.4798,-19.8495 1.3614,0.7787 6.1725,3.4429 11.6423,7.1821 5.009,3.4242 9.2527,6.9122 8.0457,6.9831 -6.8696,0.404 -15.0064,10.6072 -21.7555,20.8767 -6.5764,10.0066 -12.4197,20.8494 -12.9155,22.1922 z m -27.6274,-17.9056 c -0.2573,1.6097 -4.0992,0.3915 -7.8456,-1.2383 -3.7371,-1.6257 -7.6188,-3.7378 -7.773,-5.0305 -1.0312,-0.4716 -1.6016,-1.9077 -1.8619,-4.0456 0,0 0,0 0,0 -1.2372,-10.3049 4.2165,-37.8843 12.7873,-46.3288 0,0 0,0 0,0 1.7486,-1.7245 3.5903,-2.6368 5.3816,-2.4375 1.6247,0.4234 7.2347,1.8092 13.8346,4.2947 6.0236,2.2686 11.244,4.9188 10.0231,5.2276 -6.9105,1.7478 -12.4674,13.5881 -16.7306,25.1133 -4.0626,10.983 -7.6333,23.3052 -7.8155,24.4451 z m -29.031,-9.3397 c 0.1683,1.26 -2.1102,1.5382 -4.9366,1.4459 -2.7113,-0.089 -6.4441,-0.5439 -8.6704,-1.1191 -1.3512,-0.3554 -2.3464,-0.7876 -2.6046,-1.3324 -3.844,-0.4086 -6.9865,-13.3529 -8.1668,-26.6996 -1.1804,-13.3467 0.5493,-27.2058 6.618,-28.5494 0.3972,-0.03 2.0678,-0.171 4.1728,-0.2803 4.341,-0.2105 9.5479,-0.2269 14.6787,0.2298 4.7766,0.4253 8.2377,1.1745 7.3953,1.6743 -6.3345,3.7583 -7.8616,16.7439 -8.3881,28.9871 -0.4935,11.4759 -0.2206,24.7279 -0.098,25.6437 z m -30.1471,0.3996 c 0.9068,1.8262 -5.061,3.3683 -10.1265,4.1763 -2.9916,0.4903 -5.6974,0.6626 -6.3878,-0.084 -3.9292,0.7602 -10.6,-10.7968 -15.4794,-23.2839 -4.8794,-12.4872 -7.1187,-26.2735 -1.8179,-29.2442 0.8218,-0.3133 4.248,-1.6721 8.7192,-3.0726 7.241,-2.3034 17.238,-4.4383 16.0501,-3.0449 -4.6928,5.505 -2.1813,18.3488 1.1007,30.1556 3.1167,11.212 7.4638,23.4357 7.9416,24.398 z m -29.7056,9.4038 c 1.0965,1.1972 -2.1374,3.4235 -5.6689,5.3629 -3.5182,1.9321 -7.5628,3.7265 -8.6826,3.0585 -0.6976,0.3681 -1.6275,0.2755 -2.7535,-0.1825 0,0 0,0 0,0 -8.7394,-3.5608 -31.2734,-29.4603 -30.5135,-41.3631 0,0 0,0 0,0 0.099,-1.4932 0.5586,-2.7398 1.4264,-3.6373 1.3085,-1.0111 5.8668,-4.6289 11.909,-8.3359 5.5233,-3.3888 10.9231,-5.9097 10.4046,-4.7613 -2.9949,6.6327 3.0033,18.224 9.4596,28.6466 6.114,9.87 13.7053,20.433 14.4189,21.2121 z m -25.1837,17.2653 c 1.3999,0.8132 -0.9867,3.8954 -3.7938,6.8338 -2.7943,2.925 -6.1862,5.9098 -7.4682,5.6081 -2.8199,2.8194 -14.8266,-3.0015 -25.8678,-10.6028 -11.0412,-7.6013 -20.6314,-17.7532 -17.8993,-23.1976 0.9197,-1.3118 4.1837,-6.1043 8.8067,-11.4024 4.2431,-4.8627 8.6635,-8.8996 8.5093,-7.6473 -0.8895,7.2222 8.3249,16.4912 17.6053,24.4938 8.7765,7.5681 19.2166,15.3966 20.1078,15.9144 z m -19.2534,24.2922 c 1.5796,0.3731 0.1165,4.0853 -1.8179,7.793 -1.9256,3.6909 -4.4303,7.6051 -5.7562,7.6737 -1.9999,3.5809 -15.1376,1.1648 -27.7869,-3.28 -12.6493,-4.4448 -24.5739,-11.6692 -23.4454,-17.5334 0.516,-1.4617 2.3445,-6.8807 5.2488,-13.1205 2.6736,-5.7442 5.7048,-10.7909 5.9213,-9.5596 1.2469,7.0927 12.6716,13.4147 23.8313,18.4813 10.633,4.8274 22.7086,9.2866 23.805,9.5455 z m -12.3283,29.3931 c 1.6289,-0.052 1.1207,4.02 0.1331,8.1942 -0.9838,4.1582 -2.4888,8.6431 -3.763,9.0381 -1.0959,4.0283 -14.4343,4.8058 -27.7722,3.4703 -13.3378,-1.3355 -26.621,-5.5145 -26.9436,-11.3999 0.1469,-1.5192 0.6112,-7.1473 1.8557,-13.7956 1.1464,-6.1241 2.7611,-11.6648 3.2881,-10.5456 3.0345,6.4436 15.6578,9.7315 27.7402,11.8403 11.6021,2.025 24.2325,3.2373 25.4617,3.1982 z m -4.9859,32.1089 c 1.2794,-0.3522 1.8028,2.2768 1.9595,5.5583 0.2372,4.8014 -0.2154,11.3944 -1.5497,12.1769 -0.1546,4.1822 -12.9709,7.9592 -26.2632,9.6843 -13.2924,1.7251 -27.178,0.6624 -28.8301,-4.9864 -0.2808,-2.0974 -1.3015,-9.0724 -1.4321,-16.8748 -0.087,-4.8789 0.2365,-8.6571 0.8706,-7.8691 4.4442,5.5222 17.482,5.8285 29.7292,5.0969 11.7973,-0.7046 24.2907,-2.4489 25.5158,-2.7861 z m 2.4548,32.5032 c 1.7826,-0.9666 3.6337,5.6477 4.5093,10.8503 0.492,2.9041 0.65,5.453 -0.055,6.1257 0.815,4.0435 -10.7464,10.7338 -23.2477,15.5778 -12.5012,4.844 -26.2632,7.0902 -29.213,1.9243 -0.2845,-0.7357 -1.5284,-3.8294 -2.8679,-7.8658 -2.4136,-7.2496 -4.8587,-17.3888 -3.4318,-16.269 5.5949,4.3907 18.3479,1.6983 30.1038,-1.816 11.3022,-3.3787 23.1042,-7.9316 24.2025,-8.5273 z m 9.8708,30.5852 c 1.187,-1.0785 3.37,2.1631 5.2797,5.7698 1.8991,3.5865 3.6679,7.7629 3.1431,9.0396 -0.018,0.044 -0.039,0.085 -0.063,0.1235 1.7683,3.5821 -7.619,13.0627 -18.3784,21.0602 -10.7594,7.9975 -23.4659,13.791 -27.7262,9.4535 -0.017,-0.024 -0.038,-0.052 -0.061,-0.083 0,0 0,0 0,0 -1.1298,-1.5432 -4.5337,-6.1363 -7.9753,-12.0278 -3.1558,-5.4023 -5.4846,-10.5566 -4.358,-10.0453 6.5447,2.9701 18.2293,-2.8129 28.7533,-9.1162 10.0549,-6.0224 20.5186,-13.3866 21.3856,-14.1743 z m 16.9726,26.2533 c 0.8657,-1.3737 3.8723,1.1635 6.6826,4.0758 2.7997,2.9014 5.6026,6.3567 5.2512,7.6161 2.2269,2.3975 -1.8177,10.9016 -7.7297,20.0099 -2.3579,3.6325 -5.0493,7.3303 -7.8694,10.6676 -7.0702,8.3669 -15.21,14.3197 -19.7038,11.8492 -1.3104,-0.991 -5.9881,-4.4328 -11.1379,-9.2747 -4.7107,-4.4289 -8.5591,-8.9712 -7.3155,-8.774 7.1803,1.1389 16.7921,-7.6986 25.1511,-16.6705 7.9217,-8.5028 16.104,-18.5989 16.6714,-19.4994 z m 23.271,19.826 c 0.4196,-1.5625 4.0019,-0.075 7.5641,1.8536 3.5452,1.919 7.3181,4.3993 7.3649,5.7147 3.4624,1.9731 1.0142,15.0906 -3.4102,27.7469 -4.4245,12.6563 -11.6888,24.5838 -17.6607,23.3787 -1.5048,-0.5415 -6.9944,-2.4333 -13.3283,-5.5051 -5.816,-2.8205 -10.8867,-6.0349 -9.6353,-6.2132 7.2157,-1.0279 13.7356,-12.3538 19.0195,-23.4055 4.9894,-10.4359 9.8236,-22.5928 10.086,-23.5701 z m 28.4495,12.1366 c -0.062,-1.6267 3.9537,-1.1933 7.9753,-0.3165 4.0116,0.8747 8.2675,2.2202 8.6715,3.4657 3.8246,0.9317 5.1274,14.1861 4.477,27.5684 -0.6504,13.3823 -4.3007,26.8686 -10.421,27.3853 -1.6567,-0.1008 -7.4084,-0.3764 -14.3288,-1.5377 -6.3223,-1.0609 -11.9468,-2.6561 -10.8108,-3.1948 6.4993,-3.0824 9.5829,-15.7594 11.5257,-27.8787 1.8553,-11.5744 2.9554,-24.3306 2.9111,-25.4917 z m 30.4484,3.6422 c -0.5104,-1.5326 3.202,-2.2847 7.1058,-2.675 3.8855,-0.3885 8.2534,-0.4601 9.0223,0.5926 2.2972,-0.1953 5.0368,4.0943 7.825,10.2986 3.7516,8.3422 7.4436,20.1893 8.1665,29.5877 0.5351,6.9899 -0.6629,12.6357 -4.0853,14.1039 -1.5996,0.4292 -7.2763,2.032 -14.3985,3.0792 -6.5201,0.9587 -12.624,1.1077 -11.6674,0.2621 5.523,-4.883 4.5656,-17.93 2.7707,-30.0486 -1.6803,-11.3438 -4.4534,-24.3424 -4.7391,-25.2005 z m 29.4256,-6.0576 c -0.8783,-1.1492 1.7105,-2.7987 4.9386,-4.3182 3.162,-1.4884 7.3095,-3.0252 9.3398,-3.1381 0.5355,-0.031 0.9506,0.03 1.2002,0.2093 3.8309,-1.544 12.5711,8.5512 19.6219,19.9459 7.0508,11.3947 11.8305,24.4637 7.3159,28.329 -0.3425,0.2138 -0.8075,0.509 -1.1499,0.7229 -2.799,1.7493 -7.513,4.5663 -12.9815,7.1296 -5.0513,2.3678 -9.4687,3.8668 -8.9168,2.8908 3.5692,-6.3122 -1.3847,-18.4237 -6.8842,-29.3689 -5.2091,-10.3671 -11.8511,-21.5743 -12.484,-22.4023 z m 28.1756,-15.2529 c -1.6744,-1.2618 3.7272,-5.6686 8.4604,-8.7247 2.7089,-1.7435 5.2232,-3.0168 6.1511,-2.6307 3.6936,-2.4758 14.2087,5.803 23.1866,15.7384 8.978,9.9353 16.1029,21.8164 12.6945,26.2701 -0.5286,0.5012 -2.8664,2.7794 -5.9189,5.5011 -5.4237,4.8184 -13.3827,10.9254 -12.9733,9.2205 1.6331,-6.8017 -5.9678,-17.4238 -13.9318,-26.7479 -7.7204,-9.0389 -16.5986,-17.8205 -17.6686,-18.6268 z m 26.468,-22.1815 c -1.4681,-0.7434 1.2986,-4.2991 4.6954,-7.6899 3.3874,-3.3813 7.4906,-6.6813 8.8343,-6.3342 3.493,-3.0713 14.9594,3.9379 25.0064,12.8289 10.047,8.8911 18.517,19.8489 15.8067,24.5278 -0.7924,0.96 -4.2032,5.2258 -8.3023,9.7051 -3.8715,4.2307 -7.7413,7.9153 -7.6801,6.7318 0.3507,-6.7789 -8.6767,-16.1645 -17.9637,-24.182 -9.1284,-7.8806 -19.0303,-14.8956 -20.3967,-15.5875 z m 24.634,-26.6376 c -1.3439,-0.5053 0.3819,-3.5183 2.9803,-6.7808 3.3961,-4.2913 8.3372,-9.1185 9.9023,-8.8469 6.5569,-6.6313 47.8813,24.7911 43.2048,34.4815 -0.761,1.0668 -4.5106,6.5023 -8.4085,11.4538 -2.9219,3.7336 -5.5561,6.6715 -5.624,5.6423 -0.438,-6.6382 -10.2353,-15.2211 -20.216,-22.3709 -9.8999,-7.092 -20.2876,-12.9958 -21.8389,-13.579 z m 23.5126,-29.2318 c -1.5898,-0.4951 0.8339,-4.6745 3.9933,-8.7239 3.1564,-4.0458 7.0701,-7.9854 8.4753,-7.8029 6.5831,-7.1523 48.4927,23.5308 44.3439,33.0338 -0.5351,0.8075 -3.5565,5.5224 -6.7213,10.029 -3.1059,4.4227 -6.1792,8.3796 -6.3241,7.2402 -0.8276,-6.5092 -10.9783,-14.6402 -21.2865,-21.3152 -10.2662,-6.6477 -20.8402,-11.9502 -22.4806,-12.461 z m 22.972,-30.7129 c -1.2978,-0.3672 0.019,-3.2435 2.2499,-6.5365 3.2861,-4.8631 8.5906,-10.6656 10.2869,-10.4657 6.7799,-7.4477 48.3946,23.6645 44.461,32.8766 -0.4903,0.7476 -4.6715,7.3395 -7.9981,12.0445 -2.3931,3.3927 -4.4368,5.9469 -4.5845,5.0145 -2.0283,-12.7973 -41.0044,-31.9686 -44.4152,-32.9334 z m 23.2856,-31.4337 c -1.6125,-0.461 0.898,-4.8371 4.2189,-9.0548 3.3241,-4.2216 7.4495,-8.2634 8.8783,-8.0712 7.2187,-7.5626 47.5532,25.2112 43.5977,33.9871 -0.4736,0.6859 -3.5506,5.3089 -6.5306,9.5366 -2.9785,4.2257 -5.8745,8.0517 -6.052,6.94 -1.0107,-6.3316 -11.153,-14.4702 -21.4912,-21.1001 -10.3714,-6.6512 -20.871,-11.7372 -22.6211,-12.2376 z m 24.5422,-31.4956 c -1.1968,-0.3846 0.035,-2.924 2.2441,-5.9256 3.6776,-5.0282 10.1121,-11.2753 11.9444,-10.9426 3.8188,-3.5889 15.4256,3.3667 25.3739,12.3659 9.9483,8.9991 18.452,19.8198 16.2577,24.0945 -0.6096,0.7851 -5.3207,7.1409 -8.904,11.5486 -2.2467,2.7809 -4.053,4.7632 -4.165,3.9069 -0.8211,-6.2757 -10.5834,-14.8643 -20.6295,-21.9272 -10.1133,-7.1101 -20.3429,-12.5488 -22.1216,-13.1205 z m 26.9561,-30.8424 c -1.575,-0.6239 1.6233,-4.8836 5.7515,-8.8518 4.1337,-3.9736 9.115,-7.5545 10.545,-7.1572 4.3244,-3.2839 15.0825,4.9294 23.8777,15.0283 8.7951,10.0989 15.9993,21.7571 13.5196,25.6241 -0.535,0.5579 -4.0174,4.3545 -7.2942,7.8968 -3.2727,3.538 -6.3799,6.8043 -6.4602,5.7141 -0.4553,-6.188 -9.4491,-15.6 -18.8754,-23.4578 -9.5441,-7.9561 -19.257,-14.0806 -21.064,-14.7965 z m 31.1596,-28.8234 c -1.4982,-0.8121 2.4025,-4.7715 7.3248,-8.2531 4.9341,-3.49 10.7207,-6.3492 12.114,-5.7226 5.0783,-2.6356 14.2244,7.4295 20.9351,19.0284 6.7108,11.5988 11.6842,24.3379 8.8228,27.5537 -0.5799,0.4283 -4.3719,3.3883 -7.9172,6.2218 -3.5386,2.8282 -6.8807,5.4916 -6.8417,4.4273 0.2202,-6.0145 -7.3197,-16.6697 -15.54,-25.7664 -8.3828,-9.2764 -17.1153,-16.523 -18.8978,-17.4891 z m 37.5302,-24.2086 c -1.3278,-1.1048 3.6499,-4.2782 9.6122,-6.6207 5.9877,-2.3525 12.6496,-3.7154 13.8855,-2.7442 1.7153,-0.3765 3.5062,0.3815 5.2109,1.9765 0,0 0,0 0,0 8.3932,7.8461 13.8214,35.359 12.7878,46.3307 0,0 0,0 0,0 -0.2171,2.2647 -0.7361,3.858 -1.6919,4.5047 -1.2525,0.4864 -4.0671,1.6806 -8.4619,3.7421 -3.764,1.7657 -7.2816,3.5062 -7.0647,2.5012 1.2225,-5.6653 -3.6344,-17.8087 -9.5883,-28.5106 -6.1234,-11.0065 -13.0411,-19.8079 -14.6896,-21.1797 z m 44.7153,-14.2367 c -0.7339,-1.1105 2.6489,-2.3307 7.3215,-2.9827 4.8164,-0.6721 10.3259,-0.6572 14.3636,-0.025 2.2124,0.3546 3.7688,0.866 4.135,1.4261 6.0308,0.6854 7.8028,14.2171 6.6224,27.5638 -1.1803,13.3467 -4.3653,26.6185 -8.1715,27.6852 -0.2576,0.012 -1.2732,0.075 -2.5665,0.1867 -3.2095,0.2597 -5.1856,0.5196 -8.8533,0.9637 -2.8523,0.3453 -5.0383,0.5653 -4.6602,-0.1424 2.6718,-5.0012 1.836,-18.041 -0.5539,-30.054 -2.4674,-12.4024 -6.4169,-22.7757 -7.6371,-24.6217 z m 47.2372,0.5313 c -0.545,-2.0717 8.9386,-0.9085 16.1236,1.5759 4.4103,1.5016 7.955,3.3703 8.2676,4.4624 5.4593,2.3314 3.3499,15.8141 -1.5295,28.3013 -4.8795,12.4871 -11.6803,24.3477 -15.7681,24.2268 -0.5841,-0.148 -2.9022,-0.6903 -5.9359,-1.3055 -5.2196,-1.0318 -11.3772,-1.9467 -10.4947,-2.757 4.3075,-3.9559 7.437,-16.5266 8.8806,-28.7326 1.4823,-12.5327 1.0091,-23.6705 0.4564,-25.7713 z m 44.1599,14.0304 c 0.042,-1.7347 5.6974,0.2818 11.2479,3.5816 5.5789,3.3167 10.7234,7.7537 10.7093,9.323 0.9343,0.7819 1.4581,1.9277 1.6145,3.3313 0,0 0,0 0,0 1.2262,11.2463 -21.2778,37.0913 -30.5143,41.3641 0,0 0,0 0,0 -1.183,0.5467 -2.1771,0.7404 -2.941,0.4873 -1.1115,-0.6724 -3.8589,-2.2266 -8.0806,-4.3891 -3.6504,-1.8698 -7.0912,-3.5145 -6.1835,-3.9693 5.1383,-2.5742 11.7467,-13.8342 16.5301,-25.1103 4.926,-11.6122 7.5651,-22.4426 7.6176,-24.6186 z m 38.6458,26.5264 c 0.5579,-1.6455 5.3727,1.9898 9.6658,6.7726 4.3176,4.81 7.8541,10.51 7.3708,11.9922 3.2213,5.0033 -6.0907,14.9772 -17.1319,22.5784 -11.0413,7.6012 -23.3261,13.6001 -26.6353,11.2219 -0.8685,-0.974 -3.1163,-3.3597 -6.4999,-6.705 -2.9403,-2.9071 -5.6962,-5.4936 -4.7005,-5.6564 5.6663,-0.9268 15.3364,-9.6678 23.2902,-19.0007 8.1874,-9.6068 13.9398,-19.135 14.6408,-21.203 z m 28.8894,36.3965 c 1.0075,-1.4088 4.5349,3.3662 7.2791,9.0432 2.7584,5.7067 4.5786,12.0323 3.7139,13.3076 1.7201,5.5761 -9.8899,12.7006 -22.5393,17.1453 -12.6494,4.4448 -26.1016,6.9607 -28.6931,3.668 -0.5916,-1.2139 -2.1461,-4.2009 -4.5298,-8.4776 -2.0715,-3.7165 -4.0378,-7.0588 -3.0178,-6.9176 5.8257,0.8066 17.4529,-4.8781 27.73,-11.6053 10.5399,-6.8991 18.8035,-14.4109 20.057,-16.1636 z m 17.714,42.074 c 1.3339,-1.0938 3.5019,4.3109 4.7346,10.3856 1.2383,6.1021 1.4688,12.5978 0.3256,13.6147 0.3214,5.7512 -12.6331,9.9063 -25.971,11.2418 -13.3379,1.3354 -27.0049,0.5817 -28.7448,-3.3123 -0.2959,-1.3831 -1.0845,-4.6442 -2.3797,-9.5311 -1.1163,-4.2121 -2.1951,-8.0571 -1.2471,-7.6479 5.4021,2.3317 18.1557,-0.2691 29.7804,-4.2016 11.908,-4.0283 21.863,-9.2053 23.502,-10.5492 z m 6.9388,44.5263 c 1.2357,-0.5974 2.0564,2.9793 2.2145,7.6415 0.245,6.9832 -1.1149,15.8565 -2.7789,16.7592 -0.9943,5.6647 -14.5543,6.7783 -27.8467,5.0531 -13.2923,-1.7251 -26.4342,-5.553 -27.2466,-9.7513 0.015,-0.837 -0.088,-7.2047 -0.2029,-12.0609 -0.087,-3.4395 -0.094,-6.1569 0.604,-5.6294 4.7163,3.5641 17.7321,3.9564 29.95,2.8076 12.5052,-1.1757 23.4128,-3.9042 25.3066,-4.8198 z m -3.4094,44.8418 c 2.1416,-0.4832 0.6547,9.2431 -1.9846,16.377 -1.4733,3.9944 -3.205,7.1327 -4.237,7.413 -2.3132,5.3329 -15.771,3.2142 -28.2722,-1.6298 -12.5013,-4.8441 -24.3669,-11.662 -24.1884,-15.8725 0.1421,-0.5468 0.6791,-2.7688 1.3138,-5.6728 1.1629,-5.3514 2.313,-12.2144 3.1188,-11.2515 3.778,4.5146 16.3641,7.8847 28.5139,9.5607 12.4464,1.7168 23.6767,1.5405 25.7357,1.0759 z m -13.9763,43.2011 c 1.6957,0.033 -0.1093,5.419 -3.1463,10.834 -3.0577,5.452 -7.1977,10.6072 -8.9166,10.9678 -0.056,0.012 -0.1082,0.018 -0.1577,0.019 -3.6855,4.6583 -16.1335,-0.9296 -26.8928,-8.9272 -10.7594,-7.9976 -20.4053,-17.6837 -19.2117,-21.5867 0.01,-0.017 0.021,-0.037 0.033,-0.059 0,0 0,0 0,0 0.8093,-1.4418 2.2169,-4.1 4.3841,-8.5266 1.8279,-3.7335 3.4435,-7.1908 3.8955,-6.2818 2.5933,5.2153 13.9592,11.6171 25.3117,16.2338 11.6583,4.741 22.5613,7.2857 24.7005,7.3273 z m -25.1256,38.7901 c 1.6624,0.4977 -1.7671,5.4198 -6.3984,9.8979 -4.6554,4.5013 -10.2695,8.2858 -11.7777,7.8601 -4.1092,2.8625 -12.0557,-2.8292 -19.0685,-11.1211 -2.802,-3.3129 -5.4957,-7.014 -7.879,-10.6804 -5.9653,-9.1779 -10.1981,-17.9358 -8.3552,-20.7253 0.9449,-0.9057 3.1697,-3.1652 6.3795,-6.6883 2.7742,-3.0448 5.2743,-5.9345 5.4729,-4.9384 1.1253,5.6432 10.2526,14.9787 19.8775,22.5627 9.9092,7.808 19.6657,13.209 21.7489,13.8328 z m -35.7087,30.324 c 1.4438,0.969 -3.3431,4.6686 -9.0948,7.5582 -5.7852,2.9064 -12.2162,4.82 -13.5185,3.964 -5.6753,1.793 -12.8412,-9.8191 -17.2656,-22.4754 -4.4244,-12.6563 -6.9709,-26.0893 -3.8051,-28.6502 1.1592,-0.5752 4.0707,-2.1198 8.167,-4.4914 3.5709,-2.0675 6.768,-4.0503 6.6658,-3.0374 -0.5756,5.704 5.3127,17.3263 12.2292,27.4495 7.1211,10.4227 14.8044,18.4629 16.622,19.6827 z"
         style="fill:#c87117;fill-opacity:1;stroke:none;stroke-width:1.16386px;stroke-linecap:butt;stroke-linejoin:miter;stroke-opacity:1"
         class="UnoptimicedTransforms" />
    </g>
  </g>
</svg>
