<?xml version="1.0" encoding="UTF-8" standalone="no"?>
<!-- Created with Inkscape (http://www.inkscape.org/) -->

<svg
   width="188.67363mm"
   height="121.33868mm"
   viewBox="0 0 668.52861 429.94021"
   id="svg2"
   version="1.1"
   inkscape:version="0.92.5 (2060ec1f9f, 2020-04-08)"
   sodipodi:docname="wi-all.svg"
   inkscape:export-filename="/home/fred/Dropbox/svg/entremet/wienerbrød/2.png"
   inkscape:export-xdpi="90"
   inkscape:export-ydpi="90"
   xmlns:inkscape="http://www.inkscape.org/namespaces/inkscape"
   xmlns:sodipodi="http://sodipodi.sourceforge.net/DTD/sodipodi-0.dtd"
   xmlns="http://www.w3.org/2000/svg"
   xmlns:svg="http://www.w3.org/2000/svg"
   xmlns:rdf="http://www.w3.org/1999/02/22-rdf-syntax-ns#"
   xmlns:cc="http://creativecommons.org/ns#"
   xmlns:dc="http://purl.org/dc/elements/1.1/">
  <defs
     id="defs4">
    <linearGradient
       id="linearGradient56905"
       inkscape:swatch="solid">
      <stop
         style="stop-color:#923c3c;stop-opacity:1;"
         offset="0"
         id="stop56903" />
    </linearGradient>
    <inkscape:path-effect
       pattern-nodetypes="ccccc"
       fuse_tolerance="0"
       vertical_pattern="false"
       prop_units="false"
       tang_offset="0"
       normal_offset="0"
       spacing="-0.2"
       scale_y_rel="true"
       prop_scale="1"
       copytype="repeated"
       pattern="m -3.0727287,269.9398 -0.8124067,10.74529 h -0.8124068 l 0.8124068,-10.74529 z"
       is_visible="true"
       id="path-effect4109"
       effect="skeletal"
       lpeversion="0"
       hide_knot="false" />
    <inkscape:path-effect
       bendpath-nodetypes="caaaaaaac"
       vertical="false"
       scale_y_rel="false"
       prop_scale="1"
       bendpath="m 78.839442,-64.292628 c 0,0 3.418057,526.833048 -26.505322,618.361528 C 38.583699,596.12815 15.825209,527.13854 10.588958,434.86223 1.7958624,279.90513 24.133616,92.762321 44.055155,-10.566438 c 10.20312,-52.921396 25.09927,-58.823221 38.184277,-58.823256 13.085053,-3.6e-5 28.022978,5.567819 38.184418,58.823256 19.07609,99.976494 40.17319,281.892878 31.50277,430.364108 C 145.7577,525.43353 119.16502,607.75728 103.79009,554.0689 75.300219,454.58395 87.108984,-64.383157 87.156323,-64.292628"
       is_visible="true"
       id="path-effect4111"
       effect="bend_path"
       lpeversion="0"
       hide_knot="false" />
  </defs>
  <sodipodi:namedview
     id="base"
     pagecolor="#ffffff"
     bordercolor="#666666"
     borderopacity="1.0"
     inkscape:pageopacity="1"
     inkscape:pageshadow="2"
     inkscape:zoom="0.125"
     inkscape:cx="2429.4412"
     inkscape:cy="7952.729"
     inkscape:document-units="mm"
     inkscape:current-layer="layer1"
     showgrid="true"
     inkscape:window-width="1880"
     inkscape:window-height="1016"
     inkscape:window-x="40"
     inkscape:window-y="27"
     inkscape:window-maximized="1"
     showguides="false"
     inkscape:guide-bbox="true"
     inkscape:lockguides="true"
     inkscape:snap-global="true"
     inkscape:snap-bbox="true"
     inkscape:snap-nodes="true"
     objecttolerance="10000"
     guidetolerance="10000"
     inkscape:pagecheckerboard="false"
     inkscape:showpageshadow="2"
     inkscape:deskcolor="#d1d1d1">
    <inkscape:grid
       type="xygrid"
       id="grid5214"
       units="mm"
       spacingx="17.716535"
       spacingy="17.716535"
       originx="0"
       originy="0"
       empspacing="10"
       dotted="false" />
    <sodipodi:guide
       position="4400.8516,360.91373"
       orientation="1,0"
       id="guide61746"
       inkscape:locked="true" />
    <sodipodi:guide
       position="4560.3004,431.77987"
       orientation="0,1"
       id="guide61750"
       inkscape:locked="true" />
    <sodipodi:guide
       position="3515.8827,1049.9747"
       orientation="0,1"
       id="guide4470"
       inkscape:locked="true" />
    <sodipodi:guide
       position="-1826.6213,1657.4896"
       orientation="1,0"
       id="guide5403"
       inkscape:locked="true" />
    <sodipodi:guide
       position="-5788.3546,-908.91513"
       orientation="1,0"
       id="guide8722"
       inkscape:locked="true" />
  </sodipodi:namedview>
  <metadata
     id="metadata7">
    <rdf:RDF>
      <cc:Work
         rdf:about="">
        <dc:format>image/svg+xml</dc:format>
        <dc:type
           rdf:resource="http://purl.org/dc/dcmitype/StillImage" />
        <dc:title />
      </cc:Work>
    </rdf:RDF>
  </metadata>
  <g
     inkscape:label="layer1"
     inkscape:groupmode="layer"
     id="layer1"
     transform="translate(-4240.8464,7227.3434)">
    <path
       inkscape:path-effect="#path-effect4109;#path-effect4111"
       transform="matrix(-4.2603791,0,0,-0.65951204,4921.3759,-6846.9866)"
       sodipodi:nodetypes="ccc"
       inkscape:connector-curvature="0"
       inkscape:original-d="M 158.77804,101.71719 H -15.594273 Z"
       id="pal4"
       d="m 91.998333,-38.40129 c -0.960424,-1.12687 -1.920647,-2.254077 -2.880664,-3.38163 -2.544568,-2.988671 -5.087782,-5.97944 -7.628847,-8.974276 0.05223,-2.604452 0.106095,-5.209228 0.162102,-7.814317 0.03114,-1.448473 0.06285,-2.898803 0.09663,-4.350953 1.245947,1.481925 2.494053,2.958434 3.742714,4.433497 2.245192,2.652459 4.492604,5.301081 6.741683,7.947232 -0.05892,2.937659 -0.115777,5.875816 -0.171333,8.814454 -0.02096,1.108656 -0.04172,2.21732 -0.06229,3.325993 z m -0.371777,21.295479 c -3.514888,-4.106382 -7.027359,-8.216817 -10.537254,-12.331686 0.07131,-4.05184 0.145123,-8.1037 0.221576,-12.155576 3.504672,4.119447 7.012075,8.234208 10.522048,12.344664 -0.07124,4.047426 -0.139976,8.09496 -0.20637,12.142598 z M 91.298103,4.1915764 c 0.07981,0.092883 -10.641557,-12.4036051 -10.561748,-12.3107218 0.063,-4.0517526 0.128242,-8.1035356 0.195872,-12.1553416 3.513635,4.111582 7.029728,8.21892 10.548121,12.3223967 -0.06294,4.0477909 -0.123637,8.09568141 -0.182245,12.1436667 z M 91.008261,25.4907 c -2.069679,-2.400504 -4.138686,-4.802167 -6.20703,-7.20496 -1.459155,-1.695101 -2.917973,-3.390783 -4.376443,-5.087071 0.05558,-4.0516358 0.113154,-8.1033092 0.172856,-12.1550156 3.521673,4.1044782 7.045534,8.205156 10.571425,12.3024146 -0.02297,1.674513 -0.04561,3.349041 -0.06791,5.023585 -0.03161,2.37368 -0.06258,4.747363 -0.0929,7.121047 z M 90.754129,46.790391 C 87.217425,42.702457 83.68276,38.610986 80.15009,34.51612 c 0.04884,-4.051697 0.09963,-8.103345 0.152311,-12.154943 3.528778,4.098166 7.059503,8.19303 10.592219,12.284453 -0.04879,4.048252 -0.09564,8.096506 -0.140491,12.144761 z m -0.21725,21.299695 c -3.54394,-4.081584 -7.085756,-8.166869 -10.625494,-12.255716 0.04184,-4.05186 0.08573,-8.103676 0.131601,-12.155445 3.53567,4.092316 7.073371,8.181166 10.613147,12.266407 -0.04181,4.048254 -0.08158,8.096506 -0.119254,12.144754 z M 90.358198,89.389708 C 86.806715,85.314773 83.257439,81.23597 79.710326,77.15344 c 0.03453,-4.052009 0.07119,-8.103977 0.109929,-12.155903 3.542871,4.086169 7.087855,8.168705 10.634999,12.247468 -0.0345,4.048241 -0.06687,8.096476 -0.09706,12.144703 z m -0.138427,21.299472 c -3.559334,-4.06799 -7.116377,-8.14001 -10.671173,-12.215926 0.02689,-4.052143 0.05601,-8.104249 0.0873,-12.156318 3.550378,4.079724 7.102954,8.15565 10.657773,12.227636 -0.02687,4.048218 -0.05152,8.096418 -0.0739,12.144608 z m -0.09649,21.29925 c -3.567493,-4.06075 -7.132609,-8.12569 -10.695396,-12.19469 0.01894,-4.05227 0.04019,-8.1045 0.0637,-12.15669 3.558193,4.07298 7.118669,8.14199 10.681471,12.20691 -0.01892,4.04817 -0.03553,8.09633 -0.04978,12.14447 z m -0.05286,21.29894 c -3.575958,-4.0532 -7.149457,-8.11077 -10.720542,-12.17256 0.01066,-4.05237 0.02373,-8.10471 0.03915,-12.15702 3.566316,4.06594 7.134997,8.12775 10.706091,12.18529 -0.01065,4.04812 -0.0189,8.09622 -0.0247,12.14429 z m -0.0075,21.29857 c -3.584732,-4.04536 -7.16692,-8.09526 -10.746611,-12.14954 0.0021,-4.05246 0.0066,-8.10489 0.01363,-12.1573 3.574746,4.0586 7.151942,8.1129 10.731634,12.16277 -0.0021,4.04805 -0.0016,8.09607 0.0013,12.14407 z m 0.03945,21.29811 c -3.593813,-4.03722 -7.184999,-8.07915 -10.773603,-12.12562 -0.0069,-4.05254 -0.01112,-8.10505 -0.01285,-12.15755 3.583483,4.05097 7.169501,8.09747 10.758099,12.13938 0.0068,4.04795 0.01628,8.09589 0.02835,12.14379 z m 0.08829,21.29737 c -2.865577,-3.20367 -5.729343,-6.41063 -8.591382,-9.62063 -0.736878,-0.82646 -1.473643,-1.65312 -2.210297,-2.47997 -0.01609,-4.0526 -0.0295,-8.10518 -0.04028,-12.15774 3.592529,4.04303 7.187676,8.08143 10.785487,12.11507 0.0033,0.8288 0.0067,1.65759 0.01021,2.48639 0.01366,3.21902 0.02905,6.43798 0.04626,9.65688 z m 0.141526,21.29562 c -3.614004,-4.01867 -7.22484,-8.04314 -10.832673,-12.07291 -0.02613,-4.05287 -0.04923,-8.10567 -0.06949,-12.1584 3.601978,4.03482 7.206784,8.0647 10.814585,12.08911 0.0261,4.0475 0.05523,8.09491 0.08758,12.1422 z m 0.200896,21.29358 c -3.625764,-4.00774 -7.248054,-8.0219 -10.867035,-12.04196 -0.03736,-4.05307 -0.07136,-8.10609 -0.102177,-12.15905 3.612488,4.02573 7.228109,8.0459 10.847031,12.06001 0.0373,4.04712 0.07797,8.09413 0.122181,12.141 z m 0.266402,21.29126 c -3.638644,-3.99574 -7.273507,-7.99849 -10.904756,-12.00775 -0.04976,-4.05322 -0.09582,-8.10641 -0.138364,-12.15955 3.624117,4.01555 7.251673,8.02494 10.882836,12.02766 0.04967,4.04668 0.103037,8.09323 0.160284,12.13964 z m 0.338045,21.28866 c -3.652644,-3.98265 -7.301201,-7.97292 -10.945837,-11.97029 -0.06332,-4.05332 -0.122606,-8.10662 -0.17805,-12.15989 3.636866,4.00428 7.277477,8.0018 10.922001,11.99205 0.06321,4.04619 0.130439,8.09224 0.201886,12.13813 z m 0.415571,21.28606 c -2.740983,-2.96598 -5.479509,-5.93664 -8.215766,-8.91137 -0.925024,-1.00567 -1.849775,-2.01183 -2.774257,-3.01849 -0.07805,-4.05337 -0.151729,-8.10673 -0.221236,-12.16007 3.650735,3.99193 7.305521,7.9765 10.964526,11.95319 0.01968,1.02214 0.03965,2.04426 0.05989,3.06637 0.0599,3.02363 0.122103,6.04709 0.186845,9.07037 z m 0.50072,21.28111 c -3.684889,-3.95174 -7.364525,-7.91366 -11.039361,-11.88425 -0.09399,-4.05362 -0.182986,-8.10711 -0.267539,-12.16043 3.665559,3.9786 7.335433,7.94955 11.010073,11.91133 0.0938,4.04482 0.192553,8.08929 0.296827,12.13335 z m 0.602525,21.27384 c -3.705375,-3.93157 -7.404645,-7.8751 -11.098263,-11.82909 -0.113221,-4.05398 -0.220473,-8.10789 -0.322312,-12.1617 3.682516,3.96386 7.3702,7.91827 11.063501,11.86174 0.112906,4.04345 0.231746,8.08648 0.357074,12.12905 z m 0.722273,21.2653 c -3.729061,-3.90814 -7.451166,-7.83003 -11.166764,-11.76417 -0.135861,-4.05409 -0.264782,-8.10819 -0.387316,-12.16224 3.702673,3.94585 7.411366,7.88049 11.126529,11.80238 0.135426,4.04185 0.277758,8.0832 0.427551,12.12403 z m 0.859961,21.25553 c -3.755946,-3.88146 -7.504084,-7.77846 -11.244864,-11.68949 -0.161911,-4.05398 -0.315909,-8.10801 -0.462549,-12.16208 3.72603,3.9246 7.458932,7.8362 11.199157,11.73326 0.161355,4.04001 0.330589,8.07946 0.508256,12.11831 z m 1.012376,21.24648 c -3.785269,-3.85187 -7.561249,-7.72354 -11.3297,-11.60782 -0.04132,-0.87862 -0.08226,-1.7572 -0.122869,-2.63573 -0.146884,-3.17483 -0.288392,-6.34973 -0.424791,-9.52469 2.939018,3.05455 5.882773,6.10002 8.831483,9.13569 0.816283,0.8405 1.632888,1.68038 2.449834,2.51955 0.190277,4.03909 0.388091,8.07686 0.596043,12.113 z m 1.201701,21.21924 c -3.826475,-3.80622 -7.640083,-7.64088 -11.442586,-11.49675 -0.225984,-4.05515 -0.43959,-8.10987 -0.643419,-12.16384 3.781338,3.87403 7.571742,7.73177 11.372974,11.56599 0.224713,4.03351 0.461523,8.06515 0.713031,12.0946 z m 1.472947,21.17892 c -3.881952,-3.74449 -7.747461,-7.52603 -11.598285,-11.33741 -0.277398,-4.05569 -0.537858,-8.1115 -0.783981,-12.16712 3.821524,3.83871 7.655691,7.65251 11.504262,11.43418 0.275144,4.02598 0.566945,8.04953 0.878004,12.07035 z m 1.828346,21.12833 c -3.9517,-3.66666 -7.88338,-7.37899 -11.796798,-11.12978 -0.344806,-4.05428 -0.668114,-8.10923 -0.972524,-12.16456 3.875979,3.78731 7.768181,7.54108 11.678363,11.25409 0.341569,4.0165 0.704355,8.03003 1.090959,12.04025 z m 2.291467,21.03501 c -4.05066,-3.53679 -8.068793,-7.16314 -12.060984,-10.83943 -0.148858,-1.40281 -0.293976,-2.80524 -0.435931,-4.20719 -0.268461,-2.64985 -0.526161,-5.30018 -0.773828,-7.9509 2.579854,2.43276 5.168177,4.84749 7.765459,7.24217 1.374097,1.26687 2.750734,2.52794 4.130184,3.78155 0.42494,4.00132 0.87867,7.99351 1.3751,11.9738 z m 3.07957,20.81861 c -1.94698,-1.52423 -3.88403,-3.08976 -5.812185,-4.67479 -2.246621,-1.8465 -4.480117,-3.72754 -6.701517,-5.63692 -0.582549,-4.05699 -1.109484,-8.11567 -1.594705,-12.17327 4.041806,3.63247 8.116356,7.1944 12.230237,10.64614 0.30606,2.13156 0.62751,4.25907 0.96654,6.3821 0.29339,1.82743 0.59482,3.64713 0.91163,5.45674 z m 4.66873,20.0038 c -1.15044,-0.62224 -2.299,-1.29822 -3.44257,-2.00728 -3.39272,-2.11091 -6.729691,-4.45168 -10.015302,-6.92963 -0.894607,-4.07877 -1.63973,-8.15724 -2.309781,-12.21132 4.204814,3.46819 8.469643,6.84684 12.804983,9.91443 0.62596,2.86694 1.32362,5.69723 2.12412,8.4808 0.26994,0.93332 0.54732,1.85219 0.83855,2.753 z m 5.4634,10.14257 c 0.0545,0.32273 0.086,0.64025 0.0817,0.95032 0.19627,1.0488 -0.33049,2.34305 -1.4953,3.03449 0,0 0,0 0,0 -1.48588,0.85899 -3.77662,0.73821 -5.80269,0.20827 -1.4999,-0.36131 -3.00524,-0.91911 -4.47008,-1.57466 -0.65754,-1.12964 -1.20711,-2.25094 -1.67621,-3.33581 -1.36259,-3.05771 -2.392089,-6.13688 -3.248926,-9.14761 3.393306,2.28257 6.910026,4.42363 10.472066,5.90763 1.28124,0.53393 2.55629,0.9773 3.77815,1.22914 0.40056,0.71565 0.8146,1.34859 1.26899,1.87137 0.66972,0.63837 1.00707,1.10725 1.06732,0.98269 l 0,0 c -0.23405,-0.0155 -0.21129,-0.053 -0.22227,-0.0351 0.0705,-0.003 0.15263,-0.0346 0.2472,-0.0908 z m 8.92949,-14.97531 c 1.869,4.72605 3.45817,9.62802 4.25311,15.07557 0.0296,0.20089 0.0575,0.40305 0.0835,0.60653 -1.09759,1.82942 -2.42753,3.70868 -4.10294,5.5019 -1.25412,1.43836 -3.088,2.8638 -5.56967,3.91754 l 0,0 c -1.22045,0.47453 -2.51888,0.71012 -3.84896,0.69443 1.33237,-0.55808 2.41435,-1.37165 3.2324,-2.30544 0,0 0,0 0,0 1.66069,-2.11782 2.01006,-4.25012 2.06794,-6.21857 0,0 0,0 0,0 0.0702,-2.52364 -0.41025,-4.85995 -0.96759,-7.17314 0.0666,-0.10795 0.13342,-0.21681 0.20036,-0.32654 1.8113,-3.00871 3.29991,-6.3074 4.65184,-9.77228 z m 6.32648,-19.71352 c 2.43594,4.76067 4.74744,9.63726 6.85852,14.70813 -0.31925,0.97739 -0.64644,1.95331 -0.9821,2.92753 -1.00619,2.95192 -2.10531,5.94613 -3.38587,8.92372 -1.20011,-4.0388 -2.70299,-7.83449 -4.2638,-11.56299 -0.51465,-1.2192 -1.04183,-2.42727 -1.58041,-3.62541 1.22279,-3.74014 2.32891,-7.53558 3.35366,-11.37098 z m 4.77375,-20.44011 c 2.60584,4.46474 5.14223,9.00641 7.59281,13.64429 0.0947,0.17889 0.18924,0.35793 0.28367,0.53712 -0.94479,3.99578 -1.95788,7.99436 -3.07458,11.98043 -2.33256,-4.9516 -4.81849,-9.74445 -7.38181,-14.4569 0.0343,-0.14447 0.0685,-0.28897 0.1026,-0.43352 0.88176,-3.74051 1.70473,-7.49865 2.47731,-11.27142 z m 3.77077,-20.74409 c 0.5853,0.91642 1.16852,1.83546 1.74963,2.75714 2.29386,3.63789 4.55479,7.31658 6.7735,11.04702 -0.74187,4.02653 -1.53399,8.04813 -2.38575,12.06143 -2.65183,-4.7568 -5.38534,-9.41903 -8.1822,-14.00827 0.57908,-3.14386 1.12807,-6.29615 1.65174,-9.45517 0.13266,-0.80043 0.26369,-1.60115 0.39308,-2.40215 z m 3.01092,-20.91093 c 3.0469,4.43635 6.0486,8.93264 9.00118,13.49269 -0.56517,3.86357 -1.16612,7.72271 -1.80439,11.57668 -0.0294,0.17764 -0.0589,0.35528 -0.0885,0.53291 -0.12606,-0.20356 -0.25224,-0.40699 -0.37852,-0.61028 -2.74013,-4.4106 -5.52793,-8.76101 -8.35996,-13.05457 0.58125,-3.97301 1.12406,-7.95243 1.63019,-11.93743 z m 2.33389,-21.01401 c 3.18288,4.34325 6.32619,8.74245 9.42599,13.20143 -0.45923,4.05615 -0.95455,8.10888 -1.48771,12.15737 -3.01773,-4.51606 -6.08216,-8.97007 -9.18938,-13.36586 0.45182,-3.99296 0.86827,-7.99088 1.2511,-11.99294 z m 1.71354,-21.09043 c 3.3036,4.2546 6.57326,8.56117 9.80504,12.92354 -0.33801,4.0656 -0.70904,8.12923 -1.11485,12.19006 -3.15839,-4.41691 -6.35788,-8.77575 -9.59451,-13.08035 0.33315,-4.00784 0.63401,-8.0192 0.90432,-12.03325 z m 1.17803,-21.16106 c 3.39369,4.19026 6.76437,8.41716 10.11062,12.68303 -0.0375,0.66401 -0.0757,1.328 -0.11443,1.99198 -0.19861,3.40476 -0.41837,6.80906 -0.66033,10.21241 -2.74722,-3.61593 -5.51927,-7.19401 -8.31383,-10.73648 -0.54581,-0.69264 -1.09227,-1.38425 -1.63939,-2.07484 0.22781,-4.02392 0.43328,-8.04934 0.61736,-12.0761 z m 0.77622,-21.19799 c 3.46819,4.13039 6.91556,8.29478 10.34072,12.49552 -0.15376,4.06539 -0.32835,8.13041 -0.52471,12.19488 -3.381,-4.23738 -6.78547,-8.43691 -10.21201,-12.60094 0.15236,-4.02867 0.28405,-8.05855 0.396,-12.08946 z m 0.41204,-21.21696 c 3.53591,4.07457 7.05321,8.18053 10.55049,12.3202 -0.0836,4.06614 -0.18634,8.13221 -0.30922,12.19805 -3.45698,-4.17399 -6.93524,-8.31277 -10.43337,-12.41867 0.0827,-4.03236 0.14646,-8.06561 0.1921,-12.09958 z m 0.0785,-21.23026 c 3.59686,4.02282 7.17732,8.07441 10.73996,12.15708 -0.0192,4.06581 -0.056,8.13186 -0.11119,12.19798 -3.5262,-4.11468 -7.07148,-8.19677 -10.63442,-12.2486 0.0189,-4.03496 0.0205,-8.0705 0.006,-12.10646 z m -0.22451,-21.23788 c 3.65105,3.97515 7.28789,7.97642 10.90911,12.00616 0.0393,4.0644 0.0627,8.12934 0.0694,12.19467 -3.58865,-4.05942 -7.19417,-8.08889 -10.81515,-12.09072 -0.0391,-4.03648 -0.0938,-8.07324 -0.16335,-12.11011 z m -0.49723,-21.23938 c 1.46826,1.56023 2.93447,3.12434 4.39862,4.69238 2.22456,2.38249 4.44456,4.77386 6.65968,7.17462 0.092,4.06191 0.16985,8.12467 0.23252,12.18813 -3.64432,-4.00824 -7.30331,-7.98914 -10.97556,-11.94504 -0.055,-2.43457 -0.11515,-4.86913 -0.18018,-7.30364 -0.0428,-1.6022 -0.0879,-3.20435 -0.13508,-4.80645 z m -0.75066,-21.23377 c 3.74475,3.88779 7.4773,7.79929 11.19716,11.73533 0.14029,4.05973 0.26705,8.12009 0.37992,12.18102 -3.69324,-3.96144 -7.39961,-7.89782 -11.11862,-11.80995 -0.13944,-4.03582 -0.29237,-8.07131 -0.45846,-12.1064 z m -0.99358,-21.22651 c 3.78808,3.84623 7.56471,7.71524 11.3294,11.60787 0.18678,4.05735 0.3606,8.11543 0.52113,12.17418 -3.73942,-3.91721 -7.4912,-7.81027 -11.25487,-11.68002 -0.18575,-4.03446 -0.38441,-8.06849 -0.59566,-12.10203 z m -1.2258,-21.21741 c 3.82907,3.80611 7.64744,7.63409 11.45463,11.48475 0.23123,4.05462 0.45008,8.11007 0.65622,12.16629 -3.78325,-3.87441 -7.5781,-7.72562 -11.38408,-11.55442 -0.23003,-4.03276 -0.4724,-8.06499 -0.72677,-12.09662 z m -1.44733,-21.20649 c 3.86771,3.76745 7.72548,7.55584 11.57283,11.36598 0.27366,4.05155 0.53551,8.10402 0.78523,12.15736 -3.82474,-3.83307 -7.66033,-7.64386 -11.50629,-11.43317 -0.27228,-4.03071 -0.55631,-8.06079 -0.85177,-12.09017 z m -1.65817,-21.19373 c 3.90401,3.73023 7.79884,7.48048 11.684,11.25156 0.31405,4.04812 0.61688,8.09727 0.90815,12.14738 -3.86389,-3.79318 -7.73787,-7.565 -11.62148,-11.31627 -0.31249,-4.02831 -0.63616,-8.05588 -0.97067,-12.08267 z m -1.85917,-21.17863 c 3.93869,3.69368 7.86841,7.4074 11.78904,11.14095 0.0805,0.92409 0.16046,1.84823 0.23985,2.77241 0.26813,3.12067 0.52987,6.242 0.78508,9.36397 -3.00945,-2.89684 -6.02446,-5.78151 -9.04481,-8.65439 -0.89449,-0.85081 -1.78944,-1.70058 -2.68487,-2.54931 -0.35074,-4.02552 -0.71215,-8.05008 -1.08429,-12.07363 z m -2.05728,-21.15998 c 3.97324,3.65639 7.93761,7.33311 11.89299,11.02995 0.39019,4.04108 0.76954,8.08318 1.13813,12.12623 -3.93557,-3.71786 -7.88018,-7.41577 -11.83372,-11.09351 -0.38835,-4.02198 -0.78746,-8.04289 -1.1974,-12.06267 z m -2.25709,-21.13905 c 4.00777,3.61837 8.00678,7.25738 11.99691,10.9168 0.42834,4.0373 0.84576,8.07574 1.2523,12.11525 -3.97032,-3.68084 -7.94958,-7.34144 -11.93766,-10.98158 -0.42629,-4.01803 -0.86345,-8.03488 -1.31155,-12.05047 z m -2.45874,-21.11595 c 4.04228,3.57963 8.07591,7.1802 12.10078,10.80147 0.46685,4.03312 0.92268,8.06749 1.36753,12.10305 -4.00506,-3.6431 -8.01895,-7.26568 -12.04155,-10.86749 -0.4646,-4.01367 -0.94017,-8.02604 -1.42676,-12.03703 z m -2.66225,-21.090696 c 4.07679,3.54018 8.14503,7.101578 12.20461,10.683977 0.50572,4.028529 1.0003,8.058429 1.48382,12.089629 -4.03979,-3.60465 -8.0883,-7.18847 -12.14541,-10.751241 -0.50325,-4.008896 -1.01757,-8.016374 -1.54302,-12.022365 z m -2.8666,-21.064324 c 4.11098,3.500338 8.21334,7.023249 12.30741,10.565412 0.009,0.06797 0.0184,0.135946 0.0276,0.203919 0.53534,3.955587 1.05984,7.912609 1.57354,11.871003 -4.00565,-3.505226 -8.01964,-6.990033 -12.04183,-10.454214 -0.0691,-0.05955 -0.13827,-0.119095 -0.20741,-0.178634 -0.54242,-4.004394 -1.09515,-8.006988 -1.65932,-12.007486 z M 124.5221,45.459371 c 4.1489,3.453061 8.28808,6.932751 12.41791,10.435749 0.58529,4.019168 1.15801,8.039646 1.71931,12.061139 -4.10878,-3.526313 -8.22631,-7.03163 -12.35293,-10.512632 -0.58208,-3.99717 -1.17646,-7.992021 -1.78429,-11.984256 z m -3.32831,-20.979236 c 4.19222,3.397761 8.37364,6.826207 12.54463,10.282016 0.63288,4.013659 1.25119,8.029148 1.85608,12.046171 -4.14686,-3.483699 -8.30354,-6.942348 -12.4704,-10.372624 -0.62875,-3.988125 -1.27181,-7.973411 -1.93031,-11.955563 z M 117.58042,3.5587447 c 4.24094,3.3344369 8.47001,6.7036143 12.68755,10.1042113 0.68749,4.006329 1.3584,8.015007 2.0139,12.025739 -4.19034,-3.433062 -8.39158,-6.837017 -12.60408,-10.208544 -0.68244,-3.977258 -1.38118,-7.9511591 -2.09737,-11.9214063 z m -3.98549,-20.7462797 c 2.82937,2.032763 5.63892,4.151877 8.42576,6.316411 1.4919,1.1550064 2.98226,2.3144669 4.47108,3.4782411 0.7491,3.9971782 1.47964,7.99722477 2.19275,11.9998438 -4.23921,-3.3744006 -8.49042,-6.7156385 -12.75396,-10.0203926 -0.25914,-1.3824894 -0.52051,-2.7645073 -0.78415,-4.1460413 -0.49106,-2.556089 -1.00384,-5.100792 -1.55148,-7.628062 z m -5.43929,-19.919307 c 4.65722,2.495236 9.25212,5.380075 13.77425,8.506355 1.05646,4.031952 1.97549,8.079408 2.8047,12.120481 -4.34017,-3.319246 -8.74423,-6.503123 -13.20171,-9.403467 -0.99181,-3.806015 -2.10169,-7.554433 -3.37724,-11.223369 z m -8.531328,-17.714172 c 4.981208,0.752519 10.159088,2.730546 15.199098,5.231211 0.80713,1.818461 1.53821,3.64564 2.21177,5.462306 0.80588,2.136609 1.55369,4.286007 2.25093,6.444745 -2.53715,-1.564563 -5.09749,-3.035334 -7.67937,-4.388957 -2.19855,-1.152286 -4.42178,-2.226813 -6.63717,-3.15526 -1.53359,-3.473543 -3.25189,-6.737506 -5.345258,-9.594045 z m -13.739339,-8.973034 c 1.820073,-1.538632 3.894154,-2.874183 6.362866,-3.77003 2.59465,-0.942758 5.56925,-1.353902 8.683921,-1.293325 2.13737,1.621496 4.02167,3.486685 5.64056,5.489487 1.30998,1.612051 2.49968,3.281213 3.58667,4.989238 -2.45057,-0.843779 -4.90473,-1.498612 -7.33162,-1.899671 -2.947359,-0.491122 -5.857022,-0.535537 -8.435223,-0.0599 -1.29288,-1.010434 -2.65735,-1.82536 -4.083333,-2.358159 -1.333075,-0.562294 -2.827889,-0.902891 -4.423841,-1.097642 z m -16.048277,3.756189 c 0.139357,-2.668033 0.761427,-5.418385 2.142401,-8.11607 1.125318,-2.188249 2.7383,-4.281076 4.645004,-6.206131 1.899712,-0.297929 3.782561,-0.419329 5.615316,-0.402279 2.769488,-0.02699 5.662666,0.252491 8.564757,0.98209 -3.422376,1.362381 -6.188509,3.345331 -8.564739,5.50069 -1.559967,1.424365 -2.939454,2.956016 -4.004211,4.544873 -1.444484,0.207862 -2.802038,0.546645 -4.024657,1.071356 -1.534288,0.585436 -2.995642,1.496576 -4.373871,2.625471 z m -10.469067,15.323078 c -1.767728,-4.928237 -3.150435,-10.12144 -3.447944,-15.881927 0.632042,-0.892172 1.29536,-1.771008 1.992592,-2.633778 2.224643,-2.769662 4.951414,-5.286297 8.153826,-7.269402 -1.770546,4.280782 -2.149132,8.543134 -1.853445,12.436285 0.08812,1.251297 0.239527,2.474838 0.444339,3.674892 -2.065077,2.895617 -3.765906,6.184753 -5.289368,9.67393 z m -6.527891,19.375995 c -2.477624,-4.711756 -4.77615,-9.588838 -6.790481,-14.734672 0.450937,-1.310048 0.921635,-2.616118 1.41378,-3.917432 0.985329,-2.648884 2.091752,-5.319087 3.375676,-7.952209 0.882564,3.681956 2.073976,7.155136 3.362893,10.510793 0.635476,1.646335 1.303408,3.264379 2.000049,4.857823 -1.267961,3.67405 -2.372863,7.426556 -3.361917,11.235697 z m -4.405459,20.4825488 c -1.093242,-1.827763 -2.182894,-3.6597612 -3.268851,-5.4961428 -1.66521,-2.810487 -3.304741,-5.656867 -4.895291,-8.562068 0.875378,-4.041147 1.850315,-8.083856 2.972019,-12.106307 2.328233,4.982239 4.875983,9.742219 7.538152,14.383365 -0.509131,2.349577 -0.988863,4.713874 -1.449661,7.0880544 -0.301531,1.5637826 -0.600299,3.1281542 -0.896368,4.6930984 z M 44.642723,16.0336 C 41.80647,11.44296 38.990648,6.827805 36.196979,2.1857258 c 0.729784,-3.9990768 1.476368,-7.995574 2.240761,-11.989224 2.753472,4.6670493 5.530579,9.3056571 8.3296,13.9182329 C 46.042908,8.084307 45.335038,12.057351 44.642723,16.0336 Z m -3.504505,20.948969 c -2.895532,-4.555186 -5.773234,-9.132226 -8.631384,-13.73353 0.67396,-4.0073 1.36295,-8.012492 2.067979,-12.015305 2.822324,4.624083 5.665682,9.222385 8.528353,13.797316 -0.66944,3.980927 -1.324086,7.964856 -1.964948,11.951519 z M 37.888098,57.982 c -2.947145,-4.523574 -5.879061,-9.066342 -8.794027,-13.630713 0.624345,-4.013876 1.261949,-8.026113 1.913823,-12.036442 2.88351,4.584959 5.785453,9.146798 8.704108,13.687926 -0.620655,3.990633 -1.228286,7.983799 -1.823904,11.979229 z m -3.0284,21.041222 C 31.868606,74.527418 28.890142,70.01508 25.926026,65.4838 c 0.580938,-4.018805 1.173365,-8.03644 1.778292,-12.052637 2.93703,4.549678 5.889892,9.078896 8.856866,13.590064 -0.578079,3.998692 -1.144904,7.999446 -1.701486,12.001995 z m -2.82929,21.070598 c -3.03329,-4.467089 -6.053349,-8.951841 -9.059968,-13.454311 0.294288,-2.180713 0.591765,-4.361003 0.89244,-6.54086 0.253994,-1.841729 0.510141,-3.683281 0.768539,-5.52463 1.366159,2.069351 2.735094,4.134968 4.106639,6.197083 1.623091,2.440354 3.250146,4.875505 4.881134,7.305463 -0.540384,4.004294 -1.069964,8.010066 -1.588784,12.017255 z m -2.630705,21.09637 c -3.075055,-4.43852 -6.137153,-8.89468 -9.186082,-13.36853 0.505011,-4.02831 1.020804,-8.055289 1.547422,-12.080875 3.02488,4.490185 6.063083,8.962665 9.114399,13.417495 -0.502624,4.00929 -0.994522,8.01995 -1.475739,12.03191 z m -2.433574,21.1205 c -3.116208,-4.40982 -6.21973,-8.83725 -9.310356,-13.28234 0.467331,-4.03278 0.945366,-8.06434 1.434148,-12.09462 3.066926,4.46151 6.146904,8.90533 9.239723,13.33154 -0.465138,4.0139 -0.919628,8.02906 -1.363515,12.04542 z m -2.237885,21.14258 c -3.156748,-4.38097 -6.301081,-8.77952 -9.432789,-13.1957 0.429925,-4.03687 0.870476,-8.07263 1.321696,-12.10721 3.108359,4.43268 6.229498,8.84771 9.363206,13.24515 -0.427926,4.01812 -0.845282,8.0374 -1.252113,12.05776 z m -2.043638,21.16267 c -3.196673,-4.35198 -6.381203,-8.72151 -9.55338,-13.10865 0.392793,-4.04057 0.796134,-8.08015 1.210066,-12.11866 3.149178,4.40372 6.310863,8.78981 9.484846,13.15834 -0.390987,4.02197 -0.771483,8.04498 -1.141532,12.06897 z m -1.850246,21.18037 c -3.236546,-4.32229 -6.460733,-8.66285 -9.672722,-13.02082 0.01351,-0.15345 0.02703,-0.3069 0.04057,-0.46035 0.343194,-3.89038 0.696078,-7.77993 1.058694,-11.6686 3.068357,4.20861 6.148039,8.40093 9.238858,12.57703 0.121914,0.16471 0.243845,0.32941 0.365793,0.49407 -0.354274,4.02541 -0.698106,8.05166 -1.031193,12.07867 z m -1.651709,21.19486 c -3.277862,-4.29061 -6.542996,-8.60054 -9.7955649,-12.92891 0.3182533,-4.04762 0.6475299,-8.09423 0.9875259,-12.13978 3.229237,4.3455 6.470829,8.67313 9.724939,12.98205 -0.316711,4.02816 -0.622446,8.05706 -0.9169,12.08664 z m -1.443518,21.20747 c -3.32076,-4.25695 -6.628425,-8.53425 -9.9231559,-12.83104 0.2786491,-4.05098 0.5688563,-8.10105 0.8703168,-12.15015 3.2704961,4.31504 6.5537171,8.61119 9.8498231,12.88758 -0.277273,4.03058 -0.543036,8.0618 -0.796984,12.09361 z m -1.225459,21.21835 c -3.365243,-4.2213 -6.7170213,-8.46399 -10.0554979,-12.72721 0.2371699,-4.05402 0.4864325,-8.10722 0.747483,-12.15954 3.3133399,4.2826 6.6397709,8.54527 9.9794569,12.78714 -0.235961,4.03268 -0.459877,8.0659 -0.671442,12.09961 z m -0.997536,21.22749 c -3.411309,-4.18367 -6.8087841,-8.38976 -10.1925896,-12.61742 0.1938158,-4.05672 0.4002587,-8.11272 0.6190242,-12.16794 3.3577656,4.24818 6.7289914,8.47538 10.1138394,12.68075 -0.192773,4.03443 -0.372966,8.06932 -0.540274,12.10461 z m -0.759749,21.23489 c -3.458956,-4.14404 -6.9037122,-8.31154 -10.3344299,-12.50165 0.1485867,-4.0591 0.3103351,-8.11757 0.4849404,-12.17535 3.4037751,4.21176 6.8213785,8.40151 10.2529725,12.56838 -0.14771,4.03587 -0.282306,8.07209 -0.403483,12.10862 z m -0.512124,21.24059 c -3.5086,-4.10178 -7.0022273,-8.22928 -10.4813007,-12.38009 0.054028,-2.15728 0.1119284,-4.31431 0.1735758,-6.47109 0.054357,-1.90364 0.1116897,-3.80716 0.171965,-5.71055 1.6180454,1.95653 3.2392108,3.90799 4.8635133,5.85429 1.8404086,2.20524 3.6848206,4.40406 5.5332996,6.59609 -0.100884,4.03708 -0.188184,8.07425 -0.261053,12.11135 z m -0.245678,21.23955 c -3.56233,-4.05377 -7.1087041,-8.13616 -10.6395405,-12.24477 0.050961,-4.06369 0.1171312,-8.12682 0.1976662,-12.18922 3.500792,4.13335 7.0165603,8.24215 10.5477253,12.32398 -0.05063,4.03691 -0.0862,8.07364 -0.105851,12.11001 z m 0.048,21.2331 c -3.620385,-4.00017 -7.2238307,-8.03187 -10.8107551,-12.09268 -0.00499,-4.06515 0.00671,-8.13003 0.034261,-12.19447 3.5544139,4.08875 7.1247879,8.15004 10.7115409,12.18146 0.0048,4.03575 0.02619,8.07104 0.06495,12.10569 z m 0.369039,21.22144 C 10.73286,392.87307 7.0680182,388.89766 3.4206806,384.89023 3.3545386,380.8246 3.3065717,376.75896 3.2759347,372.69349 c 3.6123609,4.03855 7.2416653,8.04674 10.8883323,12.02215 0.06547,4.03361 0.148976,8.06647 0.251358,12.09841 z m 0.717443,21.20457 c -3.74947,-3.8762 -7.4800335,-7.78973 -11.1921093,-11.73819 -0.1324944,-4.06512 -0.245331,-8.13052 -0.339355,-12.19605 3.674633,3.98277 7.3671933,7.93227 11.0780993,11.84609 0.131324,4.03047 0.282164,8.05991 0.453365,12.08815 z m 1.098081,21.16931 c -1.472715,-1.45587 -2.940856,-2.92134 -4.4044,-4.39594 -2.3416789,-2.36086 -4.6758866,-4.7366 -7.0027207,-7.12667 -0.2040475,-4.06362 -0.3869544,-8.1278 -0.5495662,-12.19239 3.7412303,3.9214 7.5013709,7.80663 11.2808409,11.65326 0.12454,2.47773 0.257031,4.95496 0.397671,7.43166 0.08773,1.54377 0.180409,3.08716 0.278175,4.63008 z m 1.668567,21.07199 c -3.948352,-3.65577 -7.864786,-7.3862 -11.7488854,-11.18343 -0.3124701,-4.07136 -0.5876343,-8.1444 -0.8280371,-12.21801 3.8160172,3.86234 7.6637975,7.66351 11.5429255,11.39563 0.307498,4.00624 0.651316,8.00855 1.033997,12.00581 z m 2.385811,20.97876 c -4.077285,-3.50562 -8.121649,-7.09574 -12.1326771,-10.76252 -0.4511526,-4.06201 -0.8605365,-8.12766 -1.2306963,-12.19584 3.9374804,3.74369 7.9077264,7.41636 11.9103214,11.01013 0.442721,3.98901 0.926223,7.97212 1.453052,11.94823 z m 3.185716,20.84625 c -1.645597,-1.29888 -3.285883,-2.6143 -4.920896,-3.94402 -2.554244,-2.07742 -5.095818,-4.18878 -7.624626,-6.33229 -0.605489,-4.04581 -1.164746,-8.09721 -1.6803165,-12.15309 4.0685285,3.60433 8.1708245,7.12779 12.3064715,10.56251 0.361923,2.41745 0.740665,4.83199 1.136804,7.24335 0.253566,1.54324 0.514173,3.08451 0.782563,4.62354 z m 4.157099,20.58768 c -4.393376,-3.06399 -8.74388,-6.28319 -13.052116,-9.61997 -0.794027,-4.02914 -1.523572,-8.06531 -2.201129,-12.10404 4.210015,3.44586 8.457731,6.80072 12.743752,10.02696 0.771813,3.9186 1.604146,7.81911 2.509493,11.69705 z m 5.580997,20.01179 c -4.650814,-2.55249 -9.247527,-5.43557 -13.783045,-8.50981 -0.781296,-2.907 -1.503605,-5.81859 -2.184206,-8.72722 -0.257355,-1.09813 -0.508912,-2.19714 -0.754926,-3.29693 1.203185,0.88565 2.409798,1.76097 3.619851,2.6252 3.207768,2.29015 6.44134,4.51185 9.697999,6.6117 1.02527,3.82086 2.145002,7.59311 3.404327,11.29706 z m 8.285398,17.24084 c -1.994748,0.0712 -4.186803,-0.42906 -6.382181,-1.13718 -2.907657,-0.93988 -5.809535,-2.21261 -8.67145,-3.66655 -1.244708,-2.85041 -2.299298,-5.71643 -3.254785,-8.53813 -0.384678,-1.12405 -0.756597,-2.25044 -1.116786,-3.37872 1.327539,0.8194 2.660624,1.6174 3.999093,2.39082 3.374684,1.94619 6.806524,3.79497 10.227581,5.24494 0.849065,1.96642 1.771616,3.8519 2.813446,5.6263 0.789209,1.3295 1.552286,2.51876 2.385082,3.45852 z m 5.177535,-5.91128 c 0.928222,2.02277 1.766811,4.09567 2.356687,6.33591 0.557829,2.1405 0.953598,4.42878 0.435565,7.10085 0,0 0,0 0,0 -0.189961,1.01152 -0.584159,2.0634 -1.301122,3.0967 -0.917773,0.52483 -1.986929,0.96936 -3.203809,1.29746 -2.454362,0.43495 -4.70312,0.1023 -6.54095,-0.83993 l -1e-6,0 c -2.131875,-1.10607 -3.709718,-2.45576 -4.809934,-3.77976 -0.92183,-1.04606 -1.728089,-2.11448 -2.441807,-3.179 1.511394,0.53333 3.054868,0.98364 4.583817,1.26357 1.881515,0.35859 3.915337,0.47632 5.463473,-0.11879 0,0 0,0 0,0 1.177997,-0.4812 1.982981,-1.40643 1.790438,-2.389 -0.0363,-0.45452 -0.207865,-0.94727 -0.422567,-1.43245 0.04772,-0.0652 0.188099,-0.19793 0.416419,-0.35165 l 0,0 c 0.630549,-0.56836 1.202637,-1.57921 1.887676,-2.81382 l 0,0 c 0.673792,-1.28349 1.249673,-2.69283 1.786115,-4.19009 z m 5.024744,-19.83997 c 2.105471,3.48775 4.147956,7.03983 6.081704,10.71596 0.605569,1.14972 1.200569,2.3126 1.780305,3.49374 -0.624047,2.44505 -1.318033,4.90152 -2.118241,7.35473 -0.530603,1.64458 -1.142426,3.32681 -1.880929,5.01721 -0.572187,-2.26087 -1.345646,-4.34727 -2.196701,-6.35031 -1.280239,-3.0097 -2.711064,-5.87521 -4.21726,-8.67812 0.229739,-0.90101 0.451869,-1.80862 0.668656,-2.72193 0.69019,-2.91416 1.309209,-5.86048 1.882466,-8.83128 z m 3.383796,-20.75017 c 2.996605,4.46535 5.93912,8.9953 8.801307,13.63019 -0.328874,1.98435 -0.672756,3.96804 -1.033596,5.95064 -0.37565,2.06419 -0.771859,4.13181 -1.196254,6.20058 -1.364908,-2.43567 -2.767688,-4.82388 -4.194609,-7.18257 -1.37123,-2.26665 -2.764064,-4.50688 -4.175415,-6.72543 0.653271,-3.94161 1.247268,-7.90062 1.798567,-11.87341 z m 2.58907,-21.00311 c 2.119206,2.99137 4.224987,6.00106 6.316111,9.03133 0.983465,1.4251 1.963699,2.85501 2.939845,4.29104 -0.502876,4.04775 -1.03918,8.09914 -1.625483,12.15051 -2.958601,-4.56412 -5.980179,-9.04267 -9.038498,-13.47596 0.15876,-1.27672 0.31443,-2.55456 0.467551,-3.83342 0.325383,-2.71929 0.638574,-5.4405 0.940474,-8.1635 z m 2.125658,-21.09833 c 3.199664,4.34206 6.376558,8.71555 9.526767,13.12766 -0.41279,4.04887 -0.848182,8.09671 -1.309039,12.1431 -3.097708,-4.45183 -6.225665,-8.86036 -9.379958,-13.23281 0.408707,-4.00921 0.795163,-8.02199 1.16223,-12.03795 z m 1.767837,-21.15698 c 3.263718,4.29909 6.510917,8.62142 9.737683,12.97419 -0.342314,4.05131 -0.702211,8.10228 -1.082552,12.1525 -3.185536,-4.385 -6.395071,-8.73489 -9.624689,-13.05687 0.339463,-4.02053 0.661695,-8.04393 0.969558,-12.06982 z m 1.502664,-21.20275 c 3.308002,4.26924 6.605738,8.55354 9.889292,12.86009 -0.289447,4.05131 -0.591457,8.10297 -0.908891,12.15458 -3.253596,-4.3313 -6.52494,-8.63568 -9.810114,-12.92033 0.287828,-4.0294 0.563445,-8.06098 0.829713,-12.09434 z m 1.322925,-21.22998 c 2.971935,3.77873 5.936565,7.56864 8.893391,11.37078 0.365231,0.46947 0.730371,0.9391 1.095416,1.4089 -0.25419,4.04886 -0.515921,8.09876 -0.788056,12.14932 -3.301888,-4.29073 -6.615271,-8.56272 -9.936233,-12.82317 0.0279,-0.44367 0.05572,-0.88737 0.08345,-1.33108 0.22425,-3.59098 0.441459,-7.18257 0.652035,-10.77475 z m 1.17064,-21.24099 c 3.367948,4.22341 6.727843,8.45922 10.078975,12.70893 -0.225073,4.05101 -0.458126,8.10184 -0.699738,12.15243 -3.333767,-4.26387 -6.676963,-8.51288 -10.028877,-12.74851 0.224291,-4.03693 0.440644,-8.07457 0.64964,-12.11285 z m 1.034839,-21.25297 c 3.393066,4.20421 6.779245,8.41913 10.157828,12.64622 -0.19886,4.05152 -0.404686,8.10294 -0.618057,12.1542 -3.363399,-4.23963 -6.73506,-8.46612 -10.114273,-12.68093 0.19823,-4.03924 0.389538,-8.07909 0.574502,-12.11949 z m 0.917756,-21.26336 c 3.414359,4.18787 6.822998,8.38472 10.225207,12.59205 -0.176205,4.05172 -0.358362,8.10343 -0.547049,12.15507 -3.389207,-4.21826 -6.785508,-8.42506 -10.188195,-12.6219 0.175728,-4.04123 0.345548,-8.08299 0.510037,-12.12522 z m 0.819392,-21.27215 c 3.431827,4.17436 6.8591,8.356 10.28111,12.54641 -0.157108,4.05162 -0.319153,8.10331 -0.486714,12.15502 -3.411188,-4.19971 -6.828305,-8.38968 -10.250641,-12.57139 0.156783,-4.04293 0.308672,-8.08629 0.456245,-12.13004 z m 0.736955,-21.27766 c 3.447186,4.16182 6.890006,8.33074 10.328236,12.50724 -0.05189,1.48729 -0.104358,2.97456 -0.157423,4.46183 -0.09147,2.56415 -0.184602,5.12835 -0.279535,7.6926 -2.170489,-2.64813 -4.342885,-5.29304 -6.517009,-7.9351 -1.260968,-1.53235 -2.522564,-3.06367 -3.784777,-4.59399 0.141092,-4.04396 0.277864,-8.08816 0.410508,-12.13258 z m 0.660848,-21.28149 c 3.461457,4.15026 6.918923,8.30704 10.372174,12.47083 -0.126752,4.0518 -0.257497,8.10355 -0.392428,12.15526 -3.444839,-4.17092 -6.894107,-8.3345 -10.34758,-12.49124 0.12653,-4.04474 0.249077,-8.08969 0.367834,-12.13485 z m 0.590903,-21.28516 c 3.47448,4.13968 6.945343,8.28529 10.412365,12.43734 -0.113339,4.0519 -0.230333,8.10378 -0.351175,12.15564 -3.459322,-4.15863 -6.9227,-8.31049 -10.389908,-12.45608 0.113153,-4.04545 0.222661,-8.09109 0.328718,-12.1369 z m 0.527198,-21.28847 c 3.486255,4.13007 6.969266,8.2655 10.44881,12.40679 -0.101112,4.05194 -0.205541,8.10387 -0.31348,12.1558 -3.472557,-4.1473 -6.948794,-8.28842 -10.428489,-12.42385 0.100962,-4.04608 0.198618,-8.09233 0.293159,-12.13874 z m 0.469735,-21.2914 c 3.49678,4.12144 6.99069,8.24767 10.481507,12.37917 -0.09007,4.0519 -0.183121,8.10382 -0.279343,12.15576 -3.484542,-4.13697 -6.972391,-8.26832 -10.463322,-12.39457 0.08996,-4.04664 0.176945,-8.09343 0.261158,-12.14036 z m 0.418403,-21.29382 c 3.506203,4.11358 7.009749,8.23166 10.510575,12.35437 -0.02209,1.11576 -0.04439,2.23152 -0.06688,3.34727 -0.05919,2.93605 -0.119798,5.87212 -0.181891,8.8082 -2.532769,-2.99096 -5.067077,-5.97928 -7.60284,-8.96515 -0.963648,-1.13471 -1.927504,-2.26906 -2.891566,-3.40307 0.08015,-4.04713 0.157664,-8.09434 0.232604,-12.14162 z m 0.370814,-21.29521 c 3.515208,4.10597 7.027863,8.21628 10.537902,12.33105 -0.07116,4.05187 -0.144867,8.10372 -0.221162,12.15555 -3.504828,-4.11926 -7.012332,-8.23397 -10.522448,-12.34425 0.07109,-4.04738 0.139639,-8.09483 0.205708,-12.14235 z m 0.325014,-21.29639 c 3.523864,4.09863 7.045279,8.20143 10.564183,12.30854 -0.06243,4.05193 -0.127297,8.10385 -0.194665,12.15575 -3.513892,-4.11145 -7.030354,-8.21849 -10.549325,-12.32128 0.06236,-4.04761 0.122277,-8.09528 0.179807,-12.14301 z m 0.280958,-21.29748 c 3.532173,4.09157 7.061999,8.18714 10.589419,12.28686 -0.05402,4.05197 -0.11039,8.10393 -0.169163,12.15588 -3.522606,-4.1039 -7.047679,-8.20356 -10.575157,-12.29912 0.05396,-4.04782 0.105578,-8.0957 0.154901,-12.14362 z m 0.238647,-21.29847 c 3.540132,4.08478 7.078023,8.1734 10.61361,12.266 -0.04595,4.05199 -0.09415,8.10398 -0.144655,12.15597 -3.530973,-4.09663 -7.064309,-8.18918 -10.599945,-12.2778 0.0459,-4.04801 0.08954,-8.09607 0.13099,-12.14417 z m 0.19808,-21.299362 c 3.547744,4.078263 7.09335,8.160206 10.636757,12.245972 -0.0382,4.05199 -0.07857,8.10399 -0.121143,12.15599 -3.538991,-4.08963 -7.080241,-8.17535 -10.623687,-12.25729 0.03816,-4.048181 0.07417,-8.096405 0.108073,-12.144672 z m 0.159258,-21.300146 c -0.03178,-0.0364 10.69064,12.26316 10.658858,12.226756 -0.03079,4.051981 -0.06365,8.103969 -0.09862,12.155961 -0.03034,-0.03492 -10.616047,-12.202687 -10.646384,-12.237611 0.03076,-4.048329 0.05946,-8.096699 0.08615,-12.145106 z m 0.12218,-21.300836 c 3.561921,4.066053 7.121913,8.135462 10.679915,12.208367 -0.02371,4.051946 -0.04939,8.103905 -0.0771,12.155873 -3.553983,-4.07646 -7.110016,-8.149331 -10.668037,-12.218753 0.02369,-4.048461 0.04541,-8.096958 0.06522,-12.145487 z m 0.08685,-21.301425 c 3.568488,4.060359 7.135151,8.123912 10.699927,12.1908 -0.01696,4.051892 -0.0358,8.103803 -0.05657,12.155728 -3.560956,-4.070286 -7.123858,-8.137145 -10.688645,-12.200717 0.01695,-4.048575 0.03203,-8.09718 0.04529,-12.145811 z m 0.0525,-21.3013241 c 3.57519,4.0542901 7.148365,8.1121811 10.719628,12.1733811 -0.0035,1.339092 -0.0071,2.678178 -0.01102,4.017259 -0.0079,2.712774 -0.01651,5.425558 -0.026,8.138351 -2.388558,-2.721178 -4.777941,-5.440892 -7.168132,-8.159184 -1.179829,-1.341778 -2.359864,-2.683195 -3.540107,-4.02424 0.01048,-4.048566 0.01906,-8.0970888 0.02563,-12.1455671 z m 0.01543,-21.3004549 c 3.582577,4.047593 7.162955,8.0991286 10.741237,12.1543155 -0.0035,4.0521105 -0.0091,8.1041714 -0.01661,12.1561805 -3.5742,-4.0586904 -7.15039,-8.1139244 -10.728675,-12.1654109 0.0035,-4.0484092 0.0049,-8.0967721 0.0041,-12.1450851 z m -0.02517,-21.299553 c 3.590622,4.04029 7.17886,8.084865 10.764819,12.133432 0.0042,4.052278 0.0061,8.10451 0.0058,12.156694 -3.5815,-4.052417 -7.165176,-8.101035 -10.75113,-12.145564 -0.0042,-4.048239 -0.01067,-8.096427 -0.01954,-12.144562 z m -0.0731,-21.295008 c 0.675643,0.755443 1.351094,1.511366 2.026408,2.267618 2.9249,3.275444 5.847236,6.555673 8.76758,9.839127 0.0074,2.33816 0.01383,4.676162 0.01944,7.014005 0.0041,1.714533 0.0078,3.429059 0.01106,5.143576 -1.518674,-1.711637 -3.03777,-3.422532 -4.557296,-5.132664 -2.071949,-2.331848 -4.144693,-4.662307 -6.218438,-6.990817 -0.01044,-3.288335 -0.02287,-6.576344 -0.03788,-9.864022 -0.0035,-0.759077 -0.0071,-1.518018 -0.01087,-2.276823 z m 10.790212,10.94347 c -2.57686,-2.896478 -5.155323,-5.790351 -7.735783,-8.680548 -1.019758,-1.142162 -2.039826,-2.283636 -3.060398,-3.423894 -0.0017,-0.32813 -0.0035,-0.656235 -0.0053,-0.984314 l 0,0 c -0.0021,-0.377193 -0.0042,-0.754122 -0.0065,-1.130786 -5.74e-4,-0.09536 -0.0012,-0.190594 -0.0018,-0.285691 0.227534,-0.02542 0.455067,-0.05078 0.682598,-0.07607 14.154882,-0.464905 28.309317,-0.833751 42.436117,-1.106539 m -75.564768,-0.113806 c 14.187776,0.482914 28.347924,0.86977 42.507622,1.160568 0.227839,0.02293 0.455675,0.04579 0.683511,0.06859 6.01e-4,0.09619 0.0012,0.19225 0.0018,0.288175 0,0 0,0 0,0 0.0023,0.378884 0.0044,0.757506 0.0066,1.135864 0.0082,1.478082 0.01548,2.955659 0.02223,4.432726 l 0,0 c 0.0011,0.23757 0.0022,0.475138 0.0032,0.712704 -0.210969,-0.236631 -0.42195,-0.47324 -0.632945,-0.709828 0,0 0,0 0,0 -1.311846,-1.470959 -2.62421,-2.94145 -3.937504,-4.410353 -1e-6,0 -1e-6,0 -1e-6,0 -0.336177,-0.376009 -0.672415,-0.75195 -1.008768,-1.127675 0,0 -10e-7,0 -10e-7,0 -0.08516,-0.09513 -0.170322,-0.190233 -0.255501,-0.285304 0,0 0,0 0,0 -0.0033,-0.02408 -0.0039,-0.04817 -0.0018,-0.07227 0.903978,-0.383337 5.349746,-0.779651 13.310126,-1.11684 m -25.832183,-0.0389 c 1.719097,0.409021 6.952805,0.811492 15.728304,1.13531 0.153567,0.02329 0.309843,0.04653 0.468829,0.06972 0.08518,0.09544 0.170348,0.190836 0.255507,0.286153 0,0 0,0 0,0 0.336358,0.376484 0.672599,0.753003 1.008779,1.129411 0,0 0,0 0,0 0.292407,0.327398 0.584768,0.654858 0.877086,0.982366 0.0061,1.148813 0.01163,2.297319 0.01688,3.445517 0.01327,2.905482 0.02452,5.810724 0.03417,8.715723 m 0.04644,21.321891 c -3.586396,-4.048189 -7.175082,-8.092366 -10.766161,-12.13224 -7.58e-4,-0.328861 -0.0015,-0.657721 -0.0023,-0.986581 -0.0089,-3.719267 -0.01988,-7.438122 -0.0337,-11.156557 3.304586,3.706205 6.606321,7.417912 9.906035,11.132863 0.291763,0.328479 0.583511,0.656987 0.875243,0.985523 0.0093,4.052375 0.01626,8.104706 0.0209,12.156992 z m 0.0038,21.3204843 C 80.74886,-11.069455 77.168071,-15.120627 73.585072,-19.167837 c -0.0012,-4.048305 -0.0047,-8.09656 -0.01045,-12.144765 0.0548,0.06176 10.700937,12.079724 10.755738,12.141484 0.0012,4.052216 2.62e-4,8.104385 -0.0028,12.1565043 z M 84.292518,14.304959 C 80.720889,10.244071 77.147338,6.1865112 73.571762,2.1325708 c 0.0062,-4.0484702 0.01035,-8.0968952 0.01238,-12.1452728 3.579728,4.050178 7.157325,8.1041701 10.732896,12.1616851 -0.0062,4.0520438 -0.0144,8.1040369 -0.02452,12.1559759 z m -0.07034,21.318756 c -3.565136,-4.066568 -7.132153,-8.12981 -10.700989,-12.189866 0.0042,-1.326587 0.0083,-2.653176 0.01211,-3.979769 0.0079,-2.722021 0.01492,-5.444024 0.02108,-8.166007 2.401984,2.727436 4.803089,5.456441 7.203345,8.186928 1.169762,1.330692 2.33933,2.661726 3.508703,3.993107 -0.01292,4.051848 -0.02765,8.103718 -0.04425,12.155607 z M 84.117252,56.942691 C 84.08437,56.905057 73.469101,44.772937 73.436218,44.735304 c 0.01944,-4.048536 0.03698,-8.097102 0.05266,-12.145698 3.566064,4.062464 7.130265,8.128183 10.692539,12.197297 -0.01946,4.051915 -0.04082,8.103845 -0.06416,12.155788 z M 83.976045,78.261906 C 83.944774,78.22599 73.347282,66.07209 73.316011,66.036174 c 1.78e-4,-0.02741 0.07278,-12.11794 0.07296,-12.145352 -0.0328,-0.03749 10.704937,12.252663 10.672136,12.215173 1.76e-4,-0.02704 -0.08524,12.182949 -0.08506,12.155911 z M 83.796811,99.58126 c -0.0298,-0.03436 -10.60819,-12.210545 -10.63799,-12.244899 2.17e-4,-0.02617 0.09404,-12.118781 0.09426,-12.14495 -0.0312,-0.03578 10.681884,12.269652 10.650687,12.23387 2.14e-4,-0.02583 -0.107172,12.181811 -0.106958,12.155979 z m -0.219007,21.31939 c -3.536023,-4.09222 -7.074344,-8.18047 -10.6149,-12.26489 0.04103,-4.04811 0.07986,-8.09628 0.116556,-12.144487 -0.02973,-0.03423 10.657927,12.287617 10.628193,12.253387 -0.04107,4.052 -0.08433,8.104 -0.129849,12.15599 z m -0.260524,21.31934 c -3.527874,-4.09933 -7.05815,-8.19451 -10.590765,-12.28571 0.04888,-4.04794 0.09548,-8.09593 0.139847,-12.14397 3.537185,4.08729 7.072091,8.17849 10.604654,12.27373 -0.04894,4.05199 -0.100164,8.10397 -0.153736,12.15595 z m -0.303784,21.31917 c -3.519377,-4.1067 -7.04126,-8.2091 -10.565586,-12.30734 0.05708,-4.04774 0.111767,-8.09554 0.164131,-12.1434 3.529096,4.09419 7.055807,8.19244 10.580071,12.2949 -0.05714,4.05196 -0.116656,8.10391 -0.178616,12.15584 z m -0.34879,21.31891 c -3.510531,-4.11434 -7.023673,-8.22423 -10.539361,-12.32979 0.0656,-4.04753 0.128714,-8.09512 0.18941,-12.14278 3.520657,4.10136 7.038825,8.20694 10.554443,12.3169 -0.06567,4.05191 -0.133813,8.1038 -0.204492,12.15567 z m -0.395539,21.31856 c -3.501338,-4.12227 -7.00539,-8.23991 -10.512093,-12.35308 0.07445,-4.04729 0.146325,-8.09466 0.215685,-12.14209 3.511869,4.1088 7.021146,8.22199 10.527769,12.33971 -0.07453,4.05184 -0.151631,8.10366 -0.231361,12.15546 z m -0.444657,21.31859 c -3.491396,-4.131 -6.985865,-8.25675 -10.483183,-12.37775 0.03203,-1.54905 0.06366,-3.09813 0.09489,-4.64723 0.05036,-2.49798 0.09972,-4.996 0.148086,-7.49404 2.16199,2.54083 4.322952,5.0834 6.482873,7.62773 1.339461,1.57786 2.678516,3.15641 4.017152,4.73568 -0.08378,4.05184 -0.170319,8.10372 -0.259822,12.15561 z m -0.499273,21.31901 c -3.480191,-4.14073 -6.963829,-8.27563 -10.45069,-12.40521 0.09395,-4.04644 0.1848,-8.09304 0.27275,-12.13978 3.492977,4.12457 6.982943,8.25413 10.469676,12.38919 -0.09408,4.05193 -0.191256,8.10386 -0.291736,12.1558 z m -0.560143,21.31903 c -3.467737,-4.15144 -6.939295,-8.29647 -10.41445,-12.4356 0.105398,-4.04585 0.207362,-8.09188 0.306086,-12.13808 3.481983,4.13357 6.960581,8.2727 10.435572,12.41791 -0.105561,4.05194 -0.214566,8.10386 -0.327208,12.15577 z m -0.627253,21.31868 c -3.454035,-4.16312 -6.912263,-8.31927 -10.374464,-12.46893 0.118034,-4.04519 0.232296,-8.09058 0.34298,-12.13616 3.46974,4.14354 6.935721,8.29323 10.397722,12.44957 -0.118234,4.05187 -0.240249,8.10371 -0.366238,12.15552 z m -0.700605,21.31795 c -3.439082,-4.17578 -6.882733,-8.34401 -10.33073,-12.50518 0.131856,-4.04446 0.259602,-8.08914 0.383432,-12.13403 3.456248,4.15449 6.908364,8.31571 10.356125,12.48415 -0.132092,4.05174 -0.268303,8.10343 -0.408827,12.15506 z m -0.779575,21.31683 c -3.422981,-4.18956 -6.85116,-8.37046 -10.28383,-12.54416 0.04271,-1.177 0.08507,-2.35404 0.127074,-3.5311 0.102293,-2.86681 0.20238,-5.73373 0.300327,-8.60077 2.439818,2.95374 4.87737,5.91114 7.312579,8.8724 0.999801,1.21574 1.999236,2.4321 2.998287,3.64911 -0.146982,4.0514 -0.298269,8.10292 -0.454437,12.15452 z m -0.869842,21.31777 c -3.403388,-4.20634 -6.813142,-8.40229 -10.228552,-12.58935 0.163475,-4.04232 0.321675,-8.08512 0.47518,-12.12833 3.42572,4.17909 6.846448,8.36611 10.261476,12.56254 -0.163857,4.05169 -0.333032,8.10342 -0.508104,12.15514 z m -0.97866,21.31758 c -3.379971,-4.22594 -6.767474,-8.4398 -10.1618,-12.64305 0.183755,-4.04052 0.361221,-8.08159 0.532977,-12.12318 3.406817,4.19367 6.807476,8.39697 10.201267,12.61139 -0.18429,4.05168 -0.374912,8.10331 -0.572444,12.15484 z m -1.106197,21.31582 c -3.352728,-4.2484 -6.714155,-8.483 -10.083572,-12.70529 0.207593,-4.03841 0.407882,-8.07746 0.601447,-12.11711 3.384089,4.21109 6.760852,8.43351 10.129583,12.66876 -0.20828,4.05136 -0.423907,8.10259 -0.647458,12.15364 z m -1.252437,21.31239 c -0.04738,-0.0609 -0.09475,-0.12185 -0.142135,-0.18277 -3.274566,-4.21231 -6.558709,-8.40958 -9.851749,-12.59323 0.234988,-4.03599 0.461658,-8.07272 0.68059,-12.11013 3.357536,4.23135 6.706579,8.47574 10.046423,12.73467 -0.232464,3.99297 -0.473053,7.98574 -0.722319,11.97824 -0.0036,0.0577 -0.0072,0.11548 -0.01081,0.17322 z m -1.412457,21.30967 c -3.286084,-4.30441 -6.586008,-8.58701 -9.895857,-12.855 0.203161,-3.09821 0.400969,-6.19744 0.59472,-9.29753 0.05843,-0.93568 0.116386,-1.87141 0.173869,-2.80718 0.771636,0.98669 1.542754,1.97418 2.313342,2.96249 2.551925,3.27375 5.09956,6.55435 7.641134,9.84508 -0.265356,4.05006 -0.540138,8.10091 -0.827208,12.15214 z m -1.639238,21.31683 c -3.230373,-4.34991 -6.480839,-8.66983 -9.747482,-12.96695 0.30514,-4.02635 0.596186,-8.05515 0.875999,-12.086 3.293701,4.2789 6.57479,8.57594 9.839351,12.8983 -0.307223,4.05159 -0.628891,8.10328 -0.967868,12.15465 z m -1.958663,21.31113 c -3.154895,-4.40854 -6.336134,-8.77889 -9.539802,-13.11828 0.363383,-4.01656 0.707652,-8.03627 1.035669,-12.05871 3.241997,4.31367 6.465131,8.65366 9.665485,13.02716 -0.366697,4.05068 -0.752861,8.10076 -1.161352,12.14983 z m -2.370897,21.2935 c -0.685707,-1.00517 -1.373312,-2.00745 -2.062519,-3.00729 -2.384897,-3.46002 -4.788885,-6.89311 -7.210136,-10.30262 0.439235,-4.00434 0.854336,-8.0125 1.248164,-12.02411 3.170526,4.36158 6.315936,8.75765 9.432314,13.19542 -0.34429,3.13997 -0.703319,6.27915 -1.078421,9.41736 -0.108325,0.90685 -0.218063,1.81395 -0.329402,2.72124 z m -2.996233,21.3103 c -2.87567,-4.6252 -5.829466,-9.14794 -8.83515,-13.60853 0.53133,-3.88795 1.023336,-7.78875 1.491521,-11.69897 0.01052,-0.0879 0.02103,-0.17587 0.03153,-0.26381 0.06773,0.0973 0.135437,0.19456 0.203132,0.29188 3.00992,4.32719 5.991671,8.69012 8.92071,13.12651 -0.554055,4.05095 -1.152444,8.10314 -1.811742,12.15292 z m -4.22104,21.32475 c -0.35305,-0.70232 -0.711011,-1.39855 -1.072875,-2.08977 -2.1723,-4.15682 -4.483447,-8.15287 -6.868196,-12.07336 0.124069,-0.65699 0.246065,-1.31513 0.36626,-1.97433 0.595099,-3.26411 1.143555,-6.54151 1.654912,-9.8301 2.432761,3.74654 4.817604,7.54949 7.139425,11.43205 0.469117,0.78476 0.935463,1.57321 1.398546,2.366 -0.655716,3.47367 -1.376645,6.95492 -2.199027,10.4328 -0.136387,0.578 -0.275906,1.15697 -0.419045,1.73671 z m -10.00973,22.14476 c 0.151957,-0.39828 0.26702,-0.79441 0.351053,-1.18544 0,0 0,0 0,0 0.624018,-2.79113 0.2896,-5.16349 -0.251514,-7.35309 0,0 0,0 0,0 -0.68832,-2.7988 -1.758038,-5.33142 -2.920045,-7.81088 0.06898,-0.20278 0.137504,-0.40695 0.205695,-0.61243 0.994497,-3.03415 1.823905,-6.17885 2.587094,-9.39411 l 0,0 c 0.09379,-0.39601 0.186271,-0.79262 0.277498,-1.18981 0.270085,0.48014 0.538384,0.96207 0.804783,1.44593 2.157484,3.92642 4.211735,7.94745 5.957798,12.2854 0,0 0,0 0,0 0.119575,0.29851 0.237086,0.59945 0.352164,0.90309 -0.736437,2.1962 -1.627444,4.45125 -2.77929,6.69623 l -1e-6,0 c -0.859752,1.74784 -2.073092,3.6375 -3.811431,5.45025 -0.233243,0.26227 -0.491255,0.51799 -0.773804,0.76486 z M 26.950144,556.26245 c 2.404244,1.18148 4.835284,2.22457 7.273425,3.0419 2.320992,0.77864 4.661987,1.34914 6.798826,1.29139 10e-7,0 10e-7,0 10e-7,0 0.361393,-0.0136 0.706871,-0.046 1.029307,-0.10232 0.462122,0.46102 0.791304,0.77889 1.02331,0.82755 0.06496,-0.0273 0.0047,0.0325 -0.385964,0.0213 l 0,0 c -0.243049,0.18831 -0.12881,-0.0293 0.309432,-0.32435 0.289981,-0.26138 0.567598,-0.61635 0.849523,-1.04363 0.280593,0.8146 0.505979,1.63653 0.60304,2.48874 0.149555,1.23325 0.205534,2.68197 -0.670219,3.92938 0,0 0,0 0,0 -0.780059,1.12742 -2.374376,1.95937 -4.158438,2.10913 -1.688583,0.18512 -3.522568,-0.0177 -5.203317,-0.38748 -0.294561,-0.29555 -0.564398,-0.59283 -0.810362,-0.88882 l -10e-7,0 c -1.556048,-1.76575 -2.782799,-3.5952 -3.791009,-5.36211 -1.062039,-1.84496 -2.009095,-3.71762 -2.867554,-5.60063 z m -7.211923,-20.93909 c 4.286941,2.8765 8.629024,5.57503 13.020326,7.97917 0.273032,0.15015 0.546121,0.29916 0.819229,0.44688 1.299339,3.70842 2.6621,7.27479 4.335782,10.5362 -4.85733,-1.62841 -9.749569,-4.23911 -14.491973,-7.01257 -0.07911,-0.23016 -0.157515,-0.46006 -0.235264,-0.68966 -1.277528,-3.733 -2.414332,-7.49182 -3.4481,-11.26002 z m -4.932312,-21.11448 c 4.024855,3.09863 8.086805,6.09291 12.186339,8.95239 0.299266,0.2089 0.598706,0.41708 0.898317,0.62449 0.920481,3.87631 1.90572,7.71697 3.000848,11.50229 -4.535343,-2.7892 -9.023374,-5.84349 -13.457001,-9.02344 -0.06448,-0.27244 -0.128587,-0.54485 -0.192324,-0.81724 -0.875854,-3.73726 -1.684542,-7.48463 -2.436179,-11.23849 z m -3.70513,-21.2392 c 2.135971,1.80262 4.28103,3.58224 6.435121,5.3378 2.036421,1.65964 4.081109,3.29737 6.134133,4.90884 0.697565,3.94046 1.447426,7.86579 2.262077,11.7715 -4.320801,-3.17427 -8.601737,-6.48625 -12.843409,-9.89832 -0.347248,-1.96156 -0.681211,-3.92408 -1.003321,-5.88705 -0.340711,-2.07598 -0.668796,-4.15362 -0.984601,-6.23277 z M 8.2834882,471.64194 c 4.0182278,3.65905 8.0698458,7.24093 12.1544398,10.73776 0.535143,3.97476 1.113856,7.9424 1.738683,11.90181 -4.162698,-3.4013 -8.291849,-6.89327 -12.3870377,-10.46803 -0.5457369,-4.05269 -1.0469171,-8.11024 -1.5060851,-12.17154 z M 6.2415419,450.245 c 3.8907761,3.79064 7.8139411,7.51395 11.7690801,11.16207 0.390142,3.99628 0.819391,7.9874 1.290291,11.97225 C 15.273135,469.81493 11.277902,466.16973 7.3156298,462.45157 6.9183547,458.38525 6.5611736,454.31602 6.2415419,450.245 Z m -1.358367,-21.41337 c 1.9671047,2.01658 3.9394829,4.02289 5.9171931,6.0186 1.82772,1.84416 3.66263,3.67412 5.504685,5.489 0.260794,4.01095 0.556232,8.01869 0.88886,12.02212 -3.902442,-3.70678 -7.7733412,-7.48452 -11.6122821,-11.32536 -0.1270217,-1.95628 -0.245824,-3.91278 -0.3566887,-5.86938 -0.1197333,-2.11148 -0.2336162,-4.22315 -0.3417673,-6.33498 z M 3.9795276,407.44718 c 3.7157317,3.94509 7.4500054,7.85508 11.2032384,11.72759 0.175104,4.02801 0.370651,8.05481 0.587485,12.08023 -3.793338,-3.83289 -7.5671558,-7.70493 -11.3218709,-11.61372 -0.1765865,-4.06429 -0.3325889,-8.12904 -0.4688525,-12.1941 z M 3.4401645,386.05714 c 3.6507575,4.00436 7.3190735,7.97654 11.0053655,11.91412 0.106002,4.03177 0.230964,8.06261 0.37573,12.09235 C 11.097329,406.16245 7.3919356,402.22504 3.7046607,398.25379 3.5976756,394.18837 3.509792,390.12276 3.4401645,386.05714 Z M 3.2377224,364.66671 c 3.5901084,4.05805 7.1967916,8.08681 10.8204676,12.0839 0.0421,4.03453 0.101679,8.06841 0.179578,12.10149 -3.658849,-3.96385 -7.3001439,-7.96103 -10.9243035,-11.98916 -0.042584,-4.06556 -0.06755,-8.13103 -0.075742,-12.19623 z m 0.1071159,-21.3856 c 3.5337845,4.10614 7.0831597,8.18591 10.6485457,12.2369 -0.0166,4.03631 -0.01721,8.07225 -9.73e-4,12.10766 -3.598092,-4.02094 -7.1796133,-8.07231 -10.7449828,-12.15172 0.016616,-4.06472 0.049368,-8.12905 0.09741,-12.19284 z M 3.734149,321.90554 c 3.4817857,4.14865 6.978179,8.27383 10.489599,12.37314 -0.0701,4.03709 -0.125689,8.0741 -0.165921,12.11086 -3.541661,-4.07244 -7.0677337,-8.17242 -10.5786382,-12.29752 0.070615,-4.06288 0.1558836,-8.12509 0.2549602,-12.18648 z m 0.6455248,-21.36277 c 3.4333223,4.18801 6.8807032,8.35335 10.3423042,12.49516 -0.01506,0.51248 -0.0299,1.02496 -0.04452,1.53745 -0.100468,3.52441 -0.190923,7.04896 -0.270804,10.57354 -3.046527,-3.5955 -6.0819229,-7.20977 -9.1064665,-10.84121 -0.43984,-0.52811 -0.8794496,-1.0566 -1.3188293,-1.58546 0.1193787,-4.06042 0.2522532,-8.12026 0.3983186,-12.17948 z m 0.8885929,-21.35133 c 3.3863238,4.22566 6.7863373,8.4297 10.2002043,12.61125 -0.16484,4.03536 -0.316767,8.07112 -0.455475,12.10723 -3.440891,-4.15914 -6.8677182,-8.34136 -10.2806458,-12.5458 0.1657793,-4.05824 0.3445197,-8.11582 0.5359165,-12.17268 z m 1.1221696,-21.33806 c 3.3409085,4.26133 6.6951387,8.50207 10.0628537,12.72137 -0.209199,4.03381 -0.40602,8.06811 -0.590156,12.10285 -3.393836,-4.19802 -6.7739776,-8.41808 -10.1405871,-12.65932 0.2103048,-4.05574 0.4330362,-8.11073 0.6678894,-12.1649 z m 1.3458811,-21.32305 c 3.2970766,4.29501 6.6071066,8.57048 9.9302526,12.82553 -0.251683,4.03193 -0.491522,8.06444 -0.719212,12.09748 -3.348365,-4.23491 -6.683403,-8.49083 -10.0052781,-12.76688 0.2529554,-4.05291 0.5178028,-8.10498 0.7942375,-12.15613 z m 1.5597272,-21.3063 c 3.2548274,4.3267 6.5222414,8.6349 9.8024024,12.92373 -0.292293,4.02971 -0.573276,8.0601 -0.842644,12.09111 -3.304477,-4.26982 -6.595995,-8.5596 -9.8747188,-12.86847 0.2937309,-4.04976 0.5988193,-8.09857 0.9149604,-12.14637 z M 11.059753,193.9362 c 3.214162,4.35641 6.440542,8.69535 9.679301,13.01596 -0.331027,4.02717 -0.651279,8.05511 -0.96045,12.08377 -3.262172,-4.30274 -6.511754,-8.62439 -9.748909,-12.96411 0.332631,-4.04626 0.676085,-8.09149 1.030058,-12.13562 z m 1.959023,-21.26916 c 3.174367,4.38554 6.361073,8.75349 9.559906,13.10389 -0.228264,2.49578 -0.452512,4.99195 -0.672753,7.48847 -0.134855,1.52883 -0.268205,3.05778 -0.400034,4.58685 -1.223511,-1.64593 -2.445259,-3.29444 -3.665254,-4.94548 -1.992189,-2.69608 -3.979742,-5.39892 -5.962609,-8.10851 0.369735,-4.0427 0.749968,-8.08446 1.140744,-12.12522 z m 2.153574,-21.25078 c 3.133932,4.4146 6.280474,8.81157 9.439415,13.19096 -0.404817,4.02058 -0.799113,8.04223 -1.182933,12.0649 -3.181762,-4.36287 -6.35128,-8.74331 -9.508343,-13.14136 0.406696,-4.03923 0.823968,-8.07742 1.251861,-12.1145 z m 2.349584,-21.23039 c 3.092883,4.44351 6.198647,8.86937 9.317083,13.27762 -0.441858,4.01658 -0.873118,8.03436 -1.293822,12.05327 -3.141607,-4.39182 -6.270697,-8.80122 -9.38706,-13.22827 0.44393,-4.03538 0.898515,-8.06961 1.363799,-12.10262 z m 2.547035,-21.20798 c 3.05122,4.47229 6.115593,8.92688 9.19291,13.36385 -0.479173,4.01221 -0.947669,8.02573 -1.405533,12.04048 -3.100837,-4.42061 -6.188886,-8.85883 -9.263936,-13.31473 0.481439,-4.03115 0.973611,-8.06103 1.476559,-12.0896 z m 2.745929,-21.183537 c 3.008942,4.500912 6.031311,8.984107 9.066894,13.449647 -0.516762,4.00745 -1.022769,8.01632 -1.518065,12.02654 -3.059454,-4.44926 -6.105848,-8.91616 -9.138971,-13.400771 0.519222,-4.026531 1.049254,-8.05169 1.590142,-12.075416 z m 2.944703,-21.157051 c 2.966576,4.529586 5.947359,9.040374 8.940629,13.534774 -0.06442,0.464914 -0.128698,0.929852 -0.192843,1.394814 -0.487985,3.537784 -0.96751,7.076749 -1.438607,10.616853 -2.666996,-3.957703 -5.323577,-7.929212 -7.969598,-11.914566 -0.347721,-0.523647 -0.695273,-1.047523 -1.042653,-1.571632 0.55697,-4.021047 1.124324,-8.041217 1.703072,-12.060243 z m 3.155635,-21.133914 c 2.917845,4.562467 5.852497,9.103475 8.802238,13.625436 -0.593328,3.995861 -1.174739,7.993961 -1.745242,11.994032 -2.975499,-4.505775 -5.937394,-9.029082 -8.883964,-13.57233 0.596499,-4.017148 1.205152,-8.03295 1.826968,-12.047138 z m 3.398571,-21.104123 c 2.861447,4.59919 5.742304,9.174262 8.640849,13.727624 -0.638234,3.987185 -1.262781,7.977078 -1.87465,11.969412 -2.928675,-4.534987 -5.841144,-9.090166 -8.735688,-13.667947 0.642235,-4.011602 1.298395,-8.021387 1.969489,-12.029089 z M 35.987978,3.3336045 c 2.797385,4.6397558 5.616779,9.2527325 8.456464,13.8413395 -0.689349,3.976859 -1.36324,7.956897 -2.022683,11.939846 C 39.547573,24.546749 36.692195,19.955856 33.857343,15.3397 34.551524,11.335293 35.261399,7.3331719 35.987978,3.3336045 Z M 40.02158,-17.754627 c 1.350183,2.438145 2.732953,4.836126 4.134406,7.207629 1.348862,2.2829097 2.703433,4.5590334 4.06351,6.8286554 -0.746671,3.96488665 -1.476115,7.9334216 -2.189342,11.905337 -2.812029,-4.6049366 -5.602651,-9.2353865 -8.370145,-13.8937593 0.368977,-1.9595985 0.742156,-3.9185342 1.119654,-5.8767751 0.393459,-2.054157 0.805349,-4.112148 1.241917,-6.171087 z m 5.639485,-21.175651 c 2.058358,5.123817 4.392703,9.984782 6.897937,14.686321 -0.967319,3.819778 -1.823305,7.694104 -2.615167,11.601156 -2.72095,-4.616589 -5.356812,-9.330927 -7.802489,-14.24644 1.026874,-4.033751 2.184377,-8.054704 3.519719,-12.041037 z m 9.522625,-20.600903 c 0.449274,5.727793 1.933128,10.901415 3.751384,15.823181 -0.490537,1.159763 -0.963817,2.339167 -1.426491,3.531328 -0.926344,2.429234 -1.772263,4.897031 -2.552023,7.396799 -1.513023,-3.215635 -2.919967,-6.523998 -4.189072,-9.956342 -0.625046,-1.682051 -1.220316,-3.398476 -1.760888,-5.160036 1.666151,-3.959068 3.662887,-7.90187 6.17709,-11.63493 z m 20.063417,-14.581977 c -1.450772,1.580816 -2.7006,3.261505 -3.655074,5.006848 -1.740708,3.223025 -2.413603,6.520727 -2.46497,9.674986 -1.018578,0.906915 -1.988763,1.927288 -2.906168,3.014657 -1.314222,1.572159 -2.489019,3.294254 -3.561531,5.127834 -0.725093,-2.893726 -1.20049,-5.908402 -1.287047,-9.104107 -0.05835,-2.286291 0.120386,-4.680749 0.65508,-7.125273 2.362757,-2.054608 5.080735,-3.812647 8.137466,-5.099691 1.685499,-0.663131 3.387371,-1.152623 5.082244,-1.495254 z m 24.542508,4.429602 c -2.542935,0.0569 -4.973058,0.434307 -7.161336,1.164431 -3.067914,1.033026 -5.55232,2.71027 -7.693915,4.626717 -0.875761,-0.0753 -1.777181,-0.112952 -2.694917,-0.124641 -2.570389,0.03176 -5.020177,0.286637 -7.134916,1.010363 1.275728,-3.226263 3.942814,-6.316063 7.134894,-8.946202 1.126357,-0.942065 2.339461,-1.840948 3.660991,-2.660172 2.76041,0.256806 5.589943,0.858272 8.384873,1.934224 1.976151,0.815852 3.812733,1.829811 5.504326,2.99528 z m 14.519925,18.959918 c -5.08776,-2.443366 -10.29811,-4.312954 -15.296528,-4.905894 -0.238274,-0.30534 -0.481303,-0.605524 -0.729341,-0.900289 -1.959709,-2.309662 -4.167961,-4.30903 -6.571946,-5.54408 3.866343,-1.585489 8.935175,-1.661544 13.949155,-0.542084 0.61485,0.130964 1.23059,0.276264 1.84678,0.434965 2.77207,3.627064 4.97591,7.51214 6.80188,11.457382 z m 7.31331,20.966352 c -4.54249,-3.101111 -9.15862,-5.950634 -13.8379,-8.400405 -0.25938,-0.72468 -0.52546,-1.446151 -0.7986,-2.164241 -1.12551,-2.905532 -2.31346,-5.734839 -3.66194,-8.385998 3.90441,1.33764 7.86771,3.236763 11.71757,5.33527 0.95579,0.519725 1.90841,1.054678 2.85779,1.603702 1.41473,3.971702 2.63989,7.982888 3.72308,12.011672 z m 4.6534,21.217219 c -1.0811,-0.8435485 -2.16302,-1.684811 -3.24575,-2.523735 -3.19695,-2.490192 -6.42481,-4.922887 -9.67921,-7.236335 -0.85702,-3.872348 -1.80078,-7.701505 -2.87887,-11.465583 4.5194,2.776251 8.98235,5.872295 13.37837,9.139969 0.66941,3.019877 1.27963,6.040366 1.8505,9.052348 0.19286,1.010923 0.38451,2.0220369 0.57496,3.033336 z m 3.79394,21.053198 c -4.22024,-3.3973543 -8.45206,-6.7630677 -12.69581,-10.0938194 -0.71954,-3.9695459 -1.45663,-7.9354099 -2.21242,-11.897296 4.27412,3.2908044 8.53569,6.6188829 12.78507,9.9809149 0.72516,4.0008252 1.4325,8.004324 2.12316,12.0102005 z m 3.48618,21.097077 c -4.17339,-3.453004 -8.35727,-6.878424 -12.55201,-10.272937 -0.66147,-3.981551 -1.33849,-7.959938 -2.03221,-11.934867 4.22202,3.359142 8.43257,6.751501 12.63201,10.173759 0.66617,4.009292 1.31653,8.020739 1.95221,12.034045 z m 3.21531,21.131374 c -4.13194,-3.500631 -8.27329,-6.977732 -12.42441,-10.427984 -0.61042,-3.991733 -1.23439,-7.980823 -1.87305,-11.966973 4.17532,3.419455 8.34027,6.868072 12.49517,10.34253 0.6142,4.015939 1.21458,8.033514 1.80229,12.052427 z m 2.98135,21.156089 c -4.09589,-3.540233 -8.20011,-7.060993 -12.31302,-10.558959 -0.56638,-4.000095 -1.14431,-7.998066 -1.73494,-11.993616 4.13404,3.471744 8.25877,6.968594 12.37455,10.48723 0.56924,4.020765 1.12667,8.042645 1.67341,12.065345 z m 2.77497,21.181276 c -4.06147,-3.580257 -8.1316,-7.139498 -12.21027,-10.677505 -0.33831,-2.568654 -0.6812,-5.136693 -1.02867,-7.704102 -0.19447,-1.436604 -0.39027,-2.872977 -0.58744,-4.309106 1.47022,1.261374 2.93938,2.525457 4.4075,3.792095 2.62414,2.263922 5.24478,4.536613 7.86188,6.818014 0.53018,4.025449 1.04916,8.052339 1.557,12.080604 z m 2.56958,21.206863 c -4.02676,-3.61917 -8.06228,-7.21761 -12.10645,-10.79512 -0.4887,-4.01073 -0.98844,-8.020094 -1.49926,-12.028013 4.06384,3.555072 8.1191,7.131253 12.16565,10.728323 0.49109,4.0303 0.97109,8.06193 1.44006,12.09481 z m 2.36592,21.23008 c -3.99202,-3.65736 -7.99292,-7.29428 -12.00257,-10.91057 -0.45018,-4.01535 -0.91129,-8.02945 -1.3834,-12.04222 4.02933,3.59426 8.04998,7.20934 12.0618,10.84501 0.45237,4.03474 0.89374,8.07069 1.32417,12.10778 z m 2.16413,21.25112 c -3.95728,-3.69482 -7.92354,-7.36951 -11.89866,-11.02384 -0.41201,-4.01956 -0.83485,-8.03798 -1.26858,-12.05519 3.99481,3.63272 7.98082,7.28597 11.95791,10.95951 0.41398,4.03877 0.81708,8.07863 1.20933,12.11952 z m 1.96418,21.27 c -3.92252,-3.73156 -7.85413,-7.44328 -11.79471,-11.13495 -0.37419,-4.02335 -0.75911,-8.04568 -1.15482,-12.06693 3.96027,3.67047 7.91164,7.36117 11.85398,11.07187 0.37596,4.04239 0.74112,8.08575 1.09555,12.13001 z m 1.76513,21.2882 c -3.88716,-3.769 -7.78394,-7.5172 -11.68987,-11.24545 -0.14462,-1.73008 -0.29124,-3.46002 -0.43982,-5.18981 -0.19726,-2.29616 -0.39799,-4.59201 -0.6022,-6.88754 2.23899,2.11453 4.47506,4.23554 6.70817,6.36299 1.6823,1.6027 3.36294,3.20908 5.04188,4.81919 0.33825,4.0458 0.66564,8.09269 0.98184,12.14062 z m 1.55857,21.30716 c -3.84947,-3.80798 -7.70932,-7.59425 -11.57907,-11.35963 -0.29764,-4.02925 -0.60668,-8.0578 -0.92677,-12.0856 3.89066,3.74402 7.77186,7.50842 11.6431,11.29399 0.29913,4.04944 0.58682,8.09988 0.86274,12.15124 z m 1.34129,21.32437 c -3.80944,-3.84841 -7.63002,-7.67419 -11.46125,-11.47816 -0.25667,-4.03152 -0.5253,-8.06244 -0.80558,-12.09271 3.85349,3.78179 7.69674,7.58486 11.52929,11.41005 0.25798,4.05273 0.50394,8.10636 0.73754,12.16082 z m 1.11332,21.33975 c -3.76707,-3.8903 -7.54604,-7.75704 -11.33642,-11.60104 -0.21365,-4.03345 -0.43985,-8.06639 -0.67828,-12.09878 3.81396,3.821 7.61694,7.66421 11.40846,11.53045 0.21479,4.05568 0.41698,8.11216 0.60624,12.16937 z m 0.87466,21.35328 c -3.72236,-3.93363 -7.45738,-7.84278 -11.20456,-11.72826 -0.16861,-4.03502 -0.35035,-8.06964 -0.54489,-12.1038 3.7721,3.86165 7.53246,7.74645 11.2806,11.6552 0.16958,4.05828 0.32597,8.11725 0.46885,12.17686 z m 0.62564,21.36483 c -1.86505,-2.01862 -3.73351,-4.03061 -5.60522,-6.0363 -1.81709,-1.94716 -3.63737,-3.88825 -5.46079,-5.82337 -0.12154,-4.03624 -0.25678,-8.07218 -0.40541,-12.10777 3.7279,3.90376 7.4433,7.83158 11.14573,11.78429 0.0603,2.0002 0.11717,4.00055 0.17071,6.00104 0.0552,2.06046 0.10691,4.12117 0.15498,6.18211 z m 0.36312,21.37781 c -3.62422,-4.02697 -7.26394,-8.02562 -10.91774,-11.99827 -0.0723,-4.03689 -0.15935,-8.07386 -0.26007,-12.11075 3.68145,3.94742 7.35008,7.91933 11.00446,11.91806 0.0729,4.06297 0.13102,8.12668 0.17335,12.19096 z m 0.0721,21.38839 c -3.56601,-4.07969 -7.14972,-8.12842 -10.74971,-12.14854 -0.018,-4.03603 -0.0523,-8.07247 -0.10197,-12.10912 3.6315,3.99256 7.24797,8.01224 10.84801,12.06137 0.018,4.06505 0.0196,8.13053 0.004,12.19629 z m -0.2495,21.39328 c -3.50102,-4.13647 -7.02194,-8.23935 -10.56136,-12.311 0.0422,-4.03411 0.0664,-8.06892 0.0736,-12.10426 3.57478,4.04177 7.13233,8.11328 10.67124,12.21687 -0.0427,4.06606 -0.10354,8.13224 -0.18346,12.19839 z m -0.60173,21.39248 c -3.42926,-4.1973 -6.88062,-8.3584 -10.35268,-12.48564 0.10819,-4.0311 0.19673,-8.06321 0.26657,-12.09616 3.51129,4.09504 7.00315,8.22245 10.47416,12.38457 -0.10924,4.06597 -0.23827,8.13178 -0.38805,12.19723 z m -0.98455,21.38602 c -3.35073,-4.26221 -6.72577,-8.4856 -10.1237,-12.67249 0.18,-4.02701 0.33869,-8.05534 0.47703,-12.08482 3.44102,4.15238 6.86041,8.33975 10.25675,12.56446 -0.18159,4.06482 -0.38463,8.12916 -0.61008,12.19285 z m -1.45282,21.40094 c -3.23854,-4.35722 -6.51465,-8.65887 -9.8244,-12.90876 0.13085,-1.98616 0.25426,-3.97297 0.37045,-5.96031 0.11881,-2.03287 0.23187,-4.06614 0.33931,-6.09978 1.69969,2.12906 3.3933,4.26773 5.08064,6.4163 1.65219,2.10385 3.29645,4.2203 4.9323,6.34978 -0.26774,4.06894 -0.56659,8.1368 -0.8983,12.20277 z m -2.05788,21.371 c -3.1074,-4.45359 -6.25799,-8.84763 -9.44785,-13.18593 0.37642,-4.00284 0.7194,-8.00975 1.03067,-12.0199 3.26009,4.28735 6.48412,8.62816 9.66816,13.02626 -0.38224,4.06264 -0.79865,8.12278 -1.25098,12.17957 z m -2.72091,21.30939 c -2.961,-4.55442 -5.97082,-9.0453 -9.02553,-13.47645 0.49912,-3.98607 0.96173,-7.97764 1.38957,-11.97389 3.13364,4.37766 6.22559,8.81278 9.27193,13.30916 -0.50749,4.05129 -1.05223,8.09863 -1.63597,12.14118 z m -3.44602,21.22673 c -1.96041,-3.27802 -3.95281,-6.51658 -5.97085,-9.72316 -0.85585,-1.35998 -1.71627,-2.7142 -2.58118,-4.06278 0.63259,-3.96422 1.2256,-7.93539 1.78077,-11.91268 2.99194,4.47243 5.93658,9.00631 8.82997,13.60543 -0.19164,1.20159 -0.38686,2.4027 -0.58569,3.6033 -0.46885,2.83147 -0.95877,5.66182 -1.47302,8.48989 z m -4.35925,21.12953 c -2.55346,-4.81573 -5.1987,-9.52815 -7.91739,-14.15886 0.79208,-3.9214 1.53071,-7.85826 2.22527,-11.80722 2.83324,4.5694 5.60836,9.20725 8.30706,13.93514 -0.81208,4.01858 -1.68059,8.03001 -2.61494,12.03094 z m -5.69388,20.97767 c -2.14227,-5.05473 -4.47898,-9.9197 -6.93416,-14.67325 0.70192,-2.67203 1.36614,-5.36267 2.00452,-8.06677 0.27903,-1.18368 0.55218,-2.36913 0.8197,-3.55624 0.79706,1.42699 1.58622,2.8625 2.36698,4.30713 1.78109,3.29786 3.52389,6.63834 5.20286,10.04779 -1.04998,3.99283 -2.19152,7.97839 -3.4599,11.94134 z m -8.56768,20.71722 c -0.88908,-5.64543 -2.60897,-10.71174 -4.58645,-15.61084 0.56561,-1.49077 1.10973,-3.00951 1.64676,-4.54664 0.75513,-2.18544 1.46679,-4.39135 2.14219,-6.61462 1.34198,2.8364 2.62659,5.72374 3.83831,8.678 0.84806,2.06157 1.67179,4.15378 2.43134,6.30526 -1.5059,3.95774 -3.26086,7.93334 -5.47215,11.78884 z m -24.83971,4.25227 c 0.9628,0.39039 1.93869,0.73049 2.91595,0.99513 2.07396,0.62127 4.51305,0.84647 6.24777,0.105 0,0 0,0 0,0 1.42545,-0.6108 2.19072,-1.90745 2.21082,-3.04168 0.11175,-0.70552 0.0429,-1.44065 -0.0845,-2.18407 0.26921,-0.22942 0.60219,-0.55109 1.00781,-0.91817 l 0,0 c 1.02617,-1.04858 1.94768,-2.44195 2.90513,-4.01123 0.57541,-0.95579 1.11825,-1.94085 1.63448,-2.9512 0.45976,1.50948 0.86339,3.05084 1.1944,4.63592 0,0 0,0 0,0 0.54529,2.61726 0.94206,5.33084 0.60162,8.34485 -0.10824,1.12278 -0.36737,2.30213 -0.91063,3.51474 -0.91624,0.65659 -1.98153,1.26587 -3.20402,1.78495 -2.25054,0.87504 -4.76626,0.93761 -7.25663,0.11022 l 0,0 c -2.66105,-1.10379 -4.54906,-2.66414 -5.71931,-4.25708 l 0,0 c -0.56555,-0.70374 -1.07757,-1.41519 -1.5429,-2.12738 z m -7.734994,-21.76081 c 2.880694,2.14516 5.801744,4.17965 8.766064,6.042 1.58052,0.99089 3.17286,1.92294 4.7688,2.74192 0.47414,1.38886 0.98827,2.73008 1.5671,4.0098 l 0,0 c 0.80436,1.71533 1.55393,3.20875 2.46611,4.25824 l 1e-5,0 c 0.15111,0.14404 0.2853,0.27945 0.40321,0.40136 -0.32712,0.0796 -0.68823,0.12717 -1.07106,0.14935 0,0 0,0 0,0 -2.43254,0.0508 -5.13339,-0.93137 -7.73088,-2.14784 0,0 -1e-5,0 -1e-5,0 -1.96102,-0.9182 -3.89842,-2.00626 -5.800175,-3.18477 -0.496378,-1.44196 -0.937701,-2.87796 -1.340841,-4.29855 -0.756498,-2.65186 -1.425724,-5.31126 -2.028328,-7.97151 z M 92.77998,526.19164 c 1.830658,1.56567 3.669663,3.11166 5.517585,4.63453 2.327905,1.91794 4.669395,3.80943 7.026305,5.6361 0.70045,3.90901 1.4801,7.76837 2.41337,11.55399 -4.40946,-2.92836 -8.737549,-6.221 -12.99475,-9.65641 -0.407022,-2.26791 -0.782804,-4.53079 -1.14024,-6.78448 -0.286043,-1.79404 -0.559731,-3.58869 -0.82227,-5.38373 z m -2.67124,-21.34693 c 3.997766,3.67167 8.022337,7.2908 12.0803,10.81773 0.50473,3.97799 1.05348,7.94381 1.66017,11.89472 -4.146844,-3.40754 -8.251272,-6.93461 -12.319871,-10.54157 -0.515366,-4.05801 -0.984266,-8.11589 -1.420599,-12.17088 z M 88.056663,483.5192 c 3.917243,3.74702 7.852943,7.45512 11.808859,11.11707 0.122108,1.25159 0.246558,2.50286 0.373438,3.75379 0.27973,2.75644 0.57081,5.50901 0.87776,8.2568 -2.75561,-2.47423 -5.49864,-4.98232 -8.231235,-7.51139 -1.240084,-1.14767 -2.478118,-2.29984 -3.714156,-3.45628 -0.395035,-4.05241 -0.765723,-8.10584 -1.114666,-12.15999 z m -1.649306,-21.33554 c 3.853871,3.80849 7.722622,7.58667 11.60801,11.32733 0.314768,4.02029 0.649041,8.03781 1.005421,12.05224 -3.923854,-3.69776 -7.829029,-7.43795 -11.717285,-11.21336 -0.317635,-4.05504 -0.615484,-8.11054 -0.896146,-12.16621 z m -1.332129,-21.33839 c 3.80477,3.85385 7.620842,7.68603 11.449976,11.4893 0.254344,4.02903 0.523634,8.05585 0.810471,12.08014 -3.859461,-3.76955 -7.70382,-7.57291 -11.534839,-11.40287 -0.256229,-4.05571 -0.497231,-8.11134 -0.725608,-12.16657 z m -1.099106,-21.33101 c 3.76994,3.88314 7.547605,7.75321 11.334754,11.60301 0.209916,4.03583 0.430217,8.07 0.663506,12.10219 -3.809339,-3.82524 -7.607155,-7.67568 -11.395206,-11.54409 -0.210818,-4.05445 -0.410969,-8.10826 -0.603054,-12.16111 z m -0.935764,-21.32781 c 3.742246,3.90968 7.491896,7.80523 11.249401,11.68513 0.07913,1.78247 0.159906,3.56482 0.242386,5.34705 0.104542,2.25677 0.21126,4.51316 0.320609,6.7691 -2.108086,-2.15912 -4.213692,-4.32342 -6.317125,-6.49163 -1.661739,-1.71297 -3.321903,-3.42903 -4.980529,-5.14804 -0.179916,-4.05377 -0.351312,-8.10766 -0.514742,-12.16161 z m -0.789365,-21.33017 c 3.71689,3.93296 7.440332,7.85358 11.170777,11.76035 0.151225,4.04072 0.309964,8.08091 0.476771,12.12053 -3.745482,-3.89185 -7.483475,-7.79857 -11.214431,-11.71866 -0.151735,-4.05404 -0.295923,-8.10813 -0.433117,-12.16222 z m -0.660296,-21.33026 c 3.694734,3.953 7.395167,7.89543 11.101752,11.8258 0.126575,4.04248 0.259691,8.0845 0.399904,12.126 -3.719798,-3.91731 -7.432958,-7.8477 -11.139933,-11.78968 -0.126965,-4.05407 -0.247355,-8.10813 -0.361723,-12.16212 z m -0.549169,-21.32909 c 3.675778,3.96977 7.356402,7.93077 11.042326,11.88149 0.105335,4.044 0.216238,8.08759 0.333266,12.13075 -3.697312,-3.93952 -7.388839,-7.89033 -11.075034,-11.85094 -0.105605,-4.05387 -0.205606,-8.10765 -0.300558,-12.1613 z m -0.455976,-21.3268 c 0.57453,0.62534 1.149165,1.25049 1.723906,1.87545 3.086549,3.35613 6.175987,6.70713 9.268586,10.0521 0.0875,4.04527 0.179605,8.09021 0.276858,12.13478 -3.678027,-3.95847 -7.351121,-7.92645 -11.019734,-11.90243 -0.07389,-3.41714 -0.144498,-6.83416 -0.212142,-10.25105 -0.0126,-0.63628 -0.02509,-1.27257 -0.03747,-1.90885 z m -0.375621,-21.32651 c 3.645399,3.9967 7.294734,7.98625 10.948174,11.96816 0.06581,3.68495 0.135129,7.36977 0.208104,11.05445 0.0071,0.36091 0.01433,0.72181 0.02155,1.08271 -0.326664,-0.35452 -0.653296,-0.70909 -0.979895,-1.06373 -3.334599,-3.62073 -6.665661,-7.24804 -9.993312,-10.88157 -0.07238,-4.05335 -0.140527,-8.10669 -0.204619,-12.16002 z m -0.300866,-21.32614 c 3.63195,4.00864 7.267531,8.01074 10.90691,12.00579 0.05799,4.04639 0.119883,8.09263 0.185864,12.13872 -3.647259,-3.98769 -7.290546,-7.98277 -10.930027,-11.98473 -0.05809,-4.05329 -0.112279,-8.10655 -0.162747,-12.15978 z m -0.232247,-21.32551 c 3.619621,4.0195 7.242568,8.03306 10.869006,12.04018 0.04489,4.04685 0.09336,8.09358 0.145575,12.14017 -3.63368,-4.00037 -7.263693,-8.00753 -10.890207,-12.02097 -0.04497,-4.05317 -0.08637,-8.1063 -0.124374,-12.15938 z m -0.169767,-21.32459 c 3.608413,4.02927 7.219845,8.05321 10.834462,12.07131 0.03296,4.04727 0.06916,8.09443 0.108785,12.14147 -3.62122,-4.01197 -7.23908,-8.03013 -10.853746,-12.05396 -0.03301,-4.053 -0.06278,-8.10594 -0.0895,-12.15882 z m -0.113424,-21.32339 c 0.392496,0.44044 0.785023,0.88083 1.177582,1.32116 3.206359,3.59659 6.414885,7.18938 9.625697,10.77801 0.0222,4.04764 0.0473,8.09518 0.0755,12.14262 -3.609881,-4.02249 -7.216707,-8.05055 -10.820646,-12.08369 -0.0198,-3.61071 -0.03729,-7.22137 -0.0526,-10.83197 -0.0019,-0.44204 -0.0037,-0.88409 -0.0055,-1.32613 z m -0.06287,-21.32241 c 3.589099,4.04604 7.180784,8.08752 10.775102,12.12429 0.01085,3.49291 0.02367,6.9858 0.03849,10.47867 0.0024,0.55497 0.0048,1.10995 0.0072,1.66492 -0.493532,-0.5528 -0.987012,-1.10569 -1.480441,-1.65867 -3.10548,-3.48032 -6.208969,-6.9642 -9.310497,-10.45154 -0.01259,-4.05258 -0.02253,-8.10513 -0.02988,-12.15767 z m -0.01502,-21.32205 c 3.580169,4.05386 7.16284,8.10333 10.74806,12.14826 0.0035,4.04799 0.0095,8.09596 0.0181,12.1439 -0.02296,-0.0258 -10.740402,-12.10886 -10.763365,-12.1347 -0.0035,-4.05251 -0.0044,-8.105 -0.0028,-12.15746 z m 0.03115,-21.32162 c 3.571546,4.06139 7.145511,8.11855 10.72194,12.17133 -0.0053,4.04808 -0.0082,8.09613 -0.0085,12.14416 -3.581404,-4.04834 -7.160295,-8.10115 -10.73672,-12.15829 0.0053,-4.05242 0.01312,-8.10482 0.02332,-12.1572 z m 0.07563,-21.3211 c 3.563231,4.06862 7.128797,8.13317 10.696744,12.19351 -0.01379,4.04814 -0.02522,8.09626 -0.03422,12.14436 -3.572746,-4.05607 -7.143063,-8.11644 -10.710998,-12.18097 0.0138,-4.05233 0.02998,-8.10463 0.04847,-12.1569 z M 79.54094,99.636294 c 3.555225,4.075546 7.112699,8.147186 10.67247,12.214786 -0.02194,4.04819 -0.04161,8.09637 -0.05894,12.14453 -3.564395,-4.06349 -7.126446,-8.13113 -10.686198,-12.20276 0.02196,-4.05222 0.0462,-8.10441 0.07267,-12.156556 z m 0.159534,-21.319852 c 3.547524,4.082176 7.097216,8.160617 10.649119,12.235181 -0.02977,4.048226 -0.05736,8.096443 -0.0827,12.144647 -3.556352,-4.070628 -7.110444,-8.14523 -10.662321,-12.223663 0.0298,-4.052093 0.06178,-8.104149 0.0959,-12.156165 z m 0.198957,-21.319113 c 3.540132,4.08851 7.082348,8.17345 10.626691,12.254678 -0.03728,4.048248 -0.07246,8.096492 -0.1055,12.144729 -3.548616,-4.077466 -7.095056,-8.158737 -10.639366,-12.243673 0.03731,-4.051954 0.07672,-8.103866 0.118175,-12.155734 z m 0.236694,-21.318297 c 3.533049,4.094546 7.068095,8.185687 10.605186,12.273282 -0.04447,4.048256 -0.08693,8.096511 -0.127336,12.144763 -3.541189,-4.084002 -7.080285,-8.171644 -10.617335,-12.262785 0.04451,-4.0518 0.09102,-8.103554 0.139485,-12.15526 z m 0.272764,-21.317471 c 1.121265,1.303848 2.242734,2.60734 3.364402,3.910488 2.405826,2.795066 4.812549,5.588605 7.220184,8.380572 -0.05133,4.048248 -0.100755,8.0965 -0.148212,12.144754 -3.534068,-4.090241 -7.066128,-8.183956 -10.596226,-12.281005 0.03504,-2.7633 0.07098,-5.526575 0.107784,-8.289827 0.01716,-1.288323 0.03451,-2.576651 0.05207,-3.864982 z m 0.309446,-21.31778 C 84.237099,-2.8491649 87.758154,1.2539226 91.281339,5.3534249 91.223131,9.4014288 91.167,13.449527 91.112802,17.497714 91.199285,17.598146 80.450674,5.0984966 80.537157,5.198928 c 0.05826,-4.0516828 0.118606,-8.1034001 0.181178,-12.155147 z m 0.350567,-21.318326 c 3.51038,4.114443 7.02332,8.224477 10.538662,12.330483 -0.06595,4.047658 -0.129559,8.0954188 -0.190983,12.1432777 C 87.896653,-7.902989 84.378973,-12.008969 80.8637,-16.119107 c 0.06601,-4.051788 0.134366,-8.103603 0.205202,-12.155438 z m 0.396697,-21.319413 c 2.206704,2.599709 4.414952,5.196481 6.624222,7.791607 1.295308,1.521524 2.590989,3.042418 3.887035,4.562702 -0.07458,4.047282 -0.146571,8.094675 -0.216118,12.142175 -3.511687,-4.109036 -7.020855,-8.22229 -10.527347,-12.340145 0.0276,-1.497587 0.05555,-2.995177 0.08386,-4.492768 0.04829,-2.554202 0.09757,-5.108729 0.14835,-7.663571 z"
       style="fill:#c87137;fill-opacity:1;stroke:#000000;stroke-width:0.835682;stroke-miterlimit:4;stroke-dasharray:none;stroke-opacity:1"
       inkscape:label="pal4"
       class="UnoptimicedTransforms" />
  </g>
</svg>
