<?xml version="1.0" encoding="UTF-8" standalone="no"?>
<!-- Created with Inkscape (http://www.inkscape.org/) -->

<svg
   width="512"
   height="512"
   viewBox="0 0 135.46666 135.46667"
   version="1.1"
   id="svg5"
   xml:space="preserve"
   inkscape:version="1.2.1 (9c6d41e410, 2022-07-14, custom)"
   sodipodi:docname="whisk.svg"
   xmlns:inkscape="http://www.inkscape.org/namespaces/inkscape"
   xmlns:sodipodi="http://sodipodi.sourceforge.net/DTD/sodipodi-0.dtd"
   xmlns="http://www.w3.org/2000/svg"
   xmlns:svg="http://www.w3.org/2000/svg"><sodipodi:namedview
     id="namedview7"
     pagecolor="#ffffff"
     bordercolor="#666666"
     borderopacity="1.0"
     inkscape:showpageshadow="2"
     inkscape:pageopacity="0.0"
     inkscape:pagecheckerboard="0"
     inkscape:deskcolor="#d1d1d1"
     inkscape:document-units="mm"
     showgrid="false"
     inkscape:zoom="0.5"
     inkscape:cx="399"
     inkscape:cy="563"
     inkscape:window-width="1916"
     inkscape:window-height="1052"
     inkscape:window-x="0"
     inkscape:window-y="24"
     inkscape:window-maximized="1"
     inkscape:current-layer="layer1" /><defs
     id="defs2" /><g
     inkscape:label="Layer 1"
     inkscape:groupmode="layer"
     id="layer1"><path
       style="fill:#000000;stroke-width:1"
       d="m 101.908,8.9433847 c 7.68278,1.3874003 14.36274,5.5709413 19.17864,12.0112313 8.35897,11.17844 7.69958,26.83521 -1.57926,37.498178 -2.88332,3.31344 -6.85535,5.86538 -13.64057,8.76379 -9.100493,3.88741 -23.500043,8.21685 -38.461244,11.56394 -2.40109,0.53717 -4.41702,1.02313 -4.47983,1.07993 -0.0628,0.0568 0.25147,0.48843 0.69842,0.9592 1.05543,1.11169 1.25854,1.83934 0.77065,2.76093 -0.21571,0.40746 -9.65755,9.99232 -20.98186,21.299686 -23.35167,23.31671 -21.84493,22.04027 -26.013629,22.03763 -1.91675,-0.001 -2.46878,-0.10916 -3.73712,-0.73082 -1.76241,-0.86383 -3.75009,-2.89345 -4.53846,-4.63424 -0.43056,-0.95069 -0.56795,-1.784 -0.5766,-3.49706 -0.021,-4.16139 -1.30013,-2.65083 22.027699,-26.013616 11.30737,-11.32431 20.89223,-20.76615 21.29968,-20.98186 0.9216,-0.48789 1.64925,-0.28479 2.76094,0.77065 0.47076,0.44694 0.90131,0.76123 0.95677,0.69842 0.0555,-0.0628 0.72788,-2.85264 1.49427,-6.19962 4.88028,-21.313358 10.6098,-37.919148 15.75224,-45.654488 2.26001,-3.39953 6.469691,-7.00437 10.574121,-9.05484 5.38371,-2.6895713 12.6232,-3.7374313 18.495143,-2.6770413 z M 90.292027,13.525286 c -3.93815,1.03192 -8.13382,3.35863 -11.15843,6.18792 -3.444901,3.22242 -6.726711,9.6701 -10.406321,20.44495 -1.96752,5.76143 -6.25025,20.747638 -5.92921,20.747638 0.057,0 0.59641,-0.98227 1.19864,-2.18281 6.05244,-12.065578 13.658701,-24.665738 18.199811,-30.148928 5.17065,-6.24332 13.3326,-11.74832 20.335033,-13.71539 l 2.57713,-0.72395 -1.54275,-0.45195 c -2.63817,-0.77287 -3.896883,-0.90694 -7.585363,-0.80796 -2.51651,0.0675 -4.19728,0.25972 -5.68854,0.65048 z m 13.254603,5.4441 c -6.365953,1.84478 -14.129903,7.26226 -18.763693,13.0928 -3.16929,3.98782 -7.784091,11.32929 -12.143541,19.31861 -3.17597,5.820428 -8.74901,16.681338 -8.62388,16.806478 0.0579,0.0579 11.16799,-10.9578 24.689011,-24.479398 13.521003,-13.5216 24.522833,-24.64556 24.448483,-24.7199 -0.0743,-0.0744 -0.78363,-0.31731 -1.57621,-0.53992 -1.92311,-0.54016 -5.07285,-0.33567 -8.03017,0.52133 z M 91.614407,46.900816 C 70.487376,68.043714 67.195716,71.438814 68.331606,70.915334 c 4.90363,-2.25986 17.487411,-8.9664 23.415621,-12.4794 7.88633,-4.67335 12.398003,-8.010848 15.823413,-11.705308 5.91151,-6.37585 9.56305,-13.76445 9.6664,-19.5592 0.0389,-2.18127 -0.4336,-4.8948 -0.85234,-4.8948 -0.0905,0 -11.23716,11.08089 -24.770293,24.62419 z m 28.539283,-12.58565 c -2.00305,6.24634 -7.71327,14.4477 -13.13658,18.86756 -5.62902,4.587498 -14.960203,10.293878 -27.506853,16.821498 -2.728521,1.41956 -4.960941,2.6205 -4.960941,2.66876 0,0.13191 6.375511,-1.56837 11.906251,-3.17527 11.99612,-3.48533 21.239423,-7.19014 26.067503,-10.44809 4.24109,-2.86186 7.89389,-8.242578 9.42713,-13.886538 0.77646,-2.85821 0.85367,-9.6722 0.1394,-12.30312 -0.69188,-2.54847 -0.74574,-2.63255 -1.01688,-1.5875 -0.13215,0.50932 -0.54571,1.87854 -0.91903,3.0427 z"
       id="path117" /></g></svg>
